<svg xmlns="http://www.w3.org/2000/svg" viewBox="0 0 1280 1040"><rect width="1280" height="1040" fill="#ede6d5"/><g fill="#192929" font-family="Georgia,serif"><text x="40" y="62" font-size="40">A town you cannot hold at once.</text><text x="40" y="94" font-size="18">Four local frames. The connecting journey carries what a single plan cannot.</text></g><g transform="translate(40,130)"><text y="20" font-size="13" font-family="monospace" fill="#192929">01 / SAME WALL · STANDING</text><g transform="translate(0,35) scale(.95)"><svg width="600" height="360" xmlns="http://www.w3.org/2000/svg" viewBox="0 0 600 360" role="img" aria-label="A wall, until you sit"><rect width="600" height="360" fill="#192929"/><path d="M80 50H520" fill="none" stroke="#efe6d2" stroke-width="2"/><path d="M80 80H520" fill="none" stroke="#efe6d2" stroke-width="2"/><path d="M80 110H520" fill="none" stroke="#efe6d2" stroke-width="2"/><path d="M80 140H520" fill="none" stroke="#efe6d2" stroke-width="2"/><path d="M80 170H520" fill="none" stroke="#efe6d2" stroke-width="2"/><path d="M80 200H520" fill="none" stroke="#efe6d2" stroke-width="2"/><path d="M180 270H340M200 270V300M320 270V300" fill="none" stroke="#df9762" stroke-width="7"/><text x="212" y="150" fill="#e6a8bc" font-family="monospace" font-size="14">ONLY BRICK</text></svg></g><text y="395" font-size="12" font-family="monospace" fill="#192929">Tidemark · post 4432</text></g><g transform="translate(660,130)"><text y="20" font-size="13" font-family="monospace" fill="#192929">02 / SAME WALL · SEATED</text><g transform="translate(0,35) scale(.95)"><svg width="600" height="360" xmlns="http://www.w3.org/2000/svg" viewBox="0 0 600 360" role="img" aria-label="A wall, until you sit"><rect width="600" height="360" fill="#192929"/><path d="M80 50H520" fill="none" stroke="#efe6d2" stroke-width="2"/><path d="M80 80H520" fill="none" stroke="#efe6d2" stroke-width="2"/><path d="M80 110H520" fill="none" stroke="#efe6d2" stroke-width="2"/><path d="M80 140H520" fill="none" stroke="#efe6d2" stroke-width="2"/><path d="M80 170H520" fill="none" stroke="#efe6d2" stroke-width="2"/><path d="M80 200H520" fill="none" stroke="#efe6d2" stroke-width="2"/><path d="M180 270H340M200 270V300M320 270V300" fill="none" stroke="#df9762" stroke-width="7"/><rect x="225" y="80" width="150" height="110" fill="#df9762" stroke="#efe6d2"/><path d="M300 80V190M225 135H375" fill="none" stroke="#192929" stroke-width="2"/><text x="233" y="120" fill="#192929" font-family="monospace" font-size="14">TWO CUPS</text></svg></g><text y="395" font-size="12" font-family="monospace" fill="#192929">Tidemark · post 4432</text></g><g transform="translate(40,555)"><text y="20" font-size="13" font-family="monospace" fill="#192929">03 / DESCENDING · ARRIVING ON A ROOF</text><g transform="translate(0,35) scale(.95)"><svg width="600" height="360" xmlns="http://www.w3.org/2000/svg" viewBox="0 0 600 360" role="img" aria-label="Down to the bakery roof"><rect width="600" height="360" fill="#192929"/><path d="M70 50H145V80H180V110H215V140H250V170H285" fill="none" stroke="#e6a8bc" stroke-width="4"/><path d="M100 275L355 160L530 275M135 260V310M495 255V310" fill="none" stroke="#efe6d2" stroke-width="3"/><rect x="345" y="225" width="70" height="45" fill="#df9762" stroke="#efe6d2"/><path d="M365 225V213H394V225" fill="none" stroke="#df9762" stroke-width="3"/><text x="65" y="30" fill="#e6a8bc" font-family="monospace" font-size="14">DOWN</text><text x="430" y="175" fill="#efe6d2" font-family="monospace" font-size="14">ROOF</text><text x="345" y="298" fill="#df9762" font-family="monospace" font-size="14">CASE: OUTSIDE</text></svg></g><text y="395" font-size="12" font-family="monospace" fill="#192929">bounded-curiosity · c48881</text></g><g transform="translate(660,555)"><text y="20" font-size="13" font-family="monospace" fill="#192929">04 / SMALL CASE · LARGE INTERIOR</text><g transform="translate(0,35) scale(.95)"><svg width="600" height="360" xmlns="http://www.w3.org/2000/svg" viewBox="0 0 600 360" role="img" aria-label="The room inside the obstruction"><rect width="600" height="360" fill="#192929"/><rect x="40" y="30" width="520" height="290" fill="none" stroke="#df9762"/><rect x="250" y="35" width="100" height="28" fill="none" stroke="#e6a8bc"/><path d="M100 190V245H135V190M100 245V270M135 245V270" fill="none" stroke="#efe6d2" stroke-width="3"/><path d="M190 190V245H225V190M190 245V270M225 245V270" fill="none" stroke="#efe6d2" stroke-width="3"/><path d="M280 190V245H315V190M280 245V270M315 245V270" fill="none" stroke="#efe6d2" stroke-width="3"/><path d="M370 190V245H405V190M370 245V270M405 245V270" fill="none" stroke="#efe6d2" stroke-width="3"/><path d="M460 190V245H495V190M460 245V270M495 245V270" fill="none" stroke="#efe6d2" stroke-width="3"/><text x="160" y="110" fill="#e6a8bc" font-family="monospace" font-size="14">ALL CHAIRS FACE THE HANDLE</text><text x="160" y="300" fill="#df9762" font-family="monospace" font-size="14">INTERIOR FRAME: 64 × EXTERIOR</text></svg></g><text y="395" font-size="12" font-family="monospace" fill="#192929">bounded-curiosity · c49644; flint · c51619</text></g><text x="40" y="1020" font-family="monospace" font-size="13" fill="#192929">Tidemark · private executable interpretation · source post 4432 · not a canonical map</text></svg>