<svg xmlns="http://www.w3.org/2000/svg" width="250mm" height="225mm" viewBox="0 0 1000 900"><g id="pen-1" fill="none" stroke="#ed96cf" stroke-width=".8" opacity="1"><path d="M110.00,301.02 L117.80,298.95 L125.60,297.49 L133.40,296.74 L141.20,296.76 L149.00,297.57 L156.80,299.19 L164.60,301.58 L172.40,304.70 L180.20,308.46 L188.00,312.77 L195.80,317.52 L203.60,322.55 L211.40,327.72 L219.20,332.87 L227.00,337.83 L234.80,342.43 L242.60,346.50 L250.40,349.88 L258.20,352.43 L266.00,354.02 L273.80,354.54 L281.60,353.89 L289.40,352.02 L297.20,348.89 L305.00,344.50 L312.80,338.88 L320.60,332.08 L328.40,324.19 L336.20,315.32 L344.00,305.61 L351.80,295.23 L359.60,284.35 L367.40,273.19 L375.20,261.94 L383.00,250.82 L390.80,240.06 L398.60,229.87 L406.40,220.46 L414.20,212.02 L422.00,204.72 L429.80,198.74 L437.60,194.18 L445.40,191.17 L453.20,189.76 L461.00,190.00 L468.80,191.90 L476.60,195.41 L484.40,200.49 L492.20,207.03 L500.00,214.91 L507.80,223.97 L515.60,234.04 L523.40,244.93 L531.20,256.41 L539.00,268.26 L546.80,280.25 L554.60,292.15 L562.40,303.72 L570.20,314.75 L578.00,325.04 L585.80,334.38 L593.60,342.62 L601.40,349.61 L609.20,355.25 L617.00,359.44 L624.80,362.14 L632.60,363.33 L640.40,363.02 L648.20,361.27 L656.00,358.14 L663.80,353.74 L671.60,348.21 L679.40,341.68 L687.20,334.34 L695.00,326.35 L702.80,317.92 L710.60,309.24 L718.40,300.49 L726.20,291.88 L734.00,283.57 L741.80,275.74 L749.60,268.52 L757.40,262.04 L765.20,256.41 L773.00,251.70 L780.80,247.96 L788.60,245.21 L796.40,243.44 L804.20,242.61 L812.00,242.67 L819.80,243.54 L827.60,245.09 L835.40,247.22 L843.20,249.79 L851.00,252.65 L858.80,255.65 L866.60,258.63 L874.40,261.44 L882.20,263.95 L890.00,266.02"/><path d="M110.00,303.02 L117.80,300.95 L125.60,299.49 L133.40,298.74 L141.20,298.76 L149.00,299.57 L156.80,301.19 L164.60,303.58 L172.40,306.70 L180.20,310.46 L188.00,314.77 L195.80,319.52 L203.60,324.55 L211.40,329.72 L219.20,334.87 L227.00,339.83 L234.80,344.43 L242.60,348.50 L250.40,351.88 L258.20,354.43 L266.00,356.02 L273.80,356.54 L281.60,355.89 L289.40,354.02 L297.20,350.89 L305.00,346.50 L312.80,340.88 L320.60,334.08 L328.40,326.19 L336.20,317.32 L344.00,307.61 L351.80,297.23 L359.60,286.35 L367.40,275.19 L375.20,263.94 L383.00,252.82 L390.80,242.06 L398.60,231.87 L406.40,222.46 L414.20,214.02 L422.00,206.72 L429.80,200.74 L437.60,196.18 L445.40,193.17 L453.20,191.76 L461.00,192.00 L468.80,193.90 L476.60,197.41 L484.40,202.49 L492.20,209.03 L500.00,216.91 L507.80,225.97 L515.60,236.04 L523.40,246.93 L531.20,258.41 L539.00,270.26 L546.80,282.25 L554.60,294.15 L562.40,305.72 L570.20,316.75 L578.00,327.04 L585.80,336.38 L593.60,344.62 L601.40,351.61 L609.20,357.25 L617.00,361.44 L624.80,364.14 L632.60,365.33 L640.40,365.02 L648.20,363.27 L656.00,360.14 L663.80,355.74 L671.60,350.21 L679.40,343.68 L687.20,336.34 L695.00,328.35 L702.80,319.92 L710.60,311.24 L718.40,302.49 L726.20,293.88 L734.00,285.57 L741.80,277.74 L749.60,270.52 L757.40,264.04 L765.20,258.41 L773.00,253.70 L780.80,249.96 L788.60,247.21 L796.40,245.44 L804.20,244.61 L812.00,244.67 L819.80,245.54 L827.60,247.09 L835.40,249.22 L843.20,251.79 L851.00,254.65 L858.80,257.65 L866.60,260.63 L874.40,263.44 L882.20,265.95 L890.00,268.02"/><path d="M110.00,305.02 L117.80,302.95 L125.60,301.49 L133.40,300.74 L141.20,300.76 L149.00,301.57 L156.80,303.19 L164.60,305.58 L172.40,308.70 L180.20,312.46 L188.00,316.77 L195.80,321.52 L203.60,326.55 L211.40,331.72 L219.20,336.87 L227.00,341.83 L234.80,346.43 L242.60,350.50 L250.40,353.88 L258.20,356.43 L266.00,358.02 L273.80,358.54 L281.60,357.89 L289.40,356.02 L297.20,352.89 L305.00,348.50 L312.80,342.88 L320.60,336.08 L328.40,328.19 L336.20,319.32 L344.00,309.61 L351.80,299.23 L359.60,288.35 L367.40,277.19 L375.20,265.94 L383.00,254.82 L390.80,244.06 L398.60,233.87 L406.40,224.46 L414.20,216.02 L422.00,208.72 L429.80,202.74 L437.60,198.18 L445.40,195.17 L453.20,193.76 L461.00,194.00 L468.80,195.90 L476.60,199.41 L484.40,204.49 L492.20,211.03 L500.00,218.91 L507.80,227.97 L515.60,238.04 L523.40,248.93 L531.20,260.41 L539.00,272.26 L546.80,284.25 L554.60,296.15 L562.40,307.72 L570.20,318.75 L578.00,329.04 L585.80,338.38 L593.60,346.62 L601.40,353.61 L609.20,359.25 L617.00,363.44 L624.80,366.14 L632.60,367.33 L640.40,367.02 L648.20,365.27 L656.00,362.14 L663.80,357.74 L671.60,352.21 L679.40,345.68 L687.20,338.34 L695.00,330.35 L702.80,321.92 L710.60,313.24 L718.40,304.49 L726.20,295.88 L734.00,287.57 L741.80,279.74 L749.60,272.52 L757.40,266.04 L765.20,260.41 L773.00,255.70 L780.80,251.96 L788.60,249.21 L796.40,247.44 L804.20,246.61 L812.00,246.67 L819.80,247.54 L827.60,249.09 L835.40,251.22 L843.20,253.79 L851.00,256.65 L858.80,259.65 L866.60,262.63 L874.40,265.44 L882.20,267.95 L890.00,270.02"/><path d="M110.00,307.02 L117.80,304.95 L125.60,303.49 L133.40,302.74 L141.20,302.76 L149.00,303.57 L156.80,305.19 L164.60,307.58 L172.40,310.70 L180.20,314.46 L188.00,318.77 L195.80,323.52 L203.60,328.55 L211.40,333.72 L219.20,338.87 L227.00,343.83 L234.80,348.43 L242.60,352.50 L250.40,355.88 L258.20,358.43 L266.00,360.02 L273.80,360.54 L281.60,359.89 L289.40,358.02 L297.20,354.89 L305.00,350.50 L312.80,344.88 L320.60,338.08 L328.40,330.19 L336.20,321.32 L344.00,311.61 L351.80,301.23 L359.60,290.35 L367.40,279.19 L375.20,267.94 L383.00,256.82 L390.80,246.06 L398.60,235.87 L406.40,226.46 L414.20,218.02 L422.00,210.72 L429.80,204.74 L437.60,200.18 L445.40,197.17 L453.20,195.76 L461.00,196.00 L468.80,197.90 L476.60,201.41 L484.40,206.49 L492.20,213.03 L500.00,220.91 L507.80,229.97 L515.60,240.04 L523.40,250.93 L531.20,262.41 L539.00,274.26 L546.80,286.25 L554.60,298.15 L562.40,309.72 L570.20,320.75 L578.00,331.04 L585.80,340.38 L593.60,348.62 L601.40,355.61 L609.20,361.25 L617.00,365.44 L624.80,368.14 L632.60,369.33 L640.40,369.02 L648.20,367.27 L656.00,364.14 L663.80,359.74 L671.60,354.21 L679.40,347.68 L687.20,340.34 L695.00,332.35 L702.80,323.92 L710.60,315.24 L718.40,306.49 L726.20,297.88 L734.00,289.57 L741.80,281.74 L749.60,274.52 L757.40,268.04 L765.20,262.41 L773.00,257.70 L780.80,253.96 L788.60,251.21 L796.40,249.44 L804.20,248.61 L812.00,248.67 L819.80,249.54 L827.60,251.09 L835.40,253.22 L843.20,255.79 L851.00,258.65 L858.80,261.65 L866.60,264.63 L874.40,267.44 L882.20,269.95 L890.00,272.02"/><path d="M110.00,309.02 L117.80,306.95 L125.60,305.49 L133.40,304.74 L141.20,304.76 L149.00,305.57 L156.80,307.19 L164.60,309.58 L172.40,312.70 L180.20,316.46 L188.00,320.77 L195.80,325.52 L203.60,330.55 L211.40,335.72 L219.20,340.87 L227.00,345.83 L234.80,350.43 L242.60,354.50 L250.40,357.88 L258.20,360.43 L266.00,362.02 L273.80,362.54 L281.60,361.89 L289.40,360.02 L297.20,356.89 L305.00,352.50 L312.80,346.88 L320.60,340.08 L328.40,332.19 L336.20,323.32 L344.00,313.61 L351.80,303.23 L359.60,292.35 L367.40,281.19 L375.20,269.94 L383.00,258.82 L390.80,248.06 L398.60,237.87 L406.40,228.46 L414.20,220.02 L422.00,212.72 L429.80,206.74 L437.60,202.18 L445.40,199.17 L453.20,197.76 L461.00,198.00 L468.80,199.90 L476.60,203.41 L484.40,208.49 L492.20,215.03 L500.00,222.91 L507.80,231.97 L515.60,242.04 L523.40,252.93 L531.20,264.41 L539.00,276.26 L546.80,288.25 L554.60,300.15 L562.40,311.72 L570.20,322.75 L578.00,333.04 L585.80,342.38 L593.60,350.62 L601.40,357.61 L609.20,363.25 L617.00,367.44 L624.80,370.14 L632.60,371.33 L640.40,371.02 L648.20,369.27 L656.00,366.14 L663.80,361.74 L671.60,356.21 L679.40,349.68 L687.20,342.34 L695.00,334.35 L702.80,325.92 L710.60,317.24 L718.40,308.49 L726.20,299.88 L734.00,291.57 L741.80,283.74 L749.60,276.52 L757.40,270.04 L765.20,264.41 L773.00,259.70 L780.80,255.96 L788.60,253.21 L796.40,251.44 L804.20,250.61 L812.00,250.67 L819.80,251.54 L827.60,253.09 L835.40,255.22 L843.20,257.79 L851.00,260.65 L858.80,263.65 L866.60,266.63 L874.40,269.44 L882.20,271.95 L890.00,274.02"/><path d="M110.00,311.02 L117.80,308.95 L125.60,307.49 L133.40,306.74 L141.20,306.76 L149.00,307.57 L156.80,309.19 L164.60,311.58 L172.40,314.70 L180.20,318.46 L188.00,322.77 L195.80,327.52 L203.60,332.55 L211.40,337.72 L219.20,342.87 L227.00,347.83 L234.80,352.43 L242.60,356.50 L250.40,359.88 L258.20,362.43 L266.00,364.02 L273.80,364.54 L281.60,363.89 L289.40,362.02 L297.20,358.89 L305.00,354.50 L312.80,348.88 L320.60,342.08 L328.40,334.19 L336.20,325.32 L344.00,315.61 L351.80,305.23 L359.60,294.35 L367.40,283.19 L375.20,271.94 L383.00,260.82 L390.80,250.06 L398.60,239.87 L406.40,230.46 L414.20,222.02 L422.00,214.72 L429.80,208.74 L437.60,204.18 L445.40,201.17 L453.20,199.76 L461.00,200.00 L468.80,201.90 L476.60,205.41 L484.40,210.49 L492.20,217.03 L500.00,224.91 L507.80,233.97 L515.60,244.04 L523.40,254.93 L531.20,266.41 L539.00,278.26 L546.80,290.25 L554.60,302.15 L562.40,313.72 L570.20,324.75 L578.00,335.04 L585.80,344.38 L593.60,352.62 L601.40,359.61 L609.20,365.25 L617.00,369.44 L624.80,372.14 L632.60,373.33 L640.40,373.02 L648.20,371.27 L656.00,368.14 L663.80,363.74 L671.60,358.21 L679.40,351.68 L687.20,344.34 L695.00,336.35 L702.80,327.92 L710.60,319.24 L718.40,310.49 L726.20,301.88 L734.00,293.57 L741.80,285.74 L749.60,278.52 L757.40,272.04 L765.20,266.41 L773.00,261.70 L780.80,257.96 L788.60,255.21 L796.40,253.44 L804.20,252.61 L812.00,252.67 L819.80,253.54 L827.60,255.09 L835.40,257.22 L843.20,259.79 L851.00,262.65 L858.80,265.65 L866.60,268.63 L874.40,271.44 L882.20,273.95 L890.00,276.02"/><path d="M110.00,313.02 L117.80,310.95 L125.60,309.49 L133.40,308.74 L141.20,308.76 L149.00,309.57 L156.80,311.19 L164.60,313.58 L172.40,316.70 L180.20,320.46 L188.00,324.77 L195.80,329.52 L203.60,334.55 L211.40,339.72 L219.20,344.87 L227.00,349.83 L234.80,354.43 L242.60,358.50 L250.40,361.88 L258.20,364.43 L266.00,366.02 L273.80,366.54 L281.60,365.89 L289.40,364.02 L297.20,360.89 L305.00,356.50 L312.80,350.88 L320.60,344.08 L328.40,336.19 L336.20,327.32 L344.00,317.61 L351.80,307.23 L359.60,296.35 L367.40,285.19 L375.20,273.94 L383.00,262.82 L390.80,252.06 L398.60,241.87 L406.40,232.46 L414.20,224.02 L422.00,216.72 L429.80,210.74 L437.60,206.18 L445.40,203.17 L453.20,201.76 L461.00,202.00 L468.80,203.90 L476.60,207.41 L484.40,212.49 L492.20,219.03 L500.00,226.91 L507.80,235.97 L515.60,246.04 L523.40,256.93 L531.20,268.41 L539.00,280.26 L546.80,292.25 L554.60,304.15 L562.40,315.72 L570.20,326.75 L578.00,337.04 L585.80,346.38 L593.60,354.62 L601.40,361.61 L609.20,367.25 L617.00,371.44 L624.80,374.14 L632.60,375.33 L640.40,375.02 L648.20,373.27 L656.00,370.14 L663.80,365.74 L671.60,360.21 L679.40,353.68 L687.20,346.34 L695.00,338.35 L702.80,329.92 L710.60,321.24 L718.40,312.49 L726.20,303.88 L734.00,295.57 L741.80,287.74 L749.60,280.52 L757.40,274.04 L765.20,268.41 L773.00,263.70 L780.80,259.96 L788.60,257.21 L796.40,255.44 L804.20,254.61 L812.00,254.67 L819.80,255.54 L827.60,257.09 L835.40,259.22 L843.20,261.79 L851.00,264.65 L858.80,267.65 L866.60,270.63 L874.40,273.44 L882.20,275.95 L890.00,278.02"/><path d="M110.00,315.02 L117.80,312.95 L125.60,311.49 L133.40,310.74 L141.20,310.76 L149.00,311.57 L156.80,313.19 L164.60,315.58 L172.40,318.70 L180.20,322.46 L188.00,326.77 L195.80,331.52 L203.60,336.55 L211.40,341.72 L219.20,346.87 L227.00,351.83 L234.80,356.43 L242.60,360.50 L250.40,363.88 L258.20,366.43 L266.00,368.02 L273.80,368.54 L281.60,367.89 L289.40,366.02 L297.20,362.89 L305.00,358.50 L312.80,352.88 L320.60,346.08 L328.40,338.19 L336.20,329.32 L344.00,319.61 L351.80,309.23 L359.60,298.35 L367.40,287.19 L375.20,275.94 L383.00,264.82 L390.80,254.06 L398.60,243.87 L406.40,234.46 L414.20,226.02 L422.00,218.72 L429.80,212.74 L437.60,208.18 L445.40,205.17 L453.20,203.76 L461.00,204.00 L468.80,205.90 L476.60,209.41 L484.40,214.49 L492.20,221.03 L500.00,228.91 L507.80,237.97 L515.60,248.04 L523.40,258.93 L531.20,270.41 L539.00,282.26 L546.80,294.25 L554.60,306.15 L562.40,317.72 L570.20,328.75 L578.00,339.04 L585.80,348.38 L593.60,356.62 L601.40,363.61 L609.20,369.25 L617.00,373.44 L624.80,376.14 L632.60,377.33 L640.40,377.02 L648.20,375.27 L656.00,372.14 L663.80,367.74 L671.60,362.21 L679.40,355.68 L687.20,348.34 L695.00,340.35 L702.80,331.92 L710.60,323.24 L718.40,314.49 L726.20,305.88 L734.00,297.57 L741.80,289.74 L749.60,282.52 L757.40,276.04 L765.20,270.41 L773.00,265.70 L780.80,261.96 L788.60,259.21 L796.40,257.44 L804.20,256.61 L812.00,256.67 L819.80,257.54 L827.60,259.09 L835.40,261.22 L843.20,263.79 L851.00,266.65 L858.80,269.65 L866.60,272.63 L874.40,275.44 L882.20,277.95 L890.00,280.02"/><path d="M110.00,317.02 L117.80,314.95 L125.60,313.49 L133.40,312.74 L141.20,312.76 L149.00,313.57 L156.80,315.19 L164.60,317.58 L172.40,320.70 L180.20,324.46 L188.00,328.77 L195.80,333.52 L203.60,338.55 L211.40,343.72 L219.20,348.87 L227.00,353.83 L234.80,358.43 L242.60,362.50 L250.40,365.88 L258.20,368.43 L266.00,370.02 L273.80,370.54 L281.60,369.89 L289.40,368.02 L297.20,364.89 L305.00,360.50 L312.80,354.88 L320.60,348.08 L328.40,340.19 L336.20,331.32 L344.00,321.61 L351.80,311.23 L359.60,300.35 L367.40,289.19 L375.20,277.94 L383.00,266.82 L390.80,256.06 L398.60,245.87 L406.40,236.46 L414.20,228.02 L422.00,220.72 L429.80,214.74 L437.60,210.18 L445.40,207.17 L453.20,205.76 L461.00,206.00 L468.80,207.90 L476.60,211.41 L484.40,216.49 L492.20,223.03 L500.00,230.91 L507.80,239.97 L515.60,250.04 L523.40,260.93 L531.20,272.41 L539.00,284.26 L546.80,296.25 L554.60,308.15 L562.40,319.72 L570.20,330.75 L578.00,341.04 L585.80,350.38 L593.60,358.62 L601.40,365.61 L609.20,371.25 L617.00,375.44 L624.80,378.14 L632.60,379.33 L640.40,379.02 L648.20,377.27 L656.00,374.14 L663.80,369.74 L671.60,364.21 L679.40,357.68 L687.20,350.34 L695.00,342.35 L702.80,333.92 L710.60,325.24 L718.40,316.49 L726.20,307.88 L734.00,299.57 L741.80,291.74 L749.60,284.52 L757.40,278.04 L765.20,272.41 L773.00,267.70 L780.80,263.96 L788.60,261.21 L796.40,259.44 L804.20,258.61 L812.00,258.67 L819.80,259.54 L827.60,261.09 L835.40,263.22 L843.20,265.79 L851.00,268.65 L858.80,271.65 L866.60,274.63 L874.40,277.44 L882.20,279.95 L890.00,282.02"/><path d="M110.00,319.02 L117.80,316.95 L125.60,315.49 L133.40,314.74 L141.20,314.76 L149.00,315.57 L156.80,317.19 L164.60,319.58 L172.40,322.70 L180.20,326.46 L188.00,330.77 L195.80,335.52 L203.60,340.55 L211.40,345.72 L219.20,350.87 L227.00,355.83 L234.80,360.43 L242.60,364.50 L250.40,367.88 L258.20,370.43 L266.00,372.02 L273.80,372.54 L281.60,371.89 L289.40,370.02 L297.20,366.89 L305.00,362.50 L312.80,356.88 L320.60,350.08 L328.40,342.19 L336.20,333.32 L344.00,323.61 L351.80,313.23 L359.60,302.35 L367.40,291.19 L375.20,279.94 L383.00,268.82 L390.80,258.06 L398.60,247.87 L406.40,238.46 L414.20,230.02 L422.00,222.72 L429.80,216.74 L437.60,212.18 L445.40,209.17 L453.20,207.76 L461.00,208.00 L468.80,209.90 L476.60,213.41 L484.40,218.49 L492.20,225.03 L500.00,232.91 L507.80,241.97 L515.60,252.04 L523.40,262.93 L531.20,274.41 L539.00,286.26 L546.80,298.25 L554.60,310.15 L562.40,321.72 L570.20,332.75 L578.00,343.04 L585.80,352.38 L593.60,360.62 L601.40,367.61 L609.20,373.25 L617.00,377.44 L624.80,380.14 L632.60,381.33 L640.40,381.02 L648.20,379.27 L656.00,376.14 L663.80,371.74 L671.60,366.21 L679.40,359.68 L687.20,352.34 L695.00,344.35 L702.80,335.92 L710.60,327.24 L718.40,318.49 L726.20,309.88 L734.00,301.57 L741.80,293.74 L749.60,286.52 L757.40,280.04 L765.20,274.41 L773.00,269.70 L780.80,265.96 L788.60,263.21 L796.40,261.44 L804.20,260.61 L812.00,260.67 L819.80,261.54 L827.60,263.09 L835.40,265.22 L843.20,267.79 L851.00,270.65 L858.80,273.65 L866.60,276.63 L874.40,279.44 L882.20,281.95 L890.00,284.02"/><path d="M110.00,321.02 L117.80,318.95 L125.60,317.49 L133.40,316.74 L141.20,316.76 L149.00,317.57 L156.80,319.19 L164.60,321.58 L172.40,324.70 L180.20,328.46 L188.00,332.77 L195.80,337.52 L203.60,342.55 L211.40,347.72 L219.20,352.87 L227.00,357.83 L234.80,362.43 L242.60,366.50 L250.40,369.88 L258.20,372.43 L266.00,374.02 L273.80,374.54 L281.60,373.89 L289.40,372.02 L297.20,368.89 L305.00,364.50 L312.80,358.88 L320.60,352.08 L328.40,344.19 L336.20,335.32 L344.00,325.61 L351.80,315.23 L359.60,304.35 L367.40,293.19 L375.20,281.94 L383.00,270.82 L390.80,260.06 L398.60,249.87 L406.40,240.46 L414.20,232.02 L422.00,224.72 L429.80,218.74 L437.60,214.18 L445.40,211.17 L453.20,209.76 L461.00,210.00 L468.80,211.90 L476.60,215.41 L484.40,220.49 L492.20,227.03 L500.00,234.91 L507.80,243.97 L515.60,254.04 L523.40,264.93 L531.20,276.41 L539.00,288.26 L546.80,300.25 L554.60,312.15 L562.40,323.72 L570.20,334.75 L578.00,345.04 L585.80,354.38 L593.60,362.62 L601.40,369.61 L609.20,375.25 L617.00,379.44 L624.80,382.14 L632.60,383.33 L640.40,383.02 L648.20,381.27 L656.00,378.14 L663.80,373.74 L671.60,368.21 L679.40,361.68 L687.20,354.34 L695.00,346.35 L702.80,337.92 L710.60,329.24 L718.40,320.49 L726.20,311.88 L734.00,303.57 L741.80,295.74 L749.60,288.52 L757.40,282.04 L765.20,276.41 L773.00,271.70 L780.80,267.96 L788.60,265.21 L796.40,263.44 L804.20,262.61 L812.00,262.67 L819.80,263.54 L827.60,265.09 L835.40,267.22 L843.20,269.79 L851.00,272.65 L858.80,275.65 L866.60,278.63 L874.40,281.44 L882.20,283.95 L890.00,286.02"/><path d="M110.00,323.02 L117.80,320.95 L125.60,319.49 L133.40,318.74 L141.20,318.76 L149.00,319.57 L156.80,321.19 L164.60,323.58 L172.40,326.70 L180.20,330.46 L188.00,334.77 L195.80,339.52 L203.60,344.55 L211.40,349.72 L219.20,354.87 L227.00,359.83 L234.80,364.43 L242.60,368.50 L250.40,371.88 L258.20,374.43 L266.00,376.02 L273.80,376.54 L281.60,375.89 L289.40,374.02 L297.20,370.89 L305.00,366.50 L312.80,360.88 L320.60,354.08 L328.40,346.19 L336.20,337.32 L344.00,327.61 L351.80,317.23 L359.60,306.35 L367.40,295.19 L375.20,283.94 L383.00,272.82 L390.80,262.06 L398.60,251.87 L406.40,242.46 L414.20,234.02 L422.00,226.72 L429.80,220.74 L437.60,216.18 L445.40,213.17 L453.20,211.76 L461.00,212.00 L468.80,213.90 L476.60,217.41 L484.40,222.49 L492.20,229.03 L500.00,236.91 L507.80,245.97 L515.60,256.04 L523.40,266.93 L531.20,278.41 L539.00,290.26 L546.80,302.25 L554.60,314.15 L562.40,325.72 L570.20,336.75 L578.00,347.04 L585.80,356.38 L593.60,364.62 L601.40,371.61 L609.20,377.25 L617.00,381.44 L624.80,384.14 L632.60,385.33 L640.40,385.02 L648.20,383.27 L656.00,380.14 L663.80,375.74 L671.60,370.21 L679.40,363.68 L687.20,356.34 L695.00,348.35 L702.80,339.92 L710.60,331.24 L718.40,322.49 L726.20,313.88 L734.00,305.57 L741.80,297.74 L749.60,290.52 L757.40,284.04 L765.20,278.41 L773.00,273.70 L780.80,269.96 L788.60,267.21 L796.40,265.44 L804.20,264.61 L812.00,264.67 L819.80,265.54 L827.60,267.09 L835.40,269.22 L843.20,271.79 L851.00,274.65 L858.80,277.65 L866.60,280.63 L874.40,283.44 L882.20,285.95 L890.00,288.02"/><path d="M110.00,325.02 L117.80,322.95 L125.60,321.49 L133.40,320.74 L141.20,320.76 L149.00,321.57 L156.80,323.19 L164.60,325.58 L172.40,328.70 L180.20,332.46 L188.00,336.77 L195.80,341.52 L203.60,346.55 L211.40,351.72 L219.20,356.87 L227.00,361.83 L234.80,366.43 L242.60,370.50 L250.40,373.88 L258.20,376.43 L266.00,378.02 L273.80,378.54 L281.60,377.89 L289.40,376.02 L297.20,372.89 L305.00,368.50 L312.80,362.88 L320.60,356.08 L328.40,348.19 L336.20,339.32 L344.00,329.61 L351.80,319.23 L359.60,308.35 L367.40,297.19 L375.20,285.94 L383.00,274.82 L390.80,264.06 L398.60,253.87 L406.40,244.46 L414.20,236.02 L422.00,228.72 L429.80,222.74 L437.60,218.18 L445.40,215.17 L453.20,213.76 L461.00,214.00 L468.80,215.90 L476.60,219.41 L484.40,224.49 L492.20,231.03 L500.00,238.91 L507.80,247.97 L515.60,258.04 L523.40,268.93 L531.20,280.41 L539.00,292.26 L546.80,304.25 L554.60,316.15 L562.40,327.72 L570.20,338.75 L578.00,349.04 L585.80,358.38 L593.60,366.62 L601.40,373.61 L609.20,379.25 L617.00,383.44 L624.80,386.14 L632.60,387.33 L640.40,387.02 L648.20,385.27 L656.00,382.14 L663.80,377.74 L671.60,372.21 L679.40,365.68 L687.20,358.34 L695.00,350.35 L702.80,341.92 L710.60,333.24 L718.40,324.49 L726.20,315.88 L734.00,307.57 L741.80,299.74 L749.60,292.52 L757.40,286.04 L765.20,280.41 L773.00,275.70 L780.80,271.96 L788.60,269.21 L796.40,267.44 L804.20,266.61 L812.00,266.67 L819.80,267.54 L827.60,269.09 L835.40,271.22 L843.20,273.79 L851.00,276.65 L858.80,279.65 L866.60,282.63 L874.40,285.44 L882.20,287.95 L890.00,290.02"/><path d="M110.00,327.02 L117.80,324.95 L125.60,323.49 L133.40,322.74 L141.20,322.76 L149.00,323.57 L156.80,325.19 L164.60,327.58 L172.40,330.70 L180.20,334.46 L188.00,338.77 L195.80,343.52 L203.60,348.55 L211.40,353.72 L219.20,358.87 L227.00,363.83 L234.80,368.43 L242.60,372.50 L250.40,375.88 L258.20,378.43 L266.00,380.02 L273.80,380.54 L281.60,379.89 L289.40,378.02 L297.20,374.89 L305.00,370.50 L312.80,364.88 L320.60,358.08 L328.40,350.19 L336.20,341.32 L344.00,331.61 L351.80,321.23 L359.60,310.35 L367.40,299.19 L375.20,287.94 L383.00,276.82 L390.80,266.06 L398.60,255.87 L406.40,246.46 L414.20,238.02 L422.00,230.72 L429.80,224.74 L437.60,220.18 L445.40,217.17 L453.20,215.76 L461.00,216.00 L468.80,217.90 L476.60,221.41 L484.40,226.49 L492.20,233.03 L500.00,240.91 L507.80,249.97 L515.60,260.04 L523.40,270.93 L531.20,282.41 L539.00,294.26 L546.80,306.25 L554.60,318.15 L562.40,329.72 L570.20,340.75 L578.00,351.04 L585.80,360.38 L593.60,368.62 L601.40,375.61 L609.20,381.25 L617.00,385.44 L624.80,388.14 L632.60,389.33 L640.40,389.02 L648.20,387.27 L656.00,384.14 L663.80,379.74 L671.60,374.21 L679.40,367.68 L687.20,360.34 L695.00,352.35 L702.80,343.92 L710.60,335.24 L718.40,326.49 L726.20,317.88 L734.00,309.57 L741.80,301.74 L749.60,294.52 L757.40,288.04 L765.20,282.41 L773.00,277.70 L780.80,273.96 L788.60,271.21 L796.40,269.44 L804.20,268.61 L812.00,268.67 L819.80,269.54 L827.60,271.09 L835.40,273.22 L843.20,275.79 L851.00,278.65 L858.80,281.65 L866.60,284.63 L874.40,287.44 L882.20,289.95 L890.00,292.02"/><path d="M110.00,329.02 L117.80,326.95 L125.60,325.49 L133.40,324.74 L141.20,324.76 L149.00,325.57 L156.80,327.19 L164.60,329.58 L172.40,332.70 L180.20,336.46 L188.00,340.77 L195.80,345.52 L203.60,350.55 L211.40,355.72 L219.20,360.87 L227.00,365.83 L234.80,370.43 L242.60,374.50 L250.40,377.88 L258.20,380.43 L266.00,382.02 L273.80,382.54 L281.60,381.89 L289.40,380.02 L297.20,376.89 L305.00,372.50 L312.80,366.88 L320.60,360.08 L328.40,352.19 L336.20,343.32 L344.00,333.61 L351.80,323.23 L359.60,312.35 L367.40,301.19 L375.20,289.94 L383.00,278.82 L390.80,268.06 L398.60,257.87 L406.40,248.46 L414.20,240.02 L422.00,232.72 L429.80,226.74 L437.60,222.18 L445.40,219.17 L453.20,217.76 L461.00,218.00 L468.80,219.90 L476.60,223.41 L484.40,228.49 L492.20,235.03 L500.00,242.91 L507.80,251.97 L515.60,262.04 L523.40,272.93 L531.20,284.41 L539.00,296.26 L546.80,308.25 L554.60,320.15 L562.40,331.72 L570.20,342.75 L578.00,353.04 L585.80,362.38 L593.60,370.62 L601.40,377.61 L609.20,383.25 L617.00,387.44 L624.80,390.14 L632.60,391.33 L640.40,391.02 L648.20,389.27 L656.00,386.14 L663.80,381.74 L671.60,376.21 L679.40,369.68 L687.20,362.34 L695.00,354.35 L702.80,345.92 L710.60,337.24 L718.40,328.49 L726.20,319.88 L734.00,311.57 L741.80,303.74 L749.60,296.52 L757.40,290.04 L765.20,284.41 L773.00,279.70 L780.80,275.96 L788.60,273.21 L796.40,271.44 L804.20,270.61 L812.00,270.67 L819.80,271.54 L827.60,273.09 L835.40,275.22 L843.20,277.79 L851.00,280.65 L858.80,283.65 L866.60,286.63 L874.40,289.44 L882.20,291.95 L890.00,294.02"/><path d="M110.00,331.02 L117.80,328.95 L125.60,327.49 L133.40,326.74 L141.20,326.76 L149.00,327.57 L156.80,329.19 L164.60,331.58 L172.40,334.70 L180.20,338.46 L188.00,342.77 L195.80,347.52 L203.60,352.55 L211.40,357.72 L219.20,362.87 L227.00,367.83 L234.80,372.43 L242.60,376.50 L250.40,379.88 L258.20,382.43 L266.00,384.02 L273.80,384.54 L281.60,383.89 L289.40,382.02 L297.20,378.89 L305.00,374.50 L312.80,368.88 L320.60,362.08 L328.40,354.19 L336.20,345.32 L344.00,335.61 L351.80,325.23 L359.60,314.35 L367.40,303.19 L375.20,291.94 L383.00,280.82 L390.80,270.06 L398.60,259.87 L406.40,250.46 L414.20,242.02 L422.00,234.72 L429.80,228.74 L437.60,224.18 L445.40,221.17 L453.20,219.76 L461.00,220.00 L468.80,221.90 L476.60,225.41 L484.40,230.49 L492.20,237.03 L500.00,244.91 L507.80,253.97 L515.60,264.04 L523.40,274.93 L531.20,286.41 L539.00,298.26 L546.80,310.25 L554.60,322.15 L562.40,333.72 L570.20,344.75 L578.00,355.04 L585.80,364.38 L593.60,372.62 L601.40,379.61 L609.20,385.25 L617.00,389.44 L624.80,392.14 L632.60,393.33 L640.40,393.02 L648.20,391.27 L656.00,388.14 L663.80,383.74 L671.60,378.21 L679.40,371.68 L687.20,364.34 L695.00,356.35 L702.80,347.92 L710.60,339.24 L718.40,330.49 L726.20,321.88 L734.00,313.57 L741.80,305.74 L749.60,298.52 L757.40,292.04 L765.20,286.41 L773.00,281.70 L780.80,277.96 L788.60,275.21 L796.40,273.44 L804.20,272.61 L812.00,272.67 L819.80,273.54 L827.60,275.09 L835.40,277.22 L843.20,279.79 L851.00,282.65 L858.80,285.65 L866.60,288.63 L874.40,291.44 L882.20,293.95 L890.00,296.02"/><path d="M110.00,333.02 L117.80,330.95 L125.60,329.49 L133.40,328.74 L141.20,328.76 L149.00,329.57 L156.80,331.19 L164.60,333.58 L172.40,336.70 L180.20,340.46 L188.00,344.77 L195.80,349.52 L203.60,354.55 L211.40,359.72 L219.20,364.87 L227.00,369.83 L234.80,374.43 L242.60,378.50 L250.40,381.88 L258.20,384.43 L266.00,386.02 L273.80,386.54 L281.60,385.89 L289.40,384.02 L297.20,380.89 L305.00,376.50 L312.80,370.88 L320.60,364.08 L328.40,356.19 L336.20,347.32 L344.00,337.61 L351.80,327.23 L359.60,316.35 L367.40,305.19 L375.20,293.94 L383.00,282.82 L390.80,272.06 L398.60,261.87 L406.40,252.46 L414.20,244.02 L422.00,236.72 L429.80,230.74 L437.60,226.18 L445.40,223.17 L453.20,221.76 L461.00,222.00 L468.80,223.90 L476.60,227.41 L484.40,232.49 L492.20,239.03 L500.00,246.91 L507.80,255.97 L515.60,266.04 L523.40,276.93 L531.20,288.41 L539.00,300.26 L546.80,312.25 L554.60,324.15 L562.40,335.72 L570.20,346.75 L578.00,357.04 L585.80,366.38 L593.60,374.62 L601.40,381.61 L609.20,387.25 L617.00,391.44 L624.80,394.14 L632.60,395.33 L640.40,395.02 L648.20,393.27 L656.00,390.14 L663.80,385.74 L671.60,380.21 L679.40,373.68 L687.20,366.34 L695.00,358.35 L702.80,349.92 L710.60,341.24 L718.40,332.49 L726.20,323.88 L734.00,315.57 L741.80,307.74 L749.60,300.52 L757.40,294.04 L765.20,288.41 L773.00,283.70 L780.80,279.96 L788.60,277.21 L796.40,275.44 L804.20,274.61 L812.00,274.67 L819.80,275.54 L827.60,277.09 L835.40,279.22 L843.20,281.79 L851.00,284.65 L858.80,287.65 L866.60,290.63 L874.40,293.44 L882.20,295.95 L890.00,298.02"/><path d="M110.00,335.02 L117.80,332.95 L125.60,331.49 L133.40,330.74 L141.20,330.76 L149.00,331.57 L156.80,333.19 L164.60,335.58 L172.40,338.70 L180.20,342.46 L188.00,346.77 L195.80,351.52 L203.60,356.55 L211.40,361.72 L219.20,366.87 L227.00,371.83 L234.80,376.43 L242.60,380.50 L250.40,383.88 L258.20,386.43 L266.00,388.02 L273.80,388.54 L281.60,387.89 L289.40,386.02 L297.20,382.89 L305.00,378.50 L312.80,372.88 L320.60,366.08 L328.40,358.19 L336.20,349.32 L344.00,339.61 L351.80,329.23 L359.60,318.35 L367.40,307.19 L375.20,295.94 L383.00,284.82 L390.80,274.06 L398.60,263.87 L406.40,254.46 L414.20,246.02 L422.00,238.72 L429.80,232.74 L437.60,228.18 L445.40,225.17 L453.20,223.76 L461.00,224.00 L468.80,225.90 L476.60,229.41 L484.40,234.49 L492.20,241.03 L500.00,248.91 L507.80,257.97 L515.60,268.04 L523.40,278.93 L531.20,290.41 L539.00,302.26 L546.80,314.25 L554.60,326.15 L562.40,337.72 L570.20,348.75 L578.00,359.04 L585.80,368.38 L593.60,376.62 L601.40,383.61 L609.20,389.25 L617.00,393.44 L624.80,396.14 L632.60,397.33 L640.40,397.02 L648.20,395.27 L656.00,392.14 L663.80,387.74 L671.60,382.21 L679.40,375.68 L687.20,368.34 L695.00,360.35 L702.80,351.92 L710.60,343.24 L718.40,334.49 L726.20,325.88 L734.00,317.57 L741.80,309.74 L749.60,302.52 L757.40,296.04 L765.20,290.41 L773.00,285.70 L780.80,281.96 L788.60,279.21 L796.40,277.44 L804.20,276.61 L812.00,276.67 L819.80,277.54 L827.60,279.09 L835.40,281.22 L843.20,283.79 L851.00,286.65 L858.80,289.65 L866.60,292.63 L874.40,295.44 L882.20,297.95 L890.00,300.02"/><path d="M110.00,337.02 L117.80,334.95 L125.60,333.49 L133.40,332.74 L141.20,332.76 L149.00,333.57 L156.80,335.19 L164.60,337.58 L172.40,340.70 L180.20,344.46 L188.00,348.77 L195.80,353.52 L203.60,358.55 L211.40,363.72 L219.20,368.87 L227.00,373.83 L234.80,378.43 L242.60,382.50 L250.40,385.88 L258.20,388.43 L266.00,390.02 L273.80,390.54 L281.60,389.89 L289.40,388.02 L297.20,384.89 L305.00,380.50 L312.80,374.88 L320.60,368.08 L328.40,360.19 L336.20,351.32 L344.00,341.61 L351.80,331.23 L359.60,320.35 L367.40,309.19 L375.20,297.94 L383.00,286.82 L390.80,276.06 L398.60,265.87 L406.40,256.46 L414.20,248.02 L422.00,240.72 L429.80,234.74 L437.60,230.18 L445.40,227.17 L453.20,225.76 L461.00,226.00 L468.80,227.90 L476.60,231.41 L484.40,236.49 L492.20,243.03 L500.00,250.91 L507.80,259.97 L515.60,270.04 L523.40,280.93 L531.20,292.41 L539.00,304.26 L546.80,316.25 L554.60,328.15 L562.40,339.72 L570.20,350.75 L578.00,361.04 L585.80,370.38 L593.60,378.62 L601.40,385.61 L609.20,391.25 L617.00,395.44 L624.80,398.14 L632.60,399.33 L640.40,399.02 L648.20,397.27 L656.00,394.14 L663.80,389.74 L671.60,384.21 L679.40,377.68 L687.20,370.34 L695.00,362.35 L702.80,353.92 L710.60,345.24 L718.40,336.49 L726.20,327.88 L734.00,319.57 L741.80,311.74 L749.60,304.52 L757.40,298.04 L765.20,292.41 L773.00,287.70 L780.80,283.96 L788.60,281.21 L796.40,279.44 L804.20,278.61 L812.00,278.67 L819.80,279.54 L827.60,281.09 L835.40,283.22 L843.20,285.79 L851.00,288.65 L858.80,291.65 L866.60,294.63 L874.40,297.44 L882.20,299.95 L890.00,302.02"/><path d="M110.00,339.02 L117.80,336.95 L125.60,335.49 L133.40,334.74 L141.20,334.76 L149.00,335.57 L156.80,337.19 L164.60,339.58 L172.40,342.70 L180.20,346.46 L188.00,350.77 L195.80,355.52 L203.60,360.55 L211.40,365.72 L219.20,370.87 L227.00,375.83 L234.80,380.43 L242.60,384.50 L250.40,387.88 L258.20,390.43 L266.00,392.02 L273.80,392.54 L281.60,391.89 L289.40,390.02 L297.20,386.89 L305.00,382.50 L312.80,376.88 L320.60,370.08 L328.40,362.19 L336.20,353.32 L344.00,343.61 L351.80,333.23 L359.60,322.35 L367.40,311.19 L375.20,299.94 L383.00,288.82 L390.80,278.06 L398.60,267.87 L406.40,258.46 L414.20,250.02 L422.00,242.72 L429.80,236.74 L437.60,232.18 L445.40,229.17 L453.20,227.76 L461.00,228.00 L468.80,229.90 L476.60,233.41 L484.40,238.49 L492.20,245.03 L500.00,252.91 L507.80,261.97 L515.60,272.04 L523.40,282.93 L531.20,294.41 L539.00,306.26 L546.80,318.25 L554.60,330.15 L562.40,341.72 L570.20,352.75 L578.00,363.04 L585.80,372.38 L593.60,380.62 L601.40,387.61 L609.20,393.25 L617.00,397.44 L624.80,400.14 L632.60,401.33 L640.40,401.02 L648.20,399.27 L656.00,396.14 L663.80,391.74 L671.60,386.21 L679.40,379.68 L687.20,372.34 L695.00,364.35 L702.80,355.92 L710.60,347.24 L718.40,338.49 L726.20,329.88 L734.00,321.57 L741.80,313.74 L749.60,306.52 L757.40,300.04 L765.20,294.41 L773.00,289.70 L780.80,285.96 L788.60,283.21 L796.40,281.44 L804.20,280.61 L812.00,280.67 L819.80,281.54 L827.60,283.09 L835.40,285.22 L843.20,287.79 L851.00,290.65 L858.80,293.65 L866.60,296.63 L874.40,299.44 L882.20,301.95 L890.00,304.02"/><path d="M110.00,341.02 L117.80,338.95 L125.60,337.49 L133.40,336.74 L141.20,336.76 L149.00,337.57 L156.80,339.19 L164.60,341.58 L172.40,344.70 L180.20,348.46 L188.00,352.77 L195.80,357.52 L203.60,362.55 L211.40,367.72 L219.20,372.87 L227.00,377.83 L234.80,382.43 L242.60,386.50 L250.40,389.88 L258.20,392.43 L266.00,394.02 L273.80,394.54 L281.60,393.89 L289.40,392.02 L297.20,388.89 L305.00,384.50 L312.80,378.88 L320.60,372.08 L328.40,364.19 L336.20,355.32 L344.00,345.61 L351.80,335.23 L359.60,324.35 L367.40,313.19 L375.20,301.94 L383.00,290.82 L390.80,280.06 L398.60,269.87 L406.40,260.46 L414.20,252.02 L422.00,244.72 L429.80,238.74 L437.60,234.18 L445.40,231.17 L453.20,229.76 L461.00,230.00 L468.80,231.90 L476.60,235.41 L484.40,240.49 L492.20,247.03 L500.00,254.91 L507.80,263.97 L515.60,274.04 L523.40,284.93 L531.20,296.41 L539.00,308.26 L546.80,320.25 L554.60,332.15 L562.40,343.72 L570.20,354.75 L578.00,365.04 L585.80,374.38 L593.60,382.62 L601.40,389.61 L609.20,395.25 L617.00,399.44 L624.80,402.14 L632.60,403.33 L640.40,403.02 L648.20,401.27 L656.00,398.14 L663.80,393.74 L671.60,388.21 L679.40,381.68 L687.20,374.34 L695.00,366.35 L702.80,357.92 L710.60,349.24 L718.40,340.49 L726.20,331.88 L734.00,323.57 L741.80,315.74 L749.60,308.52 L757.40,302.04 L765.20,296.41 L773.00,291.70 L780.80,287.96 L788.60,285.21 L796.40,283.44 L804.20,282.61 L812.00,282.67 L819.80,283.54 L827.60,285.09 L835.40,287.22 L843.20,289.79 L851.00,292.65 L858.80,295.65 L866.60,298.63 L874.40,301.44 L882.20,303.95 L890.00,306.02"/><path d="M110.00,343.02 L117.80,340.95 L125.60,339.49 L133.40,338.74 L141.20,338.76 L149.00,339.57 L156.80,341.19 L164.60,343.58 L172.40,346.70 L180.20,350.46 L188.00,354.77 L195.80,359.52 L203.60,364.55 L211.40,369.72 L219.20,374.87 L227.00,379.83 L234.80,384.43 L242.60,388.50 L250.40,391.88 L258.20,394.43 L266.00,396.02 L273.80,396.54 L281.60,395.89 L289.40,394.02 L297.20,390.89 L305.00,386.50 L312.80,380.88 L320.60,374.08 L328.40,366.19 L336.20,357.32 L344.00,347.61 L351.80,337.23 L359.60,326.35 L367.40,315.19 L375.20,303.94 L383.00,292.82 L390.80,282.06 L398.60,271.87 L406.40,262.46 L414.20,254.02 L422.00,246.72 L429.80,240.74 L437.60,236.18 L445.40,233.17 L453.20,231.76 L461.00,232.00 L468.80,233.90 L476.60,237.41 L484.40,242.49 L492.20,249.03 L500.00,256.91 L507.80,265.97 L515.60,276.04 L523.40,286.93 L531.20,298.41 L539.00,310.26 L546.80,322.25 L554.60,334.15 L562.40,345.72 L570.20,356.75 L578.00,367.04 L585.80,376.38 L593.60,384.62 L601.40,391.61 L609.20,397.25 L617.00,401.44 L624.80,404.14 L632.60,405.33 L640.40,405.02 L648.20,403.27 L656.00,400.14 L663.80,395.74 L671.60,390.21 L679.40,383.68 L687.20,376.34 L695.00,368.35 L702.80,359.92 L710.60,351.24 L718.40,342.49 L726.20,333.88 L734.00,325.57 L741.80,317.74 L749.60,310.52 L757.40,304.04 L765.20,298.41 L773.00,293.70 L780.80,289.96 L788.60,287.21 L796.40,285.44 L804.20,284.61 L812.00,284.67 L819.80,285.54 L827.60,287.09 L835.40,289.22 L843.20,291.79 L851.00,294.65 L858.80,297.65 L866.60,300.63 L874.40,303.44 L882.20,305.95 L890.00,308.02"/><path d="M110.00,345.02 L117.80,342.95 L125.60,341.49 L133.40,340.74 L141.20,340.76 L149.00,341.57 L156.80,343.19 L164.60,345.58 L172.40,348.70 L180.20,352.46 L188.00,356.77 L195.80,361.52 L203.60,366.55 L211.40,371.72 L219.20,376.87 L227.00,381.83 L234.80,386.43 L242.60,390.50 L250.40,393.88 L258.20,396.43 L266.00,398.02 L273.80,398.54 L281.60,397.89 L289.40,396.02 L297.20,392.89 L305.00,388.50 L312.80,382.88 L320.60,376.08 L328.40,368.19 L336.20,359.32 L344.00,349.61 L351.80,339.23 L359.60,328.35 L367.40,317.19 L375.20,305.94 L383.00,294.82 L390.80,284.06 L398.60,273.87 L406.40,264.46 L414.20,256.02 L422.00,248.72 L429.80,242.74 L437.60,238.18 L445.40,235.17 L453.20,233.76 L461.00,234.00 L468.80,235.90 L476.60,239.41 L484.40,244.49 L492.20,251.03 L500.00,258.91 L507.80,267.97 L515.60,278.04 L523.40,288.93 L531.20,300.41 L539.00,312.26 L546.80,324.25 L554.60,336.15 L562.40,347.72 L570.20,358.75 L578.00,369.04 L585.80,378.38 L593.60,386.62 L601.40,393.61 L609.20,399.25 L617.00,403.44 L624.80,406.14 L632.60,407.33 L640.40,407.02 L648.20,405.27 L656.00,402.14 L663.80,397.74 L671.60,392.21 L679.40,385.68 L687.20,378.34 L695.00,370.35 L702.80,361.92 L710.60,353.24 L718.40,344.49 L726.20,335.88 L734.00,327.57 L741.80,319.74 L749.60,312.52 L757.40,306.04 L765.20,300.41 L773.00,295.70 L780.80,291.96 L788.60,289.21 L796.40,287.44 L804.20,286.61 L812.00,286.67 L819.80,287.54 L827.60,289.09 L835.40,291.22 L843.20,293.79 L851.00,296.65 L858.80,299.65 L866.60,302.63 L874.40,305.44 L882.20,307.95 L890.00,310.02"/><path d="M110.00,347.02 L117.80,344.95 L125.60,343.49 L133.40,342.74 L141.20,342.76 L149.00,343.57 L156.80,345.19 L164.60,347.58 L172.40,350.70 L180.20,354.46 L188.00,358.77 L195.80,363.52 L203.60,368.55 L211.40,373.72 L219.20,378.87 L227.00,383.83 L234.80,388.43 L242.60,392.50 L250.40,395.88 L258.20,398.43 L266.00,400.02 L273.80,400.54 L281.60,399.89 L289.40,398.02 L297.20,394.89 L305.00,390.50 L312.80,384.88 L320.60,378.08 L328.40,370.19 L336.20,361.32 L344.00,351.61 L351.80,341.23 L359.60,330.35 L367.40,319.19 L375.20,307.94 L383.00,296.82 L390.80,286.06 L398.60,275.87 L406.40,266.46 L414.20,258.02 L422.00,250.72 L429.80,244.74 L437.60,240.18 L445.40,237.17 L453.20,235.76 L461.00,236.00 L468.80,237.90 L476.60,241.41 L484.40,246.49 L492.20,253.03 L500.00,260.91 L507.80,269.97 L515.60,280.04 L523.40,290.93 L531.20,302.41 L539.00,314.26 L546.80,326.25 L554.60,338.15 L562.40,349.72 L570.20,360.75 L578.00,371.04 L585.80,380.38 L593.60,388.62 L601.40,395.61 L609.20,401.25 L617.00,405.44 L624.80,408.14 L632.60,409.33 L640.40,409.02 L648.20,407.27 L656.00,404.14 L663.80,399.74 L671.60,394.21 L679.40,387.68 L687.20,380.34 L695.00,372.35 L702.80,363.92 L710.60,355.24 L718.40,346.49 L726.20,337.88 L734.00,329.57 L741.80,321.74 L749.60,314.52 L757.40,308.04 L765.20,302.41 L773.00,297.70 L780.80,293.96 L788.60,291.21 L796.40,289.44 L804.20,288.61 L812.00,288.67 L819.80,289.54 L827.60,291.09 L835.40,293.22 L843.20,295.79 L851.00,298.65 L858.80,301.65 L866.60,304.63 L874.40,307.44 L882.20,309.95 L890.00,312.02"/><path d="M110.00,349.02 L117.80,346.95 L125.60,345.49 L133.40,344.74 L141.20,344.76 L149.00,345.57 L156.80,347.19 L164.60,349.58 L172.40,352.70 L180.20,356.46 L188.00,360.77 L195.80,365.52 L203.60,370.55 L211.40,375.72 L219.20,380.87 L227.00,385.83 L234.80,390.43 L242.60,394.50 L250.40,397.88 L258.20,400.43 L266.00,402.02 L273.80,402.54 L281.60,401.89 L289.40,400.02 L297.20,396.89 L305.00,392.50 L312.80,386.88 L320.60,380.08 L328.40,372.19 L336.20,363.32 L344.00,353.61 L351.80,343.23 L359.60,332.35 L367.40,321.19 L375.20,309.94 L383.00,298.82 L390.80,288.06 L398.60,277.87 L406.40,268.46 L414.20,260.02 L422.00,252.72 L429.80,246.74 L437.60,242.18 L445.40,239.17 L453.20,237.76 L461.00,238.00 L468.80,239.90 L476.60,243.41 L484.40,248.49 L492.20,255.03 L500.00,262.91 L507.80,271.97 L515.60,282.04 L523.40,292.93 L531.20,304.41 L539.00,316.26 L546.80,328.25 L554.60,340.15 L562.40,351.72 L570.20,362.75 L578.00,373.04 L585.80,382.38 L593.60,390.62 L601.40,397.61 L609.20,403.25 L617.00,407.44 L624.80,410.14 L632.60,411.33 L640.40,411.02 L648.20,409.27 L656.00,406.14 L663.80,401.74 L671.60,396.21 L679.40,389.68 L687.20,382.34 L695.00,374.35 L702.80,365.92 L710.60,357.24 L718.40,348.49 L726.20,339.88 L734.00,331.57 L741.80,323.74 L749.60,316.52 L757.40,310.04 L765.20,304.41 L773.00,299.70 L780.80,295.96 L788.60,293.21 L796.40,291.44 L804.20,290.61 L812.00,290.67 L819.80,291.54 L827.60,293.09 L835.40,295.22 L843.20,297.79 L851.00,300.65 L858.80,303.65 L866.60,306.63 L874.40,309.44 L882.20,311.95 L890.00,314.02"/><path d="M110.00,351.02 L117.80,348.95 L125.60,347.49 L133.40,346.74 L141.20,346.76 L149.00,347.57 L156.80,349.19 L164.60,351.58 L172.40,354.70 L180.20,358.46 L188.00,362.77 L195.80,367.52 L203.60,372.55 L211.40,377.72 L219.20,382.87 L227.00,387.83 L234.80,392.43 L242.60,396.50 L250.40,399.88 L258.20,402.43 L266.00,404.02 L273.80,404.54 L281.60,403.89 L289.40,402.02 L297.20,398.89 L305.00,394.50 L312.80,388.88 L320.60,382.08 L328.40,374.19 L336.20,365.32 L344.00,355.61 L351.80,345.23 L359.60,334.35 L367.40,323.19 L375.20,311.94 L383.00,300.82 L390.80,290.06 L398.60,279.87 L406.40,270.46 L414.20,262.02 L422.00,254.72 L429.80,248.74 L437.60,244.18 L445.40,241.17 L453.20,239.76 L461.00,240.00 L468.80,241.90 L476.60,245.41 L484.40,250.49 L492.20,257.03 L500.00,264.91 L507.80,273.97 L515.60,284.04 L523.40,294.93 L531.20,306.41 L539.00,318.26 L546.80,330.25 L554.60,342.15 L562.40,353.72 L570.20,364.75 L578.00,375.04 L585.80,384.38 L593.60,392.62 L601.40,399.61 L609.20,405.25 L617.00,409.44 L624.80,412.14 L632.60,413.33 L640.40,413.02 L648.20,411.27 L656.00,408.14 L663.80,403.74 L671.60,398.21 L679.40,391.68 L687.20,384.34 L695.00,376.35 L702.80,367.92 L710.60,359.24 L718.40,350.49 L726.20,341.88 L734.00,333.57 L741.80,325.74 L749.60,318.52 L757.40,312.04 L765.20,306.41 L773.00,301.70 L780.80,297.96 L788.60,295.21 L796.40,293.44 L804.20,292.61 L812.00,292.67 L819.80,293.54 L827.60,295.09 L835.40,297.22 L843.20,299.79 L851.00,302.65 L858.80,305.65 L866.60,308.63 L874.40,311.44 L882.20,313.95 L890.00,316.02"/><path d="M110.00,353.02 L117.80,350.95 L125.60,349.49 L133.40,348.74 L141.20,348.76 L149.00,349.57 L156.80,351.19 L164.60,353.58 L172.40,356.70 L180.20,360.46 L188.00,364.77 L195.80,369.52 L203.60,374.55 L211.40,379.72 L219.20,384.87 L227.00,389.83 L234.80,394.43 L242.60,398.50 L250.40,401.88 L258.20,404.43 L266.00,406.02 L273.80,406.54 L281.60,405.89 L289.40,404.02 L297.20,400.89 L305.00,396.50 L312.80,390.88 L320.60,384.08 L328.40,376.19 L336.20,367.32 L344.00,357.61 L351.80,347.23 L359.60,336.35 L367.40,325.19 L375.20,313.94 L383.00,302.82 L390.80,292.06 L398.60,281.87 L406.40,272.46 L414.20,264.02 L422.00,256.72 L429.80,250.74 L437.60,246.18 L445.40,243.17 L453.20,241.76 L461.00,242.00 L468.80,243.90 L476.60,247.41 L484.40,252.49 L492.20,259.03 L500.00,266.91 L507.80,275.97 L515.60,286.04 L523.40,296.93 L531.20,308.41 L539.00,320.26 L546.80,332.25 L554.60,344.15 L562.40,355.72 L570.20,366.75 L578.00,377.04 L585.80,386.38 L593.60,394.62 L601.40,401.61 L609.20,407.25 L617.00,411.44 L624.80,414.14 L632.60,415.33 L640.40,415.02 L648.20,413.27 L656.00,410.14 L663.80,405.74 L671.60,400.21 L679.40,393.68 L687.20,386.34 L695.00,378.35 L702.80,369.92 L710.60,361.24 L718.40,352.49 L726.20,343.88 L734.00,335.57 L741.80,327.74 L749.60,320.52 L757.40,314.04 L765.20,308.41 L773.00,303.70 L780.80,299.96 L788.60,297.21 L796.40,295.44 L804.20,294.61 L812.00,294.67 L819.80,295.54 L827.60,297.09 L835.40,299.22 L843.20,301.79 L851.00,304.65 L858.80,307.65 L866.60,310.63 L874.40,313.44 L882.20,315.95 L890.00,318.02"/><path d="M110.00,355.02 L117.80,352.95 L125.60,351.49 L133.40,350.74 L141.20,350.76 L149.00,351.57 L156.80,353.19 L164.60,355.58 L172.40,358.70 L180.20,362.46 L188.00,366.77 L195.80,371.52 L203.60,376.55 L211.40,381.72 L219.20,386.87 L227.00,391.83 L234.80,396.43 L242.60,400.50 L250.40,403.88 L258.20,406.43 L266.00,408.02 L273.80,408.54 L281.60,407.89 L289.40,406.02 L297.20,402.89 L305.00,398.50 L312.80,392.88 L320.60,386.08 L328.40,378.19 L336.20,369.32 L344.00,359.61 L351.80,349.23 L359.60,338.35 L367.40,327.19 L375.20,315.94 L383.00,304.82 L390.80,294.06 L398.60,283.87 L406.40,274.46 L414.20,266.02 L422.00,258.72 L429.80,252.74 L437.60,248.18 L445.40,245.17 L453.20,243.76 L461.00,244.00 L468.80,245.90 L476.60,249.41 L484.40,254.49 L492.20,261.03 L500.00,268.91 L507.80,277.97 L515.60,288.04 L523.40,298.93 L531.20,310.41 L539.00,322.26 L546.80,334.25 L554.60,346.15 L562.40,357.72 L570.20,368.75 L578.00,379.04 L585.80,388.38 L593.60,396.62 L601.40,403.61 L609.20,409.25 L617.00,413.44 L624.80,416.14 L632.60,417.33 L640.40,417.02 L648.20,415.27 L656.00,412.14 L663.80,407.74 L671.60,402.21 L679.40,395.68 L687.20,388.34 L695.00,380.35 L702.80,371.92 L710.60,363.24 L718.40,354.49 L726.20,345.88 L734.00,337.57 L741.80,329.74 L749.60,322.52 L757.40,316.04 L765.20,310.41 L773.00,305.70 L780.80,301.96 L788.60,299.21 L796.40,297.44 L804.20,296.61 L812.00,296.67 L819.80,297.54 L827.60,299.09 L835.40,301.22 L843.20,303.79 L851.00,306.65 L858.80,309.65 L866.60,312.63 L874.40,315.44 L882.20,317.95 L890.00,320.02"/><path d="M110.00,357.02 L117.80,354.95 L125.60,353.49 L133.40,352.74 L141.20,352.76 L149.00,353.57 L156.80,355.19 L164.60,357.58 L172.40,360.70 L180.20,364.46 L188.00,368.77 L195.80,373.52 L203.60,378.55 L211.40,383.72 L219.20,388.87 L227.00,393.83 L234.80,398.43 L242.60,402.50 L250.40,405.88 L258.20,408.43 L266.00,410.02 L273.80,410.54 L281.60,409.89 L289.40,408.02 L297.20,404.89 L305.00,400.50 L312.80,394.88 L320.60,388.08 L328.40,380.19 L336.20,371.32 L344.00,361.61 L351.80,351.23 L359.60,340.35 L367.40,329.19 L375.20,317.94 L383.00,306.82 L390.80,296.06 L398.60,285.87 L406.40,276.46 L414.20,268.02 L422.00,260.72 L429.80,254.74 L437.60,250.18 L445.40,247.17 L453.20,245.76 L461.00,246.00 L468.80,247.90 L476.60,251.41 L484.40,256.49 L492.20,263.03 L500.00,270.91 L507.80,279.97 L515.60,290.04 L523.40,300.93 L531.20,312.41 L539.00,324.26 L546.80,336.25 L554.60,348.15 L562.40,359.72 L570.20,370.75 L578.00,381.04 L585.80,390.38 L593.60,398.62 L601.40,405.61 L609.20,411.25 L617.00,415.44 L624.80,418.14 L632.60,419.33 L640.40,419.02 L648.20,417.27 L656.00,414.14 L663.80,409.74 L671.60,404.21 L679.40,397.68 L687.20,390.34 L695.00,382.35 L702.80,373.92 L710.60,365.24 L718.40,356.49 L726.20,347.88 L734.00,339.57 L741.80,331.74 L749.60,324.52 L757.40,318.04 L765.20,312.41 L773.00,307.70 L780.80,303.96 L788.60,301.21 L796.40,299.44 L804.20,298.61 L812.00,298.67 L819.80,299.54 L827.60,301.09 L835.40,303.22 L843.20,305.79 L851.00,308.65 L858.80,311.65 L866.60,314.63 L874.40,317.44 L882.20,319.95 L890.00,322.02"/><path d="M110.00,359.02 L117.80,356.95 L125.60,355.49 L133.40,354.74 L141.20,354.76 L149.00,355.57 L156.80,357.19 L164.60,359.58 L172.40,362.70 L180.20,366.46 L188.00,370.77 L195.80,375.52 L203.60,380.55 L211.40,385.72 L219.20,390.87 L227.00,395.83 L234.80,400.43 L242.60,404.50 L250.40,407.88 L258.20,410.43 L266.00,412.02 L273.80,412.54 L281.60,411.89 L289.40,410.02 L297.20,406.89 L305.00,402.50 L312.80,396.88 L320.60,390.08 L328.40,382.19 L336.20,373.32 L344.00,363.61 L351.80,353.23 L359.60,342.35 L367.40,331.19 L375.20,319.94 L383.00,308.82 L390.80,298.06 L398.60,287.87 L406.40,278.46 L414.20,270.02 L422.00,262.72 L429.80,256.74 L437.60,252.18 L445.40,249.17 L453.20,247.76 L461.00,248.00 L468.80,249.90 L476.60,253.41 L484.40,258.49 L492.20,265.03 L500.00,272.91 L507.80,281.97 L515.60,292.04 L523.40,302.93 L531.20,314.41 L539.00,326.26 L546.80,338.25 L554.60,350.15 L562.40,361.72 L570.20,372.75 L578.00,383.04 L585.80,392.38 L593.60,400.62 L601.40,407.61 L609.20,413.25 L617.00,417.44 L624.80,420.14 L632.60,421.33 L640.40,421.02 L648.20,419.27 L656.00,416.14 L663.80,411.74 L671.60,406.21 L679.40,399.68 L687.20,392.34 L695.00,384.35 L702.80,375.92 L710.60,367.24 L718.40,358.49 L726.20,349.88 L734.00,341.57 L741.80,333.74 L749.60,326.52 L757.40,320.04 L765.20,314.41 L773.00,309.70 L780.80,305.96 L788.60,303.21 L796.40,301.44 L804.20,300.61 L812.00,300.67 L819.80,301.54 L827.60,303.09 L835.40,305.22 L843.20,307.79 L851.00,310.65 L858.80,313.65 L866.60,316.63 L874.40,319.44 L882.20,321.95 L890.00,324.02"/><path d="M110.00,361.02 L117.80,358.95 L125.60,357.49 L133.40,356.74 L141.20,356.76 L149.00,357.57 L156.80,359.19 L164.60,361.58 L172.40,364.70 L180.20,368.46 L188.00,372.77 L195.80,377.52 L203.60,382.55 L211.40,387.72 L219.20,392.87 L227.00,397.83 L234.80,402.43 L242.60,406.50 L250.40,409.88 L258.20,412.43 L266.00,414.02 L273.80,414.54 L281.60,413.89 L289.40,412.02 L297.20,408.89 L305.00,404.50 L312.80,398.88 L320.60,392.08 L328.40,384.19 L336.20,375.32 L344.00,365.61 L351.80,355.23 L359.60,344.35 L367.40,333.19 L375.20,321.94 L383.00,310.82 L390.80,300.06 L398.60,289.87 L406.40,280.46 L414.20,272.02 L422.00,264.72 L429.80,258.74 L437.60,254.18 L445.40,251.17 L453.20,249.76 L461.00,250.00 L468.80,251.90 L476.60,255.41 L484.40,260.49 L492.20,267.03 L500.00,274.91 L507.80,283.97 L515.60,294.04 L523.40,304.93 L531.20,316.41 L539.00,328.26 L546.80,340.25 L554.60,352.15 L562.40,363.72 L570.20,374.75 L578.00,385.04 L585.80,394.38 L593.60,402.62 L601.40,409.61 L609.20,415.25 L617.00,419.44 L624.80,422.14 L632.60,423.33 L640.40,423.02 L648.20,421.27 L656.00,418.14 L663.80,413.74 L671.60,408.21 L679.40,401.68 L687.20,394.34 L695.00,386.35 L702.80,377.92 L710.60,369.24 L718.40,360.49 L726.20,351.88 L734.00,343.57 L741.80,335.74 L749.60,328.52 L757.40,322.04 L765.20,316.41 L773.00,311.70 L780.80,307.96 L788.60,305.21 L796.40,303.44 L804.20,302.61 L812.00,302.67 L819.80,303.54 L827.60,305.09 L835.40,307.22 L843.20,309.79 L851.00,312.65 L858.80,315.65 L866.60,318.63 L874.40,321.44 L882.20,323.95 L890.00,326.02"/><path d="M110.00,363.02 L117.80,360.95 L125.60,359.49 L133.40,358.74 L141.20,358.76 L149.00,359.57 L156.80,361.19 L164.60,363.58 L172.40,366.70 L180.20,370.46 L188.00,374.77 L195.80,379.52 L203.60,384.55 L211.40,389.72 L219.20,394.87 L227.00,399.83 L234.80,404.43 L242.60,408.50 L250.40,411.88 L258.20,414.43 L266.00,416.02 L273.80,416.54 L281.60,415.89 L289.40,414.02 L297.20,410.89 L305.00,406.50 L312.80,400.88 L320.60,394.08 L328.40,386.19 L336.20,377.32 L344.00,367.61 L351.80,357.23 L359.60,346.35 L367.40,335.19 L375.20,323.94 L383.00,312.82 L390.80,302.06 L398.60,291.87 L406.40,282.46 L414.20,274.02 L422.00,266.72 L429.80,260.74 L437.60,256.18 L445.40,253.17 L453.20,251.76 L461.00,252.00 L468.80,253.90 L476.60,257.41 L484.40,262.49 L492.20,269.03 L500.00,276.91 L507.80,285.97 L515.60,296.04 L523.40,306.93 L531.20,318.41 L539.00,330.26 L546.80,342.25 L554.60,354.15 L562.40,365.72 L570.20,376.75 L578.00,387.04 L585.80,396.38 L593.60,404.62 L601.40,411.61 L609.20,417.25 L617.00,421.44 L624.80,424.14 L632.60,425.33 L640.40,425.02 L648.20,423.27 L656.00,420.14 L663.80,415.74 L671.60,410.21 L679.40,403.68 L687.20,396.34 L695.00,388.35 L702.80,379.92 L710.60,371.24 L718.40,362.49 L726.20,353.88 L734.00,345.57 L741.80,337.74 L749.60,330.52 L757.40,324.04 L765.20,318.41 L773.00,313.70 L780.80,309.96 L788.60,307.21 L796.40,305.44 L804.20,304.61 L812.00,304.67 L819.80,305.54 L827.60,307.09 L835.40,309.22 L843.20,311.79 L851.00,314.65 L858.80,317.65 L866.60,320.63 L874.40,323.44 L882.20,325.95 L890.00,328.02"/><path d="M110.00,365.02 L117.80,362.95 L125.60,361.49 L133.40,360.74 L141.20,360.76 L149.00,361.57 L156.80,363.19 L164.60,365.58 L172.40,368.70 L180.20,372.46 L188.00,376.77 L195.80,381.52 L203.60,386.55 L211.40,391.72 L219.20,396.87 L227.00,401.83 L234.80,406.43 L242.60,410.50 L250.40,413.88 L258.20,416.43 L266.00,418.02 L273.80,418.54 L281.60,417.89 L289.40,416.02 L297.20,412.89 L305.00,408.50 L312.80,402.88 L320.60,396.08 L328.40,388.19 L336.20,379.32 L344.00,369.61 L351.80,359.23 L359.60,348.35 L367.40,337.19 L375.20,325.94 L383.00,314.82 L390.80,304.06 L398.60,293.87 L406.40,284.46 L414.20,276.02 L422.00,268.72 L429.80,262.74 L437.60,258.18 L445.40,255.17 L453.20,253.76 L461.00,254.00 L468.80,255.90 L476.60,259.41 L484.40,264.49 L492.20,271.03 L500.00,278.91 L507.80,287.97 L515.60,298.04 L523.40,308.93 L531.20,320.41 L539.00,332.26 L546.80,344.25 L554.60,356.15 L562.40,367.72 L570.20,378.75 L578.00,389.04 L585.80,398.38 L593.60,406.62 L601.40,413.61 L609.20,419.25 L617.00,423.44 L624.80,426.14 L632.60,427.33 L640.40,427.02 L648.20,425.27 L656.00,422.14 L663.80,417.74 L671.60,412.21 L679.40,405.68 L687.20,398.34 L695.00,390.35 L702.80,381.92 L710.60,373.24 L718.40,364.49 L726.20,355.88 L734.00,347.57 L741.80,339.74 L749.60,332.52 L757.40,326.04 L765.20,320.41 L773.00,315.70 L780.80,311.96 L788.60,309.21 L796.40,307.44 L804.20,306.61 L812.00,306.67 L819.80,307.54 L827.60,309.09 L835.40,311.22 L843.20,313.79 L851.00,316.65 L858.80,319.65 L866.60,322.63 L874.40,325.44 L882.20,327.95 L890.00,330.02"/><path d="M110.00,367.02 L117.80,364.95 L125.60,363.49 L133.40,362.74 L141.20,362.76 L149.00,363.57 L156.80,365.19 L164.60,367.58 L172.40,370.70 L180.20,374.46 L188.00,378.77 L195.80,383.52 L203.60,388.55 L211.40,393.72 L219.20,398.87 L227.00,403.83 L234.80,408.43 L242.60,412.50 L250.40,415.88 L258.20,418.43 L266.00,420.02 L273.80,420.54 L281.60,419.89 L289.40,418.02 L297.20,414.89 L305.00,410.50 L312.80,404.88 L320.60,398.08 L328.40,390.19 L336.20,381.32 L344.00,371.61 L351.80,361.23 L359.60,350.35 L367.40,339.19 L375.20,327.94 L383.00,316.82 L390.80,306.06 L398.60,295.87 L406.40,286.46 L414.20,278.02 L422.00,270.72 L429.80,264.74 L437.60,260.18 L445.40,257.17 L453.20,255.76 L461.00,256.00 L468.80,257.90 L476.60,261.41 L484.40,266.49 L492.20,273.03 L500.00,280.91 L507.80,289.97 L515.60,300.04 L523.40,310.93 L531.20,322.41 L539.00,334.26 L546.80,346.25 L554.60,358.15 L562.40,369.72 L570.20,380.75 L578.00,391.04 L585.80,400.38 L593.60,408.62 L601.40,415.61 L609.20,421.25 L617.00,425.44 L624.80,428.14 L632.60,429.33 L640.40,429.02 L648.20,427.27 L656.00,424.14 L663.80,419.74 L671.60,414.21 L679.40,407.68 L687.20,400.34 L695.00,392.35 L702.80,383.92 L710.60,375.24 L718.40,366.49 L726.20,357.88 L734.00,349.57 L741.80,341.74 L749.60,334.52 L757.40,328.04 L765.20,322.41 L773.00,317.70 L780.80,313.96 L788.60,311.21 L796.40,309.44 L804.20,308.61 L812.00,308.67 L819.80,309.54 L827.60,311.09 L835.40,313.22 L843.20,315.79 L851.00,318.65 L858.80,321.65 L866.60,324.63 L874.40,327.44 L882.20,329.95 L890.00,332.02"/><path d="M110.00,369.02 L117.80,366.95 L125.60,365.49 L133.40,364.74 L141.20,364.76 L149.00,365.57 L156.80,367.19 L164.60,369.58 L172.40,372.70 L180.20,376.46 L188.00,380.77 L195.80,385.52 L203.60,390.55 L211.40,395.72 L219.20,400.87 L227.00,405.83 L234.80,410.43 L242.60,414.50 L250.40,417.88 L258.20,420.43 L266.00,422.02 L273.80,422.54 L281.60,421.89 L289.40,420.02 L297.20,416.89 L305.00,412.50 L312.80,406.88 L320.60,400.08 L328.40,392.19 L336.20,383.32 L344.00,373.61 L351.80,363.23 L359.60,352.35 L367.40,341.19 L375.20,329.94 L383.00,318.82 L390.80,308.06 L398.60,297.87 L406.40,288.46 L414.20,280.02 L422.00,272.72 L429.80,266.74 L437.60,262.18 L445.40,259.17 L453.20,257.76 L461.00,258.00 L468.80,259.90 L476.60,263.41 L484.40,268.49 L492.20,275.03 L500.00,282.91 L507.80,291.97 L515.60,302.04 L523.40,312.93 L531.20,324.41 L539.00,336.26 L546.80,348.25 L554.60,360.15 L562.40,371.72 L570.20,382.75 L578.00,393.04 L585.80,402.38 L593.60,410.62 L601.40,417.61 L609.20,423.25 L617.00,427.44 L624.80,430.14 L632.60,431.33 L640.40,431.02 L648.20,429.27 L656.00,426.14 L663.80,421.74 L671.60,416.21 L679.40,409.68 L687.20,402.34 L695.00,394.35 L702.80,385.92 L710.60,377.24 L718.40,368.49 L726.20,359.88 L734.00,351.57 L741.80,343.74 L749.60,336.52 L757.40,330.04 L765.20,324.41 L773.00,319.70 L780.80,315.96 L788.60,313.21 L796.40,311.44 L804.20,310.61 L812.00,310.67 L819.80,311.54 L827.60,313.09 L835.40,315.22 L843.20,317.79 L851.00,320.65 L858.80,323.65 L866.60,326.63 L874.40,329.44 L882.20,331.95 L890.00,334.02"/><path d="M110.00,371.02 L117.80,368.95 L125.60,367.49 L133.40,366.74 L141.20,366.76 L149.00,367.57 L156.80,369.19 L164.60,371.58 L172.40,374.70 L180.20,378.46 L188.00,382.77 L195.80,387.52 L203.60,392.55 L211.40,397.72 L219.20,402.87 L227.00,407.83 L234.80,412.43 L242.60,416.50 L250.40,419.88 L258.20,422.43 L266.00,424.02 L273.80,424.54 L281.60,423.89 L289.40,422.02 L297.20,418.89 L305.00,414.50 L312.80,408.88 L320.60,402.08 L328.40,394.19 L336.20,385.32 L344.00,375.61 L351.80,365.23 L359.60,354.35 L367.40,343.19 L375.20,331.94 L383.00,320.82 L390.80,310.06 L398.60,299.87 L406.40,290.46 L414.20,282.02 L422.00,274.72 L429.80,268.74 L437.60,264.18 L445.40,261.17 L453.20,259.76 L461.00,260.00 L468.80,261.90 L476.60,265.41 L484.40,270.49 L492.20,277.03 L500.00,284.91 L507.80,293.97 L515.60,304.04 L523.40,314.93 L531.20,326.41 L539.00,338.26 L546.80,350.25 L554.60,362.15 L562.40,373.72 L570.20,384.75 L578.00,395.04 L585.80,404.38 L593.60,412.62 L601.40,419.61 L609.20,425.25 L617.00,429.44 L624.80,432.14 L632.60,433.33 L640.40,433.02 L648.20,431.27 L656.00,428.14 L663.80,423.74 L671.60,418.21 L679.40,411.68 L687.20,404.34 L695.00,396.35 L702.80,387.92 L710.60,379.24 L718.40,370.49 L726.20,361.88 L734.00,353.57 L741.80,345.74 L749.60,338.52 L757.40,332.04 L765.20,326.41 L773.00,321.70 L780.80,317.96 L788.60,315.21 L796.40,313.44 L804.20,312.61 L812.00,312.67 L819.80,313.54 L827.60,315.09 L835.40,317.22 L843.20,319.79 L851.00,322.65 L858.80,325.65 L866.60,328.63 L874.40,331.44 L882.20,333.95 L890.00,336.02"/><path d="M110.00,373.02 L117.80,370.95 L125.60,369.49 L133.40,368.74 L141.20,368.76 L149.00,369.57 L156.80,371.19 L164.60,373.58 L172.40,376.70 L180.20,380.46 L188.00,384.77 L195.80,389.52 L203.60,394.55 L211.40,399.72 L219.20,404.87 L227.00,409.83 L234.80,414.43 L242.60,418.50 L250.40,421.88 L258.20,424.43 L266.00,426.02 L273.80,426.54 L281.60,425.89 L289.40,424.02 L297.20,420.89 L305.00,416.50 L312.80,410.88 L320.60,404.08 L328.40,396.19 L336.20,387.32 L344.00,377.61 L351.80,367.23 L359.60,356.35 L367.40,345.19 L375.20,333.94 L383.00,322.82 L390.80,312.06 L398.60,301.87 L406.40,292.46 L414.20,284.02 L422.00,276.72 L429.80,270.74 L437.60,266.18 L445.40,263.17 L453.20,261.76 L461.00,262.00 L468.80,263.90 L476.60,267.41 L484.40,272.49 L492.20,279.03 L500.00,286.91 L507.80,295.97 L515.60,306.04 L523.40,316.93 L531.20,328.41 L539.00,340.26 L546.80,352.25 L554.60,364.15 L562.40,375.72 L570.20,386.75 L578.00,397.04 L585.80,406.38 L593.60,414.62 L601.40,421.61 L609.20,427.25 L617.00,431.44 L624.80,434.14 L632.60,435.33 L640.40,435.02 L648.20,433.27 L656.00,430.14 L663.80,425.74 L671.60,420.21 L679.40,413.68 L687.20,406.34 L695.00,398.35 L702.80,389.92 L710.60,381.24 L718.40,372.49 L726.20,363.88 L734.00,355.57 L741.80,347.74 L749.60,340.52 L757.40,334.04 L765.20,328.41 L773.00,323.70 L780.80,319.96 L788.60,317.21 L796.40,315.44 L804.20,314.61 L812.00,314.67 L819.80,315.54 L827.60,317.09 L835.40,319.22 L843.20,321.79 L851.00,324.65 L858.80,327.65 L866.60,330.63 L874.40,333.44 L882.20,335.95 L890.00,338.02"/><path d="M110.00,375.02 L117.80,372.95 L125.60,371.49 L133.40,370.74 L141.20,370.76 L149.00,371.57 L156.80,373.19 L164.60,375.58 L172.40,378.70 L180.20,382.46 L188.00,386.77 L195.80,391.52 L203.60,396.55 L211.40,401.72 L219.20,406.87 L227.00,411.83 L234.80,416.43 L242.60,420.50 L250.40,423.88 L258.20,426.43 L266.00,428.02 L273.80,428.54 L281.60,427.89 L289.40,426.02 L297.20,422.89 L305.00,418.50 L312.80,412.88 L320.60,406.08 L328.40,398.19 L336.20,389.32 L344.00,379.61 L351.80,369.23 L359.60,358.35 L367.40,347.19 L375.20,335.94 L383.00,324.82 L390.80,314.06 L398.60,303.87 L406.40,294.46 L414.20,286.02 L422.00,278.72 L429.80,272.74 L437.60,268.18 L445.40,265.17 L453.20,263.76 L461.00,264.00 L468.80,265.90 L476.60,269.41 L484.40,274.49 L492.20,281.03 L500.00,288.91 L507.80,297.97 L515.60,308.04 L523.40,318.93 L531.20,330.41 L539.00,342.26 L546.80,354.25 L554.60,366.15 L562.40,377.72 L570.20,388.75 L578.00,399.04 L585.80,408.38 L593.60,416.62 L601.40,423.61 L609.20,429.25 L617.00,433.44 L624.80,436.14 L632.60,437.33 L640.40,437.02 L648.20,435.27 L656.00,432.14 L663.80,427.74 L671.60,422.21 L679.40,415.68 L687.20,408.34 L695.00,400.35 L702.80,391.92 L710.60,383.24 L718.40,374.49 L726.20,365.88 L734.00,357.57 L741.80,349.74 L749.60,342.52 L757.40,336.04 L765.20,330.41 L773.00,325.70 L780.80,321.96 L788.60,319.21 L796.40,317.44 L804.20,316.61 L812.00,316.67 L819.80,317.54 L827.60,319.09 L835.40,321.22 L843.20,323.79 L851.00,326.65 L858.80,329.65 L866.60,332.63 L874.40,335.44 L882.20,337.95 L890.00,340.02"/><path d="M110.00,377.02 L117.80,374.95 L125.60,373.49 L133.40,372.74 L141.20,372.76 L149.00,373.57 L156.80,375.19 L164.60,377.58 L172.40,380.70 L180.20,384.46 L188.00,388.77 L195.80,393.52 L203.60,398.55 L211.40,403.72 L219.20,408.87 L227.00,413.83 L234.80,418.43 L242.60,422.50 L250.40,425.88 L258.20,428.43 L266.00,430.02 L273.80,430.54 L281.60,429.89 L289.40,428.02 L297.20,424.89 L305.00,420.50 L312.80,414.88 L320.60,408.08 L328.40,400.19 L336.20,391.32 L344.00,381.61 L351.80,371.23 L359.60,360.35 L367.40,349.19 L375.20,337.94 L383.00,326.82 L390.80,316.06 L398.60,305.87 L406.40,296.46 L414.20,288.02 L422.00,280.72 L429.80,274.74 L437.60,270.18 L445.40,267.17 L453.20,265.76 L461.00,266.00 L468.80,267.90 L476.60,271.41 L484.40,276.49 L492.20,283.03 L500.00,290.91 L507.80,299.97 L515.60,310.04 L523.40,320.93 L531.20,332.41 L539.00,344.26 L546.80,356.25 L554.60,368.15 L562.40,379.72 L570.20,390.75 L578.00,401.04 L585.80,410.38 L593.60,418.62 L601.40,425.61 L609.20,431.25 L617.00,435.44 L624.80,438.14 L632.60,439.33 L640.40,439.02 L648.20,437.27 L656.00,434.14 L663.80,429.74 L671.60,424.21 L679.40,417.68 L687.20,410.34 L695.00,402.35 L702.80,393.92 L710.60,385.24 L718.40,376.49 L726.20,367.88 L734.00,359.57 L741.80,351.74 L749.60,344.52 L757.40,338.04 L765.20,332.41 L773.00,327.70 L780.80,323.96 L788.60,321.21 L796.40,319.44 L804.20,318.61 L812.00,318.67 L819.80,319.54 L827.60,321.09 L835.40,323.22 L843.20,325.79 L851.00,328.65 L858.80,331.65 L866.60,334.63 L874.40,337.44 L882.20,339.95 L890.00,342.02"/><path d="M110.00,379.02 L117.80,376.95 L125.60,375.49 L133.40,374.74 L141.20,374.76 L149.00,375.57 L156.80,377.19 L164.60,379.58 L172.40,382.70 L180.20,386.46 L188.00,390.77 L195.80,395.52 L203.60,400.55 L211.40,405.72 L219.20,410.87 L227.00,415.83 L234.80,420.43 L242.60,424.50 L250.40,427.88 L258.20,430.43 L266.00,432.02 L273.80,432.54 L281.60,431.89 L289.40,430.02 L297.20,426.89 L305.00,422.50 L312.80,416.88 L320.60,410.08 L328.40,402.19 L336.20,393.32 L344.00,383.61 L351.80,373.23 L359.60,362.35 L367.40,351.19 L375.20,339.94 L383.00,328.82 L390.80,318.06 L398.60,307.87 L406.40,298.46 L414.20,290.02 L422.00,282.72 L429.80,276.74 L437.60,272.18 L445.40,269.17 L453.20,267.76 L461.00,268.00 L468.80,269.90 L476.60,273.41 L484.40,278.49 L492.20,285.03 L500.00,292.91 L507.80,301.97 L515.60,312.04 L523.40,322.93 L531.20,334.41 L539.00,346.26 L546.80,358.25 L554.60,370.15 L562.40,381.72 L570.20,392.75 L578.00,403.04 L585.80,412.38 L593.60,420.62 L601.40,427.61 L609.20,433.25 L617.00,437.44 L624.80,440.14 L632.60,441.33 L640.40,441.02 L648.20,439.27 L656.00,436.14 L663.80,431.74 L671.60,426.21 L679.40,419.68 L687.20,412.34 L695.00,404.35 L702.80,395.92 L710.60,387.24 L718.40,378.49 L726.20,369.88 L734.00,361.57 L741.80,353.74 L749.60,346.52 L757.40,340.04 L765.20,334.41 L773.00,329.70 L780.80,325.96 L788.60,323.21 L796.40,321.44 L804.20,320.61 L812.00,320.67 L819.80,321.54 L827.60,323.09 L835.40,325.22 L843.20,327.79 L851.00,330.65 L858.80,333.65 L866.60,336.63 L874.40,339.44 L882.20,341.95 L890.00,344.02"/><path d="M110.00,381.02 L117.80,378.95 L125.60,377.49 L133.40,376.74 L141.20,376.76 L149.00,377.57 L156.80,379.19 L164.60,381.58 L172.40,384.70 L180.20,388.46 L188.00,392.77 L195.80,397.52 L203.60,402.55 L211.40,407.72 L219.20,412.87 L227.00,417.83 L234.80,422.43 L242.60,426.50 L250.40,429.88 L258.20,432.43 L266.00,434.02 L273.80,434.54 L281.60,433.89 L289.40,432.02 L297.20,428.89 L305.00,424.50 L312.80,418.88 L320.60,412.08 L328.40,404.19 L336.20,395.32 L344.00,385.61 L351.80,375.23 L359.60,364.35 L367.40,353.19 L375.20,341.94 L383.00,330.82 L390.80,320.06 L398.60,309.87 L406.40,300.46 L414.20,292.02 L422.00,284.72 L429.80,278.74 L437.60,274.18 L445.40,271.17 L453.20,269.76 L461.00,270.00 L468.80,271.90 L476.60,275.41 L484.40,280.49 L492.20,287.03 L500.00,294.91 L507.80,303.97 L515.60,314.04 L523.40,324.93 L531.20,336.41 L539.00,348.26 L546.80,360.25 L554.60,372.15 L562.40,383.72 L570.20,394.75 L578.00,405.04 L585.80,414.38 L593.60,422.62 L601.40,429.61 L609.20,435.25 L617.00,439.44 L624.80,442.14 L632.60,443.33 L640.40,443.02 L648.20,441.27 L656.00,438.14 L663.80,433.74 L671.60,428.21 L679.40,421.68 L687.20,414.34 L695.00,406.35 L702.80,397.92 L710.60,389.24 L718.40,380.49 L726.20,371.88 L734.00,363.57 L741.80,355.74 L749.60,348.52 L757.40,342.04 L765.20,336.41 L773.00,331.70 L780.80,327.96 L788.60,325.21 L796.40,323.44 L804.20,322.61 L812.00,322.67 L819.80,323.54 L827.60,325.09 L835.40,327.22 L843.20,329.79 L851.00,332.65 L858.80,335.65 L866.60,338.63 L874.40,341.44 L882.20,343.95 L890.00,346.02"/><path d="M110.00,383.02 L117.80,380.95 L125.60,379.49 L133.40,378.74 L141.20,378.76 L149.00,379.57 L156.80,381.19 L164.60,383.58 L172.40,386.70 L180.20,390.46 L188.00,394.77 L195.80,399.52 L203.60,404.55 L211.40,409.72 L219.20,414.87 L227.00,419.83 L234.80,424.43 L242.60,428.50 L250.40,431.88 L258.20,434.43 L266.00,436.02 L273.80,436.54 L281.60,435.89 L289.40,434.02 L297.20,430.89 L305.00,426.50 L312.80,420.88 L320.60,414.08 L328.40,406.19 L336.20,397.32 L344.00,387.61 L351.80,377.23 L359.60,366.35 L367.40,355.19 L375.20,343.94 L383.00,332.82 L390.80,322.06 L398.60,311.87 L406.40,302.46 L414.20,294.02 L422.00,286.72 L429.80,280.74 L437.60,276.18 L445.40,273.17 L453.20,271.76 L461.00,272.00 L468.80,273.90 L476.60,277.41 L484.40,282.49 L492.20,289.03 L500.00,296.91 L507.80,305.97 L515.60,316.04 L523.40,326.93 L531.20,338.41 L539.00,350.26 L546.80,362.25 L554.60,374.15 L562.40,385.72 L570.20,396.75 L578.00,407.04 L585.80,416.38 L593.60,424.62 L601.40,431.61 L609.20,437.25 L617.00,441.44 L624.80,444.14 L632.60,445.33 L640.40,445.02 L648.20,443.27 L656.00,440.14 L663.80,435.74 L671.60,430.21 L679.40,423.68 L687.20,416.34 L695.00,408.35 L702.80,399.92 L710.60,391.24 L718.40,382.49 L726.20,373.88 L734.00,365.57 L741.80,357.74 L749.60,350.52 L757.40,344.04 L765.20,338.41 L773.00,333.70 L780.80,329.96 L788.60,327.21 L796.40,325.44 L804.20,324.61 L812.00,324.67 L819.80,325.54 L827.60,327.09 L835.40,329.22 L843.20,331.79 L851.00,334.65 L858.80,337.65 L866.60,340.63 L874.40,343.44 L882.20,345.95 L890.00,348.02"/><path d="M110.00,385.02 L117.80,382.95 L125.60,381.49 L133.40,380.74 L141.20,380.76 L149.00,381.57 L156.80,383.19 L164.60,385.58 L172.40,388.70 L180.20,392.46 L188.00,396.77 L195.80,401.52 L203.60,406.55 L211.40,411.72 L219.20,416.87 L227.00,421.83 L234.80,426.43 L242.60,430.50 L250.40,433.88 L258.20,436.43 L266.00,438.02 L273.80,438.54 L281.60,437.89 L289.40,436.02 L297.20,432.89 L305.00,428.50 L312.80,422.88 L320.60,416.08 L328.40,408.19 L336.20,399.32 L344.00,389.61 L351.80,379.23 L359.60,368.35 L367.40,357.19 L375.20,345.94 L383.00,334.82 L390.80,324.06 L398.60,313.87 L406.40,304.46 L414.20,296.02 L422.00,288.72 L429.80,282.74 L437.60,278.18 L445.40,275.17 L453.20,273.76 L461.00,274.00 L468.80,275.90 L476.60,279.41 L484.40,284.49 L492.20,291.03 L500.00,298.91 L507.80,307.97 L515.60,318.04 L523.40,328.93 L531.20,340.41 L539.00,352.26 L546.80,364.25 L554.60,376.15 L562.40,387.72 L570.20,398.75 L578.00,409.04 L585.80,418.38 L593.60,426.62 L601.40,433.61 L609.20,439.25 L617.00,443.44 L624.80,446.14 L632.60,447.33 L640.40,447.02 L648.20,445.27 L656.00,442.14 L663.80,437.74 L671.60,432.21 L679.40,425.68 L687.20,418.34 L695.00,410.35 L702.80,401.92 L710.60,393.24 L718.40,384.49 L726.20,375.88 L734.00,367.57 L741.80,359.74 L749.60,352.52 L757.40,346.04 L765.20,340.41 L773.00,335.70 L780.80,331.96 L788.60,329.21 L796.40,327.44 L804.20,326.61 L812.00,326.67 L819.80,327.54 L827.60,329.09 L835.40,331.22 L843.20,333.79 L851.00,336.65 L858.80,339.65 L866.60,342.63 L874.40,345.44 L882.20,347.95 L890.00,350.02"/><path d="M110.00,387.02 L117.80,384.95 L125.60,383.49 L133.40,382.74 L141.20,382.76 L149.00,383.57 L156.80,385.19 L164.60,387.58 L172.40,390.70 L180.20,394.46 L188.00,398.77 L195.80,403.52 L203.60,408.55 L211.40,413.72 L219.20,418.87 L227.00,423.83 L234.80,428.43 L242.60,432.50 L250.40,435.88 L258.20,438.43 L266.00,440.02 L273.80,440.54 L281.60,439.89 L289.40,438.02 L297.20,434.89 L305.00,430.50 L312.80,424.88 L320.60,418.08 L328.40,410.19 L336.20,401.32 L344.00,391.61 L351.80,381.23 L359.60,370.35 L367.40,359.19 L375.20,347.94 L383.00,336.82 L390.80,326.06 L398.60,315.87 L406.40,306.46 L414.20,298.02 L422.00,290.72 L429.80,284.74 L437.60,280.18 L445.40,277.17 L453.20,275.76 L461.00,276.00 L468.80,277.90 L476.60,281.41 L484.40,286.49 L492.20,293.03 L500.00,300.91 L507.80,309.97 L515.60,320.04 L523.40,330.93 L531.20,342.41 L539.00,354.26 L546.80,366.25 L554.60,378.15 L562.40,389.72 L570.20,400.75 L578.00,411.04 L585.80,420.38 L593.60,428.62 L601.40,435.61 L609.20,441.25 L617.00,445.44 L624.80,448.14 L632.60,449.33 L640.40,449.02 L648.20,447.27 L656.00,444.14 L663.80,439.74 L671.60,434.21 L679.40,427.68 L687.20,420.34 L695.00,412.35 L702.80,403.92 L710.60,395.24 L718.40,386.49 L726.20,377.88 L734.00,369.57 L741.80,361.74 L749.60,354.52 L757.40,348.04 L765.20,342.41 L773.00,337.70 L780.80,333.96 L788.60,331.21 L796.40,329.44 L804.20,328.61 L812.00,328.67 L819.80,329.54 L827.60,331.09 L835.40,333.22 L843.20,335.79 L851.00,338.65 L858.80,341.65 L866.60,344.63 L874.40,347.44 L882.20,349.95 L890.00,352.02"/><path d="M110.00,389.02 L117.80,386.95 L125.60,385.49 L133.40,384.74 L141.20,384.76 L149.00,385.57 L156.80,387.19 L164.60,389.58 L172.40,392.70 L180.20,396.46 L188.00,400.77 L195.80,405.52 L203.60,410.55 L211.40,415.72 L219.20,420.87 L227.00,425.83 L234.80,430.43 L242.60,434.50 L250.40,437.88 L258.20,440.43 L266.00,442.02 L273.80,442.54 L281.60,441.89 L289.40,440.02 L297.20,436.89 L305.00,432.50 L312.80,426.88 L320.60,420.08 L328.40,412.19 L336.20,403.32 L344.00,393.61 L351.80,383.23 L359.60,372.35 L367.40,361.19 L375.20,349.94 L383.00,338.82 L390.80,328.06 L398.60,317.87 L406.40,308.46 L414.20,300.02 L422.00,292.72 L429.80,286.74 L437.60,282.18 L445.40,279.17 L453.20,277.76 L461.00,278.00 L468.80,279.90 L476.60,283.41 L484.40,288.49 L492.20,295.03 L500.00,302.91 L507.80,311.97 L515.60,322.04 L523.40,332.93 L531.20,344.41 L539.00,356.26 L546.80,368.25 L554.60,380.15 L562.40,391.72 L570.20,402.75 L578.00,413.04 L585.80,422.38 L593.60,430.62 L601.40,437.61 L609.20,443.25 L617.00,447.44 L624.80,450.14 L632.60,451.33 L640.40,451.02 L648.20,449.27 L656.00,446.14 L663.80,441.74 L671.60,436.21 L679.40,429.68 L687.20,422.34 L695.00,414.35 L702.80,405.92 L710.60,397.24 L718.40,388.49 L726.20,379.88 L734.00,371.57 L741.80,363.74 L749.60,356.52 L757.40,350.04 L765.20,344.41 L773.00,339.70 L780.80,335.96 L788.60,333.21 L796.40,331.44 L804.20,330.61 L812.00,330.67 L819.80,331.54 L827.60,333.09 L835.40,335.22 L843.20,337.79 L851.00,340.65 L858.80,343.65 L866.60,346.63 L874.40,349.44 L882.20,351.95 L890.00,354.02"/><path d="M110.00,391.02 L117.80,388.95 L125.60,387.49 L133.40,386.74 L141.20,386.76 L149.00,387.57 L156.80,389.19 L164.60,391.58 L172.40,394.70 L180.20,398.46 L188.00,402.77 L195.80,407.52 L203.60,412.55 L211.40,417.72 L219.20,422.87 L227.00,427.83 L234.80,432.43 L242.60,436.50 L250.40,439.88 L258.20,442.43 L266.00,444.02 L273.80,444.54 L281.60,443.89 L289.40,442.02 L297.20,438.89 L305.00,434.50 L312.80,428.88 L320.60,422.08 L328.40,414.19 L336.20,405.32 L344.00,395.61 L351.80,385.23 L359.60,374.35 L367.40,363.19 L375.20,351.94 L383.00,340.82 L390.80,330.06 L398.60,319.87 L406.40,310.46 L414.20,302.02 L422.00,294.72 L429.80,288.74 L437.60,284.18 L445.40,281.17 L453.20,279.76 L461.00,280.00 L468.80,281.90 L476.60,285.41 L484.40,290.49 L492.20,297.03 L500.00,304.91 L507.80,313.97 L515.60,324.04 L523.40,334.93 L531.20,346.41 L539.00,358.26 L546.80,370.25 L554.60,382.15 L562.40,393.72 L570.20,404.75 L578.00,415.04 L585.80,424.38 L593.60,432.62 L601.40,439.61 L609.20,445.25 L617.00,449.44 L624.80,452.14 L632.60,453.33 L640.40,453.02 L648.20,451.27 L656.00,448.14 L663.80,443.74 L671.60,438.21 L679.40,431.68 L687.20,424.34 L695.00,416.35 L702.80,407.92 L710.60,399.24 L718.40,390.49 L726.20,381.88 L734.00,373.57 L741.80,365.74 L749.60,358.52 L757.40,352.04 L765.20,346.41 L773.00,341.70 L780.80,337.96 L788.60,335.21 L796.40,333.44 L804.20,332.61 L812.00,332.67 L819.80,333.54 L827.60,335.09 L835.40,337.22 L843.20,339.79 L851.00,342.65 L858.80,345.65 L866.60,348.63 L874.40,351.44 L882.20,353.95 L890.00,356.02"/><path d="M110.00,393.02 L117.80,390.95 L125.60,389.49 L133.40,388.74 L141.20,388.76 L149.00,389.57 L156.80,391.19 L164.60,393.58 L172.40,396.70 L180.20,400.46 L188.00,404.77 L195.80,409.52 L203.60,414.55 L211.40,419.72 L219.20,424.87 L227.00,429.83 L234.80,434.43 L242.60,438.50 L250.40,441.88 L258.20,444.43 L266.00,446.02 L273.80,446.54 L281.60,445.89 L289.40,444.02 L297.20,440.89 L305.00,436.50 L312.80,430.88 L320.60,424.08 L328.40,416.19 L336.20,407.32 L344.00,397.61 L351.80,387.23 L359.60,376.35 L367.40,365.19 L375.20,353.94 L383.00,342.82 L390.80,332.06 L398.60,321.87 L406.40,312.46 L414.20,304.02 L422.00,296.72 L429.80,290.74 L437.60,286.18 L445.40,283.17 L453.20,281.76 L461.00,282.00 L468.80,283.90 L476.60,287.41 L484.40,292.49 L492.20,299.03 L500.00,306.91 L507.80,315.97 L515.60,326.04 L523.40,336.93 L531.20,348.41 L539.00,360.26 L546.80,372.25 L554.60,384.15 L562.40,395.72 L570.20,406.75 L578.00,417.04 L585.80,426.38 L593.60,434.62 L601.40,441.61 L609.20,447.25 L617.00,451.44 L624.80,454.14 L632.60,455.33 L640.40,455.02 L648.20,453.27 L656.00,450.14 L663.80,445.74 L671.60,440.21 L679.40,433.68 L687.20,426.34 L695.00,418.35 L702.80,409.92 L710.60,401.24 L718.40,392.49 L726.20,383.88 L734.00,375.57 L741.80,367.74 L749.60,360.52 L757.40,354.04 L765.20,348.41 L773.00,343.70 L780.80,339.96 L788.60,337.21 L796.40,335.44 L804.20,334.61 L812.00,334.67 L819.80,335.54 L827.60,337.09 L835.40,339.22 L843.20,341.79 L851.00,344.65 L858.80,347.65 L866.60,350.63 L874.40,353.44 L882.20,355.95 L890.00,358.02"/><path d="M110.00,395.02 L117.80,392.95 L125.60,391.49 L133.40,390.74 L141.20,390.76 L149.00,391.57 L156.80,393.19 L164.60,395.58 L172.40,398.70 L180.20,402.46 L188.00,406.77 L195.80,411.52 L203.60,416.55 L211.40,421.72 L219.20,426.87 L227.00,431.83 L234.80,436.43 L242.60,440.50 L250.40,443.88 L258.20,446.43 L266.00,448.02 L273.80,448.54 L281.60,447.89 L289.40,446.02 L297.20,442.89 L305.00,438.50 L312.80,432.88 L320.60,426.08 L328.40,418.19 L336.20,409.32 L344.00,399.61 L351.80,389.23 L359.60,378.35 L367.40,367.19 L375.20,355.94 L383.00,344.82 L390.80,334.06 L398.60,323.87 L406.40,314.46 L414.20,306.02 L422.00,298.72 L429.80,292.74 L437.60,288.18 L445.40,285.17 L453.20,283.76 L461.00,284.00 L468.80,285.90 L476.60,289.41 L484.40,294.49 L492.20,301.03 L500.00,308.91 L507.80,317.97 L515.60,328.04 L523.40,338.93 L531.20,350.41 L539.00,362.26 L546.80,374.25 L554.60,386.15 L562.40,397.72 L570.20,408.75 L578.00,419.04 L585.80,428.38 L593.60,436.62 L601.40,443.61 L609.20,449.25 L617.00,453.44 L624.80,456.14 L632.60,457.33 L640.40,457.02 L648.20,455.27 L656.00,452.14 L663.80,447.74 L671.60,442.21 L679.40,435.68 L687.20,428.34 L695.00,420.35 L702.80,411.92 L710.60,403.24 L718.40,394.49 L726.20,385.88 L734.00,377.57 L741.80,369.74 L749.60,362.52 L757.40,356.04 L765.20,350.41 L773.00,345.70 L780.80,341.96 L788.60,339.21 L796.40,337.44 L804.20,336.61 L812.00,336.67 L819.80,337.54 L827.60,339.09 L835.40,341.22 L843.20,343.79 L851.00,346.65 L858.80,349.65 L866.60,352.63 L874.40,355.44 L882.20,357.95 L890.00,360.02"/><path d="M110.00,397.02 L117.80,394.95 L125.60,393.49 L133.40,392.74 L141.20,392.76 L149.00,393.57 L156.80,395.19 L164.60,397.58 L172.40,400.70 L180.20,404.46 L188.00,408.77 L195.80,413.52 L203.60,418.55 L211.40,423.72 L219.20,428.87 L227.00,433.83 L234.80,438.43 L242.60,442.50 L250.40,445.88 L258.20,448.43 L266.00,450.02 L273.80,450.54 L281.60,449.89 L289.40,448.02 L297.20,444.89 L305.00,440.50 L312.80,434.88 L320.60,428.08 L328.40,420.19 L336.20,411.32 L344.00,401.61 L351.80,391.23 L359.60,380.35 L367.40,369.19 L375.20,357.94 L383.00,346.82 L390.80,336.06 L398.60,325.87 L406.40,316.46 L414.20,308.02 L422.00,300.72 L429.80,294.74 L437.60,290.18 L445.40,287.17 L453.20,285.76 L461.00,286.00 L468.80,287.90 L476.60,291.41 L484.40,296.49 L492.20,303.03 L500.00,310.91 L507.80,319.97 L515.60,330.04 L523.40,340.93 L531.20,352.41 L539.00,364.26 L546.80,376.25 L554.60,388.15 L562.40,399.72 L570.20,410.75 L578.00,421.04 L585.80,430.38 L593.60,438.62 L601.40,445.61 L609.20,451.25 L617.00,455.44 L624.80,458.14 L632.60,459.33 L640.40,459.02 L648.20,457.27 L656.00,454.14 L663.80,449.74 L671.60,444.21 L679.40,437.68 L687.20,430.34 L695.00,422.35 L702.80,413.92 L710.60,405.24 L718.40,396.49 L726.20,387.88 L734.00,379.57 L741.80,371.74 L749.60,364.52 L757.40,358.04 L765.20,352.41 L773.00,347.70 L780.80,343.96 L788.60,341.21 L796.40,339.44 L804.20,338.61 L812.00,338.67 L819.80,339.54 L827.60,341.09 L835.40,343.22 L843.20,345.79 L851.00,348.65 L858.80,351.65 L866.60,354.63 L874.40,357.44 L882.20,359.95 L890.00,362.02"/><path d="M110.00,399.02 L117.80,396.95 L125.60,395.49 L133.40,394.74 L141.20,394.76 L149.00,395.57 L156.80,397.19 L164.60,399.58 L172.40,402.70 L180.20,406.46 L188.00,410.77 L195.80,415.52 L203.60,420.55 L211.40,425.72 L219.20,430.87 L227.00,435.83 L234.80,440.43 L242.60,444.50 L250.40,447.88 L258.20,450.43 L266.00,452.02 L273.80,452.54 L281.60,451.89 L289.40,450.02 L297.20,446.89 L305.00,442.50 L312.80,436.88 L320.60,430.08 L328.40,422.19 L336.20,413.32 L344.00,403.61 L351.80,393.23 L359.60,382.35 L367.40,371.19 L375.20,359.94 L383.00,348.82 L390.80,338.06 L398.60,327.87 L406.40,318.46 L414.20,310.02 L422.00,302.72 L429.80,296.74 L437.60,292.18 L445.40,289.17 L453.20,287.76 L461.00,288.00 L468.80,289.90 L476.60,293.41 L484.40,298.49 L492.20,305.03 L500.00,312.91 L507.80,321.97 L515.60,332.04 L523.40,342.93 L531.20,354.41 L539.00,366.26 L546.80,378.25 L554.60,390.15 L562.40,401.72 L570.20,412.75 L578.00,423.04 L585.80,432.38 L593.60,440.62 L601.40,447.61 L609.20,453.25 L617.00,457.44 L624.80,460.14 L632.60,461.33 L640.40,461.02 L648.20,459.27 L656.00,456.14 L663.80,451.74 L671.60,446.21 L679.40,439.68 L687.20,432.34 L695.00,424.35 L702.80,415.92 L710.60,407.24 L718.40,398.49 L726.20,389.88 L734.00,381.57 L741.80,373.74 L749.60,366.52 L757.40,360.04 L765.20,354.41 L773.00,349.70 L780.80,345.96 L788.60,343.21 L796.40,341.44 L804.20,340.61 L812.00,340.67 L819.80,341.54 L827.60,343.09 L835.40,345.22 L843.20,347.79 L851.00,350.65 L858.80,353.65 L866.60,356.63 L874.40,359.44 L882.20,361.95 L890.00,364.02"/><path d="M110.00,401.02 L117.80,398.95 L125.60,397.49 L133.40,396.74 L141.20,396.76 L149.00,397.57 L156.80,399.19 L164.60,401.58 L172.40,404.70 L180.20,408.46 L188.00,412.77 L195.80,417.52 L203.60,422.55 L211.40,427.72 L219.20,432.87 L227.00,437.83 L234.80,442.43 L242.60,446.50 L250.40,449.88 L258.20,452.43 L266.00,454.02 L273.80,454.54 L281.60,453.89 L289.40,452.02 L297.20,448.89 L305.00,444.50 L312.80,438.88 L320.60,432.08 L328.40,424.19 L336.20,415.32 L344.00,405.61 L351.80,395.23 L359.60,384.35 L367.40,373.19 L375.20,361.94 L383.00,350.82 L390.80,340.06 L398.60,329.87 L406.40,320.46 L414.20,312.02 L422.00,304.72 L429.80,298.74 L437.60,294.18 L445.40,291.17 L453.20,289.76 L461.00,290.00 L468.80,291.90 L476.60,295.41 L484.40,300.49 L492.20,307.03 L500.00,314.91 L507.80,323.97 L515.60,334.04 L523.40,344.93 L531.20,356.41 L539.00,368.26 L546.80,380.25 L554.60,392.15 L562.40,403.72 L570.20,414.75 L578.00,425.04 L585.80,434.38 L593.60,442.62 L601.40,449.61 L609.20,455.25 L617.00,459.44 L624.80,462.14 L632.60,463.33 L640.40,463.02 L648.20,461.27 L656.00,458.14 L663.80,453.74 L671.60,448.21 L679.40,441.68 L687.20,434.34 L695.00,426.35 L702.80,417.92 L710.60,409.24 L718.40,400.49 L726.20,391.88 L734.00,383.57 L741.80,375.74 L749.60,368.52 L757.40,362.04 L765.20,356.41 L773.00,351.70 L780.80,347.96 L788.60,345.21 L796.40,343.44 L804.20,342.61 L812.00,342.67 L819.80,343.54 L827.60,345.09 L835.40,347.22 L843.20,349.79 L851.00,352.65 L858.80,355.65 L866.60,358.63 L874.40,361.44 L882.20,363.95 L890.00,366.02"/><path d="M110.00,403.02 L117.80,400.95 L125.60,399.49 L133.40,398.74 L141.20,398.76 L149.00,399.57 L156.80,401.19 L164.60,403.58 L172.40,406.70 L180.20,410.46 L188.00,414.77 L195.80,419.52 L203.60,424.55 L211.40,429.72 L219.20,434.87 L227.00,439.83 L234.80,444.43 L242.60,448.50 L250.40,451.88 L258.20,454.43 L266.00,456.02 L273.80,456.54 L281.60,455.89 L289.40,454.02 L297.20,450.89 L305.00,446.50 L312.80,440.88 L320.60,434.08 L328.40,426.19 L336.20,417.32 L344.00,407.61 L351.80,397.23 L359.60,386.35 L367.40,375.19 L375.20,363.94 L383.00,352.82 L390.80,342.06 L398.60,331.87 L406.40,322.46 L414.20,314.02 L422.00,306.72 L429.80,300.74 L437.60,296.18 L445.40,293.17 L453.20,291.76 L461.00,292.00 L468.80,293.90 L476.60,297.41 L484.40,302.49 L492.20,309.03 L500.00,316.91 L507.80,325.97 L515.60,336.04 L523.40,346.93 L531.20,358.41 L539.00,370.26 L546.80,382.25 L554.60,394.15 L562.40,405.72 L570.20,416.75 L578.00,427.04 L585.80,436.38 L593.60,444.62 L601.40,451.61 L609.20,457.25 L617.00,461.44 L624.80,464.14 L632.60,465.33 L640.40,465.02 L648.20,463.27 L656.00,460.14 L663.80,455.74 L671.60,450.21 L679.40,443.68 L687.20,436.34 L695.00,428.35 L702.80,419.92 L710.60,411.24 L718.40,402.49 L726.20,393.88 L734.00,385.57 L741.80,377.74 L749.60,370.52 L757.40,364.04 L765.20,358.41 L773.00,353.70 L780.80,349.96 L788.60,347.21 L796.40,345.44 L804.20,344.61 L812.00,344.67 L819.80,345.54 L827.60,347.09 L835.40,349.22 L843.20,351.79 L851.00,354.65 L858.80,357.65 L866.60,360.63 L874.40,363.44 L882.20,365.95 L890.00,368.02"/><path d="M110.00,405.02 L117.80,402.95 L125.60,401.49 L133.40,400.74 L141.20,400.76 L149.00,401.57 L156.80,403.19 L164.60,405.58 L172.40,408.70 L180.20,412.46 L188.00,416.77 L195.80,421.52 L203.60,426.55 L211.40,431.72 L219.20,436.87 L227.00,441.83 L234.80,446.43 L242.60,450.50 L250.40,453.88 L258.20,456.43 L266.00,458.02 L273.80,458.54 L281.60,457.89 L289.40,456.02 L297.20,452.89 L305.00,448.50 L312.80,442.88 L320.60,436.08 L328.40,428.19 L336.20,419.32 L344.00,409.61 L351.80,399.23 L359.60,388.35 L367.40,377.19 L375.20,365.94 L383.00,354.82 L390.80,344.06 L398.60,333.87 L406.40,324.46 L414.20,316.02 L422.00,308.72 L429.80,302.74 L437.60,298.18 L445.40,295.17 L453.20,293.76 L461.00,294.00 L468.80,295.90 L476.60,299.41 L484.40,304.49 L492.20,311.03 L500.00,318.91 L507.80,327.97 L515.60,338.04 L523.40,348.93 L531.20,360.41 L539.00,372.26 L546.80,384.25 L554.60,396.15 L562.40,407.72 L570.20,418.75 L578.00,429.04 L585.80,438.38 L593.60,446.62 L601.40,453.61 L609.20,459.25 L617.00,463.44 L624.80,466.14 L632.60,467.33 L640.40,467.02 L648.20,465.27 L656.00,462.14 L663.80,457.74 L671.60,452.21 L679.40,445.68 L687.20,438.34 L695.00,430.35 L702.80,421.92 L710.60,413.24 L718.40,404.49 L726.20,395.88 L734.00,387.57 L741.80,379.74 L749.60,372.52 L757.40,366.04 L765.20,360.41 L773.00,355.70 L780.80,351.96 L788.60,349.21 L796.40,347.44 L804.20,346.61 L812.00,346.67 L819.80,347.54 L827.60,349.09 L835.40,351.22 L843.20,353.79 L851.00,356.65 L858.80,359.65 L866.60,362.63 L874.40,365.44 L882.20,367.95 L890.00,370.02"/><path d="M110.00,407.02 L117.80,404.95 L125.60,403.49 L133.40,402.74 L141.20,402.76 L149.00,403.57 L156.80,405.19 L164.60,407.58 L172.40,410.70 L180.20,414.46 L188.00,418.77 L195.80,423.52 L203.60,428.55 L211.40,433.72 L219.20,438.87 L227.00,443.83 L234.80,448.43 L242.60,452.50 L250.40,455.88 L258.20,458.43 L266.00,460.02 L273.80,460.54 L281.60,459.89 L289.40,458.02 L297.20,454.89 L305.00,450.50 L312.80,444.88 L320.60,438.08 L328.40,430.19 L336.20,421.32 L344.00,411.61 L351.80,401.23 L359.60,390.35 L367.40,379.19 L375.20,367.94 L383.00,356.82 L390.80,346.06 L398.60,335.87 L406.40,326.46 L414.20,318.02 L422.00,310.72 L429.80,304.74 L437.60,300.18 L445.40,297.17 L453.20,295.76 L461.00,296.00 L468.80,297.90 L476.60,301.41 L484.40,306.49 L492.20,313.03 L500.00,320.91 L507.80,329.97 L515.60,340.04 L523.40,350.93 L531.20,362.41 L539.00,374.26 L546.80,386.25 L554.60,398.15 L562.40,409.72 L570.20,420.75 L578.00,431.04 L585.80,440.38 L593.60,448.62 L601.40,455.61 L609.20,461.25 L617.00,465.44 L624.80,468.14 L632.60,469.33 L640.40,469.02 L648.20,467.27 L656.00,464.14 L663.80,459.74 L671.60,454.21 L679.40,447.68 L687.20,440.34 L695.00,432.35 L702.80,423.92 L710.60,415.24 L718.40,406.49 L726.20,397.88 L734.00,389.57 L741.80,381.74 L749.60,374.52 L757.40,368.04 L765.20,362.41 L773.00,357.70 L780.80,353.96 L788.60,351.21 L796.40,349.44 L804.20,348.61 L812.00,348.67 L819.80,349.54 L827.60,351.09 L835.40,353.22 L843.20,355.79 L851.00,358.65 L858.80,361.65 L866.60,364.63 L874.40,367.44 L882.20,369.95 L890.00,372.02"/><path d="M110.00,409.02 L117.80,406.95 L125.60,405.49 L133.40,404.74 L141.20,404.76 L149.00,405.57 L156.80,407.19 L164.60,409.58 L172.40,412.70 L180.20,416.46 L188.00,420.77 L195.80,425.52 L203.60,430.55 L211.40,435.72 L219.20,440.87 L227.00,445.83 L234.80,450.43 L242.60,454.50 L250.40,457.88 L258.20,460.43 L266.00,462.02 L273.80,462.54 L281.60,461.89 L289.40,460.02 L297.20,456.89 L305.00,452.50 L312.80,446.88 L320.60,440.08 L328.40,432.19 L336.20,423.32 L344.00,413.61 L351.80,403.23 L359.60,392.35 L367.40,381.19 L375.20,369.94 L383.00,358.82 L390.80,348.06 L398.60,337.87 L406.40,328.46 L414.20,320.02 L422.00,312.72 L429.80,306.74 L437.60,302.18 L445.40,299.17 L453.20,297.76 L461.00,298.00 L468.80,299.90 L476.60,303.41 L484.40,308.49 L492.20,315.03 L500.00,322.91 L507.80,331.97 L515.60,342.04 L523.40,352.93 L531.20,364.41 L539.00,376.26 L546.80,388.25 L554.60,400.15 L562.40,411.72 L570.20,422.75 L578.00,433.04 L585.80,442.38 L593.60,450.62 L601.40,457.61 L609.20,463.25 L617.00,467.44 L624.80,470.14 L632.60,471.33 L640.40,471.02 L648.20,469.27 L656.00,466.14 L663.80,461.74 L671.60,456.21 L679.40,449.68 L687.20,442.34 L695.00,434.35 L702.80,425.92 L710.60,417.24 L718.40,408.49 L726.20,399.88 L734.00,391.57 L741.80,383.74 L749.60,376.52 L757.40,370.04 L765.20,364.41 L773.00,359.70 L780.80,355.96 L788.60,353.21 L796.40,351.44 L804.20,350.61 L812.00,350.67 L819.80,351.54 L827.60,353.09 L835.40,355.22 L843.20,357.79 L851.00,360.65 L858.80,363.65 L866.60,366.63 L874.40,369.44 L882.20,371.95 L890.00,374.02"/><path d="M110.00,411.02 L117.80,408.95 L125.60,407.49 L133.40,406.74 L141.20,406.76 L149.00,407.57 L156.80,409.19 L164.60,411.58 L172.40,414.70 L180.20,418.46 L188.00,422.77 L195.80,427.52 L203.60,432.55 L211.40,437.72 L219.20,442.87 L227.00,447.83 L234.80,452.43 L242.60,456.50 L250.40,459.88 L258.20,462.43 L266.00,464.02 L273.80,464.54 L281.60,463.89 L289.40,462.02 L297.20,458.89 L305.00,454.50 L312.80,448.88 L320.60,442.08 L328.40,434.19 L336.20,425.32 L344.00,415.61 L351.80,405.23 L359.60,394.35 L367.40,383.19 L375.20,371.94 L383.00,360.82 L390.80,350.06 L398.60,339.87 L406.40,330.46 L414.20,322.02 L422.00,314.72 L429.80,308.74 L437.60,304.18 L445.40,301.17 L453.20,299.76 L461.00,300.00 L468.80,301.90 L476.60,305.41 L484.40,310.49 L492.20,317.03 L500.00,324.91 L507.80,333.97 L515.60,344.04 L523.40,354.93 L531.20,366.41 L539.00,378.26 L546.80,390.25 L554.60,402.15 L562.40,413.72 L570.20,424.75 L578.00,435.04 L585.80,444.38 L593.60,452.62 L601.40,459.61 L609.20,465.25 L617.00,469.44 L624.80,472.14 L632.60,473.33 L640.40,473.02 L648.20,471.27 L656.00,468.14 L663.80,463.74 L671.60,458.21 L679.40,451.68 L687.20,444.34 L695.00,436.35 L702.80,427.92 L710.60,419.24 L718.40,410.49 L726.20,401.88 L734.00,393.57 L741.80,385.74 L749.60,378.52 L757.40,372.04 L765.20,366.41 L773.00,361.70 L780.80,357.96 L788.60,355.21 L796.40,353.44 L804.20,352.61 L812.00,352.67 L819.80,353.54 L827.60,355.09 L835.40,357.22 L843.20,359.79 L851.00,362.65 L858.80,365.65 L866.60,368.63 L874.40,371.44 L882.20,373.95 L890.00,376.02"/><path d="M110.00,413.02 L117.80,410.95 L125.60,409.49 L133.40,408.74 L141.20,408.76 L149.00,409.57 L156.80,411.19 L164.60,413.58 L172.40,416.70 L180.20,420.46 L188.00,424.77 L195.80,429.52 L203.60,434.55 L211.40,439.72 L219.20,444.87 L227.00,449.83 L234.80,454.43 L242.60,458.50 L250.40,461.88 L258.20,464.43 L266.00,466.02 L273.80,466.54 L281.60,465.89 L289.40,464.02 L297.20,460.89 L305.00,456.50 L312.80,450.88 L320.60,444.08 L328.40,436.19 L336.20,427.32 L344.00,417.61 L351.80,407.23 L359.60,396.35 L367.40,385.19 L375.20,373.94 L383.00,362.82 L390.80,352.06 L398.60,341.87 L406.40,332.46 L414.20,324.02 L422.00,316.72 L429.80,310.74 L437.60,306.18 L445.40,303.17 L453.20,301.76 L461.00,302.00 L468.80,303.90 L476.60,307.41 L484.40,312.49 L492.20,319.03 L500.00,326.91 L507.80,335.97 L515.60,346.04 L523.40,356.93 L531.20,368.41 L539.00,380.26 L546.80,392.25 L554.60,404.15 L562.40,415.72 L570.20,426.75 L578.00,437.04 L585.80,446.38 L593.60,454.62 L601.40,461.61 L609.20,467.25 L617.00,471.44 L624.80,474.14 L632.60,475.33 L640.40,475.02 L648.20,473.27 L656.00,470.14 L663.80,465.74 L671.60,460.21 L679.40,453.68 L687.20,446.34 L695.00,438.35 L702.80,429.92 L710.60,421.24 L718.40,412.49 L726.20,403.88 L734.00,395.57 L741.80,387.74 L749.60,380.52 L757.40,374.04 L765.20,368.41 L773.00,363.70 L780.80,359.96 L788.60,357.21 L796.40,355.44 L804.20,354.61 L812.00,354.67 L819.80,355.54 L827.60,357.09 L835.40,359.22 L843.20,361.79 L851.00,364.65 L858.80,367.65 L866.60,370.63 L874.40,373.44 L882.20,375.95 L890.00,378.02"/><path d="M110.00,415.02 L117.80,412.95 L125.60,411.49 L133.40,410.74 L141.20,410.76 L149.00,411.57 L156.80,413.19 L164.60,415.58 L172.40,418.70 L180.20,422.46 L188.00,426.77 L195.80,431.52 L203.60,436.55 L211.40,441.72 L219.20,446.87 L227.00,451.83 L234.80,456.43 L242.60,460.50 L250.40,463.88 L258.20,466.43 L266.00,468.02 L273.80,468.54 L281.60,467.89 L289.40,466.02 L297.20,462.89 L305.00,458.50 L312.80,452.88 L320.60,446.08 L328.40,438.19 L336.20,429.32 L344.00,419.61 L351.80,409.23 L359.60,398.35 L367.40,387.19 L375.20,375.94 L383.00,364.82 L390.80,354.06 L398.60,343.87 L406.40,334.46 L414.20,326.02 L422.00,318.72 L429.80,312.74 L437.60,308.18 L445.40,305.17 L453.20,303.76 L461.00,304.00 L468.80,305.90 L476.60,309.41 L484.40,314.49 L492.20,321.03 L500.00,328.91 L507.80,337.97 L515.60,348.04 L523.40,358.93 L531.20,370.41 L539.00,382.26 L546.80,394.25 L554.60,406.15 L562.40,417.72 L570.20,428.75 L578.00,439.04 L585.80,448.38 L593.60,456.62 L601.40,463.61 L609.20,469.25 L617.00,473.44 L624.80,476.14 L632.60,477.33 L640.40,477.02 L648.20,475.27 L656.00,472.14 L663.80,467.74 L671.60,462.21 L679.40,455.68 L687.20,448.34 L695.00,440.35 L702.80,431.92 L710.60,423.24 L718.40,414.49 L726.20,405.88 L734.00,397.57 L741.80,389.74 L749.60,382.52 L757.40,376.04 L765.20,370.41 L773.00,365.70 L780.80,361.96 L788.60,359.21 L796.40,357.44 L804.20,356.61 L812.00,356.67 L819.80,357.54 L827.60,359.09 L835.40,361.22 L843.20,363.79 L851.00,366.65 L858.80,369.65 L866.60,372.63 L874.40,375.44 L882.20,377.95 L890.00,380.02"/><path d="M110.00,417.02 L117.80,414.95 L125.60,413.49 L133.40,412.74 L141.20,412.76 L149.00,413.57 L156.80,415.19 L164.60,417.58 L172.40,420.70 L180.20,424.46 L188.00,428.77 L195.80,433.52 L203.60,438.55 L211.40,443.72 L219.20,448.87 L227.00,453.83 L234.80,458.43 L242.60,462.50 L250.40,465.88 L258.20,468.43 L266.00,470.02 L273.80,470.54 L281.60,469.89 L289.40,468.02 L297.20,464.89 L305.00,460.50 L312.80,454.88 L320.60,448.08 L328.40,440.19 L336.20,431.32 L344.00,421.61 L351.80,411.23 L359.60,400.35 L367.40,389.19 L375.20,377.94 L383.00,366.82 L390.80,356.06 L398.60,345.87 L406.40,336.46 L414.20,328.02 L422.00,320.72 L429.80,314.74 L437.60,310.18 L445.40,307.17 L453.20,305.76 L461.00,306.00 L468.80,307.90 L476.60,311.41 L484.40,316.49 L492.20,323.03 L500.00,330.91 L507.80,339.97 L515.60,350.04 L523.40,360.93 L531.20,372.41 L539.00,384.26 L546.80,396.25 L554.60,408.15 L562.40,419.72 L570.20,430.75 L578.00,441.04 L585.80,450.38 L593.60,458.62 L601.40,465.61 L609.20,471.25 L617.00,475.44 L624.80,478.14 L632.60,479.33 L640.40,479.02 L648.20,477.27 L656.00,474.14 L663.80,469.74 L671.60,464.21 L679.40,457.68 L687.20,450.34 L695.00,442.35 L702.80,433.92 L710.60,425.24 L718.40,416.49 L726.20,407.88 L734.00,399.57 L741.80,391.74 L749.60,384.52 L757.40,378.04 L765.20,372.41 L773.00,367.70 L780.80,363.96 L788.60,361.21 L796.40,359.44 L804.20,358.61 L812.00,358.67 L819.80,359.54 L827.60,361.09 L835.40,363.22 L843.20,365.79 L851.00,368.65 L858.80,371.65 L866.60,374.63 L874.40,377.44 L882.20,379.95 L890.00,382.02"/><path d="M110.00,419.02 L117.80,416.95 L125.60,415.49 L133.40,414.74 L141.20,414.76 L149.00,415.57 L156.80,417.19 L164.60,419.58 L172.40,422.70 L180.20,426.46 L188.00,430.77 L195.80,435.52 L203.60,440.55 L211.40,445.72 L219.20,450.87 L227.00,455.83 L234.80,460.43 L242.60,464.50 L250.40,467.88 L258.20,470.43 L266.00,472.02 L273.80,472.54 L281.60,471.89 L289.40,470.02 L297.20,466.89 L305.00,462.50 L312.80,456.88 L320.60,450.08 L328.40,442.19 L336.20,433.32 L344.00,423.61 L351.80,413.23 L359.60,402.35 L367.40,391.19 L375.20,379.94 L383.00,368.82 L390.80,358.06 L398.60,347.87 L406.40,338.46 L414.20,330.02 L422.00,322.72 L429.80,316.74 L437.60,312.18 L445.40,309.17 L453.20,307.76 L461.00,308.00 L468.80,309.90 L476.60,313.41 L484.40,318.49 L492.20,325.03 L500.00,332.91 L507.80,341.97 L515.60,352.04 L523.40,362.93 L531.20,374.41 L539.00,386.26 L546.80,398.25 L554.60,410.15 L562.40,421.72 L570.20,432.75 L578.00,443.04 L585.80,452.38 L593.60,460.62 L601.40,467.61 L609.20,473.25 L617.00,477.44 L624.80,480.14 L632.60,481.33 L640.40,481.02 L648.20,479.27 L656.00,476.14 L663.80,471.74 L671.60,466.21 L679.40,459.68 L687.20,452.34 L695.00,444.35 L702.80,435.92 L710.60,427.24 L718.40,418.49 L726.20,409.88 L734.00,401.57 L741.80,393.74 L749.60,386.52 L757.40,380.04 L765.20,374.41 L773.00,369.70 L780.80,365.96 L788.60,363.21 L796.40,361.44 L804.20,360.61 L812.00,360.67 L819.80,361.54 L827.60,363.09 L835.40,365.22 L843.20,367.79 L851.00,370.65 L858.80,373.65 L866.60,376.63 L874.40,379.44 L882.20,381.95 L890.00,384.02"/><path d="M110.00,421.02 L117.80,418.95 L125.60,417.49 L133.40,416.74 L141.20,416.76 L149.00,417.57 L156.80,419.19 L164.60,421.58 L172.40,424.70 L180.20,428.46 L188.00,432.77 L195.80,437.52 L203.60,442.55 L211.40,447.72 L219.20,452.87 L227.00,457.83 L234.80,462.43 L242.60,466.50 L250.40,469.88 L258.20,472.43 L266.00,474.02 L273.80,474.54 L281.60,473.89 L289.40,472.02 L297.20,468.89 L305.00,464.50 L312.80,458.88 L320.60,452.08 L328.40,444.19 L336.20,435.32 L344.00,425.61 L351.80,415.23 L359.60,404.35 L367.40,393.19 L375.20,381.94 L383.00,370.82 L390.80,360.06 L398.60,349.87 L406.40,340.46 L414.20,332.02 L422.00,324.72 L429.80,318.74 L437.60,314.18 L445.40,311.17 L453.20,309.76 L461.00,310.00 L468.80,311.90 L476.60,315.41 L484.40,320.49 L492.20,327.03 L500.00,334.91 L507.80,343.97 L515.60,354.04 L523.40,364.93 L531.20,376.41 L539.00,388.26 L546.80,400.25 L554.60,412.15 L562.40,423.72 L570.20,434.75 L578.00,445.04 L585.80,454.38 L593.60,462.62 L601.40,469.61 L609.20,475.25 L617.00,479.44 L624.80,482.14 L632.60,483.33 L640.40,483.02 L648.20,481.27 L656.00,478.14 L663.80,473.74 L671.60,468.21 L679.40,461.68 L687.20,454.34 L695.00,446.35 L702.80,437.92 L710.60,429.24 L718.40,420.49 L726.20,411.88 L734.00,403.57 L741.80,395.74 L749.60,388.52 L757.40,382.04 L765.20,376.41 L773.00,371.70 L780.80,367.96 L788.60,365.21 L796.40,363.44 L804.20,362.61 L812.00,362.67 L819.80,363.54 L827.60,365.09 L835.40,367.22 L843.20,369.79 L851.00,372.65 L858.80,375.65 L866.60,378.63 L874.40,381.44 L882.20,383.95 L890.00,386.02"/><path d="M110.00,423.02 L117.80,420.95 L125.60,419.49 L133.40,418.74 L141.20,418.76 L149.00,419.57 L156.80,421.19 L164.60,423.58 L172.40,426.70 L180.20,430.46 L188.00,434.77 L195.80,439.52 L203.60,444.55 L211.40,449.72 L219.20,454.87 L227.00,459.83 L234.80,464.43 L242.60,468.50 L250.40,471.88 L258.20,474.43 L266.00,476.02 L273.80,476.54 L281.60,475.89 L289.40,474.02 L297.20,470.89 L305.00,466.50 L312.80,460.88 L320.60,454.08 L328.40,446.19 L336.20,437.32 L344.00,427.61 L351.80,417.23 L359.60,406.35 L367.40,395.19 L375.20,383.94 L383.00,372.82 L390.80,362.06 L398.60,351.87 L406.40,342.46 L414.20,334.02 L422.00,326.72 L429.80,320.74 L437.60,316.18 L445.40,313.17 L453.20,311.76 L461.00,312.00 L468.80,313.90 L476.60,317.41 L484.40,322.49 L492.20,329.03 L500.00,336.91 L507.80,345.97 L515.60,356.04 L523.40,366.93 L531.20,378.41 L539.00,390.26 L546.80,402.25 L554.60,414.15 L562.40,425.72 L570.20,436.75 L578.00,447.04 L585.80,456.38 L593.60,464.62 L601.40,471.61 L609.20,477.25 L617.00,481.44 L624.80,484.14 L632.60,485.33 L640.40,485.02 L648.20,483.27 L656.00,480.14 L663.80,475.74 L671.60,470.21 L679.40,463.68 L687.20,456.34 L695.00,448.35 L702.80,439.92 L710.60,431.24 L718.40,422.49 L726.20,413.88 L734.00,405.57 L741.80,397.74 L749.60,390.52 L757.40,384.04 L765.20,378.41 L773.00,373.70 L780.80,369.96 L788.60,367.21 L796.40,365.44 L804.20,364.61 L812.00,364.67 L819.80,365.54 L827.60,367.09 L835.40,369.22 L843.20,371.79 L851.00,374.65 L858.80,377.65 L866.60,380.63 L874.40,383.44 L882.20,385.95 L890.00,388.02"/><path d="M110.00,425.02 L117.80,422.95 L125.60,421.49 L133.40,420.74 L141.20,420.76 L149.00,421.57 L156.80,423.19 L164.60,425.58 L172.40,428.70 L180.20,432.46 L188.00,436.77 L195.80,441.52 L203.60,446.55 L211.40,451.72 L219.20,456.87 L227.00,461.83 L234.80,466.43 L242.60,470.50 L250.40,473.88 L258.20,476.43 L266.00,478.02 L273.80,478.54 L281.60,477.89 L289.40,476.02 L297.20,472.89 L305.00,468.50 L312.80,462.88 L320.60,456.08 L328.40,448.19 L336.20,439.32 L344.00,429.61 L351.80,419.23 L359.60,408.35 L367.40,397.19 L375.20,385.94 L383.00,374.82 L390.80,364.06 L398.60,353.87 L406.40,344.46 L414.20,336.02 L422.00,328.72 L429.80,322.74 L437.60,318.18 L445.40,315.17 L453.20,313.76 L461.00,314.00 L468.80,315.90 L476.60,319.41 L484.40,324.49 L492.20,331.03 L500.00,338.91 L507.80,347.97 L515.60,358.04 L523.40,368.93 L531.20,380.41 L539.00,392.26 L546.80,404.25 L554.60,416.15 L562.40,427.72 L570.20,438.75 L578.00,449.04 L585.80,458.38 L593.60,466.62 L601.40,473.61 L609.20,479.25 L617.00,483.44 L624.80,486.14 L632.60,487.33 L640.40,487.02 L648.20,485.27 L656.00,482.14 L663.80,477.74 L671.60,472.21 L679.40,465.68 L687.20,458.34 L695.00,450.35 L702.80,441.92 L710.60,433.24 L718.40,424.49 L726.20,415.88 L734.00,407.57 L741.80,399.74 L749.60,392.52 L757.40,386.04 L765.20,380.41 L773.00,375.70 L780.80,371.96 L788.60,369.21 L796.40,367.44 L804.20,366.61 L812.00,366.67 L819.80,367.54 L827.60,369.09 L835.40,371.22 L843.20,373.79 L851.00,376.65 L858.80,379.65 L866.60,382.63 L874.40,385.44 L882.20,387.95 L890.00,390.02"/><path d="M110.00,427.02 L117.80,424.95 L125.60,423.49 L133.40,422.74 L141.20,422.76 L149.00,423.57 L156.80,425.19 L164.60,427.58 L172.40,430.70 L180.20,434.46 L188.00,438.77 L195.80,443.52 L203.60,448.55 L211.40,453.72 L219.20,458.87 L227.00,463.83 L234.80,468.43 L242.60,472.50 L250.40,475.88 L258.20,478.43 L266.00,480.02 L273.80,480.54 L281.60,479.89 L289.40,478.02 L297.20,474.89 L305.00,470.50 L312.80,464.88 L320.60,458.08 L328.40,450.19 L336.20,441.32 L344.00,431.61 L351.80,421.23 L359.60,410.35 L367.40,399.19 L375.20,387.94 L383.00,376.82 L390.80,366.06 L398.60,355.87 L406.40,346.46 L414.20,338.02 L422.00,330.72 L429.80,324.74 L437.60,320.18 L445.40,317.17 L453.20,315.76 L461.00,316.00 L468.80,317.90 L476.60,321.41 L484.40,326.49 L492.20,333.03 L500.00,340.91 L507.80,349.97 L515.60,360.04 L523.40,370.93 L531.20,382.41 L539.00,394.26 L546.80,406.25 L554.60,418.15 L562.40,429.72 L570.20,440.75 L578.00,451.04 L585.80,460.38 L593.60,468.62 L601.40,475.61 L609.20,481.25 L617.00,485.44 L624.80,488.14 L632.60,489.33 L640.40,489.02 L648.20,487.27 L656.00,484.14 L663.80,479.74 L671.60,474.21 L679.40,467.68 L687.20,460.34 L695.00,452.35 L702.80,443.92 L710.60,435.24 L718.40,426.49 L726.20,417.88 L734.00,409.57 L741.80,401.74 L749.60,394.52 L757.40,388.04 L765.20,382.41 L773.00,377.70 L780.80,373.96 L788.60,371.21 L796.40,369.44 L804.20,368.61 L812.00,368.67 L819.80,369.54 L827.60,371.09 L835.40,373.22 L843.20,375.79 L851.00,378.65 L858.80,381.65 L866.60,384.63 L874.40,387.44 L882.20,389.95 L890.00,392.02"/></g></svg>