<svg xmlns="http://www.w3.org/2000/svg" width="250mm" height="225mm" viewBox="0 0 1000 900"><g id="pen-1" fill="none" stroke="#ed96cf" stroke-width=".8" opacity="1"><path d="M110.00,285.85 L117.80,282.44 L125.60,278.93 L133.40,275.45 L141.20,272.10 L149.00,268.96 L156.80,266.12 L164.60,263.66 L172.40,261.64 L180.20,260.13 L188.00,259.17 L195.80,258.81 L203.60,259.08 L211.40,260.00 L219.20,261.58 L227.00,263.81 L234.80,266.68 L242.60,270.15 L250.40,274.20 L258.20,278.76 L266.00,283.78 L273.80,289.19 L281.60,294.91 L289.40,300.85 L297.20,306.93 L305.00,313.05 L312.80,319.10 L320.60,324.99 L328.40,330.62 L336.20,335.89 L344.00,340.71 L351.80,344.98 L359.60,348.63 L367.40,351.57 L375.20,353.74 L383.00,355.08 L390.80,355.54 L398.60,355.09 L406.40,353.70 L414.20,351.37 L422.00,348.10 L429.80,343.89 L437.60,338.80 L445.40,332.84 L453.20,326.08 L461.00,318.58 L468.80,310.42 L476.60,301.68 L484.40,292.45 L492.20,282.83 L500.00,272.92 L507.80,262.84 L515.60,252.70 L523.40,242.60 L531.20,232.66 L539.00,222.98 L546.80,213.67 L554.60,204.83 L562.40,196.55 L570.20,188.91 L578.00,181.99 L585.80,175.84 L593.60,170.53 L601.40,166.09 L609.20,162.54 L617.00,159.91 L624.80,158.20 L632.60,157.39 L640.40,157.46 L648.20,158.38 L656.00,160.09 L663.80,162.55 L671.60,165.67 L679.40,169.40 L687.20,173.63 L695.00,178.29 L702.80,183.28 L710.60,188.51 L718.40,193.87 L726.20,199.27 L734.00,204.61 L741.80,209.80 L749.60,214.75 L757.40,219.38 L765.20,223.61 L773.00,227.38 L780.80,230.63 L788.60,233.32 L796.40,235.40 L804.20,236.85 L812.00,237.66 L819.80,237.84 L827.60,237.38 L835.40,236.32 L843.20,234.68 L851.00,232.51 L858.80,229.86 L866.60,226.80 L874.40,223.40 L882.20,219.72 L890.00,215.85"/><path d="M110.00,287.85 L117.80,284.44 L125.60,280.93 L133.40,277.45 L141.20,274.10 L149.00,270.96 L156.80,268.12 L164.60,265.66 L172.40,263.64 L180.20,262.13 L188.00,261.17 L195.80,260.81 L203.60,261.08 L211.40,262.00 L219.20,263.58 L227.00,265.81 L234.80,268.68 L242.60,272.15 L250.40,276.20 L258.20,280.76 L266.00,285.78 L273.80,291.19 L281.60,296.91 L289.40,302.85 L297.20,308.93 L305.00,315.05 L312.80,321.10 L320.60,326.99 L328.40,332.62 L336.20,337.89 L344.00,342.71 L351.80,346.98 L359.60,350.63 L367.40,353.57 L375.20,355.74 L383.00,357.08 L390.80,357.54 L398.60,357.09 L406.40,355.70 L414.20,353.37 L422.00,350.10 L429.80,345.89 L437.60,340.80 L445.40,334.84 L453.20,328.08 L461.00,320.58 L468.80,312.42 L476.60,303.68 L484.40,294.45 L492.20,284.83 L500.00,274.92 L507.80,264.84 L515.60,254.70 L523.40,244.60 L531.20,234.66 L539.00,224.98 L546.80,215.67 L554.60,206.83 L562.40,198.55 L570.20,190.91 L578.00,183.99 L585.80,177.84 L593.60,172.53 L601.40,168.09 L609.20,164.54 L617.00,161.91 L624.80,160.20 L632.60,159.39 L640.40,159.46 L648.20,160.38 L656.00,162.09 L663.80,164.55 L671.60,167.67 L679.40,171.40 L687.20,175.63 L695.00,180.29 L702.80,185.28 L710.60,190.51 L718.40,195.87 L726.20,201.27 L734.00,206.61 L741.80,211.80 L749.60,216.75 L757.40,221.38 L765.20,225.61 L773.00,229.38 L780.80,232.63 L788.60,235.32 L796.40,237.40 L804.20,238.85 L812.00,239.66 L819.80,239.84 L827.60,239.38 L835.40,238.32 L843.20,236.68 L851.00,234.51 L858.80,231.86 L866.60,228.80 L874.40,225.40 L882.20,221.72 L890.00,217.85"/><path d="M110.00,289.85 L117.80,286.44 L125.60,282.93 L133.40,279.45 L141.20,276.10 L149.00,272.96 L156.80,270.12 L164.60,267.66 L172.40,265.64 L180.20,264.13 L188.00,263.17 L195.80,262.81 L203.60,263.08 L211.40,264.00 L219.20,265.58 L227.00,267.81 L234.80,270.68 L242.60,274.15 L250.40,278.20 L258.20,282.76 L266.00,287.78 L273.80,293.19 L281.60,298.91 L289.40,304.85 L297.20,310.93 L305.00,317.05 L312.80,323.10 L320.60,328.99 L328.40,334.62 L336.20,339.89 L344.00,344.71 L351.80,348.98 L359.60,352.63 L367.40,355.57 L375.20,357.74 L383.00,359.08 L390.80,359.54 L398.60,359.09 L406.40,357.70 L414.20,355.37 L422.00,352.10 L429.80,347.89 L437.60,342.80 L445.40,336.84 L453.20,330.08 L461.00,322.58 L468.80,314.42 L476.60,305.68 L484.40,296.45 L492.20,286.83 L500.00,276.92 L507.80,266.84 L515.60,256.70 L523.40,246.60 L531.20,236.66 L539.00,226.98 L546.80,217.67 L554.60,208.83 L562.40,200.55 L570.20,192.91 L578.00,185.99 L585.80,179.84 L593.60,174.53 L601.40,170.09 L609.20,166.54 L617.00,163.91 L624.80,162.20 L632.60,161.39 L640.40,161.46 L648.20,162.38 L656.00,164.09 L663.80,166.55 L671.60,169.67 L679.40,173.40 L687.20,177.63 L695.00,182.29 L702.80,187.28 L710.60,192.51 L718.40,197.87 L726.20,203.27 L734.00,208.61 L741.80,213.80 L749.60,218.75 L757.40,223.38 L765.20,227.61 L773.00,231.38 L780.80,234.63 L788.60,237.32 L796.40,239.40 L804.20,240.85 L812.00,241.66 L819.80,241.84 L827.60,241.38 L835.40,240.32 L843.20,238.68 L851.00,236.51 L858.80,233.86 L866.60,230.80 L874.40,227.40 L882.20,223.72 L890.00,219.85"/><path d="M110.00,291.85 L117.80,288.44 L125.60,284.93 L133.40,281.45 L141.20,278.10 L149.00,274.96 L156.80,272.12 L164.60,269.66 L172.40,267.64 L180.20,266.13 L188.00,265.17 L195.80,264.81 L203.60,265.08 L211.40,266.00 L219.20,267.58 L227.00,269.81 L234.80,272.68 L242.60,276.15 L250.40,280.20 L258.20,284.76 L266.00,289.78 L273.80,295.19 L281.60,300.91 L289.40,306.85 L297.20,312.93 L305.00,319.05 L312.80,325.10 L320.60,330.99 L328.40,336.62 L336.20,341.89 L344.00,346.71 L351.80,350.98 L359.60,354.63 L367.40,357.57 L375.20,359.74 L383.00,361.08 L390.80,361.54 L398.60,361.09 L406.40,359.70 L414.20,357.37 L422.00,354.10 L429.80,349.89 L437.60,344.80 L445.40,338.84 L453.20,332.08 L461.00,324.58 L468.80,316.42 L476.60,307.68 L484.40,298.45 L492.20,288.83 L500.00,278.92 L507.80,268.84 L515.60,258.70 L523.40,248.60 L531.20,238.66 L539.00,228.98 L546.80,219.67 L554.60,210.83 L562.40,202.55 L570.20,194.91 L578.00,187.99 L585.80,181.84 L593.60,176.53 L601.40,172.09 L609.20,168.54 L617.00,165.91 L624.80,164.20 L632.60,163.39 L640.40,163.46 L648.20,164.38 L656.00,166.09 L663.80,168.55 L671.60,171.67 L679.40,175.40 L687.20,179.63 L695.00,184.29 L702.80,189.28 L710.60,194.51 L718.40,199.87 L726.20,205.27 L734.00,210.61 L741.80,215.80 L749.60,220.75 L757.40,225.38 L765.20,229.61 L773.00,233.38 L780.80,236.63 L788.60,239.32 L796.40,241.40 L804.20,242.85 L812.00,243.66 L819.80,243.84 L827.60,243.38 L835.40,242.32 L843.20,240.68 L851.00,238.51 L858.80,235.86 L866.60,232.80 L874.40,229.40 L882.20,225.72 L890.00,221.85"/><path d="M110.00,293.85 L117.80,290.44 L125.60,286.93 L133.40,283.45 L141.20,280.10 L149.00,276.96 L156.80,274.12 L164.60,271.66 L172.40,269.64 L180.20,268.13 L188.00,267.17 L195.80,266.81 L203.60,267.08 L211.40,268.00 L219.20,269.58 L227.00,271.81 L234.80,274.68 L242.60,278.15 L250.40,282.20 L258.20,286.76 L266.00,291.78 L273.80,297.19 L281.60,302.91 L289.40,308.85 L297.20,314.93 L305.00,321.05 L312.80,327.10 L320.60,332.99 L328.40,338.62 L336.20,343.89 L344.00,348.71 L351.80,352.98 L359.60,356.63 L367.40,359.57 L375.20,361.74 L383.00,363.08 L390.80,363.54 L398.60,363.09 L406.40,361.70 L414.20,359.37 L422.00,356.10 L429.80,351.89 L437.60,346.80 L445.40,340.84 L453.20,334.08 L461.00,326.58 L468.80,318.42 L476.60,309.68 L484.40,300.45 L492.20,290.83 L500.00,280.92 L507.80,270.84 L515.60,260.70 L523.40,250.60 L531.20,240.66 L539.00,230.98 L546.80,221.67 L554.60,212.83 L562.40,204.55 L570.20,196.91 L578.00,189.99 L585.80,183.84 L593.60,178.53 L601.40,174.09 L609.20,170.54 L617.00,167.91 L624.80,166.20 L632.60,165.39 L640.40,165.46 L648.20,166.38 L656.00,168.09 L663.80,170.55 L671.60,173.67 L679.40,177.40 L687.20,181.63 L695.00,186.29 L702.80,191.28 L710.60,196.51 L718.40,201.87 L726.20,207.27 L734.00,212.61 L741.80,217.80 L749.60,222.75 L757.40,227.38 L765.20,231.61 L773.00,235.38 L780.80,238.63 L788.60,241.32 L796.40,243.40 L804.20,244.85 L812.00,245.66 L819.80,245.84 L827.60,245.38 L835.40,244.32 L843.20,242.68 L851.00,240.51 L858.80,237.86 L866.60,234.80 L874.40,231.40 L882.20,227.72 L890.00,223.85"/><path d="M110.00,295.85 L117.80,292.44 L125.60,288.93 L133.40,285.45 L141.20,282.10 L149.00,278.96 L156.80,276.12 L164.60,273.66 L172.40,271.64 L180.20,270.13 L188.00,269.17 L195.80,268.81 L203.60,269.08 L211.40,270.00 L219.20,271.58 L227.00,273.81 L234.80,276.68 L242.60,280.15 L250.40,284.20 L258.20,288.76 L266.00,293.78 L273.80,299.19 L281.60,304.91 L289.40,310.85 L297.20,316.93 L305.00,323.05 L312.80,329.10 L320.60,334.99 L328.40,340.62 L336.20,345.89 L344.00,350.71 L351.80,354.98 L359.60,358.63 L367.40,361.57 L375.20,363.74 L383.00,365.08 L390.80,365.54 L398.60,365.09 L406.40,363.70 L414.20,361.37 L422.00,358.10 L429.80,353.89 L437.60,348.80 L445.40,342.84 L453.20,336.08 L461.00,328.58 L468.80,320.42 L476.60,311.68 L484.40,302.45 L492.20,292.83 L500.00,282.92 L507.80,272.84 L515.60,262.70 L523.40,252.60 L531.20,242.66 L539.00,232.98 L546.80,223.67 L554.60,214.83 L562.40,206.55 L570.20,198.91 L578.00,191.99 L585.80,185.84 L593.60,180.53 L601.40,176.09 L609.20,172.54 L617.00,169.91 L624.80,168.20 L632.60,167.39 L640.40,167.46 L648.20,168.38 L656.00,170.09 L663.80,172.55 L671.60,175.67 L679.40,179.40 L687.20,183.63 L695.00,188.29 L702.80,193.28 L710.60,198.51 L718.40,203.87 L726.20,209.27 L734.00,214.61 L741.80,219.80 L749.60,224.75 L757.40,229.38 L765.20,233.61 L773.00,237.38 L780.80,240.63 L788.60,243.32 L796.40,245.40 L804.20,246.85 L812.00,247.66 L819.80,247.84 L827.60,247.38 L835.40,246.32 L843.20,244.68 L851.00,242.51 L858.80,239.86 L866.60,236.80 L874.40,233.40 L882.20,229.72 L890.00,225.85"/><path d="M110.00,297.85 L117.80,294.44 L125.60,290.93 L133.40,287.45 L141.20,284.10 L149.00,280.96 L156.80,278.12 L164.60,275.66 L172.40,273.64 L180.20,272.13 L188.00,271.17 L195.80,270.81 L203.60,271.08 L211.40,272.00 L219.20,273.58 L227.00,275.81 L234.80,278.68 L242.60,282.15 L250.40,286.20 L258.20,290.76 L266.00,295.78 L273.80,301.19 L281.60,306.91 L289.40,312.85 L297.20,318.93 L305.00,325.05 L312.80,331.10 L320.60,336.99 L328.40,342.62 L336.20,347.89 L344.00,352.71 L351.80,356.98 L359.60,360.63 L367.40,363.57 L375.20,365.74 L383.00,367.08 L390.80,367.54 L398.60,367.09 L406.40,365.70 L414.20,363.37 L422.00,360.10 L429.80,355.89 L437.60,350.80 L445.40,344.84 L453.20,338.08 L461.00,330.58 L468.80,322.42 L476.60,313.68 L484.40,304.45 L492.20,294.83 L500.00,284.92 L507.80,274.84 L515.60,264.70 L523.40,254.60 L531.20,244.66 L539.00,234.98 L546.80,225.67 L554.60,216.83 L562.40,208.55 L570.20,200.91 L578.00,193.99 L585.80,187.84 L593.60,182.53 L601.40,178.09 L609.20,174.54 L617.00,171.91 L624.80,170.20 L632.60,169.39 L640.40,169.46 L648.20,170.38 L656.00,172.09 L663.80,174.55 L671.60,177.67 L679.40,181.40 L687.20,185.63 L695.00,190.29 L702.80,195.28 L710.60,200.51 L718.40,205.87 L726.20,211.27 L734.00,216.61 L741.80,221.80 L749.60,226.75 L757.40,231.38 L765.20,235.61 L773.00,239.38 L780.80,242.63 L788.60,245.32 L796.40,247.40 L804.20,248.85 L812.00,249.66 L819.80,249.84 L827.60,249.38 L835.40,248.32 L843.20,246.68 L851.00,244.51 L858.80,241.86 L866.60,238.80 L874.40,235.40 L882.20,231.72 L890.00,227.85"/><path d="M110.00,299.85 L117.80,296.44 L125.60,292.93 L133.40,289.45 L141.20,286.10 L149.00,282.96 L156.80,280.12 L164.60,277.66 L172.40,275.64 L180.20,274.13 L188.00,273.17 L195.80,272.81 L203.60,273.08 L211.40,274.00 L219.20,275.58 L227.00,277.81 L234.80,280.68 L242.60,284.15 L250.40,288.20 L258.20,292.76 L266.00,297.78 L273.80,303.19 L281.60,308.91 L289.40,314.85 L297.20,320.93 L305.00,327.05 L312.80,333.10 L320.60,338.99 L328.40,344.62 L336.20,349.89 L344.00,354.71 L351.80,358.98 L359.60,362.63 L367.40,365.57 L375.20,367.74 L383.00,369.08 L390.80,369.54 L398.60,369.09 L406.40,367.70 L414.20,365.37 L422.00,362.10 L429.80,357.89 L437.60,352.80 L445.40,346.84 L453.20,340.08 L461.00,332.58 L468.80,324.42 L476.60,315.68 L484.40,306.45 L492.20,296.83 L500.00,286.92 L507.80,276.84 L515.60,266.70 L523.40,256.60 L531.20,246.66 L539.00,236.98 L546.80,227.67 L554.60,218.83 L562.40,210.55 L570.20,202.91 L578.00,195.99 L585.80,189.84 L593.60,184.53 L601.40,180.09 L609.20,176.54 L617.00,173.91 L624.80,172.20 L632.60,171.39 L640.40,171.46 L648.20,172.38 L656.00,174.09 L663.80,176.55 L671.60,179.67 L679.40,183.40 L687.20,187.63 L695.00,192.29 L702.80,197.28 L710.60,202.51 L718.40,207.87 L726.20,213.27 L734.00,218.61 L741.80,223.80 L749.60,228.75 L757.40,233.38 L765.20,237.61 L773.00,241.38 L780.80,244.63 L788.60,247.32 L796.40,249.40 L804.20,250.85 L812.00,251.66 L819.80,251.84 L827.60,251.38 L835.40,250.32 L843.20,248.68 L851.00,246.51 L858.80,243.86 L866.60,240.80 L874.40,237.40 L882.20,233.72 L890.00,229.85"/><path d="M110.00,301.85 L117.80,298.44 L125.60,294.93 L133.40,291.45 L141.20,288.10 L149.00,284.96 L156.80,282.12 L164.60,279.66 L172.40,277.64 L180.20,276.13 L188.00,275.17 L195.80,274.81 L203.60,275.08 L211.40,276.00 L219.20,277.58 L227.00,279.81 L234.80,282.68 L242.60,286.15 L250.40,290.20 L258.20,294.76 L266.00,299.78 L273.80,305.19 L281.60,310.91 L289.40,316.85 L297.20,322.93 L305.00,329.05 L312.80,335.10 L320.60,340.99 L328.40,346.62 L336.20,351.89 L344.00,356.71 L351.80,360.98 L359.60,364.63 L367.40,367.57 L375.20,369.74 L383.00,371.08 L390.80,371.54 L398.60,371.09 L406.40,369.70 L414.20,367.37 L422.00,364.10 L429.80,359.89 L437.60,354.80 L445.40,348.84 L453.20,342.08 L461.00,334.58 L468.80,326.42 L476.60,317.68 L484.40,308.45 L492.20,298.83 L500.00,288.92 L507.80,278.84 L515.60,268.70 L523.40,258.60 L531.20,248.66 L539.00,238.98 L546.80,229.67 L554.60,220.83 L562.40,212.55 L570.20,204.91 L578.00,197.99 L585.80,191.84 L593.60,186.53 L601.40,182.09 L609.20,178.54 L617.00,175.91 L624.80,174.20 L632.60,173.39 L640.40,173.46 L648.20,174.38 L656.00,176.09 L663.80,178.55 L671.60,181.67 L679.40,185.40 L687.20,189.63 L695.00,194.29 L702.80,199.28 L710.60,204.51 L718.40,209.87 L726.20,215.27 L734.00,220.61 L741.80,225.80 L749.60,230.75 L757.40,235.38 L765.20,239.61 L773.00,243.38 L780.80,246.63 L788.60,249.32 L796.40,251.40 L804.20,252.85 L812.00,253.66 L819.80,253.84 L827.60,253.38 L835.40,252.32 L843.20,250.68 L851.00,248.51 L858.80,245.86 L866.60,242.80 L874.40,239.40 L882.20,235.72 L890.00,231.85"/><path d="M110.00,303.85 L117.80,300.44 L125.60,296.93 L133.40,293.45 L141.20,290.10 L149.00,286.96 L156.80,284.12 L164.60,281.66 L172.40,279.64 L180.20,278.13 L188.00,277.17 L195.80,276.81 L203.60,277.08 L211.40,278.00 L219.20,279.58 L227.00,281.81 L234.80,284.68 L242.60,288.15 L250.40,292.20 L258.20,296.76 L266.00,301.78 L273.80,307.19 L281.60,312.91 L289.40,318.85 L297.20,324.93 L305.00,331.05 L312.80,337.10 L320.60,342.99 L328.40,348.62 L336.20,353.89 L344.00,358.71 L351.80,362.98 L359.60,366.63 L367.40,369.57 L375.20,371.74 L383.00,373.08 L390.80,373.54 L398.60,373.09 L406.40,371.70 L414.20,369.37 L422.00,366.10 L429.80,361.89 L437.60,356.80 L445.40,350.84 L453.20,344.08 L461.00,336.58 L468.80,328.42 L476.60,319.68 L484.40,310.45 L492.20,300.83 L500.00,290.92 L507.80,280.84 L515.60,270.70 L523.40,260.60 L531.20,250.66 L539.00,240.98 L546.80,231.67 L554.60,222.83 L562.40,214.55 L570.20,206.91 L578.00,199.99 L585.80,193.84 L593.60,188.53 L601.40,184.09 L609.20,180.54 L617.00,177.91 L624.80,176.20 L632.60,175.39 L640.40,175.46 L648.20,176.38 L656.00,178.09 L663.80,180.55 L671.60,183.67 L679.40,187.40 L687.20,191.63 L695.00,196.29 L702.80,201.28 L710.60,206.51 L718.40,211.87 L726.20,217.27 L734.00,222.61 L741.80,227.80 L749.60,232.75 L757.40,237.38 L765.20,241.61 L773.00,245.38 L780.80,248.63 L788.60,251.32 L796.40,253.40 L804.20,254.85 L812.00,255.66 L819.80,255.84 L827.60,255.38 L835.40,254.32 L843.20,252.68 L851.00,250.51 L858.80,247.86 L866.60,244.80 L874.40,241.40 L882.20,237.72 L890.00,233.85"/><path d="M110.00,305.85 L117.80,302.44 L125.60,298.93 L133.40,295.45 L141.20,292.10 L149.00,288.96 L156.80,286.12 L164.60,283.66 L172.40,281.64 L180.20,280.13 L188.00,279.17 L195.80,278.81 L203.60,279.08 L211.40,280.00 L219.20,281.58 L227.00,283.81 L234.80,286.68 L242.60,290.15 L250.40,294.20 L258.20,298.76 L266.00,303.78 L273.80,309.19 L281.60,314.91 L289.40,320.85 L297.20,326.93 L305.00,333.05 L312.80,339.10 L320.60,344.99 L328.40,350.62 L336.20,355.89 L344.00,360.71 L351.80,364.98 L359.60,368.63 L367.40,371.57 L375.20,373.74 L383.00,375.08 L390.80,375.54 L398.60,375.09 L406.40,373.70 L414.20,371.37 L422.00,368.10 L429.80,363.89 L437.60,358.80 L445.40,352.84 L453.20,346.08 L461.00,338.58 L468.80,330.42 L476.60,321.68 L484.40,312.45 L492.20,302.83 L500.00,292.92 L507.80,282.84 L515.60,272.70 L523.40,262.60 L531.20,252.66 L539.00,242.98 L546.80,233.67 L554.60,224.83 L562.40,216.55 L570.20,208.91 L578.00,201.99 L585.80,195.84 L593.60,190.53 L601.40,186.09 L609.20,182.54 L617.00,179.91 L624.80,178.20 L632.60,177.39 L640.40,177.46 L648.20,178.38 L656.00,180.09 L663.80,182.55 L671.60,185.67 L679.40,189.40 L687.20,193.63 L695.00,198.29 L702.80,203.28 L710.60,208.51 L718.40,213.87 L726.20,219.27 L734.00,224.61 L741.80,229.80 L749.60,234.75 L757.40,239.38 L765.20,243.61 L773.00,247.38 L780.80,250.63 L788.60,253.32 L796.40,255.40 L804.20,256.85 L812.00,257.66 L819.80,257.84 L827.60,257.38 L835.40,256.32 L843.20,254.68 L851.00,252.51 L858.80,249.86 L866.60,246.80 L874.40,243.40 L882.20,239.72 L890.00,235.85"/><path d="M110.00,307.85 L117.80,304.44 L125.60,300.93 L133.40,297.45 L141.20,294.10 L149.00,290.96 L156.80,288.12 L164.60,285.66 L172.40,283.64 L180.20,282.13 L188.00,281.17 L195.80,280.81 L203.60,281.08 L211.40,282.00 L219.20,283.58 L227.00,285.81 L234.80,288.68 L242.60,292.15 L250.40,296.20 L258.20,300.76 L266.00,305.78 L273.80,311.19 L281.60,316.91 L289.40,322.85 L297.20,328.93 L305.00,335.05 L312.80,341.10 L320.60,346.99 L328.40,352.62 L336.20,357.89 L344.00,362.71 L351.80,366.98 L359.60,370.63 L367.40,373.57 L375.20,375.74 L383.00,377.08 L390.80,377.54 L398.60,377.09 L406.40,375.70 L414.20,373.37 L422.00,370.10 L429.80,365.89 L437.60,360.80 L445.40,354.84 L453.20,348.08 L461.00,340.58 L468.80,332.42 L476.60,323.68 L484.40,314.45 L492.20,304.83 L500.00,294.92 L507.80,284.84 L515.60,274.70 L523.40,264.60 L531.20,254.66 L539.00,244.98 L546.80,235.67 L554.60,226.83 L562.40,218.55 L570.20,210.91 L578.00,203.99 L585.80,197.84 L593.60,192.53 L601.40,188.09 L609.20,184.54 L617.00,181.91 L624.80,180.20 L632.60,179.39 L640.40,179.46 L648.20,180.38 L656.00,182.09 L663.80,184.55 L671.60,187.67 L679.40,191.40 L687.20,195.63 L695.00,200.29 L702.80,205.28 L710.60,210.51 L718.40,215.87 L726.20,221.27 L734.00,226.61 L741.80,231.80 L749.60,236.75 L757.40,241.38 L765.20,245.61 L773.00,249.38 L780.80,252.63 L788.60,255.32 L796.40,257.40 L804.20,258.85 L812.00,259.66 L819.80,259.84 L827.60,259.38 L835.40,258.32 L843.20,256.68 L851.00,254.51 L858.80,251.86 L866.60,248.80 L874.40,245.40 L882.20,241.72 L890.00,237.85"/><path d="M110.00,309.85 L117.80,306.44 L125.60,302.93 L133.40,299.45 L141.20,296.10 L149.00,292.96 L156.80,290.12 L164.60,287.66 L172.40,285.64 L180.20,284.13 L188.00,283.17 L195.80,282.81 L203.60,283.08 L211.40,284.00 L219.20,285.58 L227.00,287.81 L234.80,290.68 L242.60,294.15 L250.40,298.20 L258.20,302.76 L266.00,307.78 L273.80,313.19 L281.60,318.91 L289.40,324.85 L297.20,330.93 L305.00,337.05 L312.80,343.10 L320.60,348.99 L328.40,354.62 L336.20,359.89 L344.00,364.71 L351.80,368.98 L359.60,372.63 L367.40,375.57 L375.20,377.74 L383.00,379.08 L390.80,379.54 L398.60,379.09 L406.40,377.70 L414.20,375.37 L422.00,372.10 L429.80,367.89 L437.60,362.80 L445.40,356.84 L453.20,350.08 L461.00,342.58 L468.80,334.42 L476.60,325.68 L484.40,316.45 L492.20,306.83 L500.00,296.92 L507.80,286.84 L515.60,276.70 L523.40,266.60 L531.20,256.66 L539.00,246.98 L546.80,237.67 L554.60,228.83 L562.40,220.55 L570.20,212.91 L578.00,205.99 L585.80,199.84 L593.60,194.53 L601.40,190.09 L609.20,186.54 L617.00,183.91 L624.80,182.20 L632.60,181.39 L640.40,181.46 L648.20,182.38 L656.00,184.09 L663.80,186.55 L671.60,189.67 L679.40,193.40 L687.20,197.63 L695.00,202.29 L702.80,207.28 L710.60,212.51 L718.40,217.87 L726.20,223.27 L734.00,228.61 L741.80,233.80 L749.60,238.75 L757.40,243.38 L765.20,247.61 L773.00,251.38 L780.80,254.63 L788.60,257.32 L796.40,259.40 L804.20,260.85 L812.00,261.66 L819.80,261.84 L827.60,261.38 L835.40,260.32 L843.20,258.68 L851.00,256.51 L858.80,253.86 L866.60,250.80 L874.40,247.40 L882.20,243.72 L890.00,239.85"/><path d="M110.00,311.85 L117.80,308.44 L125.60,304.93 L133.40,301.45 L141.20,298.10 L149.00,294.96 L156.80,292.12 L164.60,289.66 L172.40,287.64 L180.20,286.13 L188.00,285.17 L195.80,284.81 L203.60,285.08 L211.40,286.00 L219.20,287.58 L227.00,289.81 L234.80,292.68 L242.60,296.15 L250.40,300.20 L258.20,304.76 L266.00,309.78 L273.80,315.19 L281.60,320.91 L289.40,326.85 L297.20,332.93 L305.00,339.05 L312.80,345.10 L320.60,350.99 L328.40,356.62 L336.20,361.89 L344.00,366.71 L351.80,370.98 L359.60,374.63 L367.40,377.57 L375.20,379.74 L383.00,381.08 L390.80,381.54 L398.60,381.09 L406.40,379.70 L414.20,377.37 L422.00,374.10 L429.80,369.89 L437.60,364.80 L445.40,358.84 L453.20,352.08 L461.00,344.58 L468.80,336.42 L476.60,327.68 L484.40,318.45 L492.20,308.83 L500.00,298.92 L507.80,288.84 L515.60,278.70 L523.40,268.60 L531.20,258.66 L539.00,248.98 L546.80,239.67 L554.60,230.83 L562.40,222.55 L570.20,214.91 L578.00,207.99 L585.80,201.84 L593.60,196.53 L601.40,192.09 L609.20,188.54 L617.00,185.91 L624.80,184.20 L632.60,183.39 L640.40,183.46 L648.20,184.38 L656.00,186.09 L663.80,188.55 L671.60,191.67 L679.40,195.40 L687.20,199.63 L695.00,204.29 L702.80,209.28 L710.60,214.51 L718.40,219.87 L726.20,225.27 L734.00,230.61 L741.80,235.80 L749.60,240.75 L757.40,245.38 L765.20,249.61 L773.00,253.38 L780.80,256.63 L788.60,259.32 L796.40,261.40 L804.20,262.85 L812.00,263.66 L819.80,263.84 L827.60,263.38 L835.40,262.32 L843.20,260.68 L851.00,258.51 L858.80,255.86 L866.60,252.80 L874.40,249.40 L882.20,245.72 L890.00,241.85"/><path d="M110.00,313.85 L117.80,310.44 L125.60,306.93 L133.40,303.45 L141.20,300.10 L149.00,296.96 L156.80,294.12 L164.60,291.66 L172.40,289.64 L180.20,288.13 L188.00,287.17 L195.80,286.81 L203.60,287.08 L211.40,288.00 L219.20,289.58 L227.00,291.81 L234.80,294.68 L242.60,298.15 L250.40,302.20 L258.20,306.76 L266.00,311.78 L273.80,317.19 L281.60,322.91 L289.40,328.85 L297.20,334.93 L305.00,341.05 L312.80,347.10 L320.60,352.99 L328.40,358.62 L336.20,363.89 L344.00,368.71 L351.80,372.98 L359.60,376.63 L367.40,379.57 L375.20,381.74 L383.00,383.08 L390.80,383.54 L398.60,383.09 L406.40,381.70 L414.20,379.37 L422.00,376.10 L429.80,371.89 L437.60,366.80 L445.40,360.84 L453.20,354.08 L461.00,346.58 L468.80,338.42 L476.60,329.68 L484.40,320.45 L492.20,310.83 L500.00,300.92 L507.80,290.84 L515.60,280.70 L523.40,270.60 L531.20,260.66 L539.00,250.98 L546.80,241.67 L554.60,232.83 L562.40,224.55 L570.20,216.91 L578.00,209.99 L585.80,203.84 L593.60,198.53 L601.40,194.09 L609.20,190.54 L617.00,187.91 L624.80,186.20 L632.60,185.39 L640.40,185.46 L648.20,186.38 L656.00,188.09 L663.80,190.55 L671.60,193.67 L679.40,197.40 L687.20,201.63 L695.00,206.29 L702.80,211.28 L710.60,216.51 L718.40,221.87 L726.20,227.27 L734.00,232.61 L741.80,237.80 L749.60,242.75 L757.40,247.38 L765.20,251.61 L773.00,255.38 L780.80,258.63 L788.60,261.32 L796.40,263.40 L804.20,264.85 L812.00,265.66 L819.80,265.84 L827.60,265.38 L835.40,264.32 L843.20,262.68 L851.00,260.51 L858.80,257.86 L866.60,254.80 L874.40,251.40 L882.20,247.72 L890.00,243.85"/><path d="M110.00,315.85 L117.80,312.44 L125.60,308.93 L133.40,305.45 L141.20,302.10 L149.00,298.96 L156.80,296.12 L164.60,293.66 L172.40,291.64 L180.20,290.13 L188.00,289.17 L195.80,288.81 L203.60,289.08 L211.40,290.00 L219.20,291.58 L227.00,293.81 L234.80,296.68 L242.60,300.15 L250.40,304.20 L258.20,308.76 L266.00,313.78 L273.80,319.19 L281.60,324.91 L289.40,330.85 L297.20,336.93 L305.00,343.05 L312.80,349.10 L320.60,354.99 L328.40,360.62 L336.20,365.89 L344.00,370.71 L351.80,374.98 L359.60,378.63 L367.40,381.57 L375.20,383.74 L383.00,385.08 L390.80,385.54 L398.60,385.09 L406.40,383.70 L414.20,381.37 L422.00,378.10 L429.80,373.89 L437.60,368.80 L445.40,362.84 L453.20,356.08 L461.00,348.58 L468.80,340.42 L476.60,331.68 L484.40,322.45 L492.20,312.83 L500.00,302.92 L507.80,292.84 L515.60,282.70 L523.40,272.60 L531.20,262.66 L539.00,252.98 L546.80,243.67 L554.60,234.83 L562.40,226.55 L570.20,218.91 L578.00,211.99 L585.80,205.84 L593.60,200.53 L601.40,196.09 L609.20,192.54 L617.00,189.91 L624.80,188.20 L632.60,187.39 L640.40,187.46 L648.20,188.38 L656.00,190.09 L663.80,192.55 L671.60,195.67 L679.40,199.40 L687.20,203.63 L695.00,208.29 L702.80,213.28 L710.60,218.51 L718.40,223.87 L726.20,229.27 L734.00,234.61 L741.80,239.80 L749.60,244.75 L757.40,249.38 L765.20,253.61 L773.00,257.38 L780.80,260.63 L788.60,263.32 L796.40,265.40 L804.20,266.85 L812.00,267.66 L819.80,267.84 L827.60,267.38 L835.40,266.32 L843.20,264.68 L851.00,262.51 L858.80,259.86 L866.60,256.80 L874.40,253.40 L882.20,249.72 L890.00,245.85"/><path d="M110.00,317.85 L117.80,314.44 L125.60,310.93 L133.40,307.45 L141.20,304.10 L149.00,300.96 L156.80,298.12 L164.60,295.66 L172.40,293.64 L180.20,292.13 L188.00,291.17 L195.80,290.81 L203.60,291.08 L211.40,292.00 L219.20,293.58 L227.00,295.81 L234.80,298.68 L242.60,302.15 L250.40,306.20 L258.20,310.76 L266.00,315.78 L273.80,321.19 L281.60,326.91 L289.40,332.85 L297.20,338.93 L305.00,345.05 L312.80,351.10 L320.60,356.99 L328.40,362.62 L336.20,367.89 L344.00,372.71 L351.80,376.98 L359.60,380.63 L367.40,383.57 L375.20,385.74 L383.00,387.08 L390.80,387.54 L398.60,387.09 L406.40,385.70 L414.20,383.37 L422.00,380.10 L429.80,375.89 L437.60,370.80 L445.40,364.84 L453.20,358.08 L461.00,350.58 L468.80,342.42 L476.60,333.68 L484.40,324.45 L492.20,314.83 L500.00,304.92 L507.80,294.84 L515.60,284.70 L523.40,274.60 L531.20,264.66 L539.00,254.98 L546.80,245.67 L554.60,236.83 L562.40,228.55 L570.20,220.91 L578.00,213.99 L585.80,207.84 L593.60,202.53 L601.40,198.09 L609.20,194.54 L617.00,191.91 L624.80,190.20 L632.60,189.39 L640.40,189.46 L648.20,190.38 L656.00,192.09 L663.80,194.55 L671.60,197.67 L679.40,201.40 L687.20,205.63 L695.00,210.29 L702.80,215.28 L710.60,220.51 L718.40,225.87 L726.20,231.27 L734.00,236.61 L741.80,241.80 L749.60,246.75 L757.40,251.38 L765.20,255.61 L773.00,259.38 L780.80,262.63 L788.60,265.32 L796.40,267.40 L804.20,268.85 L812.00,269.66 L819.80,269.84 L827.60,269.38 L835.40,268.32 L843.20,266.68 L851.00,264.51 L858.80,261.86 L866.60,258.80 L874.40,255.40 L882.20,251.72 L890.00,247.85"/><path d="M110.00,319.85 L117.80,316.44 L125.60,312.93 L133.40,309.45 L141.20,306.10 L149.00,302.96 L156.80,300.12 L164.60,297.66 L172.40,295.64 L180.20,294.13 L188.00,293.17 L195.80,292.81 L203.60,293.08 L211.40,294.00 L219.20,295.58 L227.00,297.81 L234.80,300.68 L242.60,304.15 L250.40,308.20 L258.20,312.76 L266.00,317.78 L273.80,323.19 L281.60,328.91 L289.40,334.85 L297.20,340.93 L305.00,347.05 L312.80,353.10 L320.60,358.99 L328.40,364.62 L336.20,369.89 L344.00,374.71 L351.80,378.98 L359.60,382.63 L367.40,385.57 L375.20,387.74 L383.00,389.08 L390.80,389.54 L398.60,389.09 L406.40,387.70 L414.20,385.37 L422.00,382.10 L429.80,377.89 L437.60,372.80 L445.40,366.84 L453.20,360.08 L461.00,352.58 L468.80,344.42 L476.60,335.68 L484.40,326.45 L492.20,316.83 L500.00,306.92 L507.80,296.84 L515.60,286.70 L523.40,276.60 L531.20,266.66 L539.00,256.98 L546.80,247.67 L554.60,238.83 L562.40,230.55 L570.20,222.91 L578.00,215.99 L585.80,209.84 L593.60,204.53 L601.40,200.09 L609.20,196.54 L617.00,193.91 L624.80,192.20 L632.60,191.39 L640.40,191.46 L648.20,192.38 L656.00,194.09 L663.80,196.55 L671.60,199.67 L679.40,203.40 L687.20,207.63 L695.00,212.29 L702.80,217.28 L710.60,222.51 L718.40,227.87 L726.20,233.27 L734.00,238.61 L741.80,243.80 L749.60,248.75 L757.40,253.38 L765.20,257.61 L773.00,261.38 L780.80,264.63 L788.60,267.32 L796.40,269.40 L804.20,270.85 L812.00,271.66 L819.80,271.84 L827.60,271.38 L835.40,270.32 L843.20,268.68 L851.00,266.51 L858.80,263.86 L866.60,260.80 L874.40,257.40 L882.20,253.72 L890.00,249.85"/><path d="M110.00,321.85 L117.80,318.44 L125.60,314.93 L133.40,311.45 L141.20,308.10 L149.00,304.96 L156.80,302.12 L164.60,299.66 L172.40,297.64 L180.20,296.13 L188.00,295.17 L195.80,294.81 L203.60,295.08 L211.40,296.00 L219.20,297.58 L227.00,299.81 L234.80,302.68 L242.60,306.15 L250.40,310.20 L258.20,314.76 L266.00,319.78 L273.80,325.19 L281.60,330.91 L289.40,336.85 L297.20,342.93 L305.00,349.05 L312.80,355.10 L320.60,360.99 L328.40,366.62 L336.20,371.89 L344.00,376.71 L351.80,380.98 L359.60,384.63 L367.40,387.57 L375.20,389.74 L383.00,391.08 L390.80,391.54 L398.60,391.09 L406.40,389.70 L414.20,387.37 L422.00,384.10 L429.80,379.89 L437.60,374.80 L445.40,368.84 L453.20,362.08 L461.00,354.58 L468.80,346.42 L476.60,337.68 L484.40,328.45 L492.20,318.83 L500.00,308.92 L507.80,298.84 L515.60,288.70 L523.40,278.60 L531.20,268.66 L539.00,258.98 L546.80,249.67 L554.60,240.83 L562.40,232.55 L570.20,224.91 L578.00,217.99 L585.80,211.84 L593.60,206.53 L601.40,202.09 L609.20,198.54 L617.00,195.91 L624.80,194.20 L632.60,193.39 L640.40,193.46 L648.20,194.38 L656.00,196.09 L663.80,198.55 L671.60,201.67 L679.40,205.40 L687.20,209.63 L695.00,214.29 L702.80,219.28 L710.60,224.51 L718.40,229.87 L726.20,235.27 L734.00,240.61 L741.80,245.80 L749.60,250.75 L757.40,255.38 L765.20,259.61 L773.00,263.38 L780.80,266.63 L788.60,269.32 L796.40,271.40 L804.20,272.85 L812.00,273.66 L819.80,273.84 L827.60,273.38 L835.40,272.32 L843.20,270.68 L851.00,268.51 L858.80,265.86 L866.60,262.80 L874.40,259.40 L882.20,255.72 L890.00,251.85"/><path d="M110.00,323.85 L117.80,320.44 L125.60,316.93 L133.40,313.45 L141.20,310.10 L149.00,306.96 L156.80,304.12 L164.60,301.66 L172.40,299.64 L180.20,298.13 L188.00,297.17 L195.80,296.81 L203.60,297.08 L211.40,298.00 L219.20,299.58 L227.00,301.81 L234.80,304.68 L242.60,308.15 L250.40,312.20 L258.20,316.76 L266.00,321.78 L273.80,327.19 L281.60,332.91 L289.40,338.85 L297.20,344.93 L305.00,351.05 L312.80,357.10 L320.60,362.99 L328.40,368.62 L336.20,373.89 L344.00,378.71 L351.80,382.98 L359.60,386.63 L367.40,389.57 L375.20,391.74 L383.00,393.08 L390.80,393.54 L398.60,393.09 L406.40,391.70 L414.20,389.37 L422.00,386.10 L429.80,381.89 L437.60,376.80 L445.40,370.84 L453.20,364.08 L461.00,356.58 L468.80,348.42 L476.60,339.68 L484.40,330.45 L492.20,320.83 L500.00,310.92 L507.80,300.84 L515.60,290.70 L523.40,280.60 L531.20,270.66 L539.00,260.98 L546.80,251.67 L554.60,242.83 L562.40,234.55 L570.20,226.91 L578.00,219.99 L585.80,213.84 L593.60,208.53 L601.40,204.09 L609.20,200.54 L617.00,197.91 L624.80,196.20 L632.60,195.39 L640.40,195.46 L648.20,196.38 L656.00,198.09 L663.80,200.55 L671.60,203.67 L679.40,207.40 L687.20,211.63 L695.00,216.29 L702.80,221.28 L710.60,226.51 L718.40,231.87 L726.20,237.27 L734.00,242.61 L741.80,247.80 L749.60,252.75 L757.40,257.38 L765.20,261.61 L773.00,265.38 L780.80,268.63 L788.60,271.32 L796.40,273.40 L804.20,274.85 L812.00,275.66 L819.80,275.84 L827.60,275.38 L835.40,274.32 L843.20,272.68 L851.00,270.51 L858.80,267.86 L866.60,264.80 L874.40,261.40 L882.20,257.72 L890.00,253.85"/><path d="M110.00,325.85 L117.80,322.44 L125.60,318.93 L133.40,315.45 L141.20,312.10 L149.00,308.96 L156.80,306.12 L164.60,303.66 L172.40,301.64 L180.20,300.13 L188.00,299.17 L195.80,298.81 L203.60,299.08 L211.40,300.00 L219.20,301.58 L227.00,303.81 L234.80,306.68 L242.60,310.15 L250.40,314.20 L258.20,318.76 L266.00,323.78 L273.80,329.19 L281.60,334.91 L289.40,340.85 L297.20,346.93 L305.00,353.05 L312.80,359.10 L320.60,364.99 L328.40,370.62 L336.20,375.89 L344.00,380.71 L351.80,384.98 L359.60,388.63 L367.40,391.57 L375.20,393.74 L383.00,395.08 L390.80,395.54 L398.60,395.09 L406.40,393.70 L414.20,391.37 L422.00,388.10 L429.80,383.89 L437.60,378.80 L445.40,372.84 L453.20,366.08 L461.00,358.58 L468.80,350.42 L476.60,341.68 L484.40,332.45 L492.20,322.83 L500.00,312.92 L507.80,302.84 L515.60,292.70 L523.40,282.60 L531.20,272.66 L539.00,262.98 L546.80,253.67 L554.60,244.83 L562.40,236.55 L570.20,228.91 L578.00,221.99 L585.80,215.84 L593.60,210.53 L601.40,206.09 L609.20,202.54 L617.00,199.91 L624.80,198.20 L632.60,197.39 L640.40,197.46 L648.20,198.38 L656.00,200.09 L663.80,202.55 L671.60,205.67 L679.40,209.40 L687.20,213.63 L695.00,218.29 L702.80,223.28 L710.60,228.51 L718.40,233.87 L726.20,239.27 L734.00,244.61 L741.80,249.80 L749.60,254.75 L757.40,259.38 L765.20,263.61 L773.00,267.38 L780.80,270.63 L788.60,273.32 L796.40,275.40 L804.20,276.85 L812.00,277.66 L819.80,277.84 L827.60,277.38 L835.40,276.32 L843.20,274.68 L851.00,272.51 L858.80,269.86 L866.60,266.80 L874.40,263.40 L882.20,259.72 L890.00,255.85"/><path d="M110.00,327.85 L117.80,324.44 L125.60,320.93 L133.40,317.45 L141.20,314.10 L149.00,310.96 L156.80,308.12 L164.60,305.66 L172.40,303.64 L180.20,302.13 L188.00,301.17 L195.80,300.81 L203.60,301.08 L211.40,302.00 L219.20,303.58 L227.00,305.81 L234.80,308.68 L242.60,312.15 L250.40,316.20 L258.20,320.76 L266.00,325.78 L273.80,331.19 L281.60,336.91 L289.40,342.85 L297.20,348.93 L305.00,355.05 L312.80,361.10 L320.60,366.99 L328.40,372.62 L336.20,377.89 L344.00,382.71 L351.80,386.98 L359.60,390.63 L367.40,393.57 L375.20,395.74 L383.00,397.08 L390.80,397.54 L398.60,397.09 L406.40,395.70 L414.20,393.37 L422.00,390.10 L429.80,385.89 L437.60,380.80 L445.40,374.84 L453.20,368.08 L461.00,360.58 L468.80,352.42 L476.60,343.68 L484.40,334.45 L492.20,324.83 L500.00,314.92 L507.80,304.84 L515.60,294.70 L523.40,284.60 L531.20,274.66 L539.00,264.98 L546.80,255.67 L554.60,246.83 L562.40,238.55 L570.20,230.91 L578.00,223.99 L585.80,217.84 L593.60,212.53 L601.40,208.09 L609.20,204.54 L617.00,201.91 L624.80,200.20 L632.60,199.39 L640.40,199.46 L648.20,200.38 L656.00,202.09 L663.80,204.55 L671.60,207.67 L679.40,211.40 L687.20,215.63 L695.00,220.29 L702.80,225.28 L710.60,230.51 L718.40,235.87 L726.20,241.27 L734.00,246.61 L741.80,251.80 L749.60,256.75 L757.40,261.38 L765.20,265.61 L773.00,269.38 L780.80,272.63 L788.60,275.32 L796.40,277.40 L804.20,278.85 L812.00,279.66 L819.80,279.84 L827.60,279.38 L835.40,278.32 L843.20,276.68 L851.00,274.51 L858.80,271.86 L866.60,268.80 L874.40,265.40 L882.20,261.72 L890.00,257.85"/><path d="M110.00,329.85 L117.80,326.44 L125.60,322.93 L133.40,319.45 L141.20,316.10 L149.00,312.96 L156.80,310.12 L164.60,307.66 L172.40,305.64 L180.20,304.13 L188.00,303.17 L195.80,302.81 L203.60,303.08 L211.40,304.00 L219.20,305.58 L227.00,307.81 L234.80,310.68 L242.60,314.15 L250.40,318.20 L258.20,322.76 L266.00,327.78 L273.80,333.19 L281.60,338.91 L289.40,344.85 L297.20,350.93 L305.00,357.05 L312.80,363.10 L320.60,368.99 L328.40,374.62 L336.20,379.89 L344.00,384.71 L351.80,388.98 L359.60,392.63 L367.40,395.57 L375.20,397.74 L383.00,399.08 L390.80,399.54 L398.60,399.09 L406.40,397.70 L414.20,395.37 L422.00,392.10 L429.80,387.89 L437.60,382.80 L445.40,376.84 L453.20,370.08 L461.00,362.58 L468.80,354.42 L476.60,345.68 L484.40,336.45 L492.20,326.83 L500.00,316.92 L507.80,306.84 L515.60,296.70 L523.40,286.60 L531.20,276.66 L539.00,266.98 L546.80,257.67 L554.60,248.83 L562.40,240.55 L570.20,232.91 L578.00,225.99 L585.80,219.84 L593.60,214.53 L601.40,210.09 L609.20,206.54 L617.00,203.91 L624.80,202.20 L632.60,201.39 L640.40,201.46 L648.20,202.38 L656.00,204.09 L663.80,206.55 L671.60,209.67 L679.40,213.40 L687.20,217.63 L695.00,222.29 L702.80,227.28 L710.60,232.51 L718.40,237.87 L726.20,243.27 L734.00,248.61 L741.80,253.80 L749.60,258.75 L757.40,263.38 L765.20,267.61 L773.00,271.38 L780.80,274.63 L788.60,277.32 L796.40,279.40 L804.20,280.85 L812.00,281.66 L819.80,281.84 L827.60,281.38 L835.40,280.32 L843.20,278.68 L851.00,276.51 L858.80,273.86 L866.60,270.80 L874.40,267.40 L882.20,263.72 L890.00,259.85"/><path d="M110.00,331.85 L117.80,328.44 L125.60,324.93 L133.40,321.45 L141.20,318.10 L149.00,314.96 L156.80,312.12 L164.60,309.66 L172.40,307.64 L180.20,306.13 L188.00,305.17 L195.80,304.81 L203.60,305.08 L211.40,306.00 L219.20,307.58 L227.00,309.81 L234.80,312.68 L242.60,316.15 L250.40,320.20 L258.20,324.76 L266.00,329.78 L273.80,335.19 L281.60,340.91 L289.40,346.85 L297.20,352.93 L305.00,359.05 L312.80,365.10 L320.60,370.99 L328.40,376.62 L336.20,381.89 L344.00,386.71 L351.80,390.98 L359.60,394.63 L367.40,397.57 L375.20,399.74 L383.00,401.08 L390.80,401.54 L398.60,401.09 L406.40,399.70 L414.20,397.37 L422.00,394.10 L429.80,389.89 L437.60,384.80 L445.40,378.84 L453.20,372.08 L461.00,364.58 L468.80,356.42 L476.60,347.68 L484.40,338.45 L492.20,328.83 L500.00,318.92 L507.80,308.84 L515.60,298.70 L523.40,288.60 L531.20,278.66 L539.00,268.98 L546.80,259.67 L554.60,250.83 L562.40,242.55 L570.20,234.91 L578.00,227.99 L585.80,221.84 L593.60,216.53 L601.40,212.09 L609.20,208.54 L617.00,205.91 L624.80,204.20 L632.60,203.39 L640.40,203.46 L648.20,204.38 L656.00,206.09 L663.80,208.55 L671.60,211.67 L679.40,215.40 L687.20,219.63 L695.00,224.29 L702.80,229.28 L710.60,234.51 L718.40,239.87 L726.20,245.27 L734.00,250.61 L741.80,255.80 L749.60,260.75 L757.40,265.38 L765.20,269.61 L773.00,273.38 L780.80,276.63 L788.60,279.32 L796.40,281.40 L804.20,282.85 L812.00,283.66 L819.80,283.84 L827.60,283.38 L835.40,282.32 L843.20,280.68 L851.00,278.51 L858.80,275.86 L866.60,272.80 L874.40,269.40 L882.20,265.72 L890.00,261.85"/><path d="M110.00,333.85 L117.80,330.44 L125.60,326.93 L133.40,323.45 L141.20,320.10 L149.00,316.96 L156.80,314.12 L164.60,311.66 L172.40,309.64 L180.20,308.13 L188.00,307.17 L195.80,306.81 L203.60,307.08 L211.40,308.00 L219.20,309.58 L227.00,311.81 L234.80,314.68 L242.60,318.15 L250.40,322.20 L258.20,326.76 L266.00,331.78 L273.80,337.19 L281.60,342.91 L289.40,348.85 L297.20,354.93 L305.00,361.05 L312.80,367.10 L320.60,372.99 L328.40,378.62 L336.20,383.89 L344.00,388.71 L351.80,392.98 L359.60,396.63 L367.40,399.57 L375.20,401.74 L383.00,403.08 L390.80,403.54 L398.60,403.09 L406.40,401.70 L414.20,399.37 L422.00,396.10 L429.80,391.89 L437.60,386.80 L445.40,380.84 L453.20,374.08 L461.00,366.58 L468.80,358.42 L476.60,349.68 L484.40,340.45 L492.20,330.83 L500.00,320.92 L507.80,310.84 L515.60,300.70 L523.40,290.60 L531.20,280.66 L539.00,270.98 L546.80,261.67 L554.60,252.83 L562.40,244.55 L570.20,236.91 L578.00,229.99 L585.80,223.84 L593.60,218.53 L601.40,214.09 L609.20,210.54 L617.00,207.91 L624.80,206.20 L632.60,205.39 L640.40,205.46 L648.20,206.38 L656.00,208.09 L663.80,210.55 L671.60,213.67 L679.40,217.40 L687.20,221.63 L695.00,226.29 L702.80,231.28 L710.60,236.51 L718.40,241.87 L726.20,247.27 L734.00,252.61 L741.80,257.80 L749.60,262.75 L757.40,267.38 L765.20,271.61 L773.00,275.38 L780.80,278.63 L788.60,281.32 L796.40,283.40 L804.20,284.85 L812.00,285.66 L819.80,285.84 L827.60,285.38 L835.40,284.32 L843.20,282.68 L851.00,280.51 L858.80,277.86 L866.60,274.80 L874.40,271.40 L882.20,267.72 L890.00,263.85"/><path d="M110.00,335.85 L117.80,332.44 L125.60,328.93 L133.40,325.45 L141.20,322.10 L149.00,318.96 L156.80,316.12 L164.60,313.66 L172.40,311.64 L180.20,310.13 L188.00,309.17 L195.80,308.81 L203.60,309.08 L211.40,310.00 L219.20,311.58 L227.00,313.81 L234.80,316.68 L242.60,320.15 L250.40,324.20 L258.20,328.76 L266.00,333.78 L273.80,339.19 L281.60,344.91 L289.40,350.85 L297.20,356.93 L305.00,363.05 L312.80,369.10 L320.60,374.99 L328.40,380.62 L336.20,385.89 L344.00,390.71 L351.80,394.98 L359.60,398.63 L367.40,401.57 L375.20,403.74 L383.00,405.08 L390.80,405.54 L398.60,405.09 L406.40,403.70 L414.20,401.37 L422.00,398.10 L429.80,393.89 L437.60,388.80 L445.40,382.84 L453.20,376.08 L461.00,368.58 L468.80,360.42 L476.60,351.68 L484.40,342.45 L492.20,332.83 L500.00,322.92 L507.80,312.84 L515.60,302.70 L523.40,292.60 L531.20,282.66 L539.00,272.98 L546.80,263.67 L554.60,254.83 L562.40,246.55 L570.20,238.91 L578.00,231.99 L585.80,225.84 L593.60,220.53 L601.40,216.09 L609.20,212.54 L617.00,209.91 L624.80,208.20 L632.60,207.39 L640.40,207.46 L648.20,208.38 L656.00,210.09 L663.80,212.55 L671.60,215.67 L679.40,219.40 L687.20,223.63 L695.00,228.29 L702.80,233.28 L710.60,238.51 L718.40,243.87 L726.20,249.27 L734.00,254.61 L741.80,259.80 L749.60,264.75 L757.40,269.38 L765.20,273.61 L773.00,277.38 L780.80,280.63 L788.60,283.32 L796.40,285.40 L804.20,286.85 L812.00,287.66 L819.80,287.84 L827.60,287.38 L835.40,286.32 L843.20,284.68 L851.00,282.51 L858.80,279.86 L866.60,276.80 L874.40,273.40 L882.20,269.72 L890.00,265.85"/><path d="M110.00,337.85 L117.80,334.44 L125.60,330.93 L133.40,327.45 L141.20,324.10 L149.00,320.96 L156.80,318.12 L164.60,315.66 L172.40,313.64 L180.20,312.13 L188.00,311.17 L195.80,310.81 L203.60,311.08 L211.40,312.00 L219.20,313.58 L227.00,315.81 L234.80,318.68 L242.60,322.15 L250.40,326.20 L258.20,330.76 L266.00,335.78 L273.80,341.19 L281.60,346.91 L289.40,352.85 L297.20,358.93 L305.00,365.05 L312.80,371.10 L320.60,376.99 L328.40,382.62 L336.20,387.89 L344.00,392.71 L351.80,396.98 L359.60,400.63 L367.40,403.57 L375.20,405.74 L383.00,407.08 L390.80,407.54 L398.60,407.09 L406.40,405.70 L414.20,403.37 L422.00,400.10 L429.80,395.89 L437.60,390.80 L445.40,384.84 L453.20,378.08 L461.00,370.58 L468.80,362.42 L476.60,353.68 L484.40,344.45 L492.20,334.83 L500.00,324.92 L507.80,314.84 L515.60,304.70 L523.40,294.60 L531.20,284.66 L539.00,274.98 L546.80,265.67 L554.60,256.83 L562.40,248.55 L570.20,240.91 L578.00,233.99 L585.80,227.84 L593.60,222.53 L601.40,218.09 L609.20,214.54 L617.00,211.91 L624.80,210.20 L632.60,209.39 L640.40,209.46 L648.20,210.38 L656.00,212.09 L663.80,214.55 L671.60,217.67 L679.40,221.40 L687.20,225.63 L695.00,230.29 L702.80,235.28 L710.60,240.51 L718.40,245.87 L726.20,251.27 L734.00,256.61 L741.80,261.80 L749.60,266.75 L757.40,271.38 L765.20,275.61 L773.00,279.38 L780.80,282.63 L788.60,285.32 L796.40,287.40 L804.20,288.85 L812.00,289.66 L819.80,289.84 L827.60,289.38 L835.40,288.32 L843.20,286.68 L851.00,284.51 L858.80,281.86 L866.60,278.80 L874.40,275.40 L882.20,271.72 L890.00,267.85"/><path d="M110.00,339.85 L117.80,336.44 L125.60,332.93 L133.40,329.45 L141.20,326.10 L149.00,322.96 L156.80,320.12 L164.60,317.66 L172.40,315.64 L180.20,314.13 L188.00,313.17 L195.80,312.81 L203.60,313.08 L211.40,314.00 L219.20,315.58 L227.00,317.81 L234.80,320.68 L242.60,324.15 L250.40,328.20 L258.20,332.76 L266.00,337.78 L273.80,343.19 L281.60,348.91 L289.40,354.85 L297.20,360.93 L305.00,367.05 L312.80,373.10 L320.60,378.99 L328.40,384.62 L336.20,389.89 L344.00,394.71 L351.80,398.98 L359.60,402.63 L367.40,405.57 L375.20,407.74 L383.00,409.08 L390.80,409.54 L398.60,409.09 L406.40,407.70 L414.20,405.37 L422.00,402.10 L429.80,397.89 L437.60,392.80 L445.40,386.84 L453.20,380.08 L461.00,372.58 L468.80,364.42 L476.60,355.68 L484.40,346.45 L492.20,336.83 L500.00,326.92 L507.80,316.84 L515.60,306.70 L523.40,296.60 L531.20,286.66 L539.00,276.98 L546.80,267.67 L554.60,258.83 L562.40,250.55 L570.20,242.91 L578.00,235.99 L585.80,229.84 L593.60,224.53 L601.40,220.09 L609.20,216.54 L617.00,213.91 L624.80,212.20 L632.60,211.39 L640.40,211.46 L648.20,212.38 L656.00,214.09 L663.80,216.55 L671.60,219.67 L679.40,223.40 L687.20,227.63 L695.00,232.29 L702.80,237.28 L710.60,242.51 L718.40,247.87 L726.20,253.27 L734.00,258.61 L741.80,263.80 L749.60,268.75 L757.40,273.38 L765.20,277.61 L773.00,281.38 L780.80,284.63 L788.60,287.32 L796.40,289.40 L804.20,290.85 L812.00,291.66 L819.80,291.84 L827.60,291.38 L835.40,290.32 L843.20,288.68 L851.00,286.51 L858.80,283.86 L866.60,280.80 L874.40,277.40 L882.20,273.72 L890.00,269.85"/><path d="M110.00,341.85 L117.80,338.44 L125.60,334.93 L133.40,331.45 L141.20,328.10 L149.00,324.96 L156.80,322.12 L164.60,319.66 L172.40,317.64 L180.20,316.13 L188.00,315.17 L195.80,314.81 L203.60,315.08 L211.40,316.00 L219.20,317.58 L227.00,319.81 L234.80,322.68 L242.60,326.15 L250.40,330.20 L258.20,334.76 L266.00,339.78 L273.80,345.19 L281.60,350.91 L289.40,356.85 L297.20,362.93 L305.00,369.05 L312.80,375.10 L320.60,380.99 L328.40,386.62 L336.20,391.89 L344.00,396.71 L351.80,400.98 L359.60,404.63 L367.40,407.57 L375.20,409.74 L383.00,411.08 L390.80,411.54 L398.60,411.09 L406.40,409.70 L414.20,407.37 L422.00,404.10 L429.80,399.89 L437.60,394.80 L445.40,388.84 L453.20,382.08 L461.00,374.58 L468.80,366.42 L476.60,357.68 L484.40,348.45 L492.20,338.83 L500.00,328.92 L507.80,318.84 L515.60,308.70 L523.40,298.60 L531.20,288.66 L539.00,278.98 L546.80,269.67 L554.60,260.83 L562.40,252.55 L570.20,244.91 L578.00,237.99 L585.80,231.84 L593.60,226.53 L601.40,222.09 L609.20,218.54 L617.00,215.91 L624.80,214.20 L632.60,213.39 L640.40,213.46 L648.20,214.38 L656.00,216.09 L663.80,218.55 L671.60,221.67 L679.40,225.40 L687.20,229.63 L695.00,234.29 L702.80,239.28 L710.60,244.51 L718.40,249.87 L726.20,255.27 L734.00,260.61 L741.80,265.80 L749.60,270.75 L757.40,275.38 L765.20,279.61 L773.00,283.38 L780.80,286.63 L788.60,289.32 L796.40,291.40 L804.20,292.85 L812.00,293.66 L819.80,293.84 L827.60,293.38 L835.40,292.32 L843.20,290.68 L851.00,288.51 L858.80,285.86 L866.60,282.80 L874.40,279.40 L882.20,275.72 L890.00,271.85"/><path d="M110.00,343.85 L117.80,340.44 L125.60,336.93 L133.40,333.45 L141.20,330.10 L149.00,326.96 L156.80,324.12 L164.60,321.66 L172.40,319.64 L180.20,318.13 L188.00,317.17 L195.80,316.81 L203.60,317.08 L211.40,318.00 L219.20,319.58 L227.00,321.81 L234.80,324.68 L242.60,328.15 L250.40,332.20 L258.20,336.76 L266.00,341.78 L273.80,347.19 L281.60,352.91 L289.40,358.85 L297.20,364.93 L305.00,371.05 L312.80,377.10 L320.60,382.99 L328.40,388.62 L336.20,393.89 L344.00,398.71 L351.80,402.98 L359.60,406.63 L367.40,409.57 L375.20,411.74 L383.00,413.08 L390.80,413.54 L398.60,413.09 L406.40,411.70 L414.20,409.37 L422.00,406.10 L429.80,401.89 L437.60,396.80 L445.40,390.84 L453.20,384.08 L461.00,376.58 L468.80,368.42 L476.60,359.68 L484.40,350.45 L492.20,340.83 L500.00,330.92 L507.80,320.84 L515.60,310.70 L523.40,300.60 L531.20,290.66 L539.00,280.98 L546.80,271.67 L554.60,262.83 L562.40,254.55 L570.20,246.91 L578.00,239.99 L585.80,233.84 L593.60,228.53 L601.40,224.09 L609.20,220.54 L617.00,217.91 L624.80,216.20 L632.60,215.39 L640.40,215.46 L648.20,216.38 L656.00,218.09 L663.80,220.55 L671.60,223.67 L679.40,227.40 L687.20,231.63 L695.00,236.29 L702.80,241.28 L710.60,246.51 L718.40,251.87 L726.20,257.27 L734.00,262.61 L741.80,267.80 L749.60,272.75 L757.40,277.38 L765.20,281.61 L773.00,285.38 L780.80,288.63 L788.60,291.32 L796.40,293.40 L804.20,294.85 L812.00,295.66 L819.80,295.84 L827.60,295.38 L835.40,294.32 L843.20,292.68 L851.00,290.51 L858.80,287.86 L866.60,284.80 L874.40,281.40 L882.20,277.72 L890.00,273.85"/><path d="M110.00,345.85 L117.80,342.44 L125.60,338.93 L133.40,335.45 L141.20,332.10 L149.00,328.96 L156.80,326.12 L164.60,323.66 L172.40,321.64 L180.20,320.13 L188.00,319.17 L195.80,318.81 L203.60,319.08 L211.40,320.00 L219.20,321.58 L227.00,323.81 L234.80,326.68 L242.60,330.15 L250.40,334.20 L258.20,338.76 L266.00,343.78 L273.80,349.19 L281.60,354.91 L289.40,360.85 L297.20,366.93 L305.00,373.05 L312.80,379.10 L320.60,384.99 L328.40,390.62 L336.20,395.89 L344.00,400.71 L351.80,404.98 L359.60,408.63 L367.40,411.57 L375.20,413.74 L383.00,415.08 L390.80,415.54 L398.60,415.09 L406.40,413.70 L414.20,411.37 L422.00,408.10 L429.80,403.89 L437.60,398.80 L445.40,392.84 L453.20,386.08 L461.00,378.58 L468.80,370.42 L476.60,361.68 L484.40,352.45 L492.20,342.83 L500.00,332.92 L507.80,322.84 L515.60,312.70 L523.40,302.60 L531.20,292.66 L539.00,282.98 L546.80,273.67 L554.60,264.83 L562.40,256.55 L570.20,248.91 L578.00,241.99 L585.80,235.84 L593.60,230.53 L601.40,226.09 L609.20,222.54 L617.00,219.91 L624.80,218.20 L632.60,217.39 L640.40,217.46 L648.20,218.38 L656.00,220.09 L663.80,222.55 L671.60,225.67 L679.40,229.40 L687.20,233.63 L695.00,238.29 L702.80,243.28 L710.60,248.51 L718.40,253.87 L726.20,259.27 L734.00,264.61 L741.80,269.80 L749.60,274.75 L757.40,279.38 L765.20,283.61 L773.00,287.38 L780.80,290.63 L788.60,293.32 L796.40,295.40 L804.20,296.85 L812.00,297.66 L819.80,297.84 L827.60,297.38 L835.40,296.32 L843.20,294.68 L851.00,292.51 L858.80,289.86 L866.60,286.80 L874.40,283.40 L882.20,279.72 L890.00,275.85"/><path d="M110.00,347.85 L117.80,344.44 L125.60,340.93 L133.40,337.45 L141.20,334.10 L149.00,330.96 L156.80,328.12 L164.60,325.66 L172.40,323.64 L180.20,322.13 L188.00,321.17 L195.80,320.81 L203.60,321.08 L211.40,322.00 L219.20,323.58 L227.00,325.81 L234.80,328.68 L242.60,332.15 L250.40,336.20 L258.20,340.76 L266.00,345.78 L273.80,351.19 L281.60,356.91 L289.40,362.85 L297.20,368.93 L305.00,375.05 L312.80,381.10 L320.60,386.99 L328.40,392.62 L336.20,397.89 L344.00,402.71 L351.80,406.98 L359.60,410.63 L367.40,413.57 L375.20,415.74 L383.00,417.08 L390.80,417.54 L398.60,417.09 L406.40,415.70 L414.20,413.37 L422.00,410.10 L429.80,405.89 L437.60,400.80 L445.40,394.84 L453.20,388.08 L461.00,380.58 L468.80,372.42 L476.60,363.68 L484.40,354.45 L492.20,344.83 L500.00,334.92 L507.80,324.84 L515.60,314.70 L523.40,304.60 L531.20,294.66 L539.00,284.98 L546.80,275.67 L554.60,266.83 L562.40,258.55 L570.20,250.91 L578.00,243.99 L585.80,237.84 L593.60,232.53 L601.40,228.09 L609.20,224.54 L617.00,221.91 L624.80,220.20 L632.60,219.39 L640.40,219.46 L648.20,220.38 L656.00,222.09 L663.80,224.55 L671.60,227.67 L679.40,231.40 L687.20,235.63 L695.00,240.29 L702.80,245.28 L710.60,250.51 L718.40,255.87 L726.20,261.27 L734.00,266.61 L741.80,271.80 L749.60,276.75 L757.40,281.38 L765.20,285.61 L773.00,289.38 L780.80,292.63 L788.60,295.32 L796.40,297.40 L804.20,298.85 L812.00,299.66 L819.80,299.84 L827.60,299.38 L835.40,298.32 L843.20,296.68 L851.00,294.51 L858.80,291.86 L866.60,288.80 L874.40,285.40 L882.20,281.72 L890.00,277.85"/><path d="M110.00,349.85 L117.80,346.44 L125.60,342.93 L133.40,339.45 L141.20,336.10 L149.00,332.96 L156.80,330.12 L164.60,327.66 L172.40,325.64 L180.20,324.13 L188.00,323.17 L195.80,322.81 L203.60,323.08 L211.40,324.00 L219.20,325.58 L227.00,327.81 L234.80,330.68 L242.60,334.15 L250.40,338.20 L258.20,342.76 L266.00,347.78 L273.80,353.19 L281.60,358.91 L289.40,364.85 L297.20,370.93 L305.00,377.05 L312.80,383.10 L320.60,388.99 L328.40,394.62 L336.20,399.89 L344.00,404.71 L351.80,408.98 L359.60,412.63 L367.40,415.57 L375.20,417.74 L383.00,419.08 L390.80,419.54 L398.60,419.09 L406.40,417.70 L414.20,415.37 L422.00,412.10 L429.80,407.89 L437.60,402.80 L445.40,396.84 L453.20,390.08 L461.00,382.58 L468.80,374.42 L476.60,365.68 L484.40,356.45 L492.20,346.83 L500.00,336.92 L507.80,326.84 L515.60,316.70 L523.40,306.60 L531.20,296.66 L539.00,286.98 L546.80,277.67 L554.60,268.83 L562.40,260.55 L570.20,252.91 L578.00,245.99 L585.80,239.84 L593.60,234.53 L601.40,230.09 L609.20,226.54 L617.00,223.91 L624.80,222.20 L632.60,221.39 L640.40,221.46 L648.20,222.38 L656.00,224.09 L663.80,226.55 L671.60,229.67 L679.40,233.40 L687.20,237.63 L695.00,242.29 L702.80,247.28 L710.60,252.51 L718.40,257.87 L726.20,263.27 L734.00,268.61 L741.80,273.80 L749.60,278.75 L757.40,283.38 L765.20,287.61 L773.00,291.38 L780.80,294.63 L788.60,297.32 L796.40,299.40 L804.20,300.85 L812.00,301.66 L819.80,301.84 L827.60,301.38 L835.40,300.32 L843.20,298.68 L851.00,296.51 L858.80,293.86 L866.60,290.80 L874.40,287.40 L882.20,283.72 L890.00,279.85"/><path d="M110.00,351.85 L117.80,348.44 L125.60,344.93 L133.40,341.45 L141.20,338.10 L149.00,334.96 L156.80,332.12 L164.60,329.66 L172.40,327.64 L180.20,326.13 L188.00,325.17 L195.80,324.81 L203.60,325.08 L211.40,326.00 L219.20,327.58 L227.00,329.81 L234.80,332.68 L242.60,336.15 L250.40,340.20 L258.20,344.76 L266.00,349.78 L273.80,355.19 L281.60,360.91 L289.40,366.85 L297.20,372.93 L305.00,379.05 L312.80,385.10 L320.60,390.99 L328.40,396.62 L336.20,401.89 L344.00,406.71 L351.80,410.98 L359.60,414.63 L367.40,417.57 L375.20,419.74 L383.00,421.08 L390.80,421.54 L398.60,421.09 L406.40,419.70 L414.20,417.37 L422.00,414.10 L429.80,409.89 L437.60,404.80 L445.40,398.84 L453.20,392.08 L461.00,384.58 L468.80,376.42 L476.60,367.68 L484.40,358.45 L492.20,348.83 L500.00,338.92 L507.80,328.84 L515.60,318.70 L523.40,308.60 L531.20,298.66 L539.00,288.98 L546.80,279.67 L554.60,270.83 L562.40,262.55 L570.20,254.91 L578.00,247.99 L585.80,241.84 L593.60,236.53 L601.40,232.09 L609.20,228.54 L617.00,225.91 L624.80,224.20 L632.60,223.39 L640.40,223.46 L648.20,224.38 L656.00,226.09 L663.80,228.55 L671.60,231.67 L679.40,235.40 L687.20,239.63 L695.00,244.29 L702.80,249.28 L710.60,254.51 L718.40,259.87 L726.20,265.27 L734.00,270.61 L741.80,275.80 L749.60,280.75 L757.40,285.38 L765.20,289.61 L773.00,293.38 L780.80,296.63 L788.60,299.32 L796.40,301.40 L804.20,302.85 L812.00,303.66 L819.80,303.84 L827.60,303.38 L835.40,302.32 L843.20,300.68 L851.00,298.51 L858.80,295.86 L866.60,292.80 L874.40,289.40 L882.20,285.72 L890.00,281.85"/><path d="M110.00,353.85 L117.80,350.44 L125.60,346.93 L133.40,343.45 L141.20,340.10 L149.00,336.96 L156.80,334.12 L164.60,331.66 L172.40,329.64 L180.20,328.13 L188.00,327.17 L195.80,326.81 L203.60,327.08 L211.40,328.00 L219.20,329.58 L227.00,331.81 L234.80,334.68 L242.60,338.15 L250.40,342.20 L258.20,346.76 L266.00,351.78 L273.80,357.19 L281.60,362.91 L289.40,368.85 L297.20,374.93 L305.00,381.05 L312.80,387.10 L320.60,392.99 L328.40,398.62 L336.20,403.89 L344.00,408.71 L351.80,412.98 L359.60,416.63 L367.40,419.57 L375.20,421.74 L383.00,423.08 L390.80,423.54 L398.60,423.09 L406.40,421.70 L414.20,419.37 L422.00,416.10 L429.80,411.89 L437.60,406.80 L445.40,400.84 L453.20,394.08 L461.00,386.58 L468.80,378.42 L476.60,369.68 L484.40,360.45 L492.20,350.83 L500.00,340.92 L507.80,330.84 L515.60,320.70 L523.40,310.60 L531.20,300.66 L539.00,290.98 L546.80,281.67 L554.60,272.83 L562.40,264.55 L570.20,256.91 L578.00,249.99 L585.80,243.84 L593.60,238.53 L601.40,234.09 L609.20,230.54 L617.00,227.91 L624.80,226.20 L632.60,225.39 L640.40,225.46 L648.20,226.38 L656.00,228.09 L663.80,230.55 L671.60,233.67 L679.40,237.40 L687.20,241.63 L695.00,246.29 L702.80,251.28 L710.60,256.51 L718.40,261.87 L726.20,267.27 L734.00,272.61 L741.80,277.80 L749.60,282.75 L757.40,287.38 L765.20,291.61 L773.00,295.38 L780.80,298.63 L788.60,301.32 L796.40,303.40 L804.20,304.85 L812.00,305.66 L819.80,305.84 L827.60,305.38 L835.40,304.32 L843.20,302.68 L851.00,300.51 L858.80,297.86 L866.60,294.80 L874.40,291.40 L882.20,287.72 L890.00,283.85"/><path d="M110.00,355.85 L117.80,352.44 L125.60,348.93 L133.40,345.45 L141.20,342.10 L149.00,338.96 L156.80,336.12 L164.60,333.66 L172.40,331.64 L180.20,330.13 L188.00,329.17 L195.80,328.81 L203.60,329.08 L211.40,330.00 L219.20,331.58 L227.00,333.81 L234.80,336.68 L242.60,340.15 L250.40,344.20 L258.20,348.76 L266.00,353.78 L273.80,359.19 L281.60,364.91 L289.40,370.85 L297.20,376.93 L305.00,383.05 L312.80,389.10 L320.60,394.99 L328.40,400.62 L336.20,405.89 L344.00,410.71 L351.80,414.98 L359.60,418.63 L367.40,421.57 L375.20,423.74 L383.00,425.08 L390.80,425.54 L398.60,425.09 L406.40,423.70 L414.20,421.37 L422.00,418.10 L429.80,413.89 L437.60,408.80 L445.40,402.84 L453.20,396.08 L461.00,388.58 L468.80,380.42 L476.60,371.68 L484.40,362.45 L492.20,352.83 L500.00,342.92 L507.80,332.84 L515.60,322.70 L523.40,312.60 L531.20,302.66 L539.00,292.98 L546.80,283.67 L554.60,274.83 L562.40,266.55 L570.20,258.91 L578.00,251.99 L585.80,245.84 L593.60,240.53 L601.40,236.09 L609.20,232.54 L617.00,229.91 L624.80,228.20 L632.60,227.39 L640.40,227.46 L648.20,228.38 L656.00,230.09 L663.80,232.55 L671.60,235.67 L679.40,239.40 L687.20,243.63 L695.00,248.29 L702.80,253.28 L710.60,258.51 L718.40,263.87 L726.20,269.27 L734.00,274.61 L741.80,279.80 L749.60,284.75 L757.40,289.38 L765.20,293.61 L773.00,297.38 L780.80,300.63 L788.60,303.32 L796.40,305.40 L804.20,306.85 L812.00,307.66 L819.80,307.84 L827.60,307.38 L835.40,306.32 L843.20,304.68 L851.00,302.51 L858.80,299.86 L866.60,296.80 L874.40,293.40 L882.20,289.72 L890.00,285.85"/><path d="M110.00,357.85 L117.80,354.44 L125.60,350.93 L133.40,347.45 L141.20,344.10 L149.00,340.96 L156.80,338.12 L164.60,335.66 L172.40,333.64 L180.20,332.13 L188.00,331.17 L195.80,330.81 L203.60,331.08 L211.40,332.00 L219.20,333.58 L227.00,335.81 L234.80,338.68 L242.60,342.15 L250.40,346.20 L258.20,350.76 L266.00,355.78 L273.80,361.19 L281.60,366.91 L289.40,372.85 L297.20,378.93 L305.00,385.05 L312.80,391.10 L320.60,396.99 L328.40,402.62 L336.20,407.89 L344.00,412.71 L351.80,416.98 L359.60,420.63 L367.40,423.57 L375.20,425.74 L383.00,427.08 L390.80,427.54 L398.60,427.09 L406.40,425.70 L414.20,423.37 L422.00,420.10 L429.80,415.89 L437.60,410.80 L445.40,404.84 L453.20,398.08 L461.00,390.58 L468.80,382.42 L476.60,373.68 L484.40,364.45 L492.20,354.83 L500.00,344.92 L507.80,334.84 L515.60,324.70 L523.40,314.60 L531.20,304.66 L539.00,294.98 L546.80,285.67 L554.60,276.83 L562.40,268.55 L570.20,260.91 L578.00,253.99 L585.80,247.84 L593.60,242.53 L601.40,238.09 L609.20,234.54 L617.00,231.91 L624.80,230.20 L632.60,229.39 L640.40,229.46 L648.20,230.38 L656.00,232.09 L663.80,234.55 L671.60,237.67 L679.40,241.40 L687.20,245.63 L695.00,250.29 L702.80,255.28 L710.60,260.51 L718.40,265.87 L726.20,271.27 L734.00,276.61 L741.80,281.80 L749.60,286.75 L757.40,291.38 L765.20,295.61 L773.00,299.38 L780.80,302.63 L788.60,305.32 L796.40,307.40 L804.20,308.85 L812.00,309.66 L819.80,309.84 L827.60,309.38 L835.40,308.32 L843.20,306.68 L851.00,304.51 L858.80,301.86 L866.60,298.80 L874.40,295.40 L882.20,291.72 L890.00,287.85"/><path d="M110.00,359.85 L117.80,356.44 L125.60,352.93 L133.40,349.45 L141.20,346.10 L149.00,342.96 L156.80,340.12 L164.60,337.66 L172.40,335.64 L180.20,334.13 L188.00,333.17 L195.80,332.81 L203.60,333.08 L211.40,334.00 L219.20,335.58 L227.00,337.81 L234.80,340.68 L242.60,344.15 L250.40,348.20 L258.20,352.76 L266.00,357.78 L273.80,363.19 L281.60,368.91 L289.40,374.85 L297.20,380.93 L305.00,387.05 L312.80,393.10 L320.60,398.99 L328.40,404.62 L336.20,409.89 L344.00,414.71 L351.80,418.98 L359.60,422.63 L367.40,425.57 L375.20,427.74 L383.00,429.08 L390.80,429.54 L398.60,429.09 L406.40,427.70 L414.20,425.37 L422.00,422.10 L429.80,417.89 L437.60,412.80 L445.40,406.84 L453.20,400.08 L461.00,392.58 L468.80,384.42 L476.60,375.68 L484.40,366.45 L492.20,356.83 L500.00,346.92 L507.80,336.84 L515.60,326.70 L523.40,316.60 L531.20,306.66 L539.00,296.98 L546.80,287.67 L554.60,278.83 L562.40,270.55 L570.20,262.91 L578.00,255.99 L585.80,249.84 L593.60,244.53 L601.40,240.09 L609.20,236.54 L617.00,233.91 L624.80,232.20 L632.60,231.39 L640.40,231.46 L648.20,232.38 L656.00,234.09 L663.80,236.55 L671.60,239.67 L679.40,243.40 L687.20,247.63 L695.00,252.29 L702.80,257.28 L710.60,262.51 L718.40,267.87 L726.20,273.27 L734.00,278.61 L741.80,283.80 L749.60,288.75 L757.40,293.38 L765.20,297.61 L773.00,301.38 L780.80,304.63 L788.60,307.32 L796.40,309.40 L804.20,310.85 L812.00,311.66 L819.80,311.84 L827.60,311.38 L835.40,310.32 L843.20,308.68 L851.00,306.51 L858.80,303.86 L866.60,300.80 L874.40,297.40 L882.20,293.72 L890.00,289.85"/><path d="M110.00,361.85 L117.80,358.44 L125.60,354.93 L133.40,351.45 L141.20,348.10 L149.00,344.96 L156.80,342.12 L164.60,339.66 L172.40,337.64 L180.20,336.13 L188.00,335.17 L195.80,334.81 L203.60,335.08 L211.40,336.00 L219.20,337.58 L227.00,339.81 L234.80,342.68 L242.60,346.15 L250.40,350.20 L258.20,354.76 L266.00,359.78 L273.80,365.19 L281.60,370.91 L289.40,376.85 L297.20,382.93 L305.00,389.05 L312.80,395.10 L320.60,400.99 L328.40,406.62 L336.20,411.89 L344.00,416.71 L351.80,420.98 L359.60,424.63 L367.40,427.57 L375.20,429.74 L383.00,431.08 L390.80,431.54 L398.60,431.09 L406.40,429.70 L414.20,427.37 L422.00,424.10 L429.80,419.89 L437.60,414.80 L445.40,408.84 L453.20,402.08 L461.00,394.58 L468.80,386.42 L476.60,377.68 L484.40,368.45 L492.20,358.83 L500.00,348.92 L507.80,338.84 L515.60,328.70 L523.40,318.60 L531.20,308.66 L539.00,298.98 L546.80,289.67 L554.60,280.83 L562.40,272.55 L570.20,264.91 L578.00,257.99 L585.80,251.84 L593.60,246.53 L601.40,242.09 L609.20,238.54 L617.00,235.91 L624.80,234.20 L632.60,233.39 L640.40,233.46 L648.20,234.38 L656.00,236.09 L663.80,238.55 L671.60,241.67 L679.40,245.40 L687.20,249.63 L695.00,254.29 L702.80,259.28 L710.60,264.51 L718.40,269.87 L726.20,275.27 L734.00,280.61 L741.80,285.80 L749.60,290.75 L757.40,295.38 L765.20,299.61 L773.00,303.38 L780.80,306.63 L788.60,309.32 L796.40,311.40 L804.20,312.85 L812.00,313.66 L819.80,313.84 L827.60,313.38 L835.40,312.32 L843.20,310.68 L851.00,308.51 L858.80,305.86 L866.60,302.80 L874.40,299.40 L882.20,295.72 L890.00,291.85"/><path d="M110.00,363.85 L117.80,360.44 L125.60,356.93 L133.40,353.45 L141.20,350.10 L149.00,346.96 L156.80,344.12 L164.60,341.66 L172.40,339.64 L180.20,338.13 L188.00,337.17 L195.80,336.81 L203.60,337.08 L211.40,338.00 L219.20,339.58 L227.00,341.81 L234.80,344.68 L242.60,348.15 L250.40,352.20 L258.20,356.76 L266.00,361.78 L273.80,367.19 L281.60,372.91 L289.40,378.85 L297.20,384.93 L305.00,391.05 L312.80,397.10 L320.60,402.99 L328.40,408.62 L336.20,413.89 L344.00,418.71 L351.80,422.98 L359.60,426.63 L367.40,429.57 L375.20,431.74 L383.00,433.08 L390.80,433.54 L398.60,433.09 L406.40,431.70 L414.20,429.37 L422.00,426.10 L429.80,421.89 L437.60,416.80 L445.40,410.84 L453.20,404.08 L461.00,396.58 L468.80,388.42 L476.60,379.68 L484.40,370.45 L492.20,360.83 L500.00,350.92 L507.80,340.84 L515.60,330.70 L523.40,320.60 L531.20,310.66 L539.00,300.98 L546.80,291.67 L554.60,282.83 L562.40,274.55 L570.20,266.91 L578.00,259.99 L585.80,253.84 L593.60,248.53 L601.40,244.09 L609.20,240.54 L617.00,237.91 L624.80,236.20 L632.60,235.39 L640.40,235.46 L648.20,236.38 L656.00,238.09 L663.80,240.55 L671.60,243.67 L679.40,247.40 L687.20,251.63 L695.00,256.29 L702.80,261.28 L710.60,266.51 L718.40,271.87 L726.20,277.27 L734.00,282.61 L741.80,287.80 L749.60,292.75 L757.40,297.38 L765.20,301.61 L773.00,305.38 L780.80,308.63 L788.60,311.32 L796.40,313.40 L804.20,314.85 L812.00,315.66 L819.80,315.84 L827.60,315.38 L835.40,314.32 L843.20,312.68 L851.00,310.51 L858.80,307.86 L866.60,304.80 L874.40,301.40 L882.20,297.72 L890.00,293.85"/><path d="M110.00,365.85 L117.80,362.44 L125.60,358.93 L133.40,355.45 L141.20,352.10 L149.00,348.96 L156.80,346.12 L164.60,343.66 L172.40,341.64 L180.20,340.13 L188.00,339.17 L195.80,338.81 L203.60,339.08 L211.40,340.00 L219.20,341.58 L227.00,343.81 L234.80,346.68 L242.60,350.15 L250.40,354.20 L258.20,358.76 L266.00,363.78 L273.80,369.19 L281.60,374.91 L289.40,380.85 L297.20,386.93 L305.00,393.05 L312.80,399.10 L320.60,404.99 L328.40,410.62 L336.20,415.89 L344.00,420.71 L351.80,424.98 L359.60,428.63 L367.40,431.57 L375.20,433.74 L383.00,435.08 L390.80,435.54 L398.60,435.09 L406.40,433.70 L414.20,431.37 L422.00,428.10 L429.80,423.89 L437.60,418.80 L445.40,412.84 L453.20,406.08 L461.00,398.58 L468.80,390.42 L476.60,381.68 L484.40,372.45 L492.20,362.83 L500.00,352.92 L507.80,342.84 L515.60,332.70 L523.40,322.60 L531.20,312.66 L539.00,302.98 L546.80,293.67 L554.60,284.83 L562.40,276.55 L570.20,268.91 L578.00,261.99 L585.80,255.84 L593.60,250.53 L601.40,246.09 L609.20,242.54 L617.00,239.91 L624.80,238.20 L632.60,237.39 L640.40,237.46 L648.20,238.38 L656.00,240.09 L663.80,242.55 L671.60,245.67 L679.40,249.40 L687.20,253.63 L695.00,258.29 L702.80,263.28 L710.60,268.51 L718.40,273.87 L726.20,279.27 L734.00,284.61 L741.80,289.80 L749.60,294.75 L757.40,299.38 L765.20,303.61 L773.00,307.38 L780.80,310.63 L788.60,313.32 L796.40,315.40 L804.20,316.85 L812.00,317.66 L819.80,317.84 L827.60,317.38 L835.40,316.32 L843.20,314.68 L851.00,312.51 L858.80,309.86 L866.60,306.80 L874.40,303.40 L882.20,299.72 L890.00,295.85"/><path d="M110.00,367.85 L117.80,364.44 L125.60,360.93 L133.40,357.45 L141.20,354.10 L149.00,350.96 L156.80,348.12 L164.60,345.66 L172.40,343.64 L180.20,342.13 L188.00,341.17 L195.80,340.81 L203.60,341.08 L211.40,342.00 L219.20,343.58 L227.00,345.81 L234.80,348.68 L242.60,352.15 L250.40,356.20 L258.20,360.76 L266.00,365.78 L273.80,371.19 L281.60,376.91 L289.40,382.85 L297.20,388.93 L305.00,395.05 L312.80,401.10 L320.60,406.99 L328.40,412.62 L336.20,417.89 L344.00,422.71 L351.80,426.98 L359.60,430.63 L367.40,433.57 L375.20,435.74 L383.00,437.08 L390.80,437.54 L398.60,437.09 L406.40,435.70 L414.20,433.37 L422.00,430.10 L429.80,425.89 L437.60,420.80 L445.40,414.84 L453.20,408.08 L461.00,400.58 L468.80,392.42 L476.60,383.68 L484.40,374.45 L492.20,364.83 L500.00,354.92 L507.80,344.84 L515.60,334.70 L523.40,324.60 L531.20,314.66 L539.00,304.98 L546.80,295.67 L554.60,286.83 L562.40,278.55 L570.20,270.91 L578.00,263.99 L585.80,257.84 L593.60,252.53 L601.40,248.09 L609.20,244.54 L617.00,241.91 L624.80,240.20 L632.60,239.39 L640.40,239.46 L648.20,240.38 L656.00,242.09 L663.80,244.55 L671.60,247.67 L679.40,251.40 L687.20,255.63 L695.00,260.29 L702.80,265.28 L710.60,270.51 L718.40,275.87 L726.20,281.27 L734.00,286.61 L741.80,291.80 L749.60,296.75 L757.40,301.38 L765.20,305.61 L773.00,309.38 L780.80,312.63 L788.60,315.32 L796.40,317.40 L804.20,318.85 L812.00,319.66 L819.80,319.84 L827.60,319.38 L835.40,318.32 L843.20,316.68 L851.00,314.51 L858.80,311.86 L866.60,308.80 L874.40,305.40 L882.20,301.72 L890.00,297.85"/><path d="M110.00,369.85 L117.80,366.44 L125.60,362.93 L133.40,359.45 L141.20,356.10 L149.00,352.96 L156.80,350.12 L164.60,347.66 L172.40,345.64 L180.20,344.13 L188.00,343.17 L195.80,342.81 L203.60,343.08 L211.40,344.00 L219.20,345.58 L227.00,347.81 L234.80,350.68 L242.60,354.15 L250.40,358.20 L258.20,362.76 L266.00,367.78 L273.80,373.19 L281.60,378.91 L289.40,384.85 L297.20,390.93 L305.00,397.05 L312.80,403.10 L320.60,408.99 L328.40,414.62 L336.20,419.89 L344.00,424.71 L351.80,428.98 L359.60,432.63 L367.40,435.57 L375.20,437.74 L383.00,439.08 L390.80,439.54 L398.60,439.09 L406.40,437.70 L414.20,435.37 L422.00,432.10 L429.80,427.89 L437.60,422.80 L445.40,416.84 L453.20,410.08 L461.00,402.58 L468.80,394.42 L476.60,385.68 L484.40,376.45 L492.20,366.83 L500.00,356.92 L507.80,346.84 L515.60,336.70 L523.40,326.60 L531.20,316.66 L539.00,306.98 L546.80,297.67 L554.60,288.83 L562.40,280.55 L570.20,272.91 L578.00,265.99 L585.80,259.84 L593.60,254.53 L601.40,250.09 L609.20,246.54 L617.00,243.91 L624.80,242.20 L632.60,241.39 L640.40,241.46 L648.20,242.38 L656.00,244.09 L663.80,246.55 L671.60,249.67 L679.40,253.40 L687.20,257.63 L695.00,262.29 L702.80,267.28 L710.60,272.51 L718.40,277.87 L726.20,283.27 L734.00,288.61 L741.80,293.80 L749.60,298.75 L757.40,303.38 L765.20,307.61 L773.00,311.38 L780.80,314.63 L788.60,317.32 L796.40,319.40 L804.20,320.85 L812.00,321.66 L819.80,321.84 L827.60,321.38 L835.40,320.32 L843.20,318.68 L851.00,316.51 L858.80,313.86 L866.60,310.80 L874.40,307.40 L882.20,303.72 L890.00,299.85"/><path d="M110.00,371.85 L117.80,368.44 L125.60,364.93 L133.40,361.45 L141.20,358.10 L149.00,354.96 L156.80,352.12 L164.60,349.66 L172.40,347.64 L180.20,346.13 L188.00,345.17 L195.80,344.81 L203.60,345.08 L211.40,346.00 L219.20,347.58 L227.00,349.81 L234.80,352.68 L242.60,356.15 L250.40,360.20 L258.20,364.76 L266.00,369.78 L273.80,375.19 L281.60,380.91 L289.40,386.85 L297.20,392.93 L305.00,399.05 L312.80,405.10 L320.60,410.99 L328.40,416.62 L336.20,421.89 L344.00,426.71 L351.80,430.98 L359.60,434.63 L367.40,437.57 L375.20,439.74 L383.00,441.08 L390.80,441.54 L398.60,441.09 L406.40,439.70 L414.20,437.37 L422.00,434.10 L429.80,429.89 L437.60,424.80 L445.40,418.84 L453.20,412.08 L461.00,404.58 L468.80,396.42 L476.60,387.68 L484.40,378.45 L492.20,368.83 L500.00,358.92 L507.80,348.84 L515.60,338.70 L523.40,328.60 L531.20,318.66 L539.00,308.98 L546.80,299.67 L554.60,290.83 L562.40,282.55 L570.20,274.91 L578.00,267.99 L585.80,261.84 L593.60,256.53 L601.40,252.09 L609.20,248.54 L617.00,245.91 L624.80,244.20 L632.60,243.39 L640.40,243.46 L648.20,244.38 L656.00,246.09 L663.80,248.55 L671.60,251.67 L679.40,255.40 L687.20,259.63 L695.00,264.29 L702.80,269.28 L710.60,274.51 L718.40,279.87 L726.20,285.27 L734.00,290.61 L741.80,295.80 L749.60,300.75 L757.40,305.38 L765.20,309.61 L773.00,313.38 L780.80,316.63 L788.60,319.32 L796.40,321.40 L804.20,322.85 L812.00,323.66 L819.80,323.84 L827.60,323.38 L835.40,322.32 L843.20,320.68 L851.00,318.51 L858.80,315.86 L866.60,312.80 L874.40,309.40 L882.20,305.72 L890.00,301.85"/><path d="M110.00,373.85 L117.80,370.44 L125.60,366.93 L133.40,363.45 L141.20,360.10 L149.00,356.96 L156.80,354.12 L164.60,351.66 L172.40,349.64 L180.20,348.13 L188.00,347.17 L195.80,346.81 L203.60,347.08 L211.40,348.00 L219.20,349.58 L227.00,351.81 L234.80,354.68 L242.60,358.15 L250.40,362.20 L258.20,366.76 L266.00,371.78 L273.80,377.19 L281.60,382.91 L289.40,388.85 L297.20,394.93 L305.00,401.05 L312.80,407.10 L320.60,412.99 L328.40,418.62 L336.20,423.89 L344.00,428.71 L351.80,432.98 L359.60,436.63 L367.40,439.57 L375.20,441.74 L383.00,443.08 L390.80,443.54 L398.60,443.09 L406.40,441.70 L414.20,439.37 L422.00,436.10 L429.80,431.89 L437.60,426.80 L445.40,420.84 L453.20,414.08 L461.00,406.58 L468.80,398.42 L476.60,389.68 L484.40,380.45 L492.20,370.83 L500.00,360.92 L507.80,350.84 L515.60,340.70 L523.40,330.60 L531.20,320.66 L539.00,310.98 L546.80,301.67 L554.60,292.83 L562.40,284.55 L570.20,276.91 L578.00,269.99 L585.80,263.84 L593.60,258.53 L601.40,254.09 L609.20,250.54 L617.00,247.91 L624.80,246.20 L632.60,245.39 L640.40,245.46 L648.20,246.38 L656.00,248.09 L663.80,250.55 L671.60,253.67 L679.40,257.40 L687.20,261.63 L695.00,266.29 L702.80,271.28 L710.60,276.51 L718.40,281.87 L726.20,287.27 L734.00,292.61 L741.80,297.80 L749.60,302.75 L757.40,307.38 L765.20,311.61 L773.00,315.38 L780.80,318.63 L788.60,321.32 L796.40,323.40 L804.20,324.85 L812.00,325.66 L819.80,325.84 L827.60,325.38 L835.40,324.32 L843.20,322.68 L851.00,320.51 L858.80,317.86 L866.60,314.80 L874.40,311.40 L882.20,307.72 L890.00,303.85"/><path d="M110.00,375.85 L117.80,372.44 L125.60,368.93 L133.40,365.45 L141.20,362.10 L149.00,358.96 L156.80,356.12 L164.60,353.66 L172.40,351.64 L180.20,350.13 L188.00,349.17 L195.80,348.81 L203.60,349.08 L211.40,350.00 L219.20,351.58 L227.00,353.81 L234.80,356.68 L242.60,360.15 L250.40,364.20 L258.20,368.76 L266.00,373.78 L273.80,379.19 L281.60,384.91 L289.40,390.85 L297.20,396.93 L305.00,403.05 L312.80,409.10 L320.60,414.99 L328.40,420.62 L336.20,425.89 L344.00,430.71 L351.80,434.98 L359.60,438.63 L367.40,441.57 L375.20,443.74 L383.00,445.08 L390.80,445.54 L398.60,445.09 L406.40,443.70 L414.20,441.37 L422.00,438.10 L429.80,433.89 L437.60,428.80 L445.40,422.84 L453.20,416.08 L461.00,408.58 L468.80,400.42 L476.60,391.68 L484.40,382.45 L492.20,372.83 L500.00,362.92 L507.80,352.84 L515.60,342.70 L523.40,332.60 L531.20,322.66 L539.00,312.98 L546.80,303.67 L554.60,294.83 L562.40,286.55 L570.20,278.91 L578.00,271.99 L585.80,265.84 L593.60,260.53 L601.40,256.09 L609.20,252.54 L617.00,249.91 L624.80,248.20 L632.60,247.39 L640.40,247.46 L648.20,248.38 L656.00,250.09 L663.80,252.55 L671.60,255.67 L679.40,259.40 L687.20,263.63 L695.00,268.29 L702.80,273.28 L710.60,278.51 L718.40,283.87 L726.20,289.27 L734.00,294.61 L741.80,299.80 L749.60,304.75 L757.40,309.38 L765.20,313.61 L773.00,317.38 L780.80,320.63 L788.60,323.32 L796.40,325.40 L804.20,326.85 L812.00,327.66 L819.80,327.84 L827.60,327.38 L835.40,326.32 L843.20,324.68 L851.00,322.51 L858.80,319.86 L866.60,316.80 L874.40,313.40 L882.20,309.72 L890.00,305.85"/><path d="M110.00,377.85 L117.80,374.44 L125.60,370.93 L133.40,367.45 L141.20,364.10 L149.00,360.96 L156.80,358.12 L164.60,355.66 L172.40,353.64 L180.20,352.13 L188.00,351.17 L195.80,350.81 L203.60,351.08 L211.40,352.00 L219.20,353.58 L227.00,355.81 L234.80,358.68 L242.60,362.15 L250.40,366.20 L258.20,370.76 L266.00,375.78 L273.80,381.19 L281.60,386.91 L289.40,392.85 L297.20,398.93 L305.00,405.05 L312.80,411.10 L320.60,416.99 L328.40,422.62 L336.20,427.89 L344.00,432.71 L351.80,436.98 L359.60,440.63 L367.40,443.57 L375.20,445.74 L383.00,447.08 L390.80,447.54 L398.60,447.09 L406.40,445.70 L414.20,443.37 L422.00,440.10 L429.80,435.89 L437.60,430.80 L445.40,424.84 L453.20,418.08 L461.00,410.58 L468.80,402.42 L476.60,393.68 L484.40,384.45 L492.20,374.83 L500.00,364.92 L507.80,354.84 L515.60,344.70 L523.40,334.60 L531.20,324.66 L539.00,314.98 L546.80,305.67 L554.60,296.83 L562.40,288.55 L570.20,280.91 L578.00,273.99 L585.80,267.84 L593.60,262.53 L601.40,258.09 L609.20,254.54 L617.00,251.91 L624.80,250.20 L632.60,249.39 L640.40,249.46 L648.20,250.38 L656.00,252.09 L663.80,254.55 L671.60,257.67 L679.40,261.40 L687.20,265.63 L695.00,270.29 L702.80,275.28 L710.60,280.51 L718.40,285.87 L726.20,291.27 L734.00,296.61 L741.80,301.80 L749.60,306.75 L757.40,311.38 L765.20,315.61 L773.00,319.38 L780.80,322.63 L788.60,325.32 L796.40,327.40 L804.20,328.85 L812.00,329.66 L819.80,329.84 L827.60,329.38 L835.40,328.32 L843.20,326.68 L851.00,324.51 L858.80,321.86 L866.60,318.80 L874.40,315.40 L882.20,311.72 L890.00,307.85"/><path d="M110.00,379.85 L117.80,376.44 L125.60,372.93 L133.40,369.45 L141.20,366.10 L149.00,362.96 L156.80,360.12 L164.60,357.66 L172.40,355.64 L180.20,354.13 L188.00,353.17 L195.80,352.81 L203.60,353.08 L211.40,354.00 L219.20,355.58 L227.00,357.81 L234.80,360.68 L242.60,364.15 L250.40,368.20 L258.20,372.76 L266.00,377.78 L273.80,383.19 L281.60,388.91 L289.40,394.85 L297.20,400.93 L305.00,407.05 L312.80,413.10 L320.60,418.99 L328.40,424.62 L336.20,429.89 L344.00,434.71 L351.80,438.98 L359.60,442.63 L367.40,445.57 L375.20,447.74 L383.00,449.08 L390.80,449.54 L398.60,449.09 L406.40,447.70 L414.20,445.37 L422.00,442.10 L429.80,437.89 L437.60,432.80 L445.40,426.84 L453.20,420.08 L461.00,412.58 L468.80,404.42 L476.60,395.68 L484.40,386.45 L492.20,376.83 L500.00,366.92 L507.80,356.84 L515.60,346.70 L523.40,336.60 L531.20,326.66 L539.00,316.98 L546.80,307.67 L554.60,298.83 L562.40,290.55 L570.20,282.91 L578.00,275.99 L585.80,269.84 L593.60,264.53 L601.40,260.09 L609.20,256.54 L617.00,253.91 L624.80,252.20 L632.60,251.39 L640.40,251.46 L648.20,252.38 L656.00,254.09 L663.80,256.55 L671.60,259.67 L679.40,263.40 L687.20,267.63 L695.00,272.29 L702.80,277.28 L710.60,282.51 L718.40,287.87 L726.20,293.27 L734.00,298.61 L741.80,303.80 L749.60,308.75 L757.40,313.38 L765.20,317.61 L773.00,321.38 L780.80,324.63 L788.60,327.32 L796.40,329.40 L804.20,330.85 L812.00,331.66 L819.80,331.84 L827.60,331.38 L835.40,330.32 L843.20,328.68 L851.00,326.51 L858.80,323.86 L866.60,320.80 L874.40,317.40 L882.20,313.72 L890.00,309.85"/><path d="M110.00,381.85 L117.80,378.44 L125.60,374.93 L133.40,371.45 L141.20,368.10 L149.00,364.96 L156.80,362.12 L164.60,359.66 L172.40,357.64 L180.20,356.13 L188.00,355.17 L195.80,354.81 L203.60,355.08 L211.40,356.00 L219.20,357.58 L227.00,359.81 L234.80,362.68 L242.60,366.15 L250.40,370.20 L258.20,374.76 L266.00,379.78 L273.80,385.19 L281.60,390.91 L289.40,396.85 L297.20,402.93 L305.00,409.05 L312.80,415.10 L320.60,420.99 L328.40,426.62 L336.20,431.89 L344.00,436.71 L351.80,440.98 L359.60,444.63 L367.40,447.57 L375.20,449.74 L383.00,451.08 L390.80,451.54 L398.60,451.09 L406.40,449.70 L414.20,447.37 L422.00,444.10 L429.80,439.89 L437.60,434.80 L445.40,428.84 L453.20,422.08 L461.00,414.58 L468.80,406.42 L476.60,397.68 L484.40,388.45 L492.20,378.83 L500.00,368.92 L507.80,358.84 L515.60,348.70 L523.40,338.60 L531.20,328.66 L539.00,318.98 L546.80,309.67 L554.60,300.83 L562.40,292.55 L570.20,284.91 L578.00,277.99 L585.80,271.84 L593.60,266.53 L601.40,262.09 L609.20,258.54 L617.00,255.91 L624.80,254.20 L632.60,253.39 L640.40,253.46 L648.20,254.38 L656.00,256.09 L663.80,258.55 L671.60,261.67 L679.40,265.40 L687.20,269.63 L695.00,274.29 L702.80,279.28 L710.60,284.51 L718.40,289.87 L726.20,295.27 L734.00,300.61 L741.80,305.80 L749.60,310.75 L757.40,315.38 L765.20,319.61 L773.00,323.38 L780.80,326.63 L788.60,329.32 L796.40,331.40 L804.20,332.85 L812.00,333.66 L819.80,333.84 L827.60,333.38 L835.40,332.32 L843.20,330.68 L851.00,328.51 L858.80,325.86 L866.60,322.80 L874.40,319.40 L882.20,315.72 L890.00,311.85"/><path d="M110.00,383.85 L117.80,380.44 L125.60,376.93 L133.40,373.45 L141.20,370.10 L149.00,366.96 L156.80,364.12 L164.60,361.66 L172.40,359.64 L180.20,358.13 L188.00,357.17 L195.80,356.81 L203.60,357.08 L211.40,358.00 L219.20,359.58 L227.00,361.81 L234.80,364.68 L242.60,368.15 L250.40,372.20 L258.20,376.76 L266.00,381.78 L273.80,387.19 L281.60,392.91 L289.40,398.85 L297.20,404.93 L305.00,411.05 L312.80,417.10 L320.60,422.99 L328.40,428.62 L336.20,433.89 L344.00,438.71 L351.80,442.98 L359.60,446.63 L367.40,449.57 L375.20,451.74 L383.00,453.08 L390.80,453.54 L398.60,453.09 L406.40,451.70 L414.20,449.37 L422.00,446.10 L429.80,441.89 L437.60,436.80 L445.40,430.84 L453.20,424.08 L461.00,416.58 L468.80,408.42 L476.60,399.68 L484.40,390.45 L492.20,380.83 L500.00,370.92 L507.80,360.84 L515.60,350.70 L523.40,340.60 L531.20,330.66 L539.00,320.98 L546.80,311.67 L554.60,302.83 L562.40,294.55 L570.20,286.91 L578.00,279.99 L585.80,273.84 L593.60,268.53 L601.40,264.09 L609.20,260.54 L617.00,257.91 L624.80,256.20 L632.60,255.39 L640.40,255.46 L648.20,256.38 L656.00,258.09 L663.80,260.55 L671.60,263.67 L679.40,267.40 L687.20,271.63 L695.00,276.29 L702.80,281.28 L710.60,286.51 L718.40,291.87 L726.20,297.27 L734.00,302.61 L741.80,307.80 L749.60,312.75 L757.40,317.38 L765.20,321.61 L773.00,325.38 L780.80,328.63 L788.60,331.32 L796.40,333.40 L804.20,334.85 L812.00,335.66 L819.80,335.84 L827.60,335.38 L835.40,334.32 L843.20,332.68 L851.00,330.51 L858.80,327.86 L866.60,324.80 L874.40,321.40 L882.20,317.72 L890.00,313.85"/><path d="M110.00,385.85 L117.80,382.44 L125.60,378.93 L133.40,375.45 L141.20,372.10 L149.00,368.96 L156.80,366.12 L164.60,363.66 L172.40,361.64 L180.20,360.13 L188.00,359.17 L195.80,358.81 L203.60,359.08 L211.40,360.00 L219.20,361.58 L227.00,363.81 L234.80,366.68 L242.60,370.15 L250.40,374.20 L258.20,378.76 L266.00,383.78 L273.80,389.19 L281.60,394.91 L289.40,400.85 L297.20,406.93 L305.00,413.05 L312.80,419.10 L320.60,424.99 L328.40,430.62 L336.20,435.89 L344.00,440.71 L351.80,444.98 L359.60,448.63 L367.40,451.57 L375.20,453.74 L383.00,455.08 L390.80,455.54 L398.60,455.09 L406.40,453.70 L414.20,451.37 L422.00,448.10 L429.80,443.89 L437.60,438.80 L445.40,432.84 L453.20,426.08 L461.00,418.58 L468.80,410.42 L476.60,401.68 L484.40,392.45 L492.20,382.83 L500.00,372.92 L507.80,362.84 L515.60,352.70 L523.40,342.60 L531.20,332.66 L539.00,322.98 L546.80,313.67 L554.60,304.83 L562.40,296.55 L570.20,288.91 L578.00,281.99 L585.80,275.84 L593.60,270.53 L601.40,266.09 L609.20,262.54 L617.00,259.91 L624.80,258.20 L632.60,257.39 L640.40,257.46 L648.20,258.38 L656.00,260.09 L663.80,262.55 L671.60,265.67 L679.40,269.40 L687.20,273.63 L695.00,278.29 L702.80,283.28 L710.60,288.51 L718.40,293.87 L726.20,299.27 L734.00,304.61 L741.80,309.80 L749.60,314.75 L757.40,319.38 L765.20,323.61 L773.00,327.38 L780.80,330.63 L788.60,333.32 L796.40,335.40 L804.20,336.85 L812.00,337.66 L819.80,337.84 L827.60,337.38 L835.40,336.32 L843.20,334.68 L851.00,332.51 L858.80,329.86 L866.60,326.80 L874.40,323.40 L882.20,319.72 L890.00,315.85"/><path d="M110.00,387.85 L117.80,384.44 L125.60,380.93 L133.40,377.45 L141.20,374.10 L149.00,370.96 L156.80,368.12 L164.60,365.66 L172.40,363.64 L180.20,362.13 L188.00,361.17 L195.80,360.81 L203.60,361.08 L211.40,362.00 L219.20,363.58 L227.00,365.81 L234.80,368.68 L242.60,372.15 L250.40,376.20 L258.20,380.76 L266.00,385.78 L273.80,391.19 L281.60,396.91 L289.40,402.85 L297.20,408.93 L305.00,415.05 L312.80,421.10 L320.60,426.99 L328.40,432.62 L336.20,437.89 L344.00,442.71 L351.80,446.98 L359.60,450.63 L367.40,453.57 L375.20,455.74 L383.00,457.08 L390.80,457.54 L398.60,457.09 L406.40,455.70 L414.20,453.37 L422.00,450.10 L429.80,445.89 L437.60,440.80 L445.40,434.84 L453.20,428.08 L461.00,420.58 L468.80,412.42 L476.60,403.68 L484.40,394.45 L492.20,384.83 L500.00,374.92 L507.80,364.84 L515.60,354.70 L523.40,344.60 L531.20,334.66 L539.00,324.98 L546.80,315.67 L554.60,306.83 L562.40,298.55 L570.20,290.91 L578.00,283.99 L585.80,277.84 L593.60,272.53 L601.40,268.09 L609.20,264.54 L617.00,261.91 L624.80,260.20 L632.60,259.39 L640.40,259.46 L648.20,260.38 L656.00,262.09 L663.80,264.55 L671.60,267.67 L679.40,271.40 L687.20,275.63 L695.00,280.29 L702.80,285.28 L710.60,290.51 L718.40,295.87 L726.20,301.27 L734.00,306.61 L741.80,311.80 L749.60,316.75 L757.40,321.38 L765.20,325.61 L773.00,329.38 L780.80,332.63 L788.60,335.32 L796.40,337.40 L804.20,338.85 L812.00,339.66 L819.80,339.84 L827.60,339.38 L835.40,338.32 L843.20,336.68 L851.00,334.51 L858.80,331.86 L866.60,328.80 L874.40,325.40 L882.20,321.72 L890.00,317.85"/><path d="M110.00,389.85 L117.80,386.44 L125.60,382.93 L133.40,379.45 L141.20,376.10 L149.00,372.96 L156.80,370.12 L164.60,367.66 L172.40,365.64 L180.20,364.13 L188.00,363.17 L195.80,362.81 L203.60,363.08 L211.40,364.00 L219.20,365.58 L227.00,367.81 L234.80,370.68 L242.60,374.15 L250.40,378.20 L258.20,382.76 L266.00,387.78 L273.80,393.19 L281.60,398.91 L289.40,404.85 L297.20,410.93 L305.00,417.05 L312.80,423.10 L320.60,428.99 L328.40,434.62 L336.20,439.89 L344.00,444.71 L351.80,448.98 L359.60,452.63 L367.40,455.57 L375.20,457.74 L383.00,459.08 L390.80,459.54 L398.60,459.09 L406.40,457.70 L414.20,455.37 L422.00,452.10 L429.80,447.89 L437.60,442.80 L445.40,436.84 L453.20,430.08 L461.00,422.58 L468.80,414.42 L476.60,405.68 L484.40,396.45 L492.20,386.83 L500.00,376.92 L507.80,366.84 L515.60,356.70 L523.40,346.60 L531.20,336.66 L539.00,326.98 L546.80,317.67 L554.60,308.83 L562.40,300.55 L570.20,292.91 L578.00,285.99 L585.80,279.84 L593.60,274.53 L601.40,270.09 L609.20,266.54 L617.00,263.91 L624.80,262.20 L632.60,261.39 L640.40,261.46 L648.20,262.38 L656.00,264.09 L663.80,266.55 L671.60,269.67 L679.40,273.40 L687.20,277.63 L695.00,282.29 L702.80,287.28 L710.60,292.51 L718.40,297.87 L726.20,303.27 L734.00,308.61 L741.80,313.80 L749.60,318.75 L757.40,323.38 L765.20,327.61 L773.00,331.38 L780.80,334.63 L788.60,337.32 L796.40,339.40 L804.20,340.85 L812.00,341.66 L819.80,341.84 L827.60,341.38 L835.40,340.32 L843.20,338.68 L851.00,336.51 L858.80,333.86 L866.60,330.80 L874.40,327.40 L882.20,323.72 L890.00,319.85"/><path d="M110.00,391.85 L117.80,388.44 L125.60,384.93 L133.40,381.45 L141.20,378.10 L149.00,374.96 L156.80,372.12 L164.60,369.66 L172.40,367.64 L180.20,366.13 L188.00,365.17 L195.80,364.81 L203.60,365.08 L211.40,366.00 L219.20,367.58 L227.00,369.81 L234.80,372.68 L242.60,376.15 L250.40,380.20 L258.20,384.76 L266.00,389.78 L273.80,395.19 L281.60,400.91 L289.40,406.85 L297.20,412.93 L305.00,419.05 L312.80,425.10 L320.60,430.99 L328.40,436.62 L336.20,441.89 L344.00,446.71 L351.80,450.98 L359.60,454.63 L367.40,457.57 L375.20,459.74 L383.00,461.08 L390.80,461.54 L398.60,461.09 L406.40,459.70 L414.20,457.37 L422.00,454.10 L429.80,449.89 L437.60,444.80 L445.40,438.84 L453.20,432.08 L461.00,424.58 L468.80,416.42 L476.60,407.68 L484.40,398.45 L492.20,388.83 L500.00,378.92 L507.80,368.84 L515.60,358.70 L523.40,348.60 L531.20,338.66 L539.00,328.98 L546.80,319.67 L554.60,310.83 L562.40,302.55 L570.20,294.91 L578.00,287.99 L585.80,281.84 L593.60,276.53 L601.40,272.09 L609.20,268.54 L617.00,265.91 L624.80,264.20 L632.60,263.39 L640.40,263.46 L648.20,264.38 L656.00,266.09 L663.80,268.55 L671.60,271.67 L679.40,275.40 L687.20,279.63 L695.00,284.29 L702.80,289.28 L710.60,294.51 L718.40,299.87 L726.20,305.27 L734.00,310.61 L741.80,315.80 L749.60,320.75 L757.40,325.38 L765.20,329.61 L773.00,333.38 L780.80,336.63 L788.60,339.32 L796.40,341.40 L804.20,342.85 L812.00,343.66 L819.80,343.84 L827.60,343.38 L835.40,342.32 L843.20,340.68 L851.00,338.51 L858.80,335.86 L866.60,332.80 L874.40,329.40 L882.20,325.72 L890.00,321.85"/><path d="M110.00,393.85 L117.80,390.44 L125.60,386.93 L133.40,383.45 L141.20,380.10 L149.00,376.96 L156.80,374.12 L164.60,371.66 L172.40,369.64 L180.20,368.13 L188.00,367.17 L195.80,366.81 L203.60,367.08 L211.40,368.00 L219.20,369.58 L227.00,371.81 L234.80,374.68 L242.60,378.15 L250.40,382.20 L258.20,386.76 L266.00,391.78 L273.80,397.19 L281.60,402.91 L289.40,408.85 L297.20,414.93 L305.00,421.05 L312.80,427.10 L320.60,432.99 L328.40,438.62 L336.20,443.89 L344.00,448.71 L351.80,452.98 L359.60,456.63 L367.40,459.57 L375.20,461.74 L383.00,463.08 L390.80,463.54 L398.60,463.09 L406.40,461.70 L414.20,459.37 L422.00,456.10 L429.80,451.89 L437.60,446.80 L445.40,440.84 L453.20,434.08 L461.00,426.58 L468.80,418.42 L476.60,409.68 L484.40,400.45 L492.20,390.83 L500.00,380.92 L507.80,370.84 L515.60,360.70 L523.40,350.60 L531.20,340.66 L539.00,330.98 L546.80,321.67 L554.60,312.83 L562.40,304.55 L570.20,296.91 L578.00,289.99 L585.80,283.84 L593.60,278.53 L601.40,274.09 L609.20,270.54 L617.00,267.91 L624.80,266.20 L632.60,265.39 L640.40,265.46 L648.20,266.38 L656.00,268.09 L663.80,270.55 L671.60,273.67 L679.40,277.40 L687.20,281.63 L695.00,286.29 L702.80,291.28 L710.60,296.51 L718.40,301.87 L726.20,307.27 L734.00,312.61 L741.80,317.80 L749.60,322.75 L757.40,327.38 L765.20,331.61 L773.00,335.38 L780.80,338.63 L788.60,341.32 L796.40,343.40 L804.20,344.85 L812.00,345.66 L819.80,345.84 L827.60,345.38 L835.40,344.32 L843.20,342.68 L851.00,340.51 L858.80,337.86 L866.60,334.80 L874.40,331.40 L882.20,327.72 L890.00,323.85"/><path d="M110.00,395.85 L117.80,392.44 L125.60,388.93 L133.40,385.45 L141.20,382.10 L149.00,378.96 L156.80,376.12 L164.60,373.66 L172.40,371.64 L180.20,370.13 L188.00,369.17 L195.80,368.81 L203.60,369.08 L211.40,370.00 L219.20,371.58 L227.00,373.81 L234.80,376.68 L242.60,380.15 L250.40,384.20 L258.20,388.76 L266.00,393.78 L273.80,399.19 L281.60,404.91 L289.40,410.85 L297.20,416.93 L305.00,423.05 L312.80,429.10 L320.60,434.99 L328.40,440.62 L336.20,445.89 L344.00,450.71 L351.80,454.98 L359.60,458.63 L367.40,461.57 L375.20,463.74 L383.00,465.08 L390.80,465.54 L398.60,465.09 L406.40,463.70 L414.20,461.37 L422.00,458.10 L429.80,453.89 L437.60,448.80 L445.40,442.84 L453.20,436.08 L461.00,428.58 L468.80,420.42 L476.60,411.68 L484.40,402.45 L492.20,392.83 L500.00,382.92 L507.80,372.84 L515.60,362.70 L523.40,352.60 L531.20,342.66 L539.00,332.98 L546.80,323.67 L554.60,314.83 L562.40,306.55 L570.20,298.91 L578.00,291.99 L585.80,285.84 L593.60,280.53 L601.40,276.09 L609.20,272.54 L617.00,269.91 L624.80,268.20 L632.60,267.39 L640.40,267.46 L648.20,268.38 L656.00,270.09 L663.80,272.55 L671.60,275.67 L679.40,279.40 L687.20,283.63 L695.00,288.29 L702.80,293.28 L710.60,298.51 L718.40,303.87 L726.20,309.27 L734.00,314.61 L741.80,319.80 L749.60,324.75 L757.40,329.38 L765.20,333.61 L773.00,337.38 L780.80,340.63 L788.60,343.32 L796.40,345.40 L804.20,346.85 L812.00,347.66 L819.80,347.84 L827.60,347.38 L835.40,346.32 L843.20,344.68 L851.00,342.51 L858.80,339.86 L866.60,336.80 L874.40,333.40 L882.20,329.72 L890.00,325.85"/><path d="M110.00,397.85 L117.80,394.44 L125.60,390.93 L133.40,387.45 L141.20,384.10 L149.00,380.96 L156.80,378.12 L164.60,375.66 L172.40,373.64 L180.20,372.13 L188.00,371.17 L195.80,370.81 L203.60,371.08 L211.40,372.00 L219.20,373.58 L227.00,375.81 L234.80,378.68 L242.60,382.15 L250.40,386.20 L258.20,390.76 L266.00,395.78 L273.80,401.19 L281.60,406.91 L289.40,412.85 L297.20,418.93 L305.00,425.05 L312.80,431.10 L320.60,436.99 L328.40,442.62 L336.20,447.89 L344.00,452.71 L351.80,456.98 L359.60,460.63 L367.40,463.57 L375.20,465.74 L383.00,467.08 L390.80,467.54 L398.60,467.09 L406.40,465.70 L414.20,463.37 L422.00,460.10 L429.80,455.89 L437.60,450.80 L445.40,444.84 L453.20,438.08 L461.00,430.58 L468.80,422.42 L476.60,413.68 L484.40,404.45 L492.20,394.83 L500.00,384.92 L507.80,374.84 L515.60,364.70 L523.40,354.60 L531.20,344.66 L539.00,334.98 L546.80,325.67 L554.60,316.83 L562.40,308.55 L570.20,300.91 L578.00,293.99 L585.80,287.84 L593.60,282.53 L601.40,278.09 L609.20,274.54 L617.00,271.91 L624.80,270.20 L632.60,269.39 L640.40,269.46 L648.20,270.38 L656.00,272.09 L663.80,274.55 L671.60,277.67 L679.40,281.40 L687.20,285.63 L695.00,290.29 L702.80,295.28 L710.60,300.51 L718.40,305.87 L726.20,311.27 L734.00,316.61 L741.80,321.80 L749.60,326.75 L757.40,331.38 L765.20,335.61 L773.00,339.38 L780.80,342.63 L788.60,345.32 L796.40,347.40 L804.20,348.85 L812.00,349.66 L819.80,349.84 L827.60,349.38 L835.40,348.32 L843.20,346.68 L851.00,344.51 L858.80,341.86 L866.60,338.80 L874.40,335.40 L882.20,331.72 L890.00,327.85"/><path d="M110.00,399.85 L117.80,396.44 L125.60,392.93 L133.40,389.45 L141.20,386.10 L149.00,382.96 L156.80,380.12 L164.60,377.66 L172.40,375.64 L180.20,374.13 L188.00,373.17 L195.80,372.81 L203.60,373.08 L211.40,374.00 L219.20,375.58 L227.00,377.81 L234.80,380.68 L242.60,384.15 L250.40,388.20 L258.20,392.76 L266.00,397.78 L273.80,403.19 L281.60,408.91 L289.40,414.85 L297.20,420.93 L305.00,427.05 L312.80,433.10 L320.60,438.99 L328.40,444.62 L336.20,449.89 L344.00,454.71 L351.80,458.98 L359.60,462.63 L367.40,465.57 L375.20,467.74 L383.00,469.08 L390.80,469.54 L398.60,469.09 L406.40,467.70 L414.20,465.37 L422.00,462.10 L429.80,457.89 L437.60,452.80 L445.40,446.84 L453.20,440.08 L461.00,432.58 L468.80,424.42 L476.60,415.68 L484.40,406.45 L492.20,396.83 L500.00,386.92 L507.80,376.84 L515.60,366.70 L523.40,356.60 L531.20,346.66 L539.00,336.98 L546.80,327.67 L554.60,318.83 L562.40,310.55 L570.20,302.91 L578.00,295.99 L585.80,289.84 L593.60,284.53 L601.40,280.09 L609.20,276.54 L617.00,273.91 L624.80,272.20 L632.60,271.39 L640.40,271.46 L648.20,272.38 L656.00,274.09 L663.80,276.55 L671.60,279.67 L679.40,283.40 L687.20,287.63 L695.00,292.29 L702.80,297.28 L710.60,302.51 L718.40,307.87 L726.20,313.27 L734.00,318.61 L741.80,323.80 L749.60,328.75 L757.40,333.38 L765.20,337.61 L773.00,341.38 L780.80,344.63 L788.60,347.32 L796.40,349.40 L804.20,350.85 L812.00,351.66 L819.80,351.84 L827.60,351.38 L835.40,350.32 L843.20,348.68 L851.00,346.51 L858.80,343.86 L866.60,340.80 L874.40,337.40 L882.20,333.72 L890.00,329.85"/><path d="M110.00,401.85 L117.80,398.44 L125.60,394.93 L133.40,391.45 L141.20,388.10 L149.00,384.96 L156.80,382.12 L164.60,379.66 L172.40,377.64 L180.20,376.13 L188.00,375.17 L195.80,374.81 L203.60,375.08 L211.40,376.00 L219.20,377.58 L227.00,379.81 L234.80,382.68 L242.60,386.15 L250.40,390.20 L258.20,394.76 L266.00,399.78 L273.80,405.19 L281.60,410.91 L289.40,416.85 L297.20,422.93 L305.00,429.05 L312.80,435.10 L320.60,440.99 L328.40,446.62 L336.20,451.89 L344.00,456.71 L351.80,460.98 L359.60,464.63 L367.40,467.57 L375.20,469.74 L383.00,471.08 L390.80,471.54 L398.60,471.09 L406.40,469.70 L414.20,467.37 L422.00,464.10 L429.80,459.89 L437.60,454.80 L445.40,448.84 L453.20,442.08 L461.00,434.58 L468.80,426.42 L476.60,417.68 L484.40,408.45 L492.20,398.83 L500.00,388.92 L507.80,378.84 L515.60,368.70 L523.40,358.60 L531.20,348.66 L539.00,338.98 L546.80,329.67 L554.60,320.83 L562.40,312.55 L570.20,304.91 L578.00,297.99 L585.80,291.84 L593.60,286.53 L601.40,282.09 L609.20,278.54 L617.00,275.91 L624.80,274.20 L632.60,273.39 L640.40,273.46 L648.20,274.38 L656.00,276.09 L663.80,278.55 L671.60,281.67 L679.40,285.40 L687.20,289.63 L695.00,294.29 L702.80,299.28 L710.60,304.51 L718.40,309.87 L726.20,315.27 L734.00,320.61 L741.80,325.80 L749.60,330.75 L757.40,335.38 L765.20,339.61 L773.00,343.38 L780.80,346.63 L788.60,349.32 L796.40,351.40 L804.20,352.85 L812.00,353.66 L819.80,353.84 L827.60,353.38 L835.40,352.32 L843.20,350.68 L851.00,348.51 L858.80,345.86 L866.60,342.80 L874.40,339.40 L882.20,335.72 L890.00,331.85"/><path d="M110.00,403.85 L117.80,400.44 L125.60,396.93 L133.40,393.45 L141.20,390.10 L149.00,386.96 L156.80,384.12 L164.60,381.66 L172.40,379.64 L180.20,378.13 L188.00,377.17 L195.80,376.81 L203.60,377.08 L211.40,378.00 L219.20,379.58 L227.00,381.81 L234.80,384.68 L242.60,388.15 L250.40,392.20 L258.20,396.76 L266.00,401.78 L273.80,407.19 L281.60,412.91 L289.40,418.85 L297.20,424.93 L305.00,431.05 L312.80,437.10 L320.60,442.99 L328.40,448.62 L336.20,453.89 L344.00,458.71 L351.80,462.98 L359.60,466.63 L367.40,469.57 L375.20,471.74 L383.00,473.08 L390.80,473.54 L398.60,473.09 L406.40,471.70 L414.20,469.37 L422.00,466.10 L429.80,461.89 L437.60,456.80 L445.40,450.84 L453.20,444.08 L461.00,436.58 L468.80,428.42 L476.60,419.68 L484.40,410.45 L492.20,400.83 L500.00,390.92 L507.80,380.84 L515.60,370.70 L523.40,360.60 L531.20,350.66 L539.00,340.98 L546.80,331.67 L554.60,322.83 L562.40,314.55 L570.20,306.91 L578.00,299.99 L585.80,293.84 L593.60,288.53 L601.40,284.09 L609.20,280.54 L617.00,277.91 L624.80,276.20 L632.60,275.39 L640.40,275.46 L648.20,276.38 L656.00,278.09 L663.80,280.55 L671.60,283.67 L679.40,287.40 L687.20,291.63 L695.00,296.29 L702.80,301.28 L710.60,306.51 L718.40,311.87 L726.20,317.27 L734.00,322.61 L741.80,327.80 L749.60,332.75 L757.40,337.38 L765.20,341.61 L773.00,345.38 L780.80,348.63 L788.60,351.32 L796.40,353.40 L804.20,354.85 L812.00,355.66 L819.80,355.84 L827.60,355.38 L835.40,354.32 L843.20,352.68 L851.00,350.51 L858.80,347.86 L866.60,344.80 L874.40,341.40 L882.20,337.72 L890.00,333.85"/><path d="M110.00,405.85 L117.80,402.44 L125.60,398.93 L133.40,395.45 L141.20,392.10 L149.00,388.96 L156.80,386.12 L164.60,383.66 L172.40,381.64 L180.20,380.13 L188.00,379.17 L195.80,378.81 L203.60,379.08 L211.40,380.00 L219.20,381.58 L227.00,383.81 L234.80,386.68 L242.60,390.15 L250.40,394.20 L258.20,398.76 L266.00,403.78 L273.80,409.19 L281.60,414.91 L289.40,420.85 L297.20,426.93 L305.00,433.05 L312.80,439.10 L320.60,444.99 L328.40,450.62 L336.20,455.89 L344.00,460.71 L351.80,464.98 L359.60,468.63 L367.40,471.57 L375.20,473.74 L383.00,475.08 L390.80,475.54 L398.60,475.09 L406.40,473.70 L414.20,471.37 L422.00,468.10 L429.80,463.89 L437.60,458.80 L445.40,452.84 L453.20,446.08 L461.00,438.58 L468.80,430.42 L476.60,421.68 L484.40,412.45 L492.20,402.83 L500.00,392.92 L507.80,382.84 L515.60,372.70 L523.40,362.60 L531.20,352.66 L539.00,342.98 L546.80,333.67 L554.60,324.83 L562.40,316.55 L570.20,308.91 L578.00,301.99 L585.80,295.84 L593.60,290.53 L601.40,286.09 L609.20,282.54 L617.00,279.91 L624.80,278.20 L632.60,277.39 L640.40,277.46 L648.20,278.38 L656.00,280.09 L663.80,282.55 L671.60,285.67 L679.40,289.40 L687.20,293.63 L695.00,298.29 L702.80,303.28 L710.60,308.51 L718.40,313.87 L726.20,319.27 L734.00,324.61 L741.80,329.80 L749.60,334.75 L757.40,339.38 L765.20,343.61 L773.00,347.38 L780.80,350.63 L788.60,353.32 L796.40,355.40 L804.20,356.85 L812.00,357.66 L819.80,357.84 L827.60,357.38 L835.40,356.32 L843.20,354.68 L851.00,352.51 L858.80,349.86 L866.60,346.80 L874.40,343.40 L882.20,339.72 L890.00,335.85"/><path d="M110.00,407.85 L117.80,404.44 L125.60,400.93 L133.40,397.45 L141.20,394.10 L149.00,390.96 L156.80,388.12 L164.60,385.66 L172.40,383.64 L180.20,382.13 L188.00,381.17 L195.80,380.81 L203.60,381.08 L211.40,382.00 L219.20,383.58 L227.00,385.81 L234.80,388.68 L242.60,392.15 L250.40,396.20 L258.20,400.76 L266.00,405.78 L273.80,411.19 L281.60,416.91 L289.40,422.85 L297.20,428.93 L305.00,435.05 L312.80,441.10 L320.60,446.99 L328.40,452.62 L336.20,457.89 L344.00,462.71 L351.80,466.98 L359.60,470.63 L367.40,473.57 L375.20,475.74 L383.00,477.08 L390.80,477.54 L398.60,477.09 L406.40,475.70 L414.20,473.37 L422.00,470.10 L429.80,465.89 L437.60,460.80 L445.40,454.84 L453.20,448.08 L461.00,440.58 L468.80,432.42 L476.60,423.68 L484.40,414.45 L492.20,404.83 L500.00,394.92 L507.80,384.84 L515.60,374.70 L523.40,364.60 L531.20,354.66 L539.00,344.98 L546.80,335.67 L554.60,326.83 L562.40,318.55 L570.20,310.91 L578.00,303.99 L585.80,297.84 L593.60,292.53 L601.40,288.09 L609.20,284.54 L617.00,281.91 L624.80,280.20 L632.60,279.39 L640.40,279.46 L648.20,280.38 L656.00,282.09 L663.80,284.55 L671.60,287.67 L679.40,291.40 L687.20,295.63 L695.00,300.29 L702.80,305.28 L710.60,310.51 L718.40,315.87 L726.20,321.27 L734.00,326.61 L741.80,331.80 L749.60,336.75 L757.40,341.38 L765.20,345.61 L773.00,349.38 L780.80,352.63 L788.60,355.32 L796.40,357.40 L804.20,358.85 L812.00,359.66 L819.80,359.84 L827.60,359.38 L835.40,358.32 L843.20,356.68 L851.00,354.51 L858.80,351.86 L866.60,348.80 L874.40,345.40 L882.20,341.72 L890.00,337.85"/><path d="M110.00,409.85 L117.80,406.44 L125.60,402.93 L133.40,399.45 L141.20,396.10 L149.00,392.96 L156.80,390.12 L164.60,387.66 L172.40,385.64 L180.20,384.13 L188.00,383.17 L195.80,382.81 L203.60,383.08 L211.40,384.00 L219.20,385.58 L227.00,387.81 L234.80,390.68 L242.60,394.15 L250.40,398.20 L258.20,402.76 L266.00,407.78 L273.80,413.19 L281.60,418.91 L289.40,424.85 L297.20,430.93 L305.00,437.05 L312.80,443.10 L320.60,448.99 L328.40,454.62 L336.20,459.89 L344.00,464.71 L351.80,468.98 L359.60,472.63 L367.40,475.57 L375.20,477.74 L383.00,479.08 L390.80,479.54 L398.60,479.09 L406.40,477.70 L414.20,475.37 L422.00,472.10 L429.80,467.89 L437.60,462.80 L445.40,456.84 L453.20,450.08 L461.00,442.58 L468.80,434.42 L476.60,425.68 L484.40,416.45 L492.20,406.83 L500.00,396.92 L507.80,386.84 L515.60,376.70 L523.40,366.60 L531.20,356.66 L539.00,346.98 L546.80,337.67 L554.60,328.83 L562.40,320.55 L570.20,312.91 L578.00,305.99 L585.80,299.84 L593.60,294.53 L601.40,290.09 L609.20,286.54 L617.00,283.91 L624.80,282.20 L632.60,281.39 L640.40,281.46 L648.20,282.38 L656.00,284.09 L663.80,286.55 L671.60,289.67 L679.40,293.40 L687.20,297.63 L695.00,302.29 L702.80,307.28 L710.60,312.51 L718.40,317.87 L726.20,323.27 L734.00,328.61 L741.80,333.80 L749.60,338.75 L757.40,343.38 L765.20,347.61 L773.00,351.38 L780.80,354.63 L788.60,357.32 L796.40,359.40 L804.20,360.85 L812.00,361.66 L819.80,361.84 L827.60,361.38 L835.40,360.32 L843.20,358.68 L851.00,356.51 L858.80,353.86 L866.60,350.80 L874.40,347.40 L882.20,343.72 L890.00,339.85"/><path d="M110.00,411.85 L117.80,408.44 L125.60,404.93 L133.40,401.45 L141.20,398.10 L149.00,394.96 L156.80,392.12 L164.60,389.66 L172.40,387.64 L180.20,386.13 L188.00,385.17 L195.80,384.81 L203.60,385.08 L211.40,386.00 L219.20,387.58 L227.00,389.81 L234.80,392.68 L242.60,396.15 L250.40,400.20 L258.20,404.76 L266.00,409.78 L273.80,415.19 L281.60,420.91 L289.40,426.85 L297.20,432.93 L305.00,439.05 L312.80,445.10 L320.60,450.99 L328.40,456.62 L336.20,461.89 L344.00,466.71 L351.80,470.98 L359.60,474.63 L367.40,477.57 L375.20,479.74 L383.00,481.08 L390.80,481.54 L398.60,481.09 L406.40,479.70 L414.20,477.37 L422.00,474.10 L429.80,469.89 L437.60,464.80 L445.40,458.84 L453.20,452.08 L461.00,444.58 L468.80,436.42 L476.60,427.68 L484.40,418.45 L492.20,408.83 L500.00,398.92 L507.80,388.84 L515.60,378.70 L523.40,368.60 L531.20,358.66 L539.00,348.98 L546.80,339.67 L554.60,330.83 L562.40,322.55 L570.20,314.91 L578.00,307.99 L585.80,301.84 L593.60,296.53 L601.40,292.09 L609.20,288.54 L617.00,285.91 L624.80,284.20 L632.60,283.39 L640.40,283.46 L648.20,284.38 L656.00,286.09 L663.80,288.55 L671.60,291.67 L679.40,295.40 L687.20,299.63 L695.00,304.29 L702.80,309.28 L710.60,314.51 L718.40,319.87 L726.20,325.27 L734.00,330.61 L741.80,335.80 L749.60,340.75 L757.40,345.38 L765.20,349.61 L773.00,353.38 L780.80,356.63 L788.60,359.32 L796.40,361.40 L804.20,362.85 L812.00,363.66 L819.80,363.84 L827.60,363.38 L835.40,362.32 L843.20,360.68 L851.00,358.51 L858.80,355.86 L866.60,352.80 L874.40,349.40 L882.20,345.72 L890.00,341.85"/></g></svg>