<svg xmlns="http://www.w3.org/2000/svg" width="250mm" height="225mm" viewBox="0 0 1000 900"><g id="pen-1" fill="none" stroke="#66d0cc" stroke-width=".8" opacity="1"><path d="M850.00,290.00 L846.77,289.21 L843.70,288.43 L840.80,287.65 L838.07,286.88 L835.49,286.12 L833.08,285.38 L830.83,284.65 L828.72,283.94 L826.76,283.26 L824.93,282.60 L823.22,281.96 L821.62,281.36 L820.11,280.79 L818.69,280.25 L817.34,279.75 L816.03,279.29 L814.77,278.88 L813.52,278.51 L812.27,278.19 L811.01,277.92 L809.71,277.69 L808.36,277.53 L806.95,277.42 L805.45,277.37 L803.86,277.38 L802.14,277.45 L800.30,277.59 L798.32,277.80 L796.18,278.07 L793.88,278.41 L791.41,278.83 L788.75,279.32 L785.90,279.88 L782.86,280.52 L779.62,281.24 L776.18,282.03 L772.54,282.91 L768.71,283.87 L764.68,284.91 L760.46,286.04 L756.05,287.25 L751.47,288.54 L746.73,289.92 L741.83,291.39 L736.79,292.94 L731.62,294.59 L726.33,296.32 L720.94,298.14 L715.47,300.04 L709.93,302.04 L704.35,304.12 L698.73,306.30 L693.10,308.56 L687.48,310.91 L681.88,313.35 L676.32,315.88 L670.82,318.49 L665.39,321.19 L660.06,323.98 L654.83,326.85 L649.73,329.81 L644.76,332.85 L639.94,335.97 L635.28,339.18 L630.79,342.46 L626.47,345.82 L622.34,349.27 L618.40,352.78 L614.64,356.38 L611.09,360.04 L607.72,363.78 L604.55,367.59 L601.56,371.47 L598.77,375.41 L596.14,379.42 L593.69,383.49 L591.40,387.62 L589.26,391.81 L587.26,396.06 L585.38,400.36 L583.62,404.72 L581.95,409.12 L580.36,413.57 L578.84,418.07 L577.36,422.61 L575.92,427.19 L574.48,431.80 L573.05,436.46 L571.60,441.14 L570.10,445.86 L568.56,450.60 L566.95,455.37 L565.25,460.16 L563.45,464.97 L561.55,469.80 L559.52,474.64 L557.36,479.49 L555.06,484.35 L552.61,489.21 L550.00,494.08"/><path d="M850.00,293.60 L846.77,292.91 L843.70,292.22 L840.80,291.53 L838.07,290.86 L835.49,290.19 L833.08,289.54 L830.83,288.91 L828.72,288.29 L826.76,287.69 L824.93,287.12 L823.22,286.58 L821.62,286.06 L820.11,285.58 L818.69,285.13 L817.34,284.71 L816.03,284.34 L814.77,284.01 L813.52,283.72 L812.27,283.47 L811.01,283.28 L809.71,283.13 L808.36,283.04 L806.95,283.00 L805.45,283.02 L803.86,283.10 L802.14,283.24 L800.30,283.44 L798.32,283.71 L796.18,284.04 L793.88,284.44 L791.41,284.91 L788.75,285.45 L785.90,286.06 L782.86,286.75 L779.62,287.51 L776.18,288.35 L772.54,289.26 L768.71,290.26 L764.68,291.33 L760.46,292.49 L756.05,293.73 L751.47,295.05 L746.73,296.45 L741.83,297.94 L736.79,299.51 L731.62,301.16 L726.33,302.90 L720.94,304.73 L715.47,306.64 L709.93,308.64 L704.35,310.72 L698.73,312.89 L693.10,315.15 L687.48,317.49 L681.88,319.91 L676.32,322.42 L670.82,325.02 L665.39,327.70 L660.06,330.46 L654.83,333.31 L649.73,336.23 L644.76,339.24 L639.94,342.32 L635.28,345.49 L630.79,348.73 L626.47,352.05 L622.34,355.45 L618.40,358.92 L614.64,362.46 L611.09,366.07 L607.72,369.75 L604.55,373.50 L601.56,377.32 L598.77,381.20 L596.14,385.14 L593.69,389.14 L591.40,393.21 L589.26,397.33 L587.26,401.50 L585.38,405.73 L583.62,410.00 L581.95,414.33 L580.36,418.70 L578.84,423.11 L577.36,427.57 L575.92,432.06 L574.48,436.60 L573.05,441.16 L571.60,445.76 L570.10,450.39 L568.56,455.04 L566.95,459.72 L565.25,464.41 L563.45,469.13 L561.55,473.86 L559.52,478.61 L557.36,483.37 L555.06,488.13 L552.61,492.90 L550.00,497.68"/><path d="M850.00,297.20 L846.77,296.60 L843.70,296.01 L840.80,295.42 L838.07,294.84 L835.49,294.26 L833.08,293.70 L830.83,293.16 L828.72,292.64 L826.76,292.13 L824.93,291.65 L823.22,291.19 L821.62,290.77 L820.11,290.37 L818.69,290.01 L817.34,289.68 L816.03,289.39 L814.77,289.13 L813.52,288.92 L812.27,288.76 L811.01,288.64 L809.71,288.57 L808.36,288.55 L806.95,288.59 L805.45,288.68 L803.86,288.82 L802.14,289.03 L800.30,289.29 L798.32,289.62 L796.18,290.01 L793.88,290.47 L791.41,290.99 L788.75,291.58 L785.90,292.24 L782.86,292.98 L779.62,293.78 L776.18,294.66 L772.54,295.62 L768.71,296.65 L764.68,297.76 L760.46,298.94 L756.05,300.21 L751.47,301.55 L746.73,302.98 L741.83,304.48 L736.79,306.07 L731.62,307.74 L726.33,309.49 L720.94,311.32 L715.47,313.24 L709.93,315.24 L704.35,317.32 L698.73,319.49 L693.10,321.73 L687.48,324.06 L681.88,326.48 L676.32,328.97 L670.82,331.55 L665.39,334.20 L660.06,336.94 L654.83,339.76 L649.73,342.65 L644.76,345.63 L639.94,348.68 L635.28,351.80 L630.79,355.01 L626.47,358.28 L622.34,361.63 L618.40,365.05 L614.64,368.54 L611.09,372.10 L607.72,375.72 L604.55,379.41 L601.56,383.17 L598.77,386.98 L596.14,390.86 L593.69,394.80 L591.40,398.79 L589.26,402.84 L587.26,406.94 L585.38,411.09 L583.62,415.29 L581.95,419.53 L580.36,423.83 L578.84,428.16 L577.36,432.53 L575.92,436.94 L574.48,441.39 L573.05,445.87 L571.60,450.38 L570.10,454.91 L568.56,459.48 L566.95,464.06 L565.25,468.67 L563.45,473.29 L561.55,477.93 L559.52,482.59 L557.36,487.25 L555.06,491.92 L552.61,496.60 L550.00,501.28"/><path d="M850.00,300.80 L846.77,300.30 L843.70,299.80 L840.80,299.30 L838.07,298.81 L835.49,298.33 L833.08,297.87 L830.83,297.42 L828.72,296.98 L826.76,296.57 L824.93,296.18 L823.22,295.81 L821.62,295.47 L820.11,295.16 L818.69,294.88 L817.34,294.64 L816.03,294.43 L814.77,294.26 L813.52,294.13 L812.27,294.05 L811.01,294.01 L809.71,294.01 L808.36,294.07 L806.95,294.17 L805.45,294.33 L803.86,294.54 L802.14,294.81 L800.30,295.14 L798.32,295.53 L796.18,295.98 L793.88,296.49 L791.41,297.07 L788.75,297.71 L785.90,298.43 L782.86,299.21 L779.62,300.06 L776.18,300.98 L772.54,301.97 L768.71,303.04 L764.68,304.18 L760.46,305.40 L756.05,306.69 L751.47,308.06 L746.73,309.50 L741.83,311.03 L736.79,312.63 L731.62,314.31 L726.33,316.08 L720.94,317.92 L715.47,319.84 L709.93,321.84 L704.35,323.92 L698.73,326.08 L693.10,328.32 L687.48,330.64 L681.88,333.04 L676.32,335.52 L670.82,338.08 L665.39,340.71 L660.06,343.42 L654.83,346.21 L649.73,349.08 L644.76,352.02 L639.94,355.03 L635.28,358.12 L630.79,361.28 L626.47,364.51 L622.34,367.81 L618.40,371.18 L614.64,374.62 L611.09,378.12 L607.72,381.69 L604.55,385.32 L601.56,389.02 L598.77,392.77 L596.14,396.58 L593.69,400.45 L591.40,404.37 L589.26,408.35 L587.26,412.38 L585.38,416.45 L583.62,420.57 L581.95,424.74 L580.36,428.95 L578.84,433.20 L577.36,437.49 L575.92,441.82 L574.48,446.18 L573.05,450.57 L571.60,454.99 L570.10,459.44 L568.56,463.91 L566.95,468.41 L565.25,472.92 L563.45,477.46 L561.55,482.00 L559.52,486.56 L557.36,491.13 L555.06,495.71 L552.61,500.29 L550.00,504.88"/><path d="M850.00,304.40 L846.77,303.99 L843.70,303.58 L840.80,303.18 L838.07,302.79 L835.49,302.40 L833.08,302.03 L830.83,301.67 L828.72,301.33 L826.76,301.01 L824.93,300.70 L823.22,300.43 L821.62,300.18 L820.11,299.95 L818.69,299.76 L817.34,299.60 L816.03,299.48 L814.77,299.39 L813.52,299.34 L812.27,299.33 L811.01,299.37 L809.71,299.45 L808.36,299.58 L806.95,299.76 L805.45,299.98 L803.86,300.27 L802.14,300.60 L800.30,300.99 L798.32,301.44 L796.18,301.95 L793.88,302.52 L791.41,303.15 L788.75,303.85 L785.90,304.61 L782.86,305.43 L779.62,306.33 L776.18,307.29 L772.54,308.32 L768.71,309.43 L764.68,310.60 L760.46,311.85 L756.05,313.17 L751.47,314.56 L746.73,316.03 L741.83,317.58 L736.79,319.20 L731.62,320.89 L726.33,322.66 L720.94,324.51 L715.47,326.44 L709.93,328.44 L704.35,330.52 L698.73,332.67 L693.10,334.91 L687.48,337.22 L681.88,339.60 L676.32,342.07 L670.82,344.60 L665.39,347.22 L660.06,349.90 L654.83,352.66 L649.73,355.50 L644.76,358.41 L639.94,361.38 L635.28,364.43 L630.79,367.55 L626.47,370.74 L622.34,373.99 L618.40,377.32 L614.64,380.70 L611.09,384.15 L607.72,387.66 L604.55,391.24 L601.56,394.87 L598.77,398.56 L596.14,402.30 L593.69,406.10 L591.40,409.96 L589.26,413.86 L587.26,417.82 L585.38,421.82 L583.62,425.86 L581.95,429.95 L580.36,434.08 L578.84,438.25 L577.36,442.46 L575.92,446.70 L574.48,450.97 L573.05,455.28 L571.60,459.61 L570.10,463.97 L568.56,468.35 L566.95,472.75 L565.25,477.18 L563.45,481.62 L561.55,486.07 L559.52,490.54 L557.36,495.02 L555.06,499.50 L552.61,503.99 L550.00,508.48"/><path d="M850.00,308.00 L846.77,307.68 L843.70,307.37 L840.80,307.06 L838.07,306.76 L835.49,306.47 L833.08,306.19 L830.83,305.92 L828.72,305.67 L826.76,305.44 L824.93,305.23 L823.22,305.04 L821.62,304.88 L820.11,304.74 L818.69,304.64 L817.34,304.56 L816.03,304.52 L814.77,304.52 L813.52,304.55 L812.27,304.62 L811.01,304.73 L809.71,304.89 L808.36,305.09 L806.95,305.34 L805.45,305.64 L803.86,305.99 L802.14,306.39 L800.30,306.84 L798.32,307.35 L796.18,307.92 L793.88,308.55 L791.41,309.23 L788.75,309.98 L785.90,310.79 L782.86,311.66 L779.62,312.60 L776.18,313.61 L772.54,314.68 L768.71,315.82 L764.68,317.02 L760.46,318.30 L756.05,319.65 L751.47,321.07 L746.73,322.56 L741.83,324.12 L736.79,325.76 L731.62,327.47 L726.33,329.25 L720.94,331.11 L715.47,333.04 L709.93,335.04 L704.35,337.12 L698.73,339.27 L693.10,341.49 L687.48,343.79 L681.88,346.17 L676.32,348.61 L670.82,351.13 L665.39,353.72 L660.06,356.38 L654.83,359.12 L649.73,361.92 L644.76,364.80 L639.94,367.74 L635.28,370.75 L630.79,373.83 L626.47,376.97 L622.34,380.18 L618.40,383.45 L614.64,386.78 L611.09,390.18 L607.72,393.63 L604.55,397.15 L601.56,400.72 L598.77,404.35 L596.14,408.03 L593.69,411.76 L591.40,415.54 L589.26,419.37 L587.26,423.25 L585.38,427.18 L583.62,431.15 L581.95,435.16 L580.36,439.21 L578.84,443.29 L577.36,447.42 L575.92,451.57 L574.48,455.76 L573.05,459.98 L571.60,464.22 L570.10,468.49 L568.56,472.79 L566.95,477.10 L565.25,481.43 L563.45,485.78 L561.55,490.14 L559.52,494.52 L557.36,498.90 L555.06,503.29 L552.61,507.68 L550.00,512.08"/><path d="M850.00,311.60 L846.77,311.38 L843.70,311.16 L840.80,310.95 L838.07,310.74 L835.49,310.54 L833.08,310.35 L830.83,310.18 L828.72,310.02 L826.76,309.88 L824.93,309.76 L823.22,309.66 L821.62,309.58 L820.11,309.54 L818.69,309.51 L817.34,309.52 L816.03,309.57 L814.77,309.64 L813.52,309.75 L812.27,309.90 L811.01,310.10 L809.71,310.33 L808.36,310.60 L806.95,310.92 L805.45,311.29 L803.86,311.71 L802.14,312.17 L800.30,312.69 L798.32,313.27 L796.18,313.89 L793.88,314.57 L791.41,315.31 L788.75,316.11 L785.90,316.97 L782.86,317.89 L779.62,318.88 L776.18,319.92 L772.54,321.03 L768.71,322.21 L764.68,323.45 L760.46,324.76 L756.05,326.13 L751.47,327.57 L746.73,329.09 L741.83,330.67 L736.79,332.32 L731.62,334.04 L726.33,335.84 L720.94,337.70 L715.47,339.63 L709.93,341.64 L704.35,343.72 L698.73,345.86 L693.10,348.08 L687.48,350.37 L681.88,352.73 L676.32,355.16 L670.82,357.66 L665.39,360.23 L660.06,362.87 L654.83,365.57 L649.73,368.34 L644.76,371.18 L639.94,374.09 L635.28,377.06 L630.79,380.10 L626.47,383.20 L622.34,386.36 L618.40,389.58 L614.64,392.86 L611.09,396.21 L607.72,399.60 L604.55,403.06 L601.56,406.57 L598.77,410.13 L596.14,413.75 L593.69,417.41 L591.40,421.13 L589.26,424.89 L587.26,428.69 L585.38,432.54 L583.62,436.43 L581.95,440.36 L580.36,444.33 L578.84,448.34 L577.36,452.38 L575.92,456.45 L574.48,460.55 L573.05,464.68 L571.60,468.84 L570.10,473.02 L568.56,477.22 L566.95,481.45 L565.25,485.69 L563.45,489.94 L561.55,494.21 L559.52,498.49 L557.36,502.78 L555.06,507.08 L552.61,511.38 L550.00,515.68"/><path d="M850.00,315.20 L846.77,315.07 L843.70,314.95 L840.80,314.83 L838.07,314.72 L835.49,314.61 L833.08,314.52 L830.83,314.43 L828.72,314.37 L826.76,314.32 L824.93,314.29 L823.22,314.28 L821.62,314.29 L820.11,314.33 L818.69,314.39 L817.34,314.49 L816.03,314.61 L814.77,314.77 L813.52,314.96 L812.27,315.19 L811.01,315.46 L809.71,315.77 L808.36,316.12 L806.95,316.51 L805.45,316.95 L803.86,317.43 L802.14,317.96 L800.30,318.54 L798.32,319.18 L796.18,319.86 L793.88,320.60 L791.41,321.40 L788.75,322.25 L785.90,323.15 L782.86,324.12 L779.62,325.15 L776.18,326.24 L772.54,327.38 L768.71,328.60 L764.68,329.87 L760.46,331.21 L756.05,332.61 L751.47,334.08 L746.73,335.62 L741.83,337.22 L736.79,338.88 L731.62,340.62 L726.33,342.42 L720.94,344.29 L715.47,346.23 L709.93,348.24 L704.35,350.31 L698.73,352.46 L693.10,354.67 L687.48,356.95 L681.88,359.29 L676.32,361.71 L670.82,364.19 L665.39,366.73 L660.06,369.35 L654.83,372.02 L649.73,374.77 L644.76,377.57 L639.94,380.44 L635.28,383.38 L630.79,386.37 L626.47,389.43 L622.34,392.54 L618.40,395.71 L614.64,398.95 L611.09,402.23 L607.72,405.58 L604.55,408.97 L601.56,412.42 L598.77,415.92 L596.14,419.47 L593.69,423.07 L591.40,426.71 L589.26,430.40 L587.26,434.13 L585.38,437.91 L583.62,441.72 L581.95,445.57 L580.36,449.46 L578.84,453.38 L577.36,457.34 L575.92,461.33 L574.48,465.35 L573.05,469.39 L571.60,473.46 L570.10,477.55 L568.56,481.66 L566.95,485.79 L565.25,489.94 L563.45,494.10 L561.55,498.28 L559.52,502.47 L557.36,506.66 L555.06,510.86 L552.61,515.07 L550.00,519.28"/><path d="M850.00,318.80 L846.77,318.77 L843.70,318.74 L840.80,318.71 L838.07,318.69 L835.49,318.68 L833.08,318.68 L830.83,318.69 L828.72,318.71 L826.76,318.75 L824.93,318.81 L823.22,318.89 L821.62,318.99 L820.11,319.12 L818.69,319.27 L817.34,319.45 L816.03,319.66 L814.77,319.90 L813.52,320.17 L812.27,320.48 L811.01,320.82 L809.71,321.20 L808.36,321.63 L806.95,322.09 L805.45,322.60 L803.86,323.15 L802.14,323.75 L800.30,324.39 L798.32,325.09 L796.18,325.83 L793.88,326.63 L791.41,327.48 L788.75,328.38 L785.90,329.34 L782.86,330.35 L779.62,331.42 L776.18,332.55 L772.54,333.74 L768.71,334.98 L764.68,336.29 L760.46,337.66 L756.05,339.09 L751.47,340.59 L746.73,342.14 L741.83,343.76 L736.79,345.45 L731.62,347.20 L726.33,349.01 L720.94,350.89 L715.47,352.83 L709.93,354.84 L704.35,356.91 L698.73,359.05 L693.10,361.25 L687.48,363.52 L681.88,365.86 L676.32,368.25 L670.82,370.71 L665.39,373.24 L660.06,375.83 L654.83,378.48 L649.73,381.19 L644.76,383.96 L639.94,386.80 L635.28,389.69 L630.79,392.64 L626.47,395.66 L622.34,398.72 L618.40,401.85 L614.64,405.03 L611.09,408.26 L607.72,411.55 L604.55,414.88 L601.56,418.27 L598.77,421.71 L596.14,425.19 L593.69,428.72 L591.40,432.29 L589.26,435.91 L587.26,439.57 L585.38,443.27 L583.62,447.01 L581.95,450.78 L580.36,454.59 L578.84,458.43 L577.36,462.30 L575.92,466.21 L574.48,470.14 L573.05,474.09 L571.60,478.07 L570.10,482.08 L568.56,486.10 L566.95,490.14 L565.25,494.20 L563.45,498.27 L561.55,502.35 L559.52,506.44 L557.36,510.55 L555.06,514.65 L552.61,518.76 L550.00,522.88"/><path d="M850.00,322.40 L846.77,322.46 L843.70,322.53 L840.80,322.59 L838.07,322.67 L835.49,322.75 L833.08,322.84 L830.83,322.94 L828.72,323.06 L826.76,323.19 L824.93,323.34 L823.22,323.51 L821.62,323.70 L820.11,323.91 L818.69,324.15 L817.34,324.41 L816.03,324.70 L814.77,325.02 L813.52,325.38 L812.27,325.76 L811.01,326.19 L809.71,326.64 L808.36,327.14 L806.95,327.68 L805.45,328.25 L803.86,328.87 L802.14,329.54 L800.30,330.24 L798.32,331.00 L796.18,331.80 L793.88,332.66 L791.41,333.56 L788.75,334.51 L785.90,335.52 L782.86,336.58 L779.62,337.69 L776.18,338.86 L772.54,340.09 L768.71,341.37 L764.68,342.72 L760.46,344.11 L756.05,345.57 L751.47,347.09 L746.73,348.67 L741.83,350.31 L736.79,352.01 L731.62,353.77 L726.33,355.60 L720.94,357.48 L715.47,359.43 L709.93,361.44 L704.35,363.51 L698.73,365.65 L693.10,367.84 L687.48,370.10 L681.88,372.42 L676.32,374.80 L670.82,377.24 L665.39,379.74 L660.06,382.31 L654.83,384.93 L649.73,387.61 L644.76,390.35 L639.94,393.15 L635.28,396.01 L630.79,398.92 L626.47,401.88 L622.34,404.91 L618.40,407.98 L614.64,411.11 L611.09,414.29 L607.72,417.52 L604.55,420.79 L601.56,424.12 L598.77,427.49 L596.14,430.91 L593.69,434.37 L591.40,437.88 L589.26,441.42 L587.26,445.01 L585.38,448.63 L583.62,452.29 L581.95,455.99 L580.36,459.72 L578.84,463.48 L577.36,467.27 L575.92,471.08 L574.48,474.93 L573.05,478.80 L571.60,482.69 L570.10,486.60 L568.56,490.54 L566.95,494.48 L565.25,498.45 L563.45,502.43 L561.55,506.42 L559.52,510.42 L557.36,514.43 L555.06,518.44 L552.61,522.46 L550.00,526.48"/><path d="M850.00,326.00 L846.77,326.16 L843.70,326.31 L840.80,326.48 L838.07,326.64 L835.49,326.82 L833.08,327.00 L830.83,327.20 L828.72,327.40 L826.76,327.63 L824.93,327.87 L823.22,328.12 L821.62,328.40 L820.11,328.70 L818.69,329.02 L817.34,329.37 L816.03,329.75 L814.77,330.15 L813.52,330.58 L812.27,331.05 L811.01,331.55 L809.71,332.08 L808.36,332.65 L806.95,333.26 L805.45,333.91 L803.86,334.59 L802.14,335.32 L800.30,336.09 L798.32,336.91 L796.18,337.77 L793.88,338.68 L791.41,339.64 L788.75,340.65 L785.90,341.70 L782.86,342.81 L779.62,343.97 L776.18,345.18 L772.54,346.44 L768.71,347.76 L764.68,349.14 L760.46,350.57 L756.05,352.05 L751.47,353.60 L746.73,355.20 L741.83,356.86 L736.79,358.57 L731.62,360.35 L726.33,362.18 L720.94,364.08 L715.47,366.03 L709.93,368.04 L704.35,370.11 L698.73,372.24 L693.10,374.43 L687.48,376.68 L681.88,378.98 L676.32,381.35 L670.82,383.77 L665.39,386.25 L660.06,388.79 L654.83,391.38 L649.73,394.04 L644.76,396.74 L639.94,399.50 L635.28,402.32 L630.79,405.19 L626.47,408.11 L622.34,411.09 L618.40,414.11 L614.64,417.19 L611.09,420.31 L607.72,423.49 L604.55,426.71 L601.56,429.97 L598.77,433.28 L596.14,436.63 L593.69,440.03 L591.40,443.46 L589.26,446.94 L587.26,450.45 L585.38,454.00 L583.62,457.58 L581.95,461.19 L580.36,464.84 L578.84,468.52 L577.36,472.23 L575.92,475.96 L574.48,479.72 L573.05,483.50 L571.60,487.31 L570.10,491.13 L568.56,494.97 L566.95,498.83 L565.25,502.70 L563.45,506.59 L561.55,510.49 L559.52,514.40 L557.36,518.31 L555.06,522.23 L552.61,526.15 L550.00,530.08"/><path d="M850.00,329.60 L846.77,329.85 L843.70,330.10 L840.80,330.36 L838.07,330.62 L835.49,330.89 L833.08,331.16 L830.83,331.45 L828.72,331.75 L826.76,332.06 L824.93,332.39 L823.22,332.74 L821.62,333.11 L820.11,333.49 L818.69,333.90 L817.34,334.33 L816.03,334.79 L814.77,335.28 L813.52,335.79 L812.27,336.34 L811.01,336.91 L809.71,337.52 L808.36,338.16 L806.95,338.84 L805.45,339.56 L803.86,340.31 L802.14,341.11 L800.30,341.94 L798.32,342.82 L796.18,343.74 L793.88,344.71 L791.41,345.72 L788.75,346.78 L785.90,347.88 L782.86,349.04 L779.62,350.24 L776.18,351.49 L772.54,352.80 L768.71,354.15 L764.68,355.56 L760.46,357.02 L756.05,358.54 L751.47,360.10 L746.73,361.73 L741.83,363.40 L736.79,365.14 L731.62,366.93 L726.33,368.77 L720.94,370.67 L715.47,372.63 L709.93,374.64 L704.35,376.71 L698.73,378.83 L693.10,381.01 L687.48,383.25 L681.88,385.54 L676.32,387.89 L670.82,390.30 L665.39,392.76 L660.06,395.27 L654.83,397.84 L649.73,400.46 L644.76,403.13 L639.94,405.86 L635.28,408.64 L630.79,411.46 L626.47,414.34 L622.34,417.27 L618.40,420.25 L614.64,423.27 L611.09,426.34 L607.72,429.46 L604.55,432.62 L601.56,435.82 L598.77,439.07 L596.14,442.35 L593.69,445.68 L591.40,449.05 L589.26,452.45 L587.26,455.89 L585.38,459.36 L583.62,462.86 L581.95,466.40 L580.36,469.97 L578.84,473.57 L577.36,477.19 L575.92,480.84 L574.48,484.51 L573.05,488.21 L571.60,491.92 L570.10,495.66 L568.56,499.41 L566.95,503.18 L565.25,506.96 L563.45,510.75 L561.55,514.56 L559.52,518.37 L557.36,522.19 L555.06,526.02 L552.61,529.85 L550.00,533.68"/><path d="M850.00,333.20 L846.77,333.54 L843.70,333.89 L840.80,334.24 L838.07,334.60 L835.49,334.96 L833.08,335.33 L830.83,335.71 L828.72,336.10 L826.76,336.50 L824.93,336.92 L823.22,337.36 L821.62,337.81 L820.11,338.28 L818.69,338.78 L817.34,339.30 L816.03,339.84 L814.77,340.41 L813.52,341.00 L812.27,341.62 L811.01,342.28 L809.71,342.96 L808.36,343.68 L806.95,344.43 L805.45,345.21 L803.86,346.04 L802.14,346.90 L800.30,347.80 L798.32,348.73 L796.18,349.71 L793.88,350.74 L791.41,351.80 L788.75,352.91 L785.90,354.07 L782.86,355.27 L779.62,356.51 L776.18,357.81 L772.54,359.15 L768.71,360.54 L764.68,361.98 L760.46,363.47 L756.05,365.02 L751.47,366.61 L746.73,368.25 L741.83,369.95 L736.79,371.70 L731.62,373.50 L726.33,375.36 L720.94,377.26 L715.47,379.23 L709.93,381.24 L704.35,383.31 L698.73,385.43 L693.10,387.60 L687.48,389.83 L681.88,392.11 L676.32,394.44 L670.82,396.83 L665.39,399.26 L660.06,401.75 L654.83,404.29 L649.73,406.88 L644.76,409.52 L639.94,412.21 L635.28,414.95 L630.79,417.74 L626.47,420.57 L622.34,423.45 L618.40,426.38 L614.64,429.35 L611.09,432.37 L607.72,435.43 L604.55,438.53 L601.56,441.67 L598.77,444.85 L596.14,448.08 L593.69,451.33 L591.40,454.63 L589.26,457.96 L587.26,461.33 L585.38,464.72 L583.62,468.15 L581.95,471.61 L580.36,475.10 L578.84,478.61 L577.36,482.15 L575.92,485.72 L574.48,489.30 L573.05,492.91 L571.60,496.54 L570.10,500.18 L568.56,503.85 L566.95,507.52 L565.25,511.21 L563.45,514.92 L561.55,518.63 L559.52,522.35 L557.36,526.07 L555.06,529.81 L552.61,533.54 L550.00,537.28"/><path d="M850.00,336.80 L846.77,337.24 L843.70,337.68 L840.80,338.12 L838.07,338.57 L835.49,339.03 L833.08,339.49 L830.83,339.96 L828.72,340.44 L826.76,340.94 L824.93,341.45 L823.22,341.97 L821.62,342.52 L820.11,343.08 L818.69,343.66 L817.34,344.26 L816.03,344.88 L814.77,345.53 L813.52,346.21 L812.27,346.91 L811.01,347.64 L809.71,348.40 L808.36,349.19 L806.95,350.01 L805.45,350.87 L803.86,351.76 L802.14,352.68 L800.30,353.65 L798.32,354.65 L796.18,355.68 L793.88,356.76 L791.41,357.88 L788.75,359.04 L785.90,360.25 L782.86,361.50 L779.62,362.79 L776.18,364.12 L772.54,365.50 L768.71,366.93 L764.68,368.41 L760.46,369.93 L756.05,371.50 L751.47,373.12 L746.73,374.78 L741.83,376.50 L736.79,378.26 L731.62,380.08 L726.33,381.94 L720.94,383.86 L715.47,385.82 L709.93,387.84 L704.35,389.91 L698.73,392.02 L693.10,394.19 L687.48,396.40 L681.88,398.67 L676.32,400.99 L670.82,403.35 L665.39,405.77 L660.06,408.23 L654.83,410.74 L649.73,413.30 L644.76,415.91 L639.94,418.56 L635.28,421.26 L630.79,424.01 L626.47,426.80 L622.34,429.63 L618.40,432.51 L614.64,435.43 L611.09,438.40 L607.72,441.40 L604.55,444.44 L601.56,447.52 L598.77,450.64 L596.14,453.80 L593.69,456.99 L591.40,460.21 L589.26,463.47 L587.26,466.76 L585.38,470.09 L583.62,473.44 L581.95,476.82 L580.36,480.22 L578.84,483.66 L577.36,487.11 L575.92,490.59 L574.48,494.09 L573.05,497.61 L571.60,501.15 L570.10,504.71 L568.56,508.28 L566.95,511.87 L565.25,515.47 L563.45,519.08 L561.55,522.70 L559.52,526.32 L557.36,529.96 L555.06,533.59 L552.61,537.24 L550.00,540.88"/><path d="M850.00,340.40 L846.77,340.93 L843.70,341.47 L840.80,342.01 L838.07,342.55 L835.49,343.10 L833.08,343.65 L830.83,344.21 L828.72,344.79 L826.76,345.38 L824.93,345.98 L823.22,346.59 L821.62,347.22 L820.11,347.87 L818.69,348.53 L817.34,349.22 L816.03,349.93 L814.77,350.66 L813.52,351.41 L812.27,352.19 L811.01,353.00 L809.71,353.84 L808.36,354.70 L806.95,355.60 L805.45,356.52 L803.86,357.48 L802.14,358.47 L800.30,359.50 L798.32,360.56 L796.18,361.66 L793.88,362.79 L791.41,363.96 L788.75,365.18 L785.90,366.43 L782.86,367.72 L779.62,369.06 L776.18,370.44 L772.54,371.86 L768.71,373.32 L764.68,374.83 L760.46,376.38 L756.05,377.98 L751.47,379.62 L746.73,381.31 L741.83,383.04 L736.79,384.83 L731.62,386.65 L726.33,388.53 L720.94,390.45 L715.47,392.42 L709.93,394.44 L704.35,396.50 L698.73,398.62 L693.10,400.77 L687.48,402.98 L681.88,405.23 L676.32,407.53 L670.82,409.88 L665.39,412.27 L660.06,414.71 L654.83,417.20 L649.73,419.73 L644.76,422.30 L639.94,424.92 L635.28,427.58 L630.79,430.28 L626.47,433.03 L622.34,435.82 L618.40,438.65 L614.64,441.51 L611.09,444.42 L607.72,447.37 L604.55,450.35 L601.56,453.37 L598.77,456.43 L596.14,459.52 L593.69,462.64 L591.40,465.80 L589.26,468.98 L587.26,472.20 L585.38,475.45 L583.62,478.72 L581.95,482.02 L580.36,485.35 L578.84,488.70 L577.36,492.08 L575.92,495.47 L574.48,498.89 L573.05,502.32 L571.60,505.77 L570.10,509.24 L568.56,512.72 L566.95,516.22 L565.25,519.72 L563.45,523.24 L561.55,526.77 L559.52,530.30 L557.36,533.84 L555.06,537.38 L552.61,540.93 L550.00,544.48"/><path d="M850.00,344.00 L846.77,344.63 L843.70,345.26 L840.80,345.89 L838.07,346.52 L835.49,347.16 L833.08,347.81 L830.83,348.47 L828.72,349.14 L826.76,349.81 L824.93,350.50 L823.22,351.21 L821.62,351.92 L820.11,352.66 L818.69,353.41 L817.34,354.18 L816.03,354.97 L814.77,355.79 L813.52,356.62 L812.27,357.48 L811.01,358.37 L809.71,359.28 L808.36,360.21 L806.95,361.18 L805.45,362.17 L803.86,363.20 L802.14,364.26 L800.30,365.35 L798.32,366.47 L796.18,367.63 L793.88,368.82 L791.41,370.05 L788.75,371.31 L785.90,372.61 L782.86,373.95 L779.62,375.33 L776.18,376.75 L772.54,378.21 L768.71,379.71 L764.68,381.25 L760.46,382.83 L756.05,384.46 L751.47,386.13 L746.73,387.84 L741.83,389.59 L736.79,391.39 L731.62,393.23 L726.33,395.12 L720.94,397.05 L715.47,399.02 L709.93,401.04 L704.35,403.10 L698.73,405.21 L693.10,407.36 L687.48,409.56 L681.88,411.80 L676.32,414.08 L670.82,416.41 L665.39,418.78 L660.06,421.19 L654.83,423.65 L649.73,426.15 L644.76,428.69 L639.94,431.27 L635.28,433.89 L630.79,436.56 L626.47,439.26 L622.34,442.00 L618.40,444.78 L614.64,447.60 L611.09,450.45 L607.72,453.34 L604.55,456.26 L601.56,459.22 L598.77,462.21 L596.14,465.24 L593.69,468.30 L591.40,471.38 L589.26,474.50 L587.26,477.64 L585.38,480.81 L583.62,484.01 L581.95,487.23 L580.36,490.48 L578.84,493.75 L577.36,497.04 L575.92,500.35 L574.48,503.68 L573.05,507.02 L571.60,510.39 L570.10,513.76 L568.56,517.16 L566.95,520.56 L565.25,523.98 L563.45,527.40 L561.55,530.84 L559.52,534.28 L557.36,537.72 L555.06,541.17 L552.61,544.62 L550.00,548.08"/><path d="M850.00,347.60 L846.77,348.32 L843.70,349.04 L840.80,349.77 L838.07,350.50 L835.49,351.23 L833.08,351.97 L830.83,352.72 L828.72,353.48 L826.76,354.25 L824.93,355.03 L823.22,355.82 L821.62,356.63 L820.11,357.45 L818.69,358.29 L817.34,359.14 L816.03,360.02 L814.77,360.91 L813.52,361.83 L812.27,362.77 L811.01,363.73 L809.71,364.71 L808.36,365.73 L806.95,366.76 L805.45,367.83 L803.86,368.92 L802.14,370.04 L800.30,371.20 L798.32,372.38 L796.18,373.60 L793.88,374.84 L791.41,376.13 L788.75,377.44 L785.90,378.79 L782.86,380.18 L779.62,381.61 L776.18,383.07 L772.54,384.56 L768.71,386.10 L764.68,387.67 L760.46,389.29 L756.05,390.94 L751.47,392.63 L746.73,394.37 L741.83,396.14 L736.79,397.95 L731.62,399.81 L726.33,401.70 L720.94,403.64 L715.47,405.62 L709.93,407.64 L704.35,409.70 L698.73,411.80 L693.10,413.95 L687.48,416.13 L681.88,418.36 L676.32,420.63 L670.82,422.94 L665.39,425.29 L660.06,427.67 L654.83,430.10 L649.73,432.57 L644.76,435.08 L639.94,437.62 L635.28,440.21 L630.79,442.83 L626.47,445.49 L622.34,448.18 L618.40,450.91 L614.64,453.68 L611.09,456.48 L607.72,459.31 L604.55,462.17 L601.56,465.07 L598.77,468.00 L596.14,470.96 L593.69,473.95 L591.40,476.97 L589.26,480.01 L587.26,483.08 L585.38,486.18 L583.62,489.30 L581.95,492.44 L580.36,495.61 L578.84,498.79 L577.36,502.00 L575.92,505.22 L574.48,508.47 L573.05,511.73 L571.60,515.00 L570.10,518.29 L568.56,521.59 L566.95,524.91 L565.25,528.23 L563.45,531.56 L561.55,534.90 L559.52,538.25 L557.36,541.60 L555.06,544.96 L552.61,548.32 L550.00,551.68"/><path d="M850.00,351.20 L846.77,352.02 L843.70,352.83 L840.80,353.65 L838.07,354.48 L835.49,355.30 L833.08,356.14 L830.83,356.98 L828.72,357.83 L826.76,358.69 L824.93,359.56 L823.22,360.44 L821.62,361.33 L820.11,362.24 L818.69,363.17 L817.34,364.11 L816.03,365.06 L814.77,366.04 L813.52,367.04 L812.27,368.05 L811.01,369.09 L809.71,370.15 L808.36,371.24 L806.95,372.35 L805.45,373.48 L803.86,374.64 L802.14,375.83 L800.30,377.05 L798.32,378.29 L796.18,379.57 L793.88,380.87 L791.41,382.21 L788.75,383.58 L785.90,384.98 L782.86,386.41 L779.62,387.88 L776.18,389.38 L772.54,390.92 L768.71,392.49 L764.68,394.10 L760.46,395.74 L756.05,397.42 L751.47,399.14 L746.73,400.89 L741.83,402.69 L736.79,404.52 L731.62,406.38 L726.33,408.29 L720.94,410.23 L715.47,412.22 L709.93,414.24 L704.35,416.30 L698.73,418.40 L693.10,420.53 L687.48,422.71 L681.88,424.92 L676.32,427.17 L670.82,429.46 L665.39,431.79 L660.06,434.15 L654.83,436.56 L649.73,438.99 L644.76,441.47 L639.94,443.98 L635.28,446.52 L630.79,449.10 L626.47,451.72 L622.34,454.36 L618.40,457.04 L614.64,459.76 L611.09,462.50 L607.72,465.28 L604.55,468.09 L601.56,470.92 L598.77,473.79 L596.14,476.68 L593.69,479.60 L591.40,482.55 L589.26,485.52 L587.26,488.52 L585.38,491.54 L583.62,494.58 L581.95,497.65 L580.36,500.73 L578.84,503.84 L577.36,506.96 L575.92,510.10 L574.48,513.26 L573.05,516.43 L571.60,519.62 L570.10,522.82 L568.56,526.03 L566.95,529.25 L565.25,532.49 L563.45,535.73 L561.55,538.97 L559.52,542.23 L557.36,545.49 L555.06,548.75 L552.61,552.01 L550.00,555.28"/><path d="M850.00,354.80 L846.77,355.71 L843.70,356.62 L840.80,357.53 L838.07,358.45 L835.49,359.37 L833.08,360.30 L830.83,361.23 L828.72,362.17 L826.76,363.12 L824.93,364.08 L823.22,365.05 L821.62,366.04 L820.11,367.03 L818.69,368.04 L817.34,369.07 L816.03,370.11 L814.77,371.17 L813.52,372.24 L812.27,373.34 L811.01,374.46 L809.71,375.59 L808.36,376.75 L806.95,377.93 L805.45,379.14 L803.86,380.36 L802.14,381.62 L800.30,382.90 L798.32,384.20 L796.18,385.54 L793.88,386.90 L791.41,388.29 L788.75,389.71 L785.90,391.16 L782.86,392.64 L779.62,394.15 L776.18,395.69 L772.54,397.27 L768.71,398.88 L764.68,400.52 L760.46,402.19 L756.05,403.90 L751.47,405.64 L746.73,407.42 L741.83,409.23 L736.79,411.08 L731.62,412.96 L726.33,414.88 L720.94,416.83 L715.47,418.82 L709.93,420.84 L704.35,422.90 L698.73,424.99 L693.10,427.12 L687.48,429.29 L681.88,431.49 L676.32,433.72 L670.82,435.99 L665.39,438.30 L660.06,440.64 L654.83,443.01 L649.73,445.42 L644.76,447.86 L639.94,450.33 L635.28,452.84 L630.79,455.37 L626.47,457.94 L622.34,460.55 L618.40,463.18 L614.64,465.84 L611.09,468.53 L607.72,471.25 L604.55,474.00 L601.56,476.77 L598.77,479.58 L596.14,482.40 L593.69,485.26 L591.40,488.13 L589.26,491.03 L587.26,493.96 L585.38,496.90 L583.62,499.87 L581.95,502.85 L580.36,505.86 L578.84,508.88 L577.36,511.92 L575.92,514.98 L574.48,518.05 L573.05,521.14 L571.60,524.24 L570.10,527.35 L568.56,530.47 L566.95,533.60 L565.25,536.74 L563.45,539.89 L561.55,543.04 L559.52,546.20 L557.36,549.37 L555.06,552.54 L552.61,555.71 L550.00,558.88"/><path d="M850.00,358.40 L846.77,359.40 L843.70,360.41 L840.80,361.42 L838.07,362.43 L835.49,363.44 L833.08,364.46 L830.83,365.49 L828.72,366.52 L826.76,367.56 L824.93,368.61 L823.22,369.67 L821.62,370.74 L820.11,371.82 L818.69,372.92 L817.34,374.03 L816.03,375.15 L814.77,376.29 L813.52,377.45 L812.27,378.63 L811.01,379.82 L809.71,381.03 L808.36,382.26 L806.95,383.51 L805.45,384.79 L803.86,386.09 L802.14,387.40 L800.30,388.75 L798.32,390.12 L796.18,391.51 L793.88,392.93 L791.41,394.37 L788.75,395.84 L785.90,397.34 L782.86,398.87 L779.62,400.42 L776.18,402.01 L772.54,403.62 L768.71,405.27 L764.68,406.94 L760.46,408.65 L756.05,410.38 L751.47,412.15 L746.73,413.95 L741.83,415.78 L736.79,417.64 L731.62,419.54 L726.33,421.46 L720.94,423.42 L715.47,425.41 L709.93,427.44 L704.35,429.50 L698.73,431.59 L693.10,433.71 L687.48,435.86 L681.88,438.05 L676.32,440.27 L670.82,442.52 L665.39,444.80 L660.06,447.12 L654.83,449.46 L649.73,451.84 L644.76,454.25 L639.94,456.68 L635.28,459.15 L630.79,461.65 L626.47,464.17 L622.34,466.73 L618.40,469.31 L614.64,471.92 L611.09,474.56 L607.72,477.22 L604.55,479.91 L601.56,482.62 L598.77,485.36 L596.14,488.12 L593.69,490.91 L591.40,493.72 L589.26,496.55 L587.26,499.40 L585.38,502.27 L583.62,505.15 L581.95,508.06 L580.36,510.99 L578.84,513.93 L577.36,516.89 L575.92,519.86 L574.48,522.84 L573.05,525.84 L571.60,528.85 L570.10,531.87 L568.56,534.90 L566.95,537.95 L565.25,540.99 L563.45,544.05 L561.55,547.11 L559.52,550.18 L557.36,553.25 L555.06,556.32 L552.61,559.40 L550.00,562.48"/><path d="M850.00,362.00 L846.77,363.10 L843.70,364.20 L840.80,365.30 L838.07,366.40 L835.49,367.51 L833.08,368.62 L830.83,369.74 L828.72,370.87 L826.76,372.00 L824.93,373.14 L823.22,374.29 L821.62,375.45 L820.11,376.62 L818.69,377.80 L817.34,378.99 L816.03,380.20 L814.77,381.42 L813.52,382.66 L812.27,383.91 L811.01,385.18 L809.71,386.47 L808.36,387.77 L806.95,389.10 L805.45,390.44 L803.86,391.81 L802.14,393.19 L800.30,394.60 L798.32,396.03 L796.18,397.48 L793.88,398.95 L791.41,400.45 L788.75,401.98 L785.90,403.52 L782.86,405.10 L779.62,406.70 L776.18,408.32 L772.54,409.98 L768.71,411.66 L764.68,413.36 L760.46,415.10 L756.05,416.86 L751.47,418.66 L746.73,420.48 L741.83,422.33 L736.79,424.20 L731.62,426.11 L726.33,428.05 L720.94,430.02 L715.47,432.01 L709.93,434.04 L704.35,436.09 L698.73,438.18 L693.10,440.29 L687.48,442.44 L681.88,444.61 L676.32,446.82 L670.82,449.05 L665.39,451.31 L660.06,453.60 L654.83,455.92 L649.73,458.26 L644.76,460.64 L639.94,463.04 L635.28,465.47 L630.79,467.92 L626.47,470.40 L622.34,472.91 L618.40,475.44 L614.64,478.00 L611.09,480.58 L607.72,483.19 L604.55,485.82 L601.56,488.47 L598.77,491.15 L596.14,493.85 L593.69,496.56 L591.40,499.30 L589.26,502.06 L587.26,504.83 L585.38,507.63 L583.62,510.44 L581.95,513.27 L580.36,516.11 L578.84,518.97 L577.36,521.85 L575.92,524.73 L574.48,527.63 L573.05,530.55 L571.60,533.47 L570.10,536.40 L568.56,539.34 L566.95,542.29 L565.25,545.25 L563.45,548.21 L561.55,551.18 L559.52,554.16 L557.36,557.13 L555.06,560.11 L552.61,563.10 L550.00,566.08"/><path d="M850.00,365.60 L846.77,366.79 L843.70,367.99 L840.80,369.18 L838.07,370.38 L835.49,371.58 L833.08,372.79 L830.83,374.00 L828.72,375.21 L826.76,376.43 L824.93,377.66 L823.22,378.90 L821.62,380.15 L820.11,381.41 L818.69,382.67 L817.34,383.95 L816.03,385.25 L814.77,386.55 L813.52,387.87 L812.27,389.20 L811.01,390.55 L809.71,391.91 L808.36,393.29 L806.95,394.68 L805.45,396.10 L803.86,397.53 L802.14,398.98 L800.30,400.45 L798.32,401.94 L796.18,403.45 L793.88,404.98 L791.41,406.53 L788.75,408.11 L785.90,409.71 L782.86,411.33 L779.62,412.97 L776.18,414.64 L772.54,416.33 L768.71,418.05 L764.68,419.79 L760.46,421.55 L756.05,423.34 L751.47,425.16 L746.73,427.00 L741.83,428.87 L736.79,430.77 L731.62,432.69 L726.33,434.64 L720.94,436.61 L715.47,438.61 L709.93,440.64 L704.35,442.69 L698.73,444.77 L693.10,446.88 L687.48,449.02 L681.88,451.18 L676.32,453.36 L670.82,455.57 L665.39,457.81 L660.06,460.08 L654.83,462.37 L649.73,464.68 L644.76,467.02 L639.94,469.39 L635.28,471.78 L630.79,474.19 L626.47,476.63 L622.34,479.09 L618.40,481.58 L614.64,484.08 L611.09,486.61 L607.72,489.16 L604.55,491.73 L601.56,494.32 L598.77,496.94 L596.14,499.57 L593.69,502.22 L591.40,504.89 L589.26,507.57 L587.26,510.27 L585.38,512.99 L583.62,515.73 L581.95,518.48 L580.36,521.24 L578.84,524.02 L577.36,526.81 L575.92,529.61 L574.48,532.43 L573.05,535.25 L571.60,538.08 L570.10,540.93 L568.56,543.78 L566.95,546.64 L565.25,549.50 L563.45,552.37 L561.55,555.25 L559.52,558.13 L557.36,561.02 L555.06,563.90 L552.61,566.79 L550.00,569.68"/><path d="M850.00,369.20 L846.77,370.49 L843.70,371.77 L840.80,373.06 L838.07,374.36 L835.49,375.65 L833.08,376.95 L830.83,378.25 L828.72,379.56 L826.76,380.87 L824.93,382.19 L823.22,383.52 L821.62,384.85 L820.11,386.20 L818.69,387.55 L817.34,388.92 L816.03,390.29 L814.77,391.68 L813.52,393.07 L812.27,394.48 L811.01,395.91 L809.71,397.35 L808.36,398.80 L806.95,400.27 L805.45,401.75 L803.86,403.25 L802.14,404.77 L800.30,406.30 L798.32,407.85 L796.18,409.42 L793.88,411.01 L791.41,412.61 L788.75,414.24 L785.90,415.89 L782.86,417.56 L779.62,419.24 L776.18,420.95 L772.54,422.68 L768.71,424.44 L764.68,426.21 L760.46,428.01 L756.05,429.83 L751.47,431.67 L746.73,433.53 L741.83,435.42 L736.79,437.33 L731.62,439.27 L726.33,441.22 L720.94,443.21 L715.47,445.21 L709.93,447.24 L704.35,449.29 L698.73,451.37 L693.10,453.47 L687.48,455.59 L681.88,457.74 L676.32,459.91 L670.82,462.10 L665.39,464.32 L660.06,466.56 L654.83,468.82 L649.73,471.11 L644.76,473.41 L639.94,475.74 L635.28,478.09 L630.79,480.47 L626.47,482.86 L622.34,485.27 L618.40,487.71 L614.64,490.16 L611.09,492.64 L607.72,495.13 L604.55,497.64 L601.56,500.17 L598.77,502.72 L596.14,505.29 L593.69,507.87 L591.40,510.47 L589.26,513.08 L587.26,515.71 L585.38,518.36 L583.62,521.01 L581.95,523.68 L580.36,526.37 L578.84,529.06 L577.36,531.77 L575.92,534.49 L574.48,537.22 L573.05,539.95 L571.60,542.70 L570.10,545.45 L568.56,548.22 L566.95,550.98 L565.25,553.76 L563.45,556.54 L561.55,559.32 L559.52,562.11 L557.36,564.90 L555.06,567.69 L552.61,570.48 L550.00,573.28"/><path d="M850.00,372.80 L846.77,374.18 L843.70,375.56 L840.80,376.95 L838.07,378.33 L835.49,379.72 L833.08,381.11 L830.83,382.50 L828.72,383.90 L826.76,385.31 L824.93,386.72 L823.22,388.14 L821.62,389.56 L820.11,390.99 L818.69,392.43 L817.34,393.88 L816.03,395.34 L814.77,396.80 L813.52,398.28 L812.27,399.77 L811.01,401.27 L809.71,402.79 L808.36,404.31 L806.95,405.85 L805.45,407.40 L803.86,408.97 L802.14,410.55 L800.30,412.15 L798.32,413.76 L796.18,415.39 L793.88,417.03 L791.41,418.70 L788.75,420.37 L785.90,422.07 L782.86,423.78 L779.62,425.52 L776.18,427.27 L772.54,429.04 L768.71,430.82 L764.68,432.63 L760.46,434.46 L756.05,436.31 L751.47,438.17 L746.73,440.06 L741.83,441.97 L736.79,443.89 L731.62,445.84 L726.33,447.81 L720.94,449.80 L715.47,451.81 L709.93,453.84 L704.35,455.89 L698.73,457.96 L693.10,460.05 L687.48,462.17 L681.88,464.30 L676.32,466.46 L670.82,468.63 L665.39,470.83 L660.06,473.04 L654.83,475.27 L649.73,477.53 L644.76,479.80 L639.94,482.10 L635.28,484.41 L630.79,486.74 L626.47,489.09 L622.34,491.46 L618.40,493.84 L614.64,496.25 L611.09,498.67 L607.72,501.10 L604.55,503.56 L601.56,506.02 L598.77,508.51 L596.14,511.01 L593.69,513.52 L591.40,516.05 L589.26,518.60 L587.26,521.15 L585.38,523.72 L583.62,526.30 L581.95,528.89 L580.36,531.50 L578.84,534.11 L577.36,536.73 L575.92,539.37 L574.48,542.01 L573.05,544.66 L571.60,547.32 L570.10,549.98 L568.56,552.65 L566.95,555.33 L565.25,558.01 L563.45,560.70 L561.55,563.39 L559.52,566.08 L557.36,568.78 L555.06,571.48 L552.61,574.18 L550.00,576.88"/><path d="M850.00,376.40 L846.77,377.88 L843.70,379.35 L840.80,380.83 L838.07,382.31 L835.49,383.79 L833.08,385.27 L830.83,386.76 L828.72,388.25 L826.76,389.75 L824.93,391.25 L823.22,392.75 L821.62,394.26 L820.11,395.78 L818.69,397.31 L817.34,398.84 L816.03,400.38 L814.77,401.93 L813.52,403.49 L812.27,405.06 L811.01,406.64 L809.71,408.22 L808.36,409.82 L806.95,411.43 L805.45,413.06 L803.86,414.69 L802.14,416.34 L800.30,418.00 L798.32,419.67 L796.18,421.36 L793.88,423.06 L791.41,424.78 L788.75,426.51 L785.90,428.25 L782.86,430.01 L779.62,431.79 L776.18,433.58 L772.54,435.39 L768.71,437.21 L764.68,439.05 L760.46,440.91 L756.05,442.79 L751.47,444.68 L746.73,446.59 L741.83,448.51 L736.79,450.46 L731.62,452.42 L726.33,454.40 L720.94,456.39 L715.47,458.41 L709.93,460.44 L704.35,462.49 L698.73,464.56 L693.10,466.64 L687.48,468.74 L681.88,470.86 L676.32,473.00 L670.82,475.16 L665.39,477.33 L660.06,479.52 L654.83,481.73 L649.73,483.95 L644.76,486.19 L639.94,488.45 L635.28,490.72 L630.79,493.01 L626.47,495.32 L622.34,497.64 L618.40,499.98 L614.64,502.33 L611.09,504.69 L607.72,507.07 L604.55,509.47 L601.56,511.88 L598.77,514.30 L596.14,516.73 L593.69,519.18 L591.40,521.64 L589.26,524.11 L587.26,526.59 L585.38,529.08 L583.62,531.59 L581.95,534.10 L580.36,536.62 L578.84,539.15 L577.36,541.69 L575.92,544.24 L574.48,546.80 L573.05,549.36 L571.60,551.93 L570.10,554.51 L568.56,557.09 L566.95,559.68 L565.25,562.27 L563.45,564.86 L561.55,567.46 L559.52,570.06 L557.36,572.66 L555.06,575.27 L552.61,577.87 L550.00,580.48"/><path d="M850.00,380.00 L846.77,381.57 L843.70,383.14 L840.80,384.71 L838.07,386.28 L835.49,387.86 L833.08,389.43 L830.83,391.01 L828.72,392.60 L826.76,394.18 L824.93,395.77 L823.22,397.37 L821.62,398.97 L820.11,400.57 L818.69,402.18 L817.34,403.80 L816.03,405.43 L814.77,407.06 L813.52,408.70 L812.27,410.34 L811.01,412.00 L809.71,413.66 L808.36,415.34 L806.95,417.02 L805.45,418.71 L803.86,420.41 L802.14,422.13 L800.30,423.85 L798.32,425.58 L796.18,427.33 L793.88,429.09 L791.41,430.86 L788.75,432.64 L785.90,434.43 L782.86,436.24 L779.62,438.06 L776.18,439.90 L772.54,441.74 L768.71,443.60 L764.68,445.48 L760.46,447.37 L756.05,449.27 L751.47,451.18 L746.73,453.12 L741.83,455.06 L736.79,457.02 L731.62,458.99 L726.33,460.98 L720.94,462.99 L715.47,465.01 L709.93,467.04 L704.35,469.09 L698.73,471.15 L693.10,473.23 L687.48,475.32 L681.88,477.43 L676.32,479.55 L670.82,481.69 L665.39,483.84 L660.06,486.00 L654.83,488.18 L649.73,490.37 L644.76,492.58 L639.94,494.80 L635.28,497.04 L630.79,499.29 L626.47,501.55 L622.34,503.82 L618.40,506.11 L614.64,508.41 L611.09,510.72 L607.72,513.04 L604.55,515.38 L601.56,517.73 L598.77,520.08 L596.14,522.45 L593.69,524.83 L591.40,527.22 L589.26,529.62 L587.26,532.03 L585.38,534.45 L583.62,536.87 L581.95,539.31 L580.36,541.75 L578.84,544.20 L577.36,546.66 L575.92,549.12 L574.48,551.59 L573.05,554.07 L571.60,556.55 L570.10,559.04 L568.56,561.53 L566.95,564.02 L565.25,566.52 L563.45,569.02 L561.55,571.53 L559.52,574.04 L557.36,576.54 L555.06,579.06 L552.61,581.57 L550.00,584.08"/><path d="M850.00,383.60 L846.77,385.26 L843.70,386.93 L840.80,388.59 L838.07,390.26 L835.49,391.93 L833.08,393.60 L830.83,395.27 L828.72,396.94 L826.76,398.62 L824.93,400.30 L823.22,401.98 L821.62,403.67 L820.11,405.36 L818.69,407.06 L817.34,408.76 L816.03,410.47 L814.77,412.18 L813.52,413.90 L812.27,415.63 L811.01,417.36 L809.71,419.10 L808.36,420.85 L806.95,422.60 L805.45,424.36 L803.86,426.13 L802.14,427.91 L800.30,429.70 L798.32,431.50 L796.18,433.30 L793.88,435.12 L791.41,436.94 L788.75,438.77 L785.90,440.62 L782.86,442.47 L779.62,444.34 L776.18,446.21 L772.54,448.10 L768.71,449.99 L764.68,451.90 L760.46,453.82 L756.05,455.75 L751.47,457.69 L746.73,459.64 L741.83,461.61 L736.79,463.58 L731.62,465.57 L726.33,467.57 L720.94,469.58 L715.47,471.60 L709.93,473.64 L704.35,475.69 L698.73,477.74 L693.10,479.81 L687.48,481.90 L681.88,483.99 L676.32,486.10 L670.82,488.21 L665.39,490.34 L660.06,492.48 L654.83,494.63 L649.73,496.80 L644.76,498.97 L639.94,501.16 L635.28,503.35 L630.79,505.56 L626.47,507.78 L622.34,510.00 L618.40,512.24 L614.64,514.49 L611.09,516.75 L607.72,519.01 L604.55,521.29 L601.56,523.58 L598.77,525.87 L596.14,528.17 L593.69,530.49 L591.40,532.80 L589.26,535.13 L587.26,537.47 L585.38,539.81 L583.62,542.16 L581.95,544.51 L580.36,546.88 L578.84,549.24 L577.36,551.62 L575.92,554.00 L574.48,556.38 L573.05,558.77 L571.60,561.17 L570.10,563.56 L568.56,565.96 L566.95,568.37 L565.25,570.78 L563.45,573.19 L561.55,575.60 L559.52,578.01 L557.36,580.43 L555.06,582.84 L552.61,585.26 L550.00,587.68"/><path d="M850.00,387.20 L846.77,388.96 L843.70,390.72 L840.80,392.48 L838.07,394.24 L835.49,396.00 L833.08,397.76 L830.83,399.52 L828.72,401.29 L826.76,403.06 L824.93,404.83 L823.22,406.60 L821.62,408.38 L820.11,410.16 L818.69,411.94 L817.34,413.73 L816.03,415.52 L814.77,417.31 L813.52,419.11 L812.27,420.92 L811.01,422.73 L809.71,424.54 L808.36,426.36 L806.95,428.19 L805.45,430.02 L803.86,431.86 L802.14,433.70 L800.30,435.55 L798.32,437.41 L796.18,439.27 L793.88,441.14 L791.41,443.02 L788.75,444.91 L785.90,446.80 L782.86,448.70 L779.62,450.61 L776.18,452.52 L772.54,454.45 L768.71,456.38 L764.68,458.32 L760.46,460.27 L756.05,462.23 L751.47,464.20 L746.73,466.17 L741.83,468.15 L736.79,470.15 L731.62,472.15 L726.33,474.16 L720.94,476.18 L715.47,478.20 L709.93,480.24 L704.35,482.28 L698.73,484.34 L693.10,486.40 L687.48,488.47 L681.88,490.55 L676.32,492.64 L670.82,494.74 L665.39,496.85 L660.06,498.96 L654.83,501.09 L649.73,503.22 L644.76,505.36 L639.94,507.51 L635.28,509.67 L630.79,511.83 L626.47,514.01 L622.34,516.19 L618.40,518.37 L614.64,520.57 L611.09,522.77 L607.72,524.98 L604.55,527.20 L601.56,529.43 L598.77,531.66 L596.14,533.89 L593.69,536.14 L591.40,538.39 L589.26,540.64 L587.26,542.91 L585.38,545.17 L583.62,547.44 L581.95,549.72 L580.36,552.00 L578.84,554.29 L577.36,556.58 L575.92,558.88 L574.48,561.17 L573.05,563.48 L571.60,565.78 L570.10,568.09 L568.56,570.40 L566.95,572.71 L565.25,575.03 L563.45,577.35 L561.55,579.67 L559.52,581.99 L557.36,584.31 L555.06,586.63 L552.61,588.96 L550.00,591.28"/><path d="M850.00,390.80 L846.77,392.65 L843.70,394.50 L840.80,396.36 L838.07,398.21 L835.49,400.07 L833.08,401.92 L830.83,403.78 L828.72,405.63 L826.76,407.49 L824.93,409.35 L823.22,411.22 L821.62,413.08 L820.11,414.95 L818.69,416.82 L817.34,418.69 L816.03,420.56 L814.77,422.44 L813.52,424.32 L812.27,426.20 L811.01,428.09 L809.71,429.98 L808.36,431.87 L806.95,433.77 L805.45,435.67 L803.86,437.58 L802.14,439.49 L800.30,441.40 L798.32,443.32 L796.18,445.24 L793.88,447.17 L791.41,449.10 L788.75,451.04 L785.90,452.98 L782.86,454.93 L779.62,456.88 L776.18,458.84 L772.54,460.80 L768.71,462.77 L764.68,464.75 L760.46,466.73 L756.05,468.71 L751.47,470.70 L746.73,472.70 L741.83,474.70 L736.79,476.71 L731.62,478.72 L726.33,480.74 L720.94,482.77 L715.47,484.80 L709.93,486.84 L704.35,488.88 L698.73,490.93 L693.10,492.99 L687.48,495.05 L681.88,497.12 L676.32,499.19 L670.82,501.27 L665.39,503.35 L660.06,505.44 L654.83,507.54 L649.73,509.64 L644.76,511.75 L639.94,513.86 L635.28,515.98 L630.79,518.10 L626.47,520.23 L622.34,522.37 L618.40,524.51 L614.64,526.65 L611.09,528.80 L607.72,530.95 L604.55,533.11 L601.56,535.28 L598.77,537.44 L596.14,539.62 L593.69,541.79 L591.40,543.97 L589.26,546.16 L587.26,548.34 L585.38,550.54 L583.62,552.73 L581.95,554.93 L580.36,557.13 L578.84,559.34 L577.36,561.54 L575.92,563.75 L574.48,565.97 L573.05,568.18 L571.60,570.40 L570.10,572.62 L568.56,574.84 L566.95,577.06 L565.25,579.28 L563.45,581.51 L561.55,583.74 L559.52,585.96 L557.36,588.19 L555.06,590.42 L552.61,592.65 L550.00,594.88"/><path d="M850.00,394.40 L846.77,396.35 L843.70,398.29 L840.80,400.24 L838.07,402.19 L835.49,404.13 L833.08,406.08 L830.83,408.03 L828.72,409.98 L826.76,411.93 L824.93,413.88 L823.22,415.83 L821.62,417.79 L820.11,419.74 L818.69,421.69 L817.34,423.65 L816.03,425.61 L814.77,427.57 L813.52,429.53 L812.27,431.49 L811.01,433.45 L809.71,435.42 L808.36,437.38 L806.95,439.35 L805.45,441.33 L803.86,443.30 L802.14,445.27 L800.30,447.25 L798.32,449.23 L796.18,451.21 L793.88,453.20 L791.41,455.18 L788.75,457.17 L785.90,459.16 L782.86,461.16 L779.62,463.15 L776.18,465.15 L772.54,467.16 L768.71,469.16 L764.68,471.17 L760.46,473.18 L756.05,475.19 L751.47,477.21 L746.73,479.23 L741.83,481.25 L736.79,483.27 L731.62,485.30 L726.33,487.33 L720.94,489.36 L715.47,491.40 L709.93,493.44 L704.35,495.48 L698.73,497.53 L693.10,499.57 L687.48,501.63 L681.88,503.68 L676.32,505.74 L670.82,507.80 L665.39,509.86 L660.06,511.93 L654.83,513.99 L649.73,516.07 L644.76,518.14 L639.94,520.22 L635.28,522.30 L630.79,524.38 L626.47,526.46 L622.34,528.55 L618.40,530.64 L614.64,532.73 L611.09,534.83 L607.72,536.93 L604.55,539.02 L601.56,541.13 L598.77,543.23 L596.14,545.34 L593.69,547.45 L591.40,549.56 L589.26,551.67 L587.26,553.78 L585.38,555.90 L583.62,558.02 L581.95,560.14 L580.36,562.26 L578.84,564.38 L577.36,566.50 L575.92,568.63 L574.48,570.76 L573.05,572.88 L571.60,575.01 L570.10,577.14 L568.56,579.27 L566.95,581.41 L565.25,583.54 L563.45,585.67 L561.55,587.81 L559.52,589.94 L557.36,592.07 L555.06,594.21 L552.61,596.34 L550.00,598.48"/><path d="M850.00,398.00 L846.77,400.04 L843.70,402.08 L840.80,404.12 L838.07,406.16 L835.49,408.20 L833.08,410.24 L830.83,412.29 L828.72,414.33 L826.76,416.37 L824.93,418.41 L823.22,420.45 L821.62,422.49 L820.11,424.53 L818.69,426.57 L817.34,428.61 L816.03,430.65 L814.77,432.69 L813.52,434.73 L812.27,436.77 L811.01,438.82 L809.71,440.86 L808.36,442.90 L806.95,444.94 L805.45,446.98 L803.86,449.02 L802.14,451.06 L800.30,453.10 L798.32,455.14 L796.18,457.18 L793.88,459.22 L791.41,461.26 L788.75,463.31 L785.90,465.35 L782.86,467.39 L779.62,469.43 L776.18,471.47 L772.54,473.51 L768.71,475.55 L764.68,477.59 L760.46,479.63 L756.05,481.67 L751.47,483.71 L746.73,485.75 L741.83,487.79 L736.79,489.84 L731.62,491.88 L726.33,493.92 L720.94,495.96 L715.47,498.00 L709.93,500.04 L704.35,502.08 L698.73,504.12 L693.10,506.16 L687.48,508.20 L681.88,510.24 L676.32,512.28 L670.82,514.32 L665.39,516.37 L660.06,518.41 L654.83,520.45 L649.73,522.49 L644.76,524.53 L639.94,526.57 L635.28,528.61 L630.79,530.65 L626.47,532.69 L622.34,534.73 L618.40,536.77 L614.64,538.81 L611.09,540.85 L607.72,542.90 L604.55,544.94 L601.56,546.98 L598.77,549.02 L596.14,551.06 L593.69,553.10 L591.40,555.14 L589.26,557.18 L587.26,559.22 L585.38,561.26 L583.62,563.30 L581.95,565.34 L580.36,567.39 L578.84,569.43 L577.36,571.47 L575.92,573.51 L574.48,575.55 L573.05,577.59 L571.60,579.63 L570.10,581.67 L568.56,583.71 L566.95,585.75 L565.25,587.79 L563.45,589.83 L561.55,591.87 L559.52,593.92 L557.36,595.96 L555.06,598.00 L552.61,600.04 L550.00,602.08"/><path d="M850.00,401.60 L846.77,403.74 L843.70,405.87 L840.80,408.00 L838.07,410.14 L835.49,412.27 L833.08,414.41 L830.83,416.54 L828.72,418.67 L826.76,420.80 L824.93,422.93 L823.22,425.06 L821.62,427.19 L820.11,429.32 L818.69,431.45 L817.34,433.57 L816.03,435.70 L814.77,437.82 L813.52,439.94 L812.27,442.06 L811.01,444.18 L809.71,446.30 L808.36,448.41 L806.95,450.52 L805.45,452.63 L803.86,454.74 L802.14,456.85 L800.30,458.95 L798.32,461.05 L796.18,463.15 L793.88,465.25 L791.41,467.35 L788.75,469.44 L785.90,471.53 L782.86,473.62 L779.62,475.70 L776.18,477.78 L772.54,479.86 L768.71,481.94 L764.68,484.01 L760.46,486.08 L756.05,488.15 L751.47,490.22 L746.73,492.28 L741.83,494.34 L736.79,496.40 L731.62,498.45 L726.33,500.50 L720.94,502.55 L715.47,504.60 L709.93,506.64 L704.35,508.68 L698.73,510.71 L693.10,512.75 L687.48,514.78 L681.88,516.81 L676.32,518.83 L670.82,520.85 L665.39,522.87 L660.06,524.89 L654.83,526.90 L649.73,528.91 L644.76,530.92 L639.94,532.92 L635.28,534.92 L630.79,536.92 L626.47,538.92 L622.34,540.91 L618.40,542.91 L614.64,544.90 L611.09,546.88 L607.72,548.87 L604.55,550.85 L601.56,552.83 L598.77,554.81 L596.14,556.78 L593.69,558.75 L591.40,560.72 L589.26,562.69 L587.26,564.66 L585.38,566.63 L583.62,568.59 L581.95,570.55 L580.36,572.51 L578.84,574.47 L577.36,576.43 L575.92,578.38 L574.48,580.34 L573.05,582.29 L571.60,584.25 L570.10,586.20 L568.56,588.15 L566.95,590.10 L565.25,592.05 L563.45,594.00 L561.55,595.94 L559.52,597.89 L557.36,599.84 L555.06,601.79 L552.61,603.73 L550.00,605.68"/><path d="M850.00,405.20 L846.77,407.43 L843.70,409.66 L840.80,411.89 L838.07,414.12 L835.49,416.34 L833.08,418.57 L830.83,420.79 L828.72,423.02 L826.76,425.24 L824.93,427.46 L823.22,429.68 L821.62,431.90 L820.11,434.11 L818.69,436.33 L817.34,438.54 L816.03,440.74 L814.77,442.95 L813.52,445.15 L812.27,447.35 L811.01,449.54 L809.71,451.73 L808.36,453.92 L806.95,456.11 L805.45,458.29 L803.86,460.46 L802.14,462.63 L800.30,464.80 L798.32,466.97 L796.18,469.12 L793.88,471.28 L791.41,473.43 L788.75,475.57 L785.90,477.71 L782.86,479.84 L779.62,481.97 L776.18,484.10 L772.54,486.22 L768.71,488.33 L764.68,490.44 L760.46,492.54 L756.05,494.63 L751.47,496.72 L746.73,498.81 L741.83,500.89 L736.79,502.96 L731.62,505.03 L726.33,507.09 L720.94,509.15 L715.47,511.20 L709.93,513.24 L704.35,515.28 L698.73,517.31 L693.10,519.33 L687.48,521.36 L681.88,523.37 L676.32,525.38 L670.82,527.38 L665.39,529.38 L660.06,531.37 L654.83,533.35 L649.73,535.33 L644.76,537.31 L639.94,539.28 L635.28,541.24 L630.79,543.20 L626.47,545.15 L622.34,547.10 L618.40,549.04 L614.64,550.98 L611.09,552.91 L607.72,554.84 L604.55,556.76 L601.56,558.68 L598.77,560.59 L596.14,562.50 L593.69,564.41 L591.40,566.31 L589.26,568.21 L587.26,570.10 L585.38,571.99 L583.62,573.88 L581.95,575.76 L580.36,577.64 L578.84,579.52 L577.36,581.39 L575.92,583.26 L574.48,585.13 L573.05,587.00 L571.60,588.86 L570.10,590.72 L568.56,592.59 L566.95,594.44 L565.25,596.30 L563.45,598.16 L561.55,600.01 L559.52,601.87 L557.36,603.72 L555.06,605.57 L552.61,607.43 L550.00,609.28"/><path d="M850.00,408.80 L846.77,411.12 L843.70,413.45 L840.80,415.77 L838.07,418.09 L835.49,420.41 L833.08,422.73 L830.83,425.05 L828.72,427.36 L826.76,429.68 L824.93,431.99 L823.22,434.30 L821.62,436.60 L820.11,438.90 L818.69,441.20 L817.34,443.50 L816.03,445.79 L814.77,448.07 L813.52,450.36 L812.27,452.63 L811.01,454.91 L809.71,457.17 L808.36,459.43 L806.95,461.69 L805.45,463.94 L803.86,466.18 L802.14,468.42 L800.30,470.65 L798.32,472.88 L796.18,475.09 L793.88,477.30 L791.41,479.51 L788.75,481.70 L785.90,483.89 L782.86,486.07 L779.62,488.25 L776.18,490.41 L772.54,492.57 L768.71,494.72 L764.68,496.86 L760.46,498.99 L756.05,501.11 L751.47,503.23 L746.73,505.34 L741.83,507.44 L736.79,509.52 L731.62,511.61 L726.33,513.68 L720.94,515.74 L715.47,517.79 L709.93,519.84 L704.35,521.88 L698.73,523.90 L693.10,525.92 L687.48,527.93 L681.88,529.93 L676.32,531.92 L670.82,533.91 L665.39,535.88 L660.06,537.85 L654.83,539.81 L649.73,541.76 L644.76,543.70 L639.94,545.63 L635.28,547.55 L630.79,549.47 L626.47,551.38 L622.34,553.28 L618.40,555.17 L614.64,557.06 L611.09,558.94 L607.72,560.81 L604.55,562.67 L601.56,564.53 L598.77,566.38 L596.14,568.22 L593.69,570.06 L591.40,571.89 L589.26,573.72 L587.26,575.54 L585.38,577.35 L583.62,579.16 L581.95,580.97 L580.36,582.77 L578.84,584.56 L577.36,586.35 L575.92,588.14 L574.48,589.92 L573.05,591.70 L571.60,593.48 L570.10,595.25 L568.56,597.02 L566.95,598.79 L565.25,600.56 L563.45,602.32 L561.55,604.08 L559.52,605.84 L557.36,607.60 L555.06,609.36 L552.61,611.12 L550.00,612.88"/><path d="M850.00,412.40 L846.77,414.82 L843.70,417.24 L840.80,419.65 L838.07,422.07 L835.49,424.48 L833.08,426.89 L830.83,429.30 L828.72,431.71 L826.76,434.11 L824.93,436.52 L823.22,438.91 L821.62,441.31 L820.11,443.70 L818.69,446.08 L817.34,448.46 L816.03,450.83 L814.77,453.20 L813.52,455.56 L812.27,457.92 L811.01,460.27 L809.71,462.61 L808.36,464.95 L806.95,467.27 L805.45,469.59 L803.86,471.90 L802.14,474.21 L800.30,476.50 L798.32,478.79 L796.18,481.06 L793.88,483.33 L791.41,485.59 L788.75,487.84 L785.90,490.07 L782.86,492.30 L779.62,494.52 L776.18,496.73 L772.54,498.92 L768.71,501.11 L764.68,503.28 L760.46,505.44 L756.05,507.60 L751.47,509.74 L746.73,511.86 L741.83,513.98 L736.79,516.09 L731.62,518.18 L726.33,520.26 L720.94,522.33 L715.47,524.39 L709.93,526.44 L704.35,528.47 L698.73,530.50 L693.10,532.51 L687.48,534.51 L681.88,536.50 L676.32,538.47 L670.82,540.44 L665.39,542.39 L660.06,544.33 L654.83,546.26 L649.73,548.18 L644.76,550.09 L639.94,551.98 L635.28,553.87 L630.79,555.74 L626.47,557.61 L622.34,559.46 L618.40,561.31 L614.64,563.14 L611.09,564.96 L607.72,566.78 L604.55,568.58 L601.56,570.38 L598.77,572.17 L596.14,573.94 L593.69,575.71 L591.40,577.48 L589.26,579.23 L587.26,580.98 L585.38,582.72 L583.62,584.45 L581.95,586.17 L580.36,587.89 L578.84,589.61 L577.36,591.31 L575.92,593.02 L574.48,594.71 L573.05,596.41 L571.60,598.09 L570.10,599.78 L568.56,601.46 L566.95,603.14 L565.25,604.81 L563.45,606.48 L561.55,608.15 L559.52,609.82 L557.36,611.49 L555.06,613.15 L552.61,614.81 L550.00,616.48"/><path d="M850.00,416.00 L846.77,418.51 L843.70,421.02 L840.80,423.53 L838.07,426.04 L835.49,428.55 L833.08,431.06 L830.83,433.56 L828.72,436.06 L826.76,438.55 L824.93,441.04 L823.22,443.53 L821.62,446.01 L820.11,448.49 L818.69,450.96 L817.34,453.42 L816.03,455.88 L814.77,458.33 L813.52,460.77 L812.27,463.21 L811.01,465.63 L809.71,468.05 L808.36,470.46 L806.95,472.86 L805.45,475.25 L803.86,477.63 L802.14,479.99 L800.30,482.35 L798.32,484.70 L796.18,487.04 L793.88,489.36 L791.41,491.67 L788.75,493.97 L785.90,496.26 L782.86,498.53 L779.62,500.79 L776.18,503.04 L772.54,505.28 L768.71,507.50 L764.68,509.70 L760.46,511.90 L756.05,514.08 L751.47,516.24 L746.73,518.39 L741.83,520.53 L736.79,522.65 L731.62,524.76 L726.33,526.85 L720.94,528.93 L715.47,530.99 L709.93,533.04 L704.35,535.07 L698.73,537.09 L693.10,539.10 L687.48,541.08 L681.88,543.06 L676.32,545.02 L670.82,546.96 L665.39,548.89 L660.06,550.81 L654.83,552.71 L649.73,554.60 L644.76,556.48 L639.94,558.34 L635.28,560.18 L630.79,562.02 L626.47,563.84 L622.34,565.64 L618.40,567.44 L614.64,569.22 L611.09,570.99 L607.72,572.75 L604.55,574.49 L601.56,576.23 L598.77,577.95 L596.14,579.67 L593.69,581.37 L591.40,583.06 L589.26,584.74 L587.26,586.42 L585.38,588.08 L583.62,589.73 L581.95,591.38 L580.36,593.02 L578.84,594.65 L577.36,596.28 L575.92,597.89 L574.48,599.51 L573.05,601.11 L571.60,602.71 L570.10,604.31 L568.56,605.90 L566.95,607.48 L565.25,609.07 L563.45,610.64 L561.55,612.22 L559.52,613.80 L557.36,615.37 L555.06,616.94 L552.61,618.51 L550.00,620.08"/><path d="M850.00,419.60 L846.77,422.21 L843.70,424.81 L840.80,427.42 L838.07,430.02 L835.49,432.62 L833.08,435.22 L830.83,437.81 L828.72,440.40 L826.76,442.99 L824.93,445.57 L823.22,448.15 L821.62,450.72 L820.11,453.28 L818.69,455.84 L817.34,458.38 L816.03,460.92 L814.77,463.46 L813.52,465.98 L812.27,468.49 L811.01,471.00 L809.71,473.49 L808.36,475.97 L806.95,478.44 L805.45,480.90 L803.86,483.35 L802.14,485.78 L800.30,488.20 L798.32,490.61 L796.18,493.01 L793.88,495.39 L791.41,497.75 L788.75,500.10 L785.90,502.44 L782.86,504.76 L779.62,507.07 L776.18,509.36 L772.54,511.63 L768.71,513.89 L764.68,516.13 L760.46,518.35 L756.05,520.56 L751.47,522.75 L746.73,524.92 L741.83,527.08 L736.79,529.21 L731.62,531.33 L726.33,533.44 L720.94,535.52 L715.47,537.59 L709.93,539.64 L704.35,541.67 L698.73,543.69 L693.10,545.68 L687.48,547.66 L681.88,549.62 L676.32,551.57 L670.82,553.49 L665.39,555.40 L660.06,557.29 L654.83,559.17 L649.73,561.02 L644.76,562.86 L639.94,564.69 L635.28,566.50 L630.79,568.29 L626.47,570.07 L622.34,571.83 L618.40,573.57 L614.64,575.30 L611.09,577.02 L607.72,578.72 L604.55,580.41 L601.56,582.08 L598.77,583.74 L596.14,585.39 L593.69,587.02 L591.40,588.64 L589.26,590.25 L587.26,591.85 L585.38,593.44 L583.62,595.02 L581.95,596.59 L580.36,598.15 L578.84,599.70 L577.36,601.24 L575.92,602.77 L574.48,604.30 L573.05,605.82 L571.60,607.33 L570.10,608.83 L568.56,610.33 L566.95,611.83 L565.25,613.32 L563.45,614.81 L561.55,616.29 L559.52,617.77 L557.36,619.25 L555.06,620.73 L552.61,622.20 L550.00,623.68"/><path d="M850.00,423.20 L846.77,425.90 L843.70,428.60 L840.80,431.30 L838.07,434.00 L835.49,436.69 L833.08,439.38 L830.83,442.07 L828.72,444.75 L826.76,447.43 L824.93,450.10 L823.22,452.76 L821.62,455.42 L820.11,458.07 L818.69,460.71 L817.34,463.35 L816.03,465.97 L814.77,468.58 L813.52,471.19 L812.27,473.78 L811.01,476.36 L809.71,478.93 L808.36,481.48 L806.95,484.03 L805.45,486.55 L803.86,489.07 L802.14,491.57 L800.30,494.05 L798.32,496.52 L796.18,498.98 L793.88,501.41 L791.41,503.83 L788.75,506.24 L785.90,508.62 L782.86,510.99 L779.62,513.34 L776.18,515.67 L772.54,517.98 L768.71,520.28 L764.68,522.55 L760.46,524.80 L756.05,527.04 L751.47,529.25 L746.73,531.45 L741.83,533.62 L736.79,535.78 L731.62,537.91 L726.33,540.02 L720.94,542.12 L715.47,544.19 L709.93,546.24 L704.35,548.27 L698.73,550.28 L693.10,552.27 L687.48,554.24 L681.88,556.18 L676.32,558.11 L670.82,560.02 L665.39,561.91 L660.06,563.77 L654.83,565.62 L649.73,567.45 L644.76,569.25 L639.94,571.04 L635.28,572.81 L630.79,574.56 L626.47,576.29 L622.34,578.01 L618.40,579.70 L614.64,581.38 L611.09,583.04 L607.72,584.69 L604.55,586.32 L601.56,587.93 L598.77,589.53 L596.14,591.11 L593.69,592.68 L591.40,594.23 L589.26,595.77 L587.26,597.29 L585.38,598.81 L583.62,600.31 L581.95,601.80 L580.36,603.28 L578.84,604.74 L577.36,606.20 L575.92,607.65 L574.48,609.09 L573.05,610.52 L571.60,611.94 L570.10,613.36 L568.56,614.77 L566.95,616.17 L565.25,617.57 L563.45,618.97 L561.55,620.36 L559.52,621.75 L557.36,623.13 L555.06,624.52 L552.61,625.90 L550.00,627.28"/><path d="M850.00,426.80 L846.77,429.59 L843.70,432.39 L840.80,435.18 L838.07,437.97 L835.49,440.76 L833.08,443.54 L830.83,446.32 L828.72,449.09 L826.76,451.86 L824.93,454.62 L823.22,457.38 L821.62,460.12 L820.11,462.86 L818.69,465.59 L817.34,468.31 L816.03,471.01 L814.77,473.71 L813.52,476.39 L812.27,479.06 L811.01,481.72 L809.71,484.37 L808.36,487.00 L806.95,489.61 L805.45,492.21 L803.86,494.79 L802.14,497.36 L800.30,499.90 L798.32,502.43 L796.18,504.95 L793.88,507.44 L791.41,509.91 L788.75,512.37 L785.90,514.80 L782.86,517.22 L779.62,519.61 L776.18,521.98 L772.54,524.34 L768.71,526.66 L764.68,528.97 L760.46,531.26 L756.05,533.52 L751.47,535.76 L746.73,537.98 L741.83,540.17 L736.79,542.34 L731.62,544.49 L726.33,546.61 L720.94,548.71 L715.47,550.79 L709.93,552.84 L704.35,554.87 L698.73,556.87 L693.10,558.86 L687.48,560.81 L681.88,562.75 L676.32,564.66 L670.82,566.55 L665.39,568.41 L660.06,570.25 L654.83,572.07 L649.73,573.87 L644.76,575.64 L639.94,577.40 L635.28,579.13 L630.79,580.84 L626.47,582.52 L622.34,584.19 L618.40,585.84 L614.64,587.46 L611.09,589.07 L607.72,590.66 L604.55,592.23 L601.56,593.78 L598.77,595.31 L596.14,596.83 L593.69,598.33 L591.40,599.81 L589.26,601.28 L587.26,602.73 L585.38,604.17 L583.62,605.59 L581.95,607.00 L580.36,608.40 L578.84,609.79 L577.36,611.16 L575.92,612.53 L574.48,613.88 L573.05,615.22 L571.60,616.56 L570.10,617.89 L568.56,619.21 L566.95,620.52 L565.25,621.83 L563.45,623.13 L561.55,624.43 L559.52,625.72 L557.36,627.01 L555.06,628.30 L552.61,629.59 L550.00,630.88"/><path d="M850.00,430.40 L846.77,433.29 L843.70,436.18 L840.80,439.06 L838.07,441.95 L835.49,444.83 L833.08,447.70 L830.83,450.58 L828.72,453.44 L826.76,456.30 L824.93,459.15 L823.22,461.99 L821.62,464.83 L820.11,467.65 L818.69,470.47 L817.34,473.27 L816.03,476.06 L814.77,478.84 L813.52,481.60 L812.27,484.35 L811.01,487.09 L809.71,489.80 L808.36,492.51 L806.95,495.19 L805.45,497.86 L803.86,500.51 L802.14,503.14 L800.30,505.75 L798.32,508.35 L796.18,510.92 L793.88,513.47 L791.41,516.00 L788.75,518.50 L785.90,520.99 L782.86,523.45 L779.62,525.88 L776.18,528.30 L772.54,530.69 L768.71,533.05 L764.68,535.39 L760.46,537.71 L756.05,540.00 L751.47,542.26 L746.73,544.50 L741.83,546.72 L736.79,548.90 L731.62,551.06 L726.33,553.20 L720.94,555.30 L715.47,557.39 L709.93,559.44 L704.35,561.47 L698.73,563.47 L693.10,565.44 L687.48,567.39 L681.88,569.31 L676.32,571.21 L670.82,573.07 L665.39,574.92 L660.06,576.73 L654.83,578.53 L649.73,580.29 L644.76,582.03 L639.94,583.75 L635.28,585.44 L630.79,587.11 L626.47,588.75 L622.34,590.37 L618.40,591.97 L614.64,593.55 L611.09,595.10 L607.72,596.63 L604.55,598.14 L601.56,599.63 L598.77,601.10 L596.14,602.55 L593.69,603.98 L591.40,605.40 L589.26,606.79 L587.26,608.17 L585.38,609.53 L583.62,610.88 L581.95,612.21 L580.36,613.53 L578.84,614.83 L577.36,616.12 L575.92,617.40 L574.48,618.67 L573.05,619.93 L571.60,621.18 L570.10,622.41 L568.56,623.64 L566.95,624.87 L565.25,626.08 L563.45,627.29 L561.55,628.50 L559.52,629.70 L557.36,630.90 L555.06,632.09 L552.61,633.29 L550.00,634.48"/><path d="M850.00,434.00 L846.77,436.98 L843.70,439.97 L840.80,442.95 L838.07,445.92 L835.49,448.90 L833.08,451.87 L830.83,454.83 L828.72,457.79 L826.76,460.74 L824.93,463.68 L823.22,466.61 L821.62,469.53 L820.11,472.44 L818.69,475.34 L817.34,478.23 L816.03,481.11 L814.77,483.96 L813.52,486.81 L812.27,489.64 L811.01,492.45 L809.71,495.24 L808.36,498.02 L806.95,500.78 L805.45,503.52 L803.86,506.23 L802.14,508.93 L800.30,511.60 L798.32,514.26 L796.18,516.89 L793.88,519.49 L791.41,522.08 L788.75,524.63 L785.90,527.17 L782.86,529.68 L779.62,532.16 L776.18,534.61 L772.54,537.04 L768.71,539.44 L764.68,541.82 L760.46,544.16 L756.05,546.48 L751.47,548.77 L746.73,551.03 L741.83,553.26 L736.79,555.47 L731.62,557.64 L726.33,559.78 L720.94,561.90 L715.47,563.98 L709.93,566.04 L704.35,568.07 L698.73,570.06 L693.10,572.03 L687.48,573.97 L681.88,575.87 L676.32,577.75 L670.82,579.60 L665.39,581.42 L660.06,583.22 L654.83,584.98 L649.73,586.71 L644.76,588.42 L639.94,590.10 L635.28,591.76 L630.79,593.38 L626.47,594.98 L622.34,596.55 L618.40,598.10 L614.64,599.63 L611.09,601.13 L607.72,602.60 L604.55,604.05 L601.56,605.48 L598.77,606.89 L596.14,608.27 L593.69,609.64 L591.40,610.98 L589.26,612.30 L587.26,613.61 L585.38,614.90 L583.62,616.17 L581.95,617.42 L580.36,618.66 L578.84,619.88 L577.36,621.09 L575.92,622.28 L574.48,623.46 L573.05,624.63 L571.60,625.79 L570.10,626.94 L568.56,628.08 L566.95,629.21 L565.25,630.34 L563.45,631.46 L561.55,632.57 L559.52,633.68 L557.36,634.78 L555.06,635.88 L552.61,636.98 L550.00,638.08"/><path d="M850.00,437.60 L846.77,440.68 L843.70,443.75 L840.80,446.83 L838.07,449.90 L835.49,452.97 L833.08,456.03 L830.83,459.08 L828.72,462.13 L826.76,465.17 L824.93,468.21 L823.22,471.23 L821.62,474.24 L820.11,477.24 L818.69,480.22 L817.34,483.19 L816.03,486.15 L814.77,489.09 L813.52,492.02 L812.27,494.92 L811.01,497.81 L809.71,500.68 L808.36,503.53 L806.95,506.36 L805.45,509.17 L803.86,511.95 L802.14,514.72 L800.30,517.45 L798.32,520.17 L796.18,522.86 L793.88,525.52 L791.41,528.16 L788.75,530.77 L785.90,533.35 L782.86,535.90 L779.62,538.43 L776.18,540.93 L772.54,543.39 L768.71,545.83 L764.68,548.24 L760.46,550.62 L756.05,552.96 L751.47,555.28 L746.73,557.56 L741.83,559.81 L736.79,562.03 L731.62,564.22 L726.33,566.37 L720.94,568.49 L715.47,570.58 L709.93,572.64 L704.35,574.66 L698.73,576.66 L693.10,578.62 L687.48,580.54 L681.88,582.44 L676.32,584.30 L670.82,586.13 L665.39,587.93 L660.06,589.70 L654.83,591.43 L649.73,593.14 L644.76,594.81 L639.94,596.46 L635.28,598.07 L630.79,599.65 L626.47,601.21 L622.34,602.74 L618.40,604.24 L614.64,605.71 L611.09,607.15 L607.72,608.57 L604.55,609.96 L601.56,611.33 L598.77,612.67 L596.14,613.99 L593.69,615.29 L591.40,616.56 L589.26,617.82 L587.26,619.05 L585.38,620.26 L583.62,621.45 L581.95,622.63 L580.36,623.78 L578.84,624.92 L577.36,626.05 L575.92,627.16 L574.48,628.25 L573.05,629.34 L571.60,630.41 L570.10,631.47 L568.56,632.52 L566.95,633.56 L565.25,634.59 L563.45,635.62 L561.55,636.64 L559.52,637.65 L557.36,638.66 L555.06,639.67 L552.61,640.67 L550.00,641.68"/><path d="M850.00,441.20 L846.77,444.37 L843.70,447.54 L840.80,450.71 L838.07,453.88 L835.49,457.04 L833.08,460.19 L830.83,463.34 L828.72,466.48 L826.76,469.61 L824.93,472.73 L823.22,475.84 L821.62,478.94 L820.11,482.03 L818.69,485.10 L817.34,488.16 L816.03,491.20 L814.77,494.22 L813.52,497.22 L812.27,500.21 L811.01,503.18 L809.71,506.12 L808.36,509.04 L806.95,511.95 L805.45,514.82 L803.86,517.68 L802.14,520.50 L800.30,523.31 L798.32,526.08 L796.18,528.83 L793.88,531.55 L791.41,534.24 L788.75,536.90 L785.90,539.53 L782.86,542.13 L779.62,544.70 L776.18,547.24 L772.54,549.75 L768.71,552.22 L764.68,554.66 L760.46,557.07 L756.05,559.44 L751.47,561.78 L746.73,564.09 L741.83,566.36 L736.79,568.59 L731.62,570.79 L726.33,572.96 L720.94,575.09 L715.47,577.18 L709.93,579.24 L704.35,581.26 L698.73,583.25 L693.10,585.20 L687.48,587.12 L681.88,589.00 L676.32,590.85 L670.82,592.66 L665.39,594.43 L660.06,596.18 L654.83,597.89 L649.73,599.56 L644.76,601.20 L639.94,602.81 L635.28,604.38 L630.79,605.93 L626.47,607.44 L622.34,608.92 L618.40,610.37 L614.64,611.79 L611.09,613.18 L607.72,614.54 L604.55,615.88 L601.56,617.18 L598.77,618.46 L596.14,619.71 L593.69,620.94 L591.40,622.15 L589.26,623.33 L587.26,624.49 L585.38,625.62 L583.62,626.74 L581.95,627.83 L580.36,628.91 L578.84,629.97 L577.36,631.01 L575.92,632.04 L574.48,633.05 L573.05,634.04 L571.60,635.02 L570.10,636.00 L568.56,636.96 L566.95,637.91 L565.25,638.85 L563.45,639.78 L561.55,640.71 L559.52,641.63 L557.36,642.54 L555.06,643.46 L552.61,644.37 L550.00,645.28"/><path d="M850.00,444.80 L846.77,448.07 L843.70,451.33 L840.80,454.59 L838.07,457.85 L835.49,461.10 L833.08,464.35 L830.83,467.59 L828.72,470.83 L826.76,474.05 L824.93,477.26 L823.22,480.46 L821.62,483.65 L820.11,486.82 L818.69,489.98 L817.34,493.12 L816.03,496.24 L814.77,499.35 L813.52,502.43 L812.27,505.50 L811.01,508.54 L809.71,511.56 L808.36,514.56 L806.95,517.53 L805.45,520.48 L803.86,523.40 L802.14,526.29 L800.30,529.16 L798.32,531.99 L796.18,534.80 L793.88,537.58 L791.41,540.32 L788.75,543.03 L785.90,545.71 L782.86,548.36 L779.62,550.98 L776.18,553.56 L772.54,556.10 L768.71,558.61 L764.68,561.08 L760.46,563.52 L756.05,565.92 L751.47,568.29 L746.73,570.61 L741.83,572.90 L736.79,575.16 L731.62,577.37 L726.33,579.54 L720.94,581.68 L715.47,583.78 L709.93,585.84 L704.35,587.86 L698.73,589.84 L693.10,591.79 L687.48,593.69 L681.88,595.56 L676.32,597.39 L670.82,599.19 L665.39,600.94 L660.06,602.66 L654.83,604.34 L649.73,605.98 L644.76,607.59 L639.94,609.16 L635.28,610.70 L630.79,612.20 L626.47,613.67 L622.34,615.10 L618.40,616.50 L614.64,617.87 L611.09,619.21 L607.72,620.51 L604.55,621.79 L601.56,623.03 L598.77,624.25 L596.14,625.44 L593.69,626.60 L591.40,627.73 L589.26,628.84 L587.26,629.93 L585.38,630.99 L583.62,632.02 L581.95,633.04 L580.36,634.04 L578.84,635.01 L577.36,635.97 L575.92,636.91 L574.48,637.84 L573.05,638.75 L571.60,639.64 L570.10,640.52 L568.56,641.39 L566.95,642.25 L565.25,643.10 L563.45,643.94 L561.55,644.78 L559.52,645.60 L557.36,646.43 L555.06,647.25 L552.61,648.06 L550.00,648.88"/><path d="M850.00,448.40 L846.77,451.76 L843.70,455.12 L840.80,458.47 L838.07,461.83 L835.49,465.17 L833.08,468.51 L830.83,471.85 L828.72,475.17 L826.76,478.48 L824.93,481.79 L823.22,485.08 L821.62,488.35 L820.11,491.61 L818.69,494.85 L817.34,498.08 L816.03,501.29 L814.77,504.47 L813.52,507.64 L812.27,510.78 L811.01,513.90 L809.71,517.00 L808.36,520.07 L806.95,523.11 L805.45,526.13 L803.86,529.12 L802.14,532.08 L800.30,535.01 L798.32,537.90 L796.18,540.77 L793.88,543.60 L791.41,546.40 L788.75,549.17 L785.90,551.90 L782.86,554.59 L779.62,557.25 L776.18,559.87 L772.54,562.45 L768.71,565.00 L764.68,567.51 L760.46,569.98 L756.05,572.40 L751.47,574.79 L746.73,577.14 L741.83,579.45 L736.79,581.72 L731.62,583.94 L726.33,586.13 L720.94,588.27 L715.47,590.38 L709.93,592.44 L704.35,594.46 L698.73,596.44 L693.10,598.38 L687.48,600.27 L681.88,602.13 L676.32,603.94 L670.82,605.71 L665.39,607.45 L660.06,609.14 L654.83,610.79 L649.73,612.40 L644.76,613.98 L639.94,615.52 L635.28,617.01 L630.79,618.47 L626.47,619.90 L622.34,621.28 L618.40,622.64 L614.64,623.95 L611.09,625.23 L607.72,626.48 L604.55,627.70 L601.56,628.88 L598.77,630.03 L596.14,631.16 L593.69,632.25 L591.40,633.32 L589.26,634.35 L587.26,635.36 L585.38,636.35 L583.62,637.31 L581.95,638.25 L580.36,639.16 L578.84,640.06 L577.36,640.93 L575.92,641.79 L574.48,642.63 L573.05,643.45 L571.60,644.26 L570.10,645.05 L568.56,645.83 L566.95,646.60 L565.25,647.36 L563.45,648.10 L561.55,648.84 L559.52,649.58 L557.36,650.31 L555.06,651.03 L552.61,651.76 L550.00,652.48"/><path d="M850.00,452.00 L846.77,455.45 L843.70,458.91 L840.80,462.36 L838.07,465.80 L835.49,469.24 L833.08,472.68 L830.83,476.10 L828.72,479.52 L826.76,482.92 L824.93,486.31 L823.22,489.69 L821.62,493.06 L820.11,496.40 L818.69,499.73 L817.34,503.04 L816.03,506.33 L814.77,509.60 L813.52,512.85 L812.27,516.07 L811.01,519.27 L809.71,522.44 L808.36,525.58 L806.95,528.70 L805.45,531.78 L803.86,534.84 L802.14,537.86 L800.30,540.86 L798.32,543.82 L796.18,546.74 L793.88,549.63 L791.41,552.48 L788.75,555.30 L785.90,558.08 L782.86,560.82 L779.62,563.52 L776.18,566.19 L772.54,568.81 L768.71,571.39 L764.68,573.93 L760.46,576.43 L756.05,578.89 L751.47,581.30 L746.73,583.67 L741.83,586.00 L736.79,588.28 L731.62,590.52 L726.33,592.72 L720.94,594.87 L715.47,596.98 L709.93,599.04 L704.35,601.06 L698.73,603.03 L693.10,604.96 L687.48,606.85 L681.88,608.69 L676.32,610.49 L670.82,612.24 L665.39,613.95 L660.06,615.62 L654.83,617.24 L649.73,618.83 L644.76,620.37 L639.94,621.87 L635.28,623.33 L630.79,624.75 L626.47,626.13 L622.34,627.47 L618.40,628.77 L614.64,630.03 L611.09,631.26 L607.72,632.45 L604.55,633.61 L601.56,634.73 L598.77,635.82 L596.14,636.88 L593.69,637.90 L591.40,638.90 L589.26,639.87 L587.26,640.80 L585.38,641.71 L583.62,642.60 L581.95,643.46 L580.36,644.29 L578.84,645.10 L577.36,645.90 L575.92,646.67 L574.48,647.42 L573.05,648.15 L571.60,648.87 L570.10,649.58 L568.56,650.27 L566.95,650.94 L565.25,651.61 L563.45,652.27 L561.55,652.91 L559.52,653.56 L557.36,654.19 L555.06,654.82 L552.61,655.45 L550.00,656.08"/><path d="M850.00,455.60 L846.77,459.15 L843.70,462.70 L840.80,466.24 L838.07,469.78 L835.49,473.31 L833.08,476.84 L830.83,480.36 L828.72,483.86 L826.76,487.36 L824.93,490.84 L823.22,494.31 L821.62,497.76 L820.11,501.19 L818.69,504.61 L817.34,508.00 L816.03,511.38 L814.77,514.73 L813.52,518.05 L812.27,521.35 L811.01,524.63 L809.71,527.88 L808.36,531.09 L806.95,534.28 L805.45,537.44 L803.86,540.56 L802.14,543.65 L800.30,546.71 L798.32,549.73 L796.18,552.71 L793.88,555.66 L791.41,558.56 L788.75,561.43 L785.90,564.26 L782.86,567.05 L779.62,569.80 L776.18,572.50 L772.54,575.16 L768.71,577.78 L764.68,580.35 L760.46,582.88 L756.05,585.37 L751.47,587.80 L746.73,590.20 L741.83,592.54 L736.79,594.84 L731.62,597.10 L726.33,599.30 L720.94,601.46 L715.47,603.57 L709.93,605.64 L704.35,607.66 L698.73,609.63 L693.10,611.55 L687.48,613.42 L681.88,615.25 L676.32,617.03 L670.82,618.77 L665.39,620.46 L660.06,622.10 L654.83,623.70 L649.73,625.25 L644.76,626.76 L639.94,628.22 L635.28,629.64 L630.79,631.02 L626.47,632.35 L622.34,633.65 L618.40,634.90 L614.64,636.11 L611.09,637.29 L607.72,638.42 L604.55,639.52 L601.56,640.58 L598.77,641.61 L596.14,642.60 L593.69,643.56 L591.40,644.48 L589.26,645.38 L587.26,646.24 L585.38,647.08 L583.62,647.88 L581.95,648.66 L580.36,649.42 L578.84,650.15 L577.36,650.86 L575.92,651.54 L574.48,652.21 L573.05,652.86 L571.60,653.49 L570.10,654.10 L568.56,654.70 L566.95,655.29 L565.25,655.86 L563.45,656.43 L561.55,656.98 L559.52,657.53 L557.36,658.07 L555.06,658.61 L552.61,659.15 L550.00,659.68"/><path d="M850.00,459.20 L846.77,462.84 L843.70,466.48 L840.80,470.12 L838.07,473.76 L835.49,477.38 L833.08,481.00 L830.83,484.61 L828.72,488.21 L826.76,491.80 L824.93,495.37 L823.22,498.92 L821.62,502.46 L820.11,505.98 L818.69,509.49 L817.34,512.97 L816.03,516.42 L814.77,519.85 L813.52,523.26 L812.27,526.64 L811.01,529.99 L809.71,533.31 L808.36,536.61 L806.95,539.86 L805.45,543.09 L803.86,546.28 L802.14,549.44 L800.30,552.56 L798.32,555.64 L796.18,558.68 L793.88,561.68 L791.41,564.65 L788.75,567.57 L785.90,570.44 L782.86,573.28 L779.62,576.07 L776.18,578.81 L772.54,581.51 L768.71,584.17 L764.68,586.78 L760.46,589.34 L756.05,591.85 L751.47,594.31 L746.73,596.73 L741.83,599.09 L736.79,601.41 L731.62,603.67 L726.33,605.89 L720.94,608.06 L715.47,610.17 L709.93,612.24 L704.35,614.25 L698.73,616.22 L693.10,618.14 L687.48,620.00 L681.88,621.82 L676.32,623.58 L670.82,625.30 L665.39,626.96 L660.06,628.58 L654.83,630.15 L649.73,631.67 L644.76,633.15 L639.94,634.57 L635.28,635.96 L630.79,637.29 L626.47,638.58 L622.34,639.83 L618.40,641.03 L614.64,642.20 L611.09,643.31 L607.72,644.39 L604.55,645.43 L601.56,646.43 L598.77,647.40 L596.14,648.32 L593.69,649.21 L591.40,650.07 L589.26,650.89 L587.26,651.68 L585.38,652.44 L583.62,653.17 L581.95,653.87 L580.36,654.55 L578.84,655.20 L577.36,655.82 L575.92,656.42 L574.48,657.00 L573.05,657.56 L571.60,658.11 L570.10,658.63 L568.56,659.14 L566.95,659.64 L565.25,660.12 L563.45,660.59 L561.55,661.05 L559.52,661.51 L557.36,661.96 L555.06,662.40 L552.61,662.84 L550.00,663.28"/><path d="M850.00,462.80 L846.77,466.54 L843.70,470.27 L840.80,474.00 L838.07,477.73 L835.49,481.45 L833.08,485.16 L830.83,488.87 L828.72,492.56 L826.76,496.23 L824.93,499.89 L823.22,503.54 L821.62,507.17 L820.11,510.78 L818.69,514.36 L817.34,517.93 L816.03,521.47 L814.77,524.98 L813.52,528.47 L812.27,531.93 L811.01,535.36 L809.71,538.75 L808.36,542.12 L806.95,545.45 L805.45,548.74 L803.86,552.00 L802.14,555.22 L800.30,558.41 L798.32,561.55 L796.18,564.65 L793.88,567.71 L791.41,570.73 L788.75,573.70 L785.90,576.63 L782.86,579.51 L779.62,582.34 L776.18,585.13 L772.54,587.87 L768.71,590.56 L764.68,593.20 L760.46,595.79 L756.05,598.33 L751.47,600.82 L746.73,603.25 L741.83,605.64 L736.79,607.97 L731.62,610.25 L726.33,612.48 L720.94,614.65 L715.47,616.77 L709.93,618.84 L704.35,620.85 L698.73,622.81 L693.10,624.72 L687.48,626.58 L681.88,628.38 L676.32,630.13 L670.82,631.82 L665.39,633.47 L660.06,635.06 L654.83,636.60 L649.73,638.10 L644.76,639.54 L639.94,640.93 L635.28,642.27 L630.79,643.57 L626.47,644.81 L622.34,646.01 L618.40,647.17 L614.64,648.28 L611.09,649.34 L607.72,650.36 L604.55,651.34 L601.56,652.28 L598.77,653.18 L596.14,654.04 L593.69,654.87 L591.40,655.65 L589.26,656.40 L587.26,657.12 L585.38,657.80 L583.62,658.46 L581.95,659.08 L580.36,659.67 L578.84,660.24 L577.36,660.78 L575.92,661.30 L574.48,661.79 L573.05,662.27 L571.60,662.72 L570.10,663.16 L568.56,663.58 L566.95,663.98 L565.25,664.37 L563.45,664.75 L561.55,665.12 L559.52,665.48 L557.36,665.84 L555.06,666.19 L552.61,666.53 L550.00,666.88"/><path d="M850.00,466.40 L846.77,470.23 L843.70,474.06 L840.80,477.89 L838.07,481.71 L835.49,485.52 L833.08,489.33 L830.83,493.12 L828.72,496.90 L826.76,500.67 L824.93,504.42 L823.22,508.16 L821.62,511.87 L820.11,515.57 L818.69,519.24 L817.34,522.89 L816.03,526.51 L814.77,530.11 L813.52,533.68 L812.27,537.21 L811.01,540.72 L809.71,544.19 L808.36,547.63 L806.95,551.03 L805.45,554.40 L803.86,557.72 L802.14,561.01 L800.30,564.26 L798.32,567.46 L796.18,570.62 L793.88,573.74 L791.41,576.81 L788.75,579.83 L785.90,582.81 L782.86,585.74 L779.62,588.61 L776.18,591.44 L772.54,594.22 L768.71,596.95 L764.68,599.62 L760.46,602.24 L756.05,604.81 L751.47,607.32 L746.73,609.78 L741.83,612.18 L736.79,614.53 L731.62,616.83 L726.33,619.06 L720.94,621.25 L715.47,623.37 L709.93,625.44 L704.35,627.45 L698.73,629.41 L693.10,631.31 L687.48,633.15 L681.88,634.94 L676.32,636.67 L670.82,638.35 L665.39,639.97 L660.06,641.54 L654.83,643.06 L649.73,644.52 L644.76,645.93 L639.94,647.28 L635.28,648.59 L630.79,649.84 L626.47,651.04 L622.34,652.19 L618.40,653.30 L614.64,654.36 L611.09,655.37 L607.72,656.33 L604.55,657.26 L601.56,658.13 L598.77,658.97 L596.14,659.76 L593.69,660.52 L591.40,661.24 L589.26,661.91 L587.26,662.56 L585.38,663.17 L583.62,663.74 L581.95,664.29 L580.36,664.80 L578.84,665.29 L577.36,665.74 L575.92,666.18 L574.48,666.59 L573.05,666.97 L571.60,667.34 L570.10,667.68 L568.56,668.01 L566.95,668.33 L565.25,668.63 L563.45,668.91 L561.55,669.19 L559.52,669.46 L557.36,669.72 L555.06,669.98 L552.61,670.23 L550.00,670.48"/><path d="M850.00,470.00 L846.77,473.93 L843.70,477.85 L840.80,481.77 L838.07,485.68 L835.49,489.59 L833.08,493.49 L830.83,497.37 L828.72,501.25 L826.76,505.11 L824.93,508.95 L823.22,512.77 L821.62,516.58 L820.11,520.36 L818.69,524.12 L817.34,527.85 L816.03,531.56 L814.77,535.24 L813.52,538.88 L812.27,542.50 L811.01,546.08 L809.71,549.63 L808.36,553.14 L806.95,556.62 L805.45,560.05 L803.86,563.45 L802.14,566.80 L800.30,570.11 L798.32,573.37 L796.18,576.59 L793.88,579.76 L791.41,582.89 L788.75,585.96 L785.90,588.99 L782.86,591.97 L779.62,594.89 L776.18,597.76 L772.54,600.57 L768.71,603.34 L764.68,606.04 L760.46,608.69 L756.05,611.29 L751.47,613.83 L746.73,616.31 L741.83,618.73 L736.79,621.10 L731.62,623.40 L726.33,625.65 L720.94,627.84 L715.47,629.97 L709.93,632.04 L704.35,634.05 L698.73,636.00 L693.10,637.90 L687.48,639.73 L681.88,641.50 L676.32,643.22 L670.82,644.88 L665.39,646.48 L660.06,648.02 L654.83,649.51 L649.73,650.94 L644.76,652.32 L639.94,653.63 L635.28,654.90 L630.79,656.11 L626.47,657.27 L622.34,658.38 L618.40,659.43 L614.64,660.44 L611.09,661.40 L607.72,662.31 L604.55,663.17 L601.56,663.98 L598.77,664.76 L596.14,665.49 L593.69,666.17 L591.40,666.82 L589.26,667.43 L587.26,668.00 L585.38,668.53 L583.62,669.03 L581.95,669.49 L580.36,669.93 L578.84,670.33 L577.36,670.71 L575.92,671.05 L574.48,671.38 L573.05,671.68 L571.60,671.95 L570.10,672.21 L568.56,672.45 L566.95,672.67 L565.25,672.88 L563.45,673.08 L561.55,673.26 L559.52,673.44 L557.36,673.60 L555.06,673.76 L552.61,673.92 L550.00,674.08"/><path d="M850.00,473.60 L846.77,477.62 L843.70,481.64 L840.80,485.65 L838.07,489.66 L835.49,493.66 L833.08,497.65 L830.83,501.63 L828.72,505.59 L826.76,509.54 L824.93,513.48 L823.22,517.39 L821.62,521.28 L820.11,525.15 L818.69,529.00 L817.34,532.81 L816.03,536.60 L814.77,540.36 L813.52,544.09 L812.27,547.79 L811.01,551.45 L809.71,555.07 L808.36,558.65 L806.95,562.20 L805.45,565.71 L803.86,569.17 L802.14,572.59 L800.30,575.96 L798.32,579.28 L796.18,582.56 L793.88,585.79 L791.41,588.97 L788.75,592.10 L785.90,595.17 L782.86,598.19 L779.62,601.16 L776.18,604.07 L772.54,606.93 L768.71,609.73 L764.68,612.47 L760.46,615.15 L756.05,617.77 L751.47,620.33 L746.73,622.84 L741.83,625.28 L736.79,627.66 L731.62,629.98 L726.33,632.24 L720.94,634.43 L715.47,636.57 L709.93,638.64 L704.35,640.65 L698.73,642.60 L693.10,644.48 L687.48,646.31 L681.88,648.07 L676.32,649.77 L670.82,651.41 L665.39,652.99 L660.06,654.50 L654.83,655.96 L649.73,657.36 L644.76,658.70 L639.94,659.99 L635.28,661.21 L630.79,662.38 L626.47,663.50 L622.34,664.56 L618.40,665.57 L614.64,666.52 L611.09,667.42 L607.72,668.28 L604.55,669.08 L601.56,669.83 L598.77,670.54 L596.14,671.21 L593.69,671.83 L591.40,672.40 L589.26,672.94 L587.26,673.44 L585.38,673.89 L583.62,674.31 L581.95,674.70 L580.36,675.05 L578.84,675.38 L577.36,675.67 L575.92,675.93 L574.48,676.17 L573.05,676.38 L571.60,676.57 L570.10,676.74 L568.56,676.89 L566.95,677.02 L565.25,677.14 L563.45,677.24 L561.55,677.33 L559.52,677.41 L557.36,677.48 L555.06,677.55 L552.61,677.62 L550.00,677.68"/><path d="M850.00,477.20 L846.77,481.31 L843.70,485.43 L840.80,489.53 L838.07,493.64 L835.49,497.73 L833.08,501.81 L830.83,505.88 L828.72,509.94 L826.76,513.98 L824.93,518.00 L823.22,522.01 L821.62,525.99 L820.11,529.94 L818.69,533.87 L817.34,537.78 L816.03,541.65 L814.77,545.49 L813.52,549.30 L812.27,553.07 L811.01,556.81 L809.71,560.51 L808.36,564.17 L806.95,567.78 L805.45,571.36 L803.86,574.89 L802.14,578.37 L800.30,581.81 L798.32,585.20 L796.18,588.53 L793.88,591.82 L791.41,595.05 L788.75,598.23 L785.90,601.35 L782.86,604.42 L779.62,607.43 L776.18,610.39 L772.54,613.28 L768.71,616.12 L764.68,618.89 L760.46,621.60 L756.05,624.25 L751.47,626.84 L746.73,629.36 L741.83,631.83 L736.79,634.22 L731.62,636.56 L726.33,638.82 L720.94,641.03 L715.47,643.17 L709.93,645.24 L704.35,647.25 L698.73,649.19 L693.10,651.07 L687.48,652.88 L681.88,654.63 L676.32,656.31 L670.82,657.94 L665.39,659.49 L660.06,660.99 L654.83,662.42 L649.73,663.79 L644.76,665.09 L639.94,666.34 L635.28,667.53 L630.79,668.66 L626.47,669.73 L622.34,670.74 L618.40,671.70 L614.64,672.60 L611.09,673.45 L607.72,674.25 L604.55,674.99 L601.56,675.68 L598.77,676.33 L596.14,676.93 L593.69,677.48 L591.40,677.99 L589.26,678.45 L587.26,678.87 L585.38,679.26 L583.62,679.60 L581.95,679.91 L580.36,680.18 L578.84,680.42 L577.36,680.63 L575.92,680.81 L574.48,680.96 L573.05,681.09 L571.60,681.19 L570.10,681.27 L568.56,681.32 L566.95,681.37 L565.25,681.39 L563.45,681.40 L561.55,681.40 L559.52,681.39 L557.36,681.37 L555.06,681.34 L552.61,681.31 L550.00,681.28"/><path d="M850.00,480.80 L846.77,485.01 L843.70,489.21 L840.80,493.42 L838.07,497.61 L835.49,501.80 L833.08,505.97 L830.83,510.14 L828.72,514.29 L826.76,518.42 L824.93,522.53 L823.22,526.62 L821.62,530.69 L820.11,534.73 L818.69,538.75 L817.34,542.74 L816.03,546.69 L814.77,550.62 L813.52,554.51 L812.27,558.36 L811.01,562.17 L809.71,565.95 L808.36,569.68 L806.95,573.37 L805.45,577.01 L803.86,580.61 L802.14,584.16 L800.30,587.66 L798.32,591.11 L796.18,594.50 L793.88,597.85 L791.41,601.13 L788.75,604.36 L785.90,607.54 L782.86,610.65 L779.62,613.71 L776.18,616.70 L772.54,619.63 L768.71,622.50 L764.68,625.31 L760.46,628.05 L756.05,630.73 L751.47,633.35 L746.73,635.89 L741.83,638.37 L736.79,640.79 L731.62,643.13 L726.33,645.41 L720.94,647.62 L715.47,649.76 L709.93,651.84 L704.35,653.85 L698.73,655.78 L693.10,657.66 L687.48,659.46 L681.88,661.19 L676.32,662.86 L670.82,664.46 L665.39,666.00 L660.06,667.47 L654.83,668.87 L649.73,670.21 L644.76,671.48 L639.94,672.69 L635.28,673.84 L630.79,674.93 L626.47,675.96 L622.34,676.92 L618.40,677.83 L614.64,678.68 L611.09,679.48 L607.72,680.22 L604.55,680.90 L601.56,681.53 L598.77,682.12 L596.14,682.65 L593.69,683.13 L591.40,683.57 L589.26,683.96 L587.26,684.31 L585.38,684.62 L583.62,684.89 L581.95,685.12 L580.36,685.31 L578.84,685.47 L577.36,685.59 L575.92,685.69 L574.48,685.75 L573.05,685.79 L571.60,685.80 L570.10,685.79 L568.56,685.76 L566.95,685.71 L565.25,685.64 L563.45,685.56 L561.55,685.47 L559.52,685.36 L557.36,685.25 L555.06,685.13 L552.61,685.01 L550.00,684.88"/><path d="M850.00,484.40 L846.77,488.70 L843.70,493.00 L840.80,497.30 L838.07,501.59 L835.49,505.87 L833.08,510.14 L830.83,514.39 L828.72,518.63 L826.76,522.85 L824.93,527.06 L823.22,531.24 L821.62,535.39 L820.11,539.52 L818.69,543.63 L817.34,547.70 L816.03,551.74 L814.77,555.74 L813.52,559.71 L812.27,563.64 L811.01,567.54 L809.71,571.39 L808.36,575.19 L806.95,578.95 L805.45,582.67 L803.86,586.33 L802.14,589.95 L800.30,593.51 L798.32,597.02 L796.18,600.47 L793.88,603.87 L791.41,607.21 L788.75,610.50 L785.90,613.72 L782.86,616.88 L779.62,619.98 L776.18,623.02 L772.54,625.99 L768.71,628.89 L764.68,631.73 L760.46,634.51 L756.05,637.21 L751.47,639.85 L746.73,642.42 L741.83,644.92 L736.79,647.35 L731.62,649.71 L726.33,652.00 L720.94,654.22 L715.47,656.36 L709.93,658.44 L704.35,660.44 L698.73,662.38 L693.10,664.24 L687.48,666.03 L681.88,667.76 L676.32,669.41 L670.82,670.99 L665.39,672.50 L660.06,673.95 L654.83,675.32 L649.73,676.63 L644.76,677.87 L639.94,679.05 L635.28,680.16 L630.79,681.20 L626.47,682.19 L622.34,683.11 L618.40,683.96 L614.64,684.76 L611.09,685.50 L607.72,686.19 L604.55,686.81 L601.56,687.39 L598.77,687.90 L596.14,688.37 L593.69,688.79 L591.40,689.15 L589.26,689.48 L587.26,689.75 L585.38,689.98 L583.62,690.17 L581.95,690.32 L580.36,690.44 L578.84,690.51 L577.36,690.55 L575.92,690.56 L574.48,690.54 L573.05,690.49 L571.60,690.42 L570.10,690.32 L568.56,690.20 L566.95,690.06 L565.25,689.90 L563.45,689.73 L561.55,689.54 L559.52,689.34 L557.36,689.13 L555.06,688.92 L552.61,688.70 L550.00,688.48"/><path d="M850.00,488.00 L846.77,492.40 L843.70,496.79 L840.80,501.18 L838.07,505.56 L835.49,509.94 L833.08,514.30 L830.83,518.65 L828.72,522.98 L826.76,527.29 L824.93,531.58 L823.22,535.85 L821.62,540.10 L820.11,544.32 L818.69,548.50 L817.34,552.66 L816.03,556.78 L814.77,560.87 L813.52,564.92 L812.27,568.93 L811.01,572.90 L809.71,576.82 L808.36,580.70 L806.95,584.54 L805.45,588.32 L803.86,592.05 L802.14,595.73 L800.30,599.36 L798.32,602.93 L796.18,606.44 L793.88,609.90 L791.41,613.30 L788.75,616.63 L785.90,619.90 L782.86,623.11 L779.62,626.25 L776.18,629.33 L772.54,632.34 L768.71,635.28 L764.68,638.16 L760.46,640.96 L756.05,643.69 L751.47,646.36 L746.73,648.95 L741.83,651.47 L736.79,653.91 L731.62,656.28 L726.33,658.58 L720.94,660.81 L715.47,662.96 L709.93,665.04 L704.35,667.04 L698.73,668.97 L693.10,670.83 L687.48,672.61 L681.88,674.32 L676.32,675.96 L670.82,677.52 L665.39,679.01 L660.06,680.43 L654.83,681.78 L649.73,683.05 L644.76,684.26 L639.94,685.40 L635.28,686.47 L630.79,687.48 L626.47,688.41 L622.34,689.29 L618.40,690.10 L614.64,690.85 L611.09,691.53 L607.72,692.16 L604.55,692.73 L601.56,693.24 L598.77,693.69 L596.14,694.09 L593.69,694.44 L591.40,694.74 L589.26,694.99 L587.26,695.19 L585.38,695.35 L583.62,695.46 L581.95,695.53 L580.36,695.56 L578.84,695.56 L577.36,695.52 L575.92,695.44 L574.48,695.33 L573.05,695.20 L571.60,695.04 L570.10,694.85 L568.56,694.64 L566.95,694.40 L565.25,694.15 L563.45,693.89 L561.55,693.61 L559.52,693.32 L557.36,693.01 L555.06,692.71 L552.61,692.39 L550.00,692.08"/><path d="M850.00,491.60 L846.77,496.09 L843.70,500.58 L840.80,505.06 L838.07,509.54 L835.49,514.01 L833.08,518.46 L830.83,522.90 L828.72,527.32 L826.76,531.73 L824.93,536.11 L823.22,540.47 L821.62,544.80 L820.11,549.11 L818.69,553.38 L817.34,557.62 L816.03,561.83 L814.77,566.00 L813.52,570.13 L812.27,574.22 L811.01,578.26 L809.71,582.26 L808.36,586.22 L806.95,590.12 L805.45,593.97 L803.86,597.77 L802.14,601.52 L800.30,605.21 L798.32,608.84 L796.18,612.41 L793.88,615.93 L791.41,619.38 L788.75,622.76 L785.90,626.08 L782.86,629.34 L779.62,632.53 L776.18,635.64 L772.54,638.69 L768.71,641.67 L764.68,644.58 L760.46,647.41 L756.05,650.18 L751.47,652.86 L746.73,655.48 L741.83,658.01 L736.79,660.48 L731.62,662.86 L726.33,665.17 L720.94,667.40 L715.47,669.56 L709.93,671.64 L704.35,673.64 L698.73,675.57 L693.10,677.42 L687.48,679.19 L681.88,680.88 L676.32,682.50 L670.82,684.05 L665.39,685.52 L660.06,686.91 L654.83,688.23 L649.73,689.48 L644.76,690.65 L639.94,691.75 L635.28,692.79 L630.79,693.75 L626.47,694.64 L622.34,695.47 L618.40,696.23 L614.64,696.93 L611.09,697.56 L607.72,698.13 L604.55,698.64 L601.56,699.09 L598.77,699.48 L596.14,699.81 L593.69,700.09 L591.40,700.32 L589.26,700.50 L587.26,700.63 L585.38,700.71 L583.62,700.75 L581.95,700.74 L580.36,700.69 L578.84,700.60 L577.36,700.48 L575.92,700.32 L574.48,700.13 L573.05,699.90 L571.60,699.65 L570.10,699.37 L568.56,699.07 L566.95,698.75 L565.25,698.41 L563.45,698.05 L561.55,697.68 L559.52,697.29 L557.36,696.90 L555.06,696.49 L552.61,696.09 L550.00,695.68"/><path d="M850.00,495.20 L846.77,499.79 L843.70,504.37 L840.80,508.95 L838.07,513.52 L835.49,518.08 L833.08,522.62 L830.83,527.16 L828.72,531.67 L826.76,536.17 L824.93,540.64 L823.22,545.09 L821.62,549.51 L820.11,553.90 L818.69,558.26 L817.34,562.59 L816.03,566.87 L814.77,571.13 L813.52,575.34 L812.27,579.50 L811.01,583.63 L809.71,587.70 L808.36,591.73 L806.95,595.70 L805.45,599.63 L803.86,603.50 L802.14,607.31 L800.30,611.06 L798.32,614.75 L796.18,618.39 L793.88,621.95 L791.41,625.46 L788.75,628.90 L785.90,632.27 L782.86,635.57 L779.62,638.80 L776.18,641.96 L772.54,645.05 L768.71,648.06 L764.68,651.00 L760.46,653.87 L756.05,656.66 L751.47,659.37 L746.73,662.00 L741.83,664.56 L736.79,667.04 L731.62,669.44 L726.33,671.76 L720.94,674.00 L715.47,676.16 L709.93,678.24 L704.35,680.24 L698.73,682.16 L693.10,684.00 L687.48,685.76 L681.88,687.45 L676.32,689.05 L670.82,690.57 L665.39,692.02 L660.06,693.39 L654.83,694.68 L649.73,695.90 L644.76,697.04 L639.94,698.11 L635.28,699.10 L630.79,700.02 L626.47,700.87 L622.34,701.65 L618.40,702.36 L614.64,703.01 L611.09,703.59 L607.72,704.10 L604.55,704.55 L601.56,704.94 L598.77,705.26 L596.14,705.53 L593.69,705.75 L591.40,705.91 L589.26,706.01 L587.26,706.07 L585.38,706.07 L583.62,706.03 L581.95,705.95 L580.36,705.82 L578.84,705.65 L577.36,705.44 L575.92,705.20 L574.48,704.92 L573.05,704.61 L571.60,704.27 L570.10,703.90 L568.56,703.51 L566.95,703.10 L565.25,702.66 L563.45,702.21 L561.55,701.75 L559.52,701.27 L557.36,700.78 L555.06,700.28 L552.61,699.78 L550.00,699.28"/><path d="M850.00,498.80 L846.77,503.48 L843.70,508.16 L840.80,512.83 L838.07,517.49 L835.49,522.14 L833.08,526.78 L830.83,531.41 L828.72,536.02 L826.76,540.60 L824.93,545.17 L823.22,549.70 L821.62,554.21 L820.11,558.69 L818.69,563.14 L817.34,567.55 L816.03,571.92 L814.77,576.25 L813.52,580.54 L812.27,584.79 L811.01,588.99 L809.71,593.14 L808.36,597.24 L806.95,601.29 L805.45,605.28 L803.86,609.22 L802.14,613.09 L800.30,616.91 L798.32,620.67 L796.18,624.36 L793.88,627.98 L791.41,631.54 L788.75,635.03 L785.90,638.45 L782.86,641.80 L779.62,645.07 L776.18,648.27 L772.54,651.40 L768.71,654.45 L764.68,657.42 L760.46,660.32 L756.05,663.14 L751.47,665.87 L746.73,668.53 L741.83,671.11 L736.79,673.60 L731.62,676.01 L726.33,678.34 L720.94,680.59 L715.47,682.76 L709.93,684.84 L704.35,686.84 L698.73,688.76 L693.10,690.59 L687.48,692.34 L681.88,694.01 L676.32,695.60 L670.82,697.10 L665.39,698.53 L660.06,699.87 L654.83,701.14 L649.73,702.32 L644.76,703.43 L639.94,704.46 L635.28,705.42 L630.79,706.30 L626.47,707.10 L622.34,707.83 L618.40,708.50 L614.64,709.09 L611.09,709.61 L607.72,710.07 L604.55,710.46 L601.56,710.79 L598.77,711.05 L596.14,711.26 L593.69,711.40 L591.40,711.49 L589.26,711.52 L587.26,711.51 L585.38,711.44 L583.62,711.32 L581.95,711.15 L580.36,710.94 L578.84,710.69 L577.36,710.40 L575.92,710.07 L574.48,709.71 L573.05,709.31 L571.60,708.88 L570.10,708.43 L568.56,707.95 L566.95,707.44 L565.25,706.92 L563.45,706.37 L561.55,705.82 L559.52,705.24 L557.36,704.66 L555.06,704.07 L552.61,703.48 L550.00,702.88"/><path d="M850.00,502.40 L846.77,507.17 L843.70,511.94 L840.80,516.71 L838.07,521.47 L835.49,526.21 L833.08,530.95 L830.83,535.66 L828.72,540.36 L826.76,545.04 L824.93,549.69 L823.22,554.32 L821.62,558.92 L820.11,563.48 L818.69,568.01 L817.34,572.51 L816.03,576.97 L814.77,581.38 L813.52,585.75 L812.27,590.08 L811.01,594.35 L809.71,598.58 L808.36,602.75 L806.95,606.87 L805.45,610.93 L803.86,614.94 L802.14,618.88 L800.30,622.76 L798.32,626.58 L796.18,630.33 L793.88,634.01 L791.41,637.62 L788.75,641.16 L785.90,644.63 L782.86,648.03 L779.62,651.35 L776.18,654.59 L772.54,657.75 L768.71,660.84 L764.68,663.85 L760.46,666.77 L756.05,669.62 L751.47,672.38 L746.73,675.06 L741.83,677.65 L736.79,680.16 L731.62,682.59 L726.33,684.93 L720.94,687.19 L715.47,689.36 L709.93,691.44 L704.35,693.44 L698.73,695.35 L693.10,697.18 L687.48,698.92 L681.88,700.57 L676.32,702.14 L670.82,703.63 L665.39,705.03 L660.06,706.35 L654.83,707.59 L649.73,708.74 L644.76,709.82 L639.94,710.81 L635.28,711.73 L630.79,712.57 L626.47,713.33 L622.34,714.02 L618.40,714.63 L614.64,715.17 L611.09,715.64 L607.72,716.04 L604.55,716.37 L601.56,716.64 L598.77,716.84 L596.14,716.98 L593.69,717.06 L591.40,717.07 L589.26,717.04 L587.26,716.94 L585.38,716.80 L583.62,716.60 L581.95,716.36 L580.36,716.07 L578.84,715.74 L577.36,715.36 L575.92,714.95 L574.48,714.50 L573.05,714.02 L571.60,713.50 L570.10,712.96 L568.56,712.38 L566.95,711.79 L565.25,711.17 L563.45,710.54 L561.55,709.88 L559.52,709.22 L557.36,708.54 L555.06,707.86 L552.61,707.17 L550.00,706.48"/></g></svg>