<svg xmlns="http://www.w3.org/2000/svg" width="250mm" height="225mm" viewBox="0 0 1000 900"><g id="pen-1" fill="none" stroke="#d7c395" stroke-width=".8" opacity="1"><path d="M110.00,285.22 L117.80,282.36 L125.60,279.74 L133.40,277.53 L141.20,275.93 L149.00,275.14 L156.80,275.29 L164.60,276.51 L172.40,278.84 L180.20,282.32 L188.00,286.89 L195.80,292.48 L203.60,298.94 L211.40,306.09 L219.20,313.70 L227.00,321.53 L234.80,329.29 L242.60,336.69 L250.40,343.45 L258.20,349.27 L266.00,353.91 L273.80,357.12 L281.60,358.73 L289.40,358.57 L297.20,356.58 L305.00,352.72 L312.80,347.03 L320.60,339.62 L328.40,330.63 L336.20,320.31 L344.00,308.91 L351.80,296.75 L359.60,284.19 L367.40,271.61 L375.20,259.39 L383.00,247.92 L390.80,237.57 L398.60,228.70 L406.40,221.61 L414.20,216.58 L422.00,213.80 L429.80,213.42 L437.60,215.52 L445.40,220.10 L453.20,227.07 L461.00,236.30 L468.80,247.57 L476.60,260.61 L484.40,275.08 L492.20,290.62 L500.00,306.81 L507.80,323.23 L515.60,339.45 L523.40,355.04 L531.20,369.59 L539.00,382.74 L546.80,394.15 L554.60,403.55 L562.40,410.72 L570.20,415.52 L578.00,417.87 L585.80,417.77 L593.60,415.29 L601.40,410.57 L609.20,403.83 L617.00,395.31 L624.80,385.33 L632.60,374.24 L640.40,362.40 L648.20,350.20 L656.00,338.03 L663.80,326.24 L671.60,315.20 L679.40,305.21 L687.20,296.55 L695.00,289.42 L702.80,283.99 L710.60,280.35 L718.40,278.54 L726.20,278.52 L734.00,280.23 L741.80,283.50 L749.60,288.15 L757.40,293.96 L765.20,300.67 L773.00,307.99 L780.80,315.64 L788.60,323.34 L796.40,330.82 L804.20,337.83 L812.00,344.16 L819.80,349.63 L827.60,354.11 L835.40,357.52 L843.20,359.83 L851.00,361.07 L858.80,361.32 L866.60,360.68 L874.40,359.32 L882.20,357.42 L890.00,355.22"/><path d="M110.00,287.22 L117.80,284.36 L125.60,281.74 L133.40,279.53 L141.20,277.93 L149.00,277.14 L156.80,277.29 L164.60,278.51 L172.40,280.84 L180.20,284.32 L188.00,288.89 L195.80,294.48 L203.60,300.94 L211.40,308.09 L219.20,315.70 L227.00,323.53 L234.80,331.29 L242.60,338.69 L250.40,345.45 L258.20,351.27 L266.00,355.91 L273.80,359.12 L281.60,360.73 L289.40,360.57 L297.20,358.58 L305.00,354.72 L312.80,349.03 L320.60,341.62 L328.40,332.63 L336.20,322.31 L344.00,310.91 L351.80,298.75 L359.60,286.19 L367.40,273.61 L375.20,261.39 L383.00,249.92 L390.80,239.57 L398.60,230.70 L406.40,223.61 L414.20,218.58 L422.00,215.80 L429.80,215.42 L437.60,217.52 L445.40,222.10 L453.20,229.07 L461.00,238.30 L468.80,249.57 L476.60,262.61 L484.40,277.08 L492.20,292.62 L500.00,308.81 L507.80,325.23 L515.60,341.45 L523.40,357.04 L531.20,371.59 L539.00,384.74 L546.80,396.15 L554.60,405.55 L562.40,412.72 L570.20,417.52 L578.00,419.87 L585.80,419.77 L593.60,417.29 L601.40,412.57 L609.20,405.83 L617.00,397.31 L624.80,387.33 L632.60,376.24 L640.40,364.40 L648.20,352.20 L656.00,340.03 L663.80,328.24 L671.60,317.20 L679.40,307.21 L687.20,298.55 L695.00,291.42 L702.80,285.99 L710.60,282.35 L718.40,280.54 L726.20,280.52 L734.00,282.23 L741.80,285.50 L749.60,290.15 L757.40,295.96 L765.20,302.67 L773.00,309.99 L780.80,317.64 L788.60,325.34 L796.40,332.82 L804.20,339.83 L812.00,346.16 L819.80,351.63 L827.60,356.11 L835.40,359.52 L843.20,361.83 L851.00,363.07 L858.80,363.32 L866.60,362.68 L874.40,361.32 L882.20,359.42 L890.00,357.22"/><path d="M110.00,289.22 L117.80,286.36 L125.60,283.74 L133.40,281.53 L141.20,279.93 L149.00,279.14 L156.80,279.29 L164.60,280.51 L172.40,282.84 L180.20,286.32 L188.00,290.89 L195.80,296.48 L203.60,302.94 L211.40,310.09 L219.20,317.70 L227.00,325.53 L234.80,333.29 L242.60,340.69 L250.40,347.45 L258.20,353.27 L266.00,357.91 L273.80,361.12 L281.60,362.73 L289.40,362.57 L297.20,360.58 L305.00,356.72 L312.80,351.03 L320.60,343.62 L328.40,334.63 L336.20,324.31 L344.00,312.91 L351.80,300.75 L359.60,288.19 L367.40,275.61 L375.20,263.39 L383.00,251.92 L390.80,241.57 L398.60,232.70 L406.40,225.61 L414.20,220.58 L422.00,217.80 L429.80,217.42 L437.60,219.52 L445.40,224.10 L453.20,231.07 L461.00,240.30 L468.80,251.57 L476.60,264.61 L484.40,279.08 L492.20,294.62 L500.00,310.81 L507.80,327.23 L515.60,343.45 L523.40,359.04 L531.20,373.59 L539.00,386.74 L546.80,398.15 L554.60,407.55 L562.40,414.72 L570.20,419.52 L578.00,421.87 L585.80,421.77 L593.60,419.29 L601.40,414.57 L609.20,407.83 L617.00,399.31 L624.80,389.33 L632.60,378.24 L640.40,366.40 L648.20,354.20 L656.00,342.03 L663.80,330.24 L671.60,319.20 L679.40,309.21 L687.20,300.55 L695.00,293.42 L702.80,287.99 L710.60,284.35 L718.40,282.54 L726.20,282.52 L734.00,284.23 L741.80,287.50 L749.60,292.15 L757.40,297.96 L765.20,304.67 L773.00,311.99 L780.80,319.64 L788.60,327.34 L796.40,334.82 L804.20,341.83 L812.00,348.16 L819.80,353.63 L827.60,358.11 L835.40,361.52 L843.20,363.83 L851.00,365.07 L858.80,365.32 L866.60,364.68 L874.40,363.32 L882.20,361.42 L890.00,359.22"/><path d="M110.00,291.22 L117.80,288.36 L125.60,285.74 L133.40,283.53 L141.20,281.93 L149.00,281.14 L156.80,281.29 L164.60,282.51 L172.40,284.84 L180.20,288.32 L188.00,292.89 L195.80,298.48 L203.60,304.94 L211.40,312.09 L219.20,319.70 L227.00,327.53 L234.80,335.29 L242.60,342.69 L250.40,349.45 L258.20,355.27 L266.00,359.91 L273.80,363.12 L281.60,364.73 L289.40,364.57 L297.20,362.58 L305.00,358.72 L312.80,353.03 L320.60,345.62 L328.40,336.63 L336.20,326.31 L344.00,314.91 L351.80,302.75 L359.60,290.19 L367.40,277.61 L375.20,265.39 L383.00,253.92 L390.80,243.57 L398.60,234.70 L406.40,227.61 L414.20,222.58 L422.00,219.80 L429.80,219.42 L437.60,221.52 L445.40,226.10 L453.20,233.07 L461.00,242.30 L468.80,253.57 L476.60,266.61 L484.40,281.08 L492.20,296.62 L500.00,312.81 L507.80,329.23 L515.60,345.45 L523.40,361.04 L531.20,375.59 L539.00,388.74 L546.80,400.15 L554.60,409.55 L562.40,416.72 L570.20,421.52 L578.00,423.87 L585.80,423.77 L593.60,421.29 L601.40,416.57 L609.20,409.83 L617.00,401.31 L624.80,391.33 L632.60,380.24 L640.40,368.40 L648.20,356.20 L656.00,344.03 L663.80,332.24 L671.60,321.20 L679.40,311.21 L687.20,302.55 L695.00,295.42 L702.80,289.99 L710.60,286.35 L718.40,284.54 L726.20,284.52 L734.00,286.23 L741.80,289.50 L749.60,294.15 L757.40,299.96 L765.20,306.67 L773.00,313.99 L780.80,321.64 L788.60,329.34 L796.40,336.82 L804.20,343.83 L812.00,350.16 L819.80,355.63 L827.60,360.11 L835.40,363.52 L843.20,365.83 L851.00,367.07 L858.80,367.32 L866.60,366.68 L874.40,365.32 L882.20,363.42 L890.00,361.22"/><path d="M110.00,293.22 L117.80,290.36 L125.60,287.74 L133.40,285.53 L141.20,283.93 L149.00,283.14 L156.80,283.29 L164.60,284.51 L172.40,286.84 L180.20,290.32 L188.00,294.89 L195.80,300.48 L203.60,306.94 L211.40,314.09 L219.20,321.70 L227.00,329.53 L234.80,337.29 L242.60,344.69 L250.40,351.45 L258.20,357.27 L266.00,361.91 L273.80,365.12 L281.60,366.73 L289.40,366.57 L297.20,364.58 L305.00,360.72 L312.80,355.03 L320.60,347.62 L328.40,338.63 L336.20,328.31 L344.00,316.91 L351.80,304.75 L359.60,292.19 L367.40,279.61 L375.20,267.39 L383.00,255.92 L390.80,245.57 L398.60,236.70 L406.40,229.61 L414.20,224.58 L422.00,221.80 L429.80,221.42 L437.60,223.52 L445.40,228.10 L453.20,235.07 L461.00,244.30 L468.80,255.57 L476.60,268.61 L484.40,283.08 L492.20,298.62 L500.00,314.81 L507.80,331.23 L515.60,347.45 L523.40,363.04 L531.20,377.59 L539.00,390.74 L546.80,402.15 L554.60,411.55 L562.40,418.72 L570.20,423.52 L578.00,425.87 L585.80,425.77 L593.60,423.29 L601.40,418.57 L609.20,411.83 L617.00,403.31 L624.80,393.33 L632.60,382.24 L640.40,370.40 L648.20,358.20 L656.00,346.03 L663.80,334.24 L671.60,323.20 L679.40,313.21 L687.20,304.55 L695.00,297.42 L702.80,291.99 L710.60,288.35 L718.40,286.54 L726.20,286.52 L734.00,288.23 L741.80,291.50 L749.60,296.15 L757.40,301.96 L765.20,308.67 L773.00,315.99 L780.80,323.64 L788.60,331.34 L796.40,338.82 L804.20,345.83 L812.00,352.16 L819.80,357.63 L827.60,362.11 L835.40,365.52 L843.20,367.83 L851.00,369.07 L858.80,369.32 L866.60,368.68 L874.40,367.32 L882.20,365.42 L890.00,363.22"/><path d="M110.00,295.22 L117.80,292.36 L125.60,289.74 L133.40,287.53 L141.20,285.93 L149.00,285.14 L156.80,285.29 L164.60,286.51 L172.40,288.84 L180.20,292.32 L188.00,296.89 L195.80,302.48 L203.60,308.94 L211.40,316.09 L219.20,323.70 L227.00,331.53 L234.80,339.29 L242.60,346.69 L250.40,353.45 L258.20,359.27 L266.00,363.91 L273.80,367.12 L281.60,368.73 L289.40,368.57 L297.20,366.58 L305.00,362.72 L312.80,357.03 L320.60,349.62 L328.40,340.63 L336.20,330.31 L344.00,318.91 L351.80,306.75 L359.60,294.19 L367.40,281.61 L375.20,269.39 L383.00,257.92 L390.80,247.57 L398.60,238.70 L406.40,231.61 L414.20,226.58 L422.00,223.80 L429.80,223.42 L437.60,225.52 L445.40,230.10 L453.20,237.07 L461.00,246.30 L468.80,257.57 L476.60,270.61 L484.40,285.08 L492.20,300.62 L500.00,316.81 L507.80,333.23 L515.60,349.45 L523.40,365.04 L531.20,379.59 L539.00,392.74 L546.80,404.15 L554.60,413.55 L562.40,420.72 L570.20,425.52 L578.00,427.87 L585.80,427.77 L593.60,425.29 L601.40,420.57 L609.20,413.83 L617.00,405.31 L624.80,395.33 L632.60,384.24 L640.40,372.40 L648.20,360.20 L656.00,348.03 L663.80,336.24 L671.60,325.20 L679.40,315.21 L687.20,306.55 L695.00,299.42 L702.80,293.99 L710.60,290.35 L718.40,288.54 L726.20,288.52 L734.00,290.23 L741.80,293.50 L749.60,298.15 L757.40,303.96 L765.20,310.67 L773.00,317.99 L780.80,325.64 L788.60,333.34 L796.40,340.82 L804.20,347.83 L812.00,354.16 L819.80,359.63 L827.60,364.11 L835.40,367.52 L843.20,369.83 L851.00,371.07 L858.80,371.32 L866.60,370.68 L874.40,369.32 L882.20,367.42 L890.00,365.22"/><path d="M110.00,297.22 L117.80,294.36 L125.60,291.74 L133.40,289.53 L141.20,287.93 L149.00,287.14 L156.80,287.29 L164.60,288.51 L172.40,290.84 L180.20,294.32 L188.00,298.89 L195.80,304.48 L203.60,310.94 L211.40,318.09 L219.20,325.70 L227.00,333.53 L234.80,341.29 L242.60,348.69 L250.40,355.45 L258.20,361.27 L266.00,365.91 L273.80,369.12 L281.60,370.73 L289.40,370.57 L297.20,368.58 L305.00,364.72 L312.80,359.03 L320.60,351.62 L328.40,342.63 L336.20,332.31 L344.00,320.91 L351.80,308.75 L359.60,296.19 L367.40,283.61 L375.20,271.39 L383.00,259.92 L390.80,249.57 L398.60,240.70 L406.40,233.61 L414.20,228.58 L422.00,225.80 L429.80,225.42 L437.60,227.52 L445.40,232.10 L453.20,239.07 L461.00,248.30 L468.80,259.57 L476.60,272.61 L484.40,287.08 L492.20,302.62 L500.00,318.81 L507.80,335.23 L515.60,351.45 L523.40,367.04 L531.20,381.59 L539.00,394.74 L546.80,406.15 L554.60,415.55 L562.40,422.72 L570.20,427.52 L578.00,429.87 L585.80,429.77 L593.60,427.29 L601.40,422.57 L609.20,415.83 L617.00,407.31 L624.80,397.33 L632.60,386.24 L640.40,374.40 L648.20,362.20 L656.00,350.03 L663.80,338.24 L671.60,327.20 L679.40,317.21 L687.20,308.55 L695.00,301.42 L702.80,295.99 L710.60,292.35 L718.40,290.54 L726.20,290.52 L734.00,292.23 L741.80,295.50 L749.60,300.15 L757.40,305.96 L765.20,312.67 L773.00,319.99 L780.80,327.64 L788.60,335.34 L796.40,342.82 L804.20,349.83 L812.00,356.16 L819.80,361.63 L827.60,366.11 L835.40,369.52 L843.20,371.83 L851.00,373.07 L858.80,373.32 L866.60,372.68 L874.40,371.32 L882.20,369.42 L890.00,367.22"/><path d="M110.00,299.22 L117.80,296.36 L125.60,293.74 L133.40,291.53 L141.20,289.93 L149.00,289.14 L156.80,289.29 L164.60,290.51 L172.40,292.84 L180.20,296.32 L188.00,300.89 L195.80,306.48 L203.60,312.94 L211.40,320.09 L219.20,327.70 L227.00,335.53 L234.80,343.29 L242.60,350.69 L250.40,357.45 L258.20,363.27 L266.00,367.91 L273.80,371.12 L281.60,372.73 L289.40,372.57 L297.20,370.58 L305.00,366.72 L312.80,361.03 L320.60,353.62 L328.40,344.63 L336.20,334.31 L344.00,322.91 L351.80,310.75 L359.60,298.19 L367.40,285.61 L375.20,273.39 L383.00,261.92 L390.80,251.57 L398.60,242.70 L406.40,235.61 L414.20,230.58 L422.00,227.80 L429.80,227.42 L437.60,229.52 L445.40,234.10 L453.20,241.07 L461.00,250.30 L468.80,261.57 L476.60,274.61 L484.40,289.08 L492.20,304.62 L500.00,320.81 L507.80,337.23 L515.60,353.45 L523.40,369.04 L531.20,383.59 L539.00,396.74 L546.80,408.15 L554.60,417.55 L562.40,424.72 L570.20,429.52 L578.00,431.87 L585.80,431.77 L593.60,429.29 L601.40,424.57 L609.20,417.83 L617.00,409.31 L624.80,399.33 L632.60,388.24 L640.40,376.40 L648.20,364.20 L656.00,352.03 L663.80,340.24 L671.60,329.20 L679.40,319.21 L687.20,310.55 L695.00,303.42 L702.80,297.99 L710.60,294.35 L718.40,292.54 L726.20,292.52 L734.00,294.23 L741.80,297.50 L749.60,302.15 L757.40,307.96 L765.20,314.67 L773.00,321.99 L780.80,329.64 L788.60,337.34 L796.40,344.82 L804.20,351.83 L812.00,358.16 L819.80,363.63 L827.60,368.11 L835.40,371.52 L843.20,373.83 L851.00,375.07 L858.80,375.32 L866.60,374.68 L874.40,373.32 L882.20,371.42 L890.00,369.22"/><path d="M110.00,301.22 L117.80,298.36 L125.60,295.74 L133.40,293.53 L141.20,291.93 L149.00,291.14 L156.80,291.29 L164.60,292.51 L172.40,294.84 L180.20,298.32 L188.00,302.89 L195.80,308.48 L203.60,314.94 L211.40,322.09 L219.20,329.70 L227.00,337.53 L234.80,345.29 L242.60,352.69 L250.40,359.45 L258.20,365.27 L266.00,369.91 L273.80,373.12 L281.60,374.73 L289.40,374.57 L297.20,372.58 L305.00,368.72 L312.80,363.03 L320.60,355.62 L328.40,346.63 L336.20,336.31 L344.00,324.91 L351.80,312.75 L359.60,300.19 L367.40,287.61 L375.20,275.39 L383.00,263.92 L390.80,253.57 L398.60,244.70 L406.40,237.61 L414.20,232.58 L422.00,229.80 L429.80,229.42 L437.60,231.52 L445.40,236.10 L453.20,243.07 L461.00,252.30 L468.80,263.57 L476.60,276.61 L484.40,291.08 L492.20,306.62 L500.00,322.81 L507.80,339.23 L515.60,355.45 L523.40,371.04 L531.20,385.59 L539.00,398.74 L546.80,410.15 L554.60,419.55 L562.40,426.72 L570.20,431.52 L578.00,433.87 L585.80,433.77 L593.60,431.29 L601.40,426.57 L609.20,419.83 L617.00,411.31 L624.80,401.33 L632.60,390.24 L640.40,378.40 L648.20,366.20 L656.00,354.03 L663.80,342.24 L671.60,331.20 L679.40,321.21 L687.20,312.55 L695.00,305.42 L702.80,299.99 L710.60,296.35 L718.40,294.54 L726.20,294.52 L734.00,296.23 L741.80,299.50 L749.60,304.15 L757.40,309.96 L765.20,316.67 L773.00,323.99 L780.80,331.64 L788.60,339.34 L796.40,346.82 L804.20,353.83 L812.00,360.16 L819.80,365.63 L827.60,370.11 L835.40,373.52 L843.20,375.83 L851.00,377.07 L858.80,377.32 L866.60,376.68 L874.40,375.32 L882.20,373.42 L890.00,371.22"/><path d="M110.00,303.22 L117.80,300.36 L125.60,297.74 L133.40,295.53 L141.20,293.93 L149.00,293.14 L156.80,293.29 L164.60,294.51 L172.40,296.84 L180.20,300.32 L188.00,304.89 L195.80,310.48 L203.60,316.94 L211.40,324.09 L219.20,331.70 L227.00,339.53 L234.80,347.29 L242.60,354.69 L250.40,361.45 L258.20,367.27 L266.00,371.91 L273.80,375.12 L281.60,376.73 L289.40,376.57 L297.20,374.58 L305.00,370.72 L312.80,365.03 L320.60,357.62 L328.40,348.63 L336.20,338.31 L344.00,326.91 L351.80,314.75 L359.60,302.19 L367.40,289.61 L375.20,277.39 L383.00,265.92 L390.80,255.57 L398.60,246.70 L406.40,239.61 L414.20,234.58 L422.00,231.80 L429.80,231.42 L437.60,233.52 L445.40,238.10 L453.20,245.07 L461.00,254.30 L468.80,265.57 L476.60,278.61 L484.40,293.08 L492.20,308.62 L500.00,324.81 L507.80,341.23 L515.60,357.45 L523.40,373.04 L531.20,387.59 L539.00,400.74 L546.80,412.15 L554.60,421.55 L562.40,428.72 L570.20,433.52 L578.00,435.87 L585.80,435.77 L593.60,433.29 L601.40,428.57 L609.20,421.83 L617.00,413.31 L624.80,403.33 L632.60,392.24 L640.40,380.40 L648.20,368.20 L656.00,356.03 L663.80,344.24 L671.60,333.20 L679.40,323.21 L687.20,314.55 L695.00,307.42 L702.80,301.99 L710.60,298.35 L718.40,296.54 L726.20,296.52 L734.00,298.23 L741.80,301.50 L749.60,306.15 L757.40,311.96 L765.20,318.67 L773.00,325.99 L780.80,333.64 L788.60,341.34 L796.40,348.82 L804.20,355.83 L812.00,362.16 L819.80,367.63 L827.60,372.11 L835.40,375.52 L843.20,377.83 L851.00,379.07 L858.80,379.32 L866.60,378.68 L874.40,377.32 L882.20,375.42 L890.00,373.22"/><path d="M110.00,305.22 L117.80,302.36 L125.60,299.74 L133.40,297.53 L141.20,295.93 L149.00,295.14 L156.80,295.29 L164.60,296.51 L172.40,298.84 L180.20,302.32 L188.00,306.89 L195.80,312.48 L203.60,318.94 L211.40,326.09 L219.20,333.70 L227.00,341.53 L234.80,349.29 L242.60,356.69 L250.40,363.45 L258.20,369.27 L266.00,373.91 L273.80,377.12 L281.60,378.73 L289.40,378.57 L297.20,376.58 L305.00,372.72 L312.80,367.03 L320.60,359.62 L328.40,350.63 L336.20,340.31 L344.00,328.91 L351.80,316.75 L359.60,304.19 L367.40,291.61 L375.20,279.39 L383.00,267.92 L390.80,257.57 L398.60,248.70 L406.40,241.61 L414.20,236.58 L422.00,233.80 L429.80,233.42 L437.60,235.52 L445.40,240.10 L453.20,247.07 L461.00,256.30 L468.80,267.57 L476.60,280.61 L484.40,295.08 L492.20,310.62 L500.00,326.81 L507.80,343.23 L515.60,359.45 L523.40,375.04 L531.20,389.59 L539.00,402.74 L546.80,414.15 L554.60,423.55 L562.40,430.72 L570.20,435.52 L578.00,437.87 L585.80,437.77 L593.60,435.29 L601.40,430.57 L609.20,423.83 L617.00,415.31 L624.80,405.33 L632.60,394.24 L640.40,382.40 L648.20,370.20 L656.00,358.03 L663.80,346.24 L671.60,335.20 L679.40,325.21 L687.20,316.55 L695.00,309.42 L702.80,303.99 L710.60,300.35 L718.40,298.54 L726.20,298.52 L734.00,300.23 L741.80,303.50 L749.60,308.15 L757.40,313.96 L765.20,320.67 L773.00,327.99 L780.80,335.64 L788.60,343.34 L796.40,350.82 L804.20,357.83 L812.00,364.16 L819.80,369.63 L827.60,374.11 L835.40,377.52 L843.20,379.83 L851.00,381.07 L858.80,381.32 L866.60,380.68 L874.40,379.32 L882.20,377.42 L890.00,375.22"/><path d="M110.00,307.22 L117.80,304.36 L125.60,301.74 L133.40,299.53 L141.20,297.93 L149.00,297.14 L156.80,297.29 L164.60,298.51 L172.40,300.84 L180.20,304.32 L188.00,308.89 L195.80,314.48 L203.60,320.94 L211.40,328.09 L219.20,335.70 L227.00,343.53 L234.80,351.29 L242.60,358.69 L250.40,365.45 L258.20,371.27 L266.00,375.91 L273.80,379.12 L281.60,380.73 L289.40,380.57 L297.20,378.58 L305.00,374.72 L312.80,369.03 L320.60,361.62 L328.40,352.63 L336.20,342.31 L344.00,330.91 L351.80,318.75 L359.60,306.19 L367.40,293.61 L375.20,281.39 L383.00,269.92 L390.80,259.57 L398.60,250.70 L406.40,243.61 L414.20,238.58 L422.00,235.80 L429.80,235.42 L437.60,237.52 L445.40,242.10 L453.20,249.07 L461.00,258.30 L468.80,269.57 L476.60,282.61 L484.40,297.08 L492.20,312.62 L500.00,328.81 L507.80,345.23 L515.60,361.45 L523.40,377.04 L531.20,391.59 L539.00,404.74 L546.80,416.15 L554.60,425.55 L562.40,432.72 L570.20,437.52 L578.00,439.87 L585.80,439.77 L593.60,437.29 L601.40,432.57 L609.20,425.83 L617.00,417.31 L624.80,407.33 L632.60,396.24 L640.40,384.40 L648.20,372.20 L656.00,360.03 L663.80,348.24 L671.60,337.20 L679.40,327.21 L687.20,318.55 L695.00,311.42 L702.80,305.99 L710.60,302.35 L718.40,300.54 L726.20,300.52 L734.00,302.23 L741.80,305.50 L749.60,310.15 L757.40,315.96 L765.20,322.67 L773.00,329.99 L780.80,337.64 L788.60,345.34 L796.40,352.82 L804.20,359.83 L812.00,366.16 L819.80,371.63 L827.60,376.11 L835.40,379.52 L843.20,381.83 L851.00,383.07 L858.80,383.32 L866.60,382.68 L874.40,381.32 L882.20,379.42 L890.00,377.22"/><path d="M110.00,309.22 L117.80,306.36 L125.60,303.74 L133.40,301.53 L141.20,299.93 L149.00,299.14 L156.80,299.29 L164.60,300.51 L172.40,302.84 L180.20,306.32 L188.00,310.89 L195.80,316.48 L203.60,322.94 L211.40,330.09 L219.20,337.70 L227.00,345.53 L234.80,353.29 L242.60,360.69 L250.40,367.45 L258.20,373.27 L266.00,377.91 L273.80,381.12 L281.60,382.73 L289.40,382.57 L297.20,380.58 L305.00,376.72 L312.80,371.03 L320.60,363.62 L328.40,354.63 L336.20,344.31 L344.00,332.91 L351.80,320.75 L359.60,308.19 L367.40,295.61 L375.20,283.39 L383.00,271.92 L390.80,261.57 L398.60,252.70 L406.40,245.61 L414.20,240.58 L422.00,237.80 L429.80,237.42 L437.60,239.52 L445.40,244.10 L453.20,251.07 L461.00,260.30 L468.80,271.57 L476.60,284.61 L484.40,299.08 L492.20,314.62 L500.00,330.81 L507.80,347.23 L515.60,363.45 L523.40,379.04 L531.20,393.59 L539.00,406.74 L546.80,418.15 L554.60,427.55 L562.40,434.72 L570.20,439.52 L578.00,441.87 L585.80,441.77 L593.60,439.29 L601.40,434.57 L609.20,427.83 L617.00,419.31 L624.80,409.33 L632.60,398.24 L640.40,386.40 L648.20,374.20 L656.00,362.03 L663.80,350.24 L671.60,339.20 L679.40,329.21 L687.20,320.55 L695.00,313.42 L702.80,307.99 L710.60,304.35 L718.40,302.54 L726.20,302.52 L734.00,304.23 L741.80,307.50 L749.60,312.15 L757.40,317.96 L765.20,324.67 L773.00,331.99 L780.80,339.64 L788.60,347.34 L796.40,354.82 L804.20,361.83 L812.00,368.16 L819.80,373.63 L827.60,378.11 L835.40,381.52 L843.20,383.83 L851.00,385.07 L858.80,385.32 L866.60,384.68 L874.40,383.32 L882.20,381.42 L890.00,379.22"/><path d="M110.00,311.22 L117.80,308.36 L125.60,305.74 L133.40,303.53 L141.20,301.93 L149.00,301.14 L156.80,301.29 L164.60,302.51 L172.40,304.84 L180.20,308.32 L188.00,312.89 L195.80,318.48 L203.60,324.94 L211.40,332.09 L219.20,339.70 L227.00,347.53 L234.80,355.29 L242.60,362.69 L250.40,369.45 L258.20,375.27 L266.00,379.91 L273.80,383.12 L281.60,384.73 L289.40,384.57 L297.20,382.58 L305.00,378.72 L312.80,373.03 L320.60,365.62 L328.40,356.63 L336.20,346.31 L344.00,334.91 L351.80,322.75 L359.60,310.19 L367.40,297.61 L375.20,285.39 L383.00,273.92 L390.80,263.57 L398.60,254.70 L406.40,247.61 L414.20,242.58 L422.00,239.80 L429.80,239.42 L437.60,241.52 L445.40,246.10 L453.20,253.07 L461.00,262.30 L468.80,273.57 L476.60,286.61 L484.40,301.08 L492.20,316.62 L500.00,332.81 L507.80,349.23 L515.60,365.45 L523.40,381.04 L531.20,395.59 L539.00,408.74 L546.80,420.15 L554.60,429.55 L562.40,436.72 L570.20,441.52 L578.00,443.87 L585.80,443.77 L593.60,441.29 L601.40,436.57 L609.20,429.83 L617.00,421.31 L624.80,411.33 L632.60,400.24 L640.40,388.40 L648.20,376.20 L656.00,364.03 L663.80,352.24 L671.60,341.20 L679.40,331.21 L687.20,322.55 L695.00,315.42 L702.80,309.99 L710.60,306.35 L718.40,304.54 L726.20,304.52 L734.00,306.23 L741.80,309.50 L749.60,314.15 L757.40,319.96 L765.20,326.67 L773.00,333.99 L780.80,341.64 L788.60,349.34 L796.40,356.82 L804.20,363.83 L812.00,370.16 L819.80,375.63 L827.60,380.11 L835.40,383.52 L843.20,385.83 L851.00,387.07 L858.80,387.32 L866.60,386.68 L874.40,385.32 L882.20,383.42 L890.00,381.22"/><path d="M110.00,313.22 L117.80,310.36 L125.60,307.74 L133.40,305.53 L141.20,303.93 L149.00,303.14 L156.80,303.29 L164.60,304.51 L172.40,306.84 L180.20,310.32 L188.00,314.89 L195.80,320.48 L203.60,326.94 L211.40,334.09 L219.20,341.70 L227.00,349.53 L234.80,357.29 L242.60,364.69 L250.40,371.45 L258.20,377.27 L266.00,381.91 L273.80,385.12 L281.60,386.73 L289.40,386.57 L297.20,384.58 L305.00,380.72 L312.80,375.03 L320.60,367.62 L328.40,358.63 L336.20,348.31 L344.00,336.91 L351.80,324.75 L359.60,312.19 L367.40,299.61 L375.20,287.39 L383.00,275.92 L390.80,265.57 L398.60,256.70 L406.40,249.61 L414.20,244.58 L422.00,241.80 L429.80,241.42 L437.60,243.52 L445.40,248.10 L453.20,255.07 L461.00,264.30 L468.80,275.57 L476.60,288.61 L484.40,303.08 L492.20,318.62 L500.00,334.81 L507.80,351.23 L515.60,367.45 L523.40,383.04 L531.20,397.59 L539.00,410.74 L546.80,422.15 L554.60,431.55 L562.40,438.72 L570.20,443.52 L578.00,445.87 L585.80,445.77 L593.60,443.29 L601.40,438.57 L609.20,431.83 L617.00,423.31 L624.80,413.33 L632.60,402.24 L640.40,390.40 L648.20,378.20 L656.00,366.03 L663.80,354.24 L671.60,343.20 L679.40,333.21 L687.20,324.55 L695.00,317.42 L702.80,311.99 L710.60,308.35 L718.40,306.54 L726.20,306.52 L734.00,308.23 L741.80,311.50 L749.60,316.15 L757.40,321.96 L765.20,328.67 L773.00,335.99 L780.80,343.64 L788.60,351.34 L796.40,358.82 L804.20,365.83 L812.00,372.16 L819.80,377.63 L827.60,382.11 L835.40,385.52 L843.20,387.83 L851.00,389.07 L858.80,389.32 L866.60,388.68 L874.40,387.32 L882.20,385.42 L890.00,383.22"/><path d="M110.00,315.22 L117.80,312.36 L125.60,309.74 L133.40,307.53 L141.20,305.93 L149.00,305.14 L156.80,305.29 L164.60,306.51 L172.40,308.84 L180.20,312.32 L188.00,316.89 L195.80,322.48 L203.60,328.94 L211.40,336.09 L219.20,343.70 L227.00,351.53 L234.80,359.29 L242.60,366.69 L250.40,373.45 L258.20,379.27 L266.00,383.91 L273.80,387.12 L281.60,388.73 L289.40,388.57 L297.20,386.58 L305.00,382.72 L312.80,377.03 L320.60,369.62 L328.40,360.63 L336.20,350.31 L344.00,338.91 L351.80,326.75 L359.60,314.19 L367.40,301.61 L375.20,289.39 L383.00,277.92 L390.80,267.57 L398.60,258.70 L406.40,251.61 L414.20,246.58 L422.00,243.80 L429.80,243.42 L437.60,245.52 L445.40,250.10 L453.20,257.07 L461.00,266.30 L468.80,277.57 L476.60,290.61 L484.40,305.08 L492.20,320.62 L500.00,336.81 L507.80,353.23 L515.60,369.45 L523.40,385.04 L531.20,399.59 L539.00,412.74 L546.80,424.15 L554.60,433.55 L562.40,440.72 L570.20,445.52 L578.00,447.87 L585.80,447.77 L593.60,445.29 L601.40,440.57 L609.20,433.83 L617.00,425.31 L624.80,415.33 L632.60,404.24 L640.40,392.40 L648.20,380.20 L656.00,368.03 L663.80,356.24 L671.60,345.20 L679.40,335.21 L687.20,326.55 L695.00,319.42 L702.80,313.99 L710.60,310.35 L718.40,308.54 L726.20,308.52 L734.00,310.23 L741.80,313.50 L749.60,318.15 L757.40,323.96 L765.20,330.67 L773.00,337.99 L780.80,345.64 L788.60,353.34 L796.40,360.82 L804.20,367.83 L812.00,374.16 L819.80,379.63 L827.60,384.11 L835.40,387.52 L843.20,389.83 L851.00,391.07 L858.80,391.32 L866.60,390.68 L874.40,389.32 L882.20,387.42 L890.00,385.22"/><path d="M110.00,317.22 L117.80,314.36 L125.60,311.74 L133.40,309.53 L141.20,307.93 L149.00,307.14 L156.80,307.29 L164.60,308.51 L172.40,310.84 L180.20,314.32 L188.00,318.89 L195.80,324.48 L203.60,330.94 L211.40,338.09 L219.20,345.70 L227.00,353.53 L234.80,361.29 L242.60,368.69 L250.40,375.45 L258.20,381.27 L266.00,385.91 L273.80,389.12 L281.60,390.73 L289.40,390.57 L297.20,388.58 L305.00,384.72 L312.80,379.03 L320.60,371.62 L328.40,362.63 L336.20,352.31 L344.00,340.91 L351.80,328.75 L359.60,316.19 L367.40,303.61 L375.20,291.39 L383.00,279.92 L390.80,269.57 L398.60,260.70 L406.40,253.61 L414.20,248.58 L422.00,245.80 L429.80,245.42 L437.60,247.52 L445.40,252.10 L453.20,259.07 L461.00,268.30 L468.80,279.57 L476.60,292.61 L484.40,307.08 L492.20,322.62 L500.00,338.81 L507.80,355.23 L515.60,371.45 L523.40,387.04 L531.20,401.59 L539.00,414.74 L546.80,426.15 L554.60,435.55 L562.40,442.72 L570.20,447.52 L578.00,449.87 L585.80,449.77 L593.60,447.29 L601.40,442.57 L609.20,435.83 L617.00,427.31 L624.80,417.33 L632.60,406.24 L640.40,394.40 L648.20,382.20 L656.00,370.03 L663.80,358.24 L671.60,347.20 L679.40,337.21 L687.20,328.55 L695.00,321.42 L702.80,315.99 L710.60,312.35 L718.40,310.54 L726.20,310.52 L734.00,312.23 L741.80,315.50 L749.60,320.15 L757.40,325.96 L765.20,332.67 L773.00,339.99 L780.80,347.64 L788.60,355.34 L796.40,362.82 L804.20,369.83 L812.00,376.16 L819.80,381.63 L827.60,386.11 L835.40,389.52 L843.20,391.83 L851.00,393.07 L858.80,393.32 L866.60,392.68 L874.40,391.32 L882.20,389.42 L890.00,387.22"/><path d="M110.00,319.22 L117.80,316.36 L125.60,313.74 L133.40,311.53 L141.20,309.93 L149.00,309.14 L156.80,309.29 L164.60,310.51 L172.40,312.84 L180.20,316.32 L188.00,320.89 L195.80,326.48 L203.60,332.94 L211.40,340.09 L219.20,347.70 L227.00,355.53 L234.80,363.29 L242.60,370.69 L250.40,377.45 L258.20,383.27 L266.00,387.91 L273.80,391.12 L281.60,392.73 L289.40,392.57 L297.20,390.58 L305.00,386.72 L312.80,381.03 L320.60,373.62 L328.40,364.63 L336.20,354.31 L344.00,342.91 L351.80,330.75 L359.60,318.19 L367.40,305.61 L375.20,293.39 L383.00,281.92 L390.80,271.57 L398.60,262.70 L406.40,255.61 L414.20,250.58 L422.00,247.80 L429.80,247.42 L437.60,249.52 L445.40,254.10 L453.20,261.07 L461.00,270.30 L468.80,281.57 L476.60,294.61 L484.40,309.08 L492.20,324.62 L500.00,340.81 L507.80,357.23 L515.60,373.45 L523.40,389.04 L531.20,403.59 L539.00,416.74 L546.80,428.15 L554.60,437.55 L562.40,444.72 L570.20,449.52 L578.00,451.87 L585.80,451.77 L593.60,449.29 L601.40,444.57 L609.20,437.83 L617.00,429.31 L624.80,419.33 L632.60,408.24 L640.40,396.40 L648.20,384.20 L656.00,372.03 L663.80,360.24 L671.60,349.20 L679.40,339.21 L687.20,330.55 L695.00,323.42 L702.80,317.99 L710.60,314.35 L718.40,312.54 L726.20,312.52 L734.00,314.23 L741.80,317.50 L749.60,322.15 L757.40,327.96 L765.20,334.67 L773.00,341.99 L780.80,349.64 L788.60,357.34 L796.40,364.82 L804.20,371.83 L812.00,378.16 L819.80,383.63 L827.60,388.11 L835.40,391.52 L843.20,393.83 L851.00,395.07 L858.80,395.32 L866.60,394.68 L874.40,393.32 L882.20,391.42 L890.00,389.22"/><path d="M110.00,321.22 L117.80,318.36 L125.60,315.74 L133.40,313.53 L141.20,311.93 L149.00,311.14 L156.80,311.29 L164.60,312.51 L172.40,314.84 L180.20,318.32 L188.00,322.89 L195.80,328.48 L203.60,334.94 L211.40,342.09 L219.20,349.70 L227.00,357.53 L234.80,365.29 L242.60,372.69 L250.40,379.45 L258.20,385.27 L266.00,389.91 L273.80,393.12 L281.60,394.73 L289.40,394.57 L297.20,392.58 L305.00,388.72 L312.80,383.03 L320.60,375.62 L328.40,366.63 L336.20,356.31 L344.00,344.91 L351.80,332.75 L359.60,320.19 L367.40,307.61 L375.20,295.39 L383.00,283.92 L390.80,273.57 L398.60,264.70 L406.40,257.61 L414.20,252.58 L422.00,249.80 L429.80,249.42 L437.60,251.52 L445.40,256.10 L453.20,263.07 L461.00,272.30 L468.80,283.57 L476.60,296.61 L484.40,311.08 L492.20,326.62 L500.00,342.81 L507.80,359.23 L515.60,375.45 L523.40,391.04 L531.20,405.59 L539.00,418.74 L546.80,430.15 L554.60,439.55 L562.40,446.72 L570.20,451.52 L578.00,453.87 L585.80,453.77 L593.60,451.29 L601.40,446.57 L609.20,439.83 L617.00,431.31 L624.80,421.33 L632.60,410.24 L640.40,398.40 L648.20,386.20 L656.00,374.03 L663.80,362.24 L671.60,351.20 L679.40,341.21 L687.20,332.55 L695.00,325.42 L702.80,319.99 L710.60,316.35 L718.40,314.54 L726.20,314.52 L734.00,316.23 L741.80,319.50 L749.60,324.15 L757.40,329.96 L765.20,336.67 L773.00,343.99 L780.80,351.64 L788.60,359.34 L796.40,366.82 L804.20,373.83 L812.00,380.16 L819.80,385.63 L827.60,390.11 L835.40,393.52 L843.20,395.83 L851.00,397.07 L858.80,397.32 L866.60,396.68 L874.40,395.32 L882.20,393.42 L890.00,391.22"/><path d="M110.00,323.22 L117.80,320.36 L125.60,317.74 L133.40,315.53 L141.20,313.93 L149.00,313.14 L156.80,313.29 L164.60,314.51 L172.40,316.84 L180.20,320.32 L188.00,324.89 L195.80,330.48 L203.60,336.94 L211.40,344.09 L219.20,351.70 L227.00,359.53 L234.80,367.29 L242.60,374.69 L250.40,381.45 L258.20,387.27 L266.00,391.91 L273.80,395.12 L281.60,396.73 L289.40,396.57 L297.20,394.58 L305.00,390.72 L312.80,385.03 L320.60,377.62 L328.40,368.63 L336.20,358.31 L344.00,346.91 L351.80,334.75 L359.60,322.19 L367.40,309.61 L375.20,297.39 L383.00,285.92 L390.80,275.57 L398.60,266.70 L406.40,259.61 L414.20,254.58 L422.00,251.80 L429.80,251.42 L437.60,253.52 L445.40,258.10 L453.20,265.07 L461.00,274.30 L468.80,285.57 L476.60,298.61 L484.40,313.08 L492.20,328.62 L500.00,344.81 L507.80,361.23 L515.60,377.45 L523.40,393.04 L531.20,407.59 L539.00,420.74 L546.80,432.15 L554.60,441.55 L562.40,448.72 L570.20,453.52 L578.00,455.87 L585.80,455.77 L593.60,453.29 L601.40,448.57 L609.20,441.83 L617.00,433.31 L624.80,423.33 L632.60,412.24 L640.40,400.40 L648.20,388.20 L656.00,376.03 L663.80,364.24 L671.60,353.20 L679.40,343.21 L687.20,334.55 L695.00,327.42 L702.80,321.99 L710.60,318.35 L718.40,316.54 L726.20,316.52 L734.00,318.23 L741.80,321.50 L749.60,326.15 L757.40,331.96 L765.20,338.67 L773.00,345.99 L780.80,353.64 L788.60,361.34 L796.40,368.82 L804.20,375.83 L812.00,382.16 L819.80,387.63 L827.60,392.11 L835.40,395.52 L843.20,397.83 L851.00,399.07 L858.80,399.32 L866.60,398.68 L874.40,397.32 L882.20,395.42 L890.00,393.22"/><path d="M110.00,325.22 L117.80,322.36 L125.60,319.74 L133.40,317.53 L141.20,315.93 L149.00,315.14 L156.80,315.29 L164.60,316.51 L172.40,318.84 L180.20,322.32 L188.00,326.89 L195.80,332.48 L203.60,338.94 L211.40,346.09 L219.20,353.70 L227.00,361.53 L234.80,369.29 L242.60,376.69 L250.40,383.45 L258.20,389.27 L266.00,393.91 L273.80,397.12 L281.60,398.73 L289.40,398.57 L297.20,396.58 L305.00,392.72 L312.80,387.03 L320.60,379.62 L328.40,370.63 L336.20,360.31 L344.00,348.91 L351.80,336.75 L359.60,324.19 L367.40,311.61 L375.20,299.39 L383.00,287.92 L390.80,277.57 L398.60,268.70 L406.40,261.61 L414.20,256.58 L422.00,253.80 L429.80,253.42 L437.60,255.52 L445.40,260.10 L453.20,267.07 L461.00,276.30 L468.80,287.57 L476.60,300.61 L484.40,315.08 L492.20,330.62 L500.00,346.81 L507.80,363.23 L515.60,379.45 L523.40,395.04 L531.20,409.59 L539.00,422.74 L546.80,434.15 L554.60,443.55 L562.40,450.72 L570.20,455.52 L578.00,457.87 L585.80,457.77 L593.60,455.29 L601.40,450.57 L609.20,443.83 L617.00,435.31 L624.80,425.33 L632.60,414.24 L640.40,402.40 L648.20,390.20 L656.00,378.03 L663.80,366.24 L671.60,355.20 L679.40,345.21 L687.20,336.55 L695.00,329.42 L702.80,323.99 L710.60,320.35 L718.40,318.54 L726.20,318.52 L734.00,320.23 L741.80,323.50 L749.60,328.15 L757.40,333.96 L765.20,340.67 L773.00,347.99 L780.80,355.64 L788.60,363.34 L796.40,370.82 L804.20,377.83 L812.00,384.16 L819.80,389.63 L827.60,394.11 L835.40,397.52 L843.20,399.83 L851.00,401.07 L858.80,401.32 L866.60,400.68 L874.40,399.32 L882.20,397.42 L890.00,395.22"/><path d="M110.00,327.22 L117.80,324.36 L125.60,321.74 L133.40,319.53 L141.20,317.93 L149.00,317.14 L156.80,317.29 L164.60,318.51 L172.40,320.84 L180.20,324.32 L188.00,328.89 L195.80,334.48 L203.60,340.94 L211.40,348.09 L219.20,355.70 L227.00,363.53 L234.80,371.29 L242.60,378.69 L250.40,385.45 L258.20,391.27 L266.00,395.91 L273.80,399.12 L281.60,400.73 L289.40,400.57 L297.20,398.58 L305.00,394.72 L312.80,389.03 L320.60,381.62 L328.40,372.63 L336.20,362.31 L344.00,350.91 L351.80,338.75 L359.60,326.19 L367.40,313.61 L375.20,301.39 L383.00,289.92 L390.80,279.57 L398.60,270.70 L406.40,263.61 L414.20,258.58 L422.00,255.80 L429.80,255.42 L437.60,257.52 L445.40,262.10 L453.20,269.07 L461.00,278.30 L468.80,289.57 L476.60,302.61 L484.40,317.08 L492.20,332.62 L500.00,348.81 L507.80,365.23 L515.60,381.45 L523.40,397.04 L531.20,411.59 L539.00,424.74 L546.80,436.15 L554.60,445.55 L562.40,452.72 L570.20,457.52 L578.00,459.87 L585.80,459.77 L593.60,457.29 L601.40,452.57 L609.20,445.83 L617.00,437.31 L624.80,427.33 L632.60,416.24 L640.40,404.40 L648.20,392.20 L656.00,380.03 L663.80,368.24 L671.60,357.20 L679.40,347.21 L687.20,338.55 L695.00,331.42 L702.80,325.99 L710.60,322.35 L718.40,320.54 L726.20,320.52 L734.00,322.23 L741.80,325.50 L749.60,330.15 L757.40,335.96 L765.20,342.67 L773.00,349.99 L780.80,357.64 L788.60,365.34 L796.40,372.82 L804.20,379.83 L812.00,386.16 L819.80,391.63 L827.60,396.11 L835.40,399.52 L843.20,401.83 L851.00,403.07 L858.80,403.32 L866.60,402.68 L874.40,401.32 L882.20,399.42 L890.00,397.22"/><path d="M110.00,329.22 L117.80,326.36 L125.60,323.74 L133.40,321.53 L141.20,319.93 L149.00,319.14 L156.80,319.29 L164.60,320.51 L172.40,322.84 L180.20,326.32 L188.00,330.89 L195.80,336.48 L203.60,342.94 L211.40,350.09 L219.20,357.70 L227.00,365.53 L234.80,373.29 L242.60,380.69 L250.40,387.45 L258.20,393.27 L266.00,397.91 L273.80,401.12 L281.60,402.73 L289.40,402.57 L297.20,400.58 L305.00,396.72 L312.80,391.03 L320.60,383.62 L328.40,374.63 L336.20,364.31 L344.00,352.91 L351.80,340.75 L359.60,328.19 L367.40,315.61 L375.20,303.39 L383.00,291.92 L390.80,281.57 L398.60,272.70 L406.40,265.61 L414.20,260.58 L422.00,257.80 L429.80,257.42 L437.60,259.52 L445.40,264.10 L453.20,271.07 L461.00,280.30 L468.80,291.57 L476.60,304.61 L484.40,319.08 L492.20,334.62 L500.00,350.81 L507.80,367.23 L515.60,383.45 L523.40,399.04 L531.20,413.59 L539.00,426.74 L546.80,438.15 L554.60,447.55 L562.40,454.72 L570.20,459.52 L578.00,461.87 L585.80,461.77 L593.60,459.29 L601.40,454.57 L609.20,447.83 L617.00,439.31 L624.80,429.33 L632.60,418.24 L640.40,406.40 L648.20,394.20 L656.00,382.03 L663.80,370.24 L671.60,359.20 L679.40,349.21 L687.20,340.55 L695.00,333.42 L702.80,327.99 L710.60,324.35 L718.40,322.54 L726.20,322.52 L734.00,324.23 L741.80,327.50 L749.60,332.15 L757.40,337.96 L765.20,344.67 L773.00,351.99 L780.80,359.64 L788.60,367.34 L796.40,374.82 L804.20,381.83 L812.00,388.16 L819.80,393.63 L827.60,398.11 L835.40,401.52 L843.20,403.83 L851.00,405.07 L858.80,405.32 L866.60,404.68 L874.40,403.32 L882.20,401.42 L890.00,399.22"/><path d="M110.00,331.22 L117.80,328.36 L125.60,325.74 L133.40,323.53 L141.20,321.93 L149.00,321.14 L156.80,321.29 L164.60,322.51 L172.40,324.84 L180.20,328.32 L188.00,332.89 L195.80,338.48 L203.60,344.94 L211.40,352.09 L219.20,359.70 L227.00,367.53 L234.80,375.29 L242.60,382.69 L250.40,389.45 L258.20,395.27 L266.00,399.91 L273.80,403.12 L281.60,404.73 L289.40,404.57 L297.20,402.58 L305.00,398.72 L312.80,393.03 L320.60,385.62 L328.40,376.63 L336.20,366.31 L344.00,354.91 L351.80,342.75 L359.60,330.19 L367.40,317.61 L375.20,305.39 L383.00,293.92 L390.80,283.57 L398.60,274.70 L406.40,267.61 L414.20,262.58 L422.00,259.80 L429.80,259.42 L437.60,261.52 L445.40,266.10 L453.20,273.07 L461.00,282.30 L468.80,293.57 L476.60,306.61 L484.40,321.08 L492.20,336.62 L500.00,352.81 L507.80,369.23 L515.60,385.45 L523.40,401.04 L531.20,415.59 L539.00,428.74 L546.80,440.15 L554.60,449.55 L562.40,456.72 L570.20,461.52 L578.00,463.87 L585.80,463.77 L593.60,461.29 L601.40,456.57 L609.20,449.83 L617.00,441.31 L624.80,431.33 L632.60,420.24 L640.40,408.40 L648.20,396.20 L656.00,384.03 L663.80,372.24 L671.60,361.20 L679.40,351.21 L687.20,342.55 L695.00,335.42 L702.80,329.99 L710.60,326.35 L718.40,324.54 L726.20,324.52 L734.00,326.23 L741.80,329.50 L749.60,334.15 L757.40,339.96 L765.20,346.67 L773.00,353.99 L780.80,361.64 L788.60,369.34 L796.40,376.82 L804.20,383.83 L812.00,390.16 L819.80,395.63 L827.60,400.11 L835.40,403.52 L843.20,405.83 L851.00,407.07 L858.80,407.32 L866.60,406.68 L874.40,405.32 L882.20,403.42 L890.00,401.22"/><path d="M110.00,333.22 L117.80,330.36 L125.60,327.74 L133.40,325.53 L141.20,323.93 L149.00,323.14 L156.80,323.29 L164.60,324.51 L172.40,326.84 L180.20,330.32 L188.00,334.89 L195.80,340.48 L203.60,346.94 L211.40,354.09 L219.20,361.70 L227.00,369.53 L234.80,377.29 L242.60,384.69 L250.40,391.45 L258.20,397.27 L266.00,401.91 L273.80,405.12 L281.60,406.73 L289.40,406.57 L297.20,404.58 L305.00,400.72 L312.80,395.03 L320.60,387.62 L328.40,378.63 L336.20,368.31 L344.00,356.91 L351.80,344.75 L359.60,332.19 L367.40,319.61 L375.20,307.39 L383.00,295.92 L390.80,285.57 L398.60,276.70 L406.40,269.61 L414.20,264.58 L422.00,261.80 L429.80,261.42 L437.60,263.52 L445.40,268.10 L453.20,275.07 L461.00,284.30 L468.80,295.57 L476.60,308.61 L484.40,323.08 L492.20,338.62 L500.00,354.81 L507.80,371.23 L515.60,387.45 L523.40,403.04 L531.20,417.59 L539.00,430.74 L546.80,442.15 L554.60,451.55 L562.40,458.72 L570.20,463.52 L578.00,465.87 L585.80,465.77 L593.60,463.29 L601.40,458.57 L609.20,451.83 L617.00,443.31 L624.80,433.33 L632.60,422.24 L640.40,410.40 L648.20,398.20 L656.00,386.03 L663.80,374.24 L671.60,363.20 L679.40,353.21 L687.20,344.55 L695.00,337.42 L702.80,331.99 L710.60,328.35 L718.40,326.54 L726.20,326.52 L734.00,328.23 L741.80,331.50 L749.60,336.15 L757.40,341.96 L765.20,348.67 L773.00,355.99 L780.80,363.64 L788.60,371.34 L796.40,378.82 L804.20,385.83 L812.00,392.16 L819.80,397.63 L827.60,402.11 L835.40,405.52 L843.20,407.83 L851.00,409.07 L858.80,409.32 L866.60,408.68 L874.40,407.32 L882.20,405.42 L890.00,403.22"/><path d="M110.00,335.22 L117.80,332.36 L125.60,329.74 L133.40,327.53 L141.20,325.93 L149.00,325.14 L156.80,325.29 L164.60,326.51 L172.40,328.84 L180.20,332.32 L188.00,336.89 L195.80,342.48 L203.60,348.94 L211.40,356.09 L219.20,363.70 L227.00,371.53 L234.80,379.29 L242.60,386.69 L250.40,393.45 L258.20,399.27 L266.00,403.91 L273.80,407.12 L281.60,408.73 L289.40,408.57 L297.20,406.58 L305.00,402.72 L312.80,397.03 L320.60,389.62 L328.40,380.63 L336.20,370.31 L344.00,358.91 L351.80,346.75 L359.60,334.19 L367.40,321.61 L375.20,309.39 L383.00,297.92 L390.80,287.57 L398.60,278.70 L406.40,271.61 L414.20,266.58 L422.00,263.80 L429.80,263.42 L437.60,265.52 L445.40,270.10 L453.20,277.07 L461.00,286.30 L468.80,297.57 L476.60,310.61 L484.40,325.08 L492.20,340.62 L500.00,356.81 L507.80,373.23 L515.60,389.45 L523.40,405.04 L531.20,419.59 L539.00,432.74 L546.80,444.15 L554.60,453.55 L562.40,460.72 L570.20,465.52 L578.00,467.87 L585.80,467.77 L593.60,465.29 L601.40,460.57 L609.20,453.83 L617.00,445.31 L624.80,435.33 L632.60,424.24 L640.40,412.40 L648.20,400.20 L656.00,388.03 L663.80,376.24 L671.60,365.20 L679.40,355.21 L687.20,346.55 L695.00,339.42 L702.80,333.99 L710.60,330.35 L718.40,328.54 L726.20,328.52 L734.00,330.23 L741.80,333.50 L749.60,338.15 L757.40,343.96 L765.20,350.67 L773.00,357.99 L780.80,365.64 L788.60,373.34 L796.40,380.82 L804.20,387.83 L812.00,394.16 L819.80,399.63 L827.60,404.11 L835.40,407.52 L843.20,409.83 L851.00,411.07 L858.80,411.32 L866.60,410.68 L874.40,409.32 L882.20,407.42 L890.00,405.22"/></g></svg>