<svg xmlns="http://www.w3.org/2000/svg" width="250mm" height="225mm" viewBox="0 0 1000 900"><g id="pen-1" fill="none" stroke="#ed96cf" stroke-width=".8" opacity="1"><path d="M110.00,343.16 L117.80,343.55 L125.60,344.80 L133.40,346.87 L141.20,349.63 L149.00,352.92 L156.80,356.54 L164.60,360.26 L172.40,363.84 L180.20,367.03 L188.00,369.59 L195.80,371.31 L203.60,371.96 L211.40,371.40 L219.20,369.50 L227.00,366.18 L234.80,361.43 L242.60,355.28 L250.40,347.82 L258.20,339.21 L266.00,329.64 L273.80,319.35 L281.60,308.64 L289.40,297.80 L297.20,287.18 L305.00,277.11 L312.80,267.92 L320.60,259.93 L328.40,253.44 L336.20,248.69 L344.00,245.89 L351.80,245.18 L359.60,246.66 L367.40,250.33 L375.20,256.16 L383.00,264.02 L390.80,273.73 L398.60,285.03 L406.40,297.64 L414.20,311.19 L422.00,325.32 L429.80,339.60 L437.60,353.62 L445.40,366.97 L453.20,379.23 L461.00,390.05 L468.80,399.08 L476.60,406.03 L484.40,410.68 L492.20,412.88 L500.00,412.53 L507.80,409.62 L515.60,404.21 L523.40,396.45 L531.20,386.52 L539.00,374.71 L546.80,361.33 L554.60,346.74 L562.40,331.34 L570.20,315.54 L578.00,299.77 L585.80,284.45 L593.60,269.95 L601.40,256.66 L609.20,244.88 L617.00,234.90 L624.80,226.91 L632.60,221.06 L640.40,217.43 L648.20,216.02 L656.00,216.77 L663.80,219.55 L671.60,224.18 L679.40,230.41 L687.20,237.97 L695.00,246.55 L702.80,255.81 L710.60,265.42 L718.40,275.03 L726.20,284.31 L734.00,292.98 L741.80,300.77 L749.60,307.45 L757.40,312.86 L765.20,316.89 L773.00,319.46 L780.80,320.58 L788.60,320.30 L796.40,318.72 L804.20,316.00 L812.00,312.33 L819.80,307.91 L827.60,303.00 L835.40,297.83 L843.20,292.67 L851.00,287.75 L858.80,283.28 L866.60,279.46 L874.40,276.43 L882.20,274.31 L890.00,273.16"/><path d="M110.00,345.16 L117.80,345.55 L125.60,346.80 L133.40,348.87 L141.20,351.63 L149.00,354.92 L156.80,358.54 L164.60,362.26 L172.40,365.84 L180.20,369.03 L188.00,371.59 L195.80,373.31 L203.60,373.96 L211.40,373.40 L219.20,371.50 L227.00,368.18 L234.80,363.43 L242.60,357.28 L250.40,349.82 L258.20,341.21 L266.00,331.64 L273.80,321.35 L281.60,310.64 L289.40,299.80 L297.20,289.18 L305.00,279.11 L312.80,269.92 L320.60,261.93 L328.40,255.44 L336.20,250.69 L344.00,247.89 L351.80,247.18 L359.60,248.66 L367.40,252.33 L375.20,258.16 L383.00,266.02 L390.80,275.73 L398.60,287.03 L406.40,299.64 L414.20,313.19 L422.00,327.32 L429.80,341.60 L437.60,355.62 L445.40,368.97 L453.20,381.23 L461.00,392.05 L468.80,401.08 L476.60,408.03 L484.40,412.68 L492.20,414.88 L500.00,414.53 L507.80,411.62 L515.60,406.21 L523.40,398.45 L531.20,388.52 L539.00,376.71 L546.80,363.33 L554.60,348.74 L562.40,333.34 L570.20,317.54 L578.00,301.77 L585.80,286.45 L593.60,271.95 L601.40,258.66 L609.20,246.88 L617.00,236.90 L624.80,228.91 L632.60,223.06 L640.40,219.43 L648.20,218.02 L656.00,218.77 L663.80,221.55 L671.60,226.18 L679.40,232.41 L687.20,239.97 L695.00,248.55 L702.80,257.81 L710.60,267.42 L718.40,277.03 L726.20,286.31 L734.00,294.98 L741.80,302.77 L749.60,309.45 L757.40,314.86 L765.20,318.89 L773.00,321.46 L780.80,322.58 L788.60,322.30 L796.40,320.72 L804.20,318.00 L812.00,314.33 L819.80,309.91 L827.60,305.00 L835.40,299.83 L843.20,294.67 L851.00,289.75 L858.80,285.28 L866.60,281.46 L874.40,278.43 L882.20,276.31 L890.00,275.16"/><path d="M110.00,347.16 L117.80,347.55 L125.60,348.80 L133.40,350.87 L141.20,353.63 L149.00,356.92 L156.80,360.54 L164.60,364.26 L172.40,367.84 L180.20,371.03 L188.00,373.59 L195.80,375.31 L203.60,375.96 L211.40,375.40 L219.20,373.50 L227.00,370.18 L234.80,365.43 L242.60,359.28 L250.40,351.82 L258.20,343.21 L266.00,333.64 L273.80,323.35 L281.60,312.64 L289.40,301.80 L297.20,291.18 L305.00,281.11 L312.80,271.92 L320.60,263.93 L328.40,257.44 L336.20,252.69 L344.00,249.89 L351.80,249.18 L359.60,250.66 L367.40,254.33 L375.20,260.16 L383.00,268.02 L390.80,277.73 L398.60,289.03 L406.40,301.64 L414.20,315.19 L422.00,329.32 L429.80,343.60 L437.60,357.62 L445.40,370.97 L453.20,383.23 L461.00,394.05 L468.80,403.08 L476.60,410.03 L484.40,414.68 L492.20,416.88 L500.00,416.53 L507.80,413.62 L515.60,408.21 L523.40,400.45 L531.20,390.52 L539.00,378.71 L546.80,365.33 L554.60,350.74 L562.40,335.34 L570.20,319.54 L578.00,303.77 L585.80,288.45 L593.60,273.95 L601.40,260.66 L609.20,248.88 L617.00,238.90 L624.80,230.91 L632.60,225.06 L640.40,221.43 L648.20,220.02 L656.00,220.77 L663.80,223.55 L671.60,228.18 L679.40,234.41 L687.20,241.97 L695.00,250.55 L702.80,259.81 L710.60,269.42 L718.40,279.03 L726.20,288.31 L734.00,296.98 L741.80,304.77 L749.60,311.45 L757.40,316.86 L765.20,320.89 L773.00,323.46 L780.80,324.58 L788.60,324.30 L796.40,322.72 L804.20,320.00 L812.00,316.33 L819.80,311.91 L827.60,307.00 L835.40,301.83 L843.20,296.67 L851.00,291.75 L858.80,287.28 L866.60,283.46 L874.40,280.43 L882.20,278.31 L890.00,277.16"/><path d="M110.00,349.16 L117.80,349.55 L125.60,350.80 L133.40,352.87 L141.20,355.63 L149.00,358.92 L156.80,362.54 L164.60,366.26 L172.40,369.84 L180.20,373.03 L188.00,375.59 L195.80,377.31 L203.60,377.96 L211.40,377.40 L219.20,375.50 L227.00,372.18 L234.80,367.43 L242.60,361.28 L250.40,353.82 L258.20,345.21 L266.00,335.64 L273.80,325.35 L281.60,314.64 L289.40,303.80 L297.20,293.18 L305.00,283.11 L312.80,273.92 L320.60,265.93 L328.40,259.44 L336.20,254.69 L344.00,251.89 L351.80,251.18 L359.60,252.66 L367.40,256.33 L375.20,262.16 L383.00,270.02 L390.80,279.73 L398.60,291.03 L406.40,303.64 L414.20,317.19 L422.00,331.32 L429.80,345.60 L437.60,359.62 L445.40,372.97 L453.20,385.23 L461.00,396.05 L468.80,405.08 L476.60,412.03 L484.40,416.68 L492.20,418.88 L500.00,418.53 L507.80,415.62 L515.60,410.21 L523.40,402.45 L531.20,392.52 L539.00,380.71 L546.80,367.33 L554.60,352.74 L562.40,337.34 L570.20,321.54 L578.00,305.77 L585.80,290.45 L593.60,275.95 L601.40,262.66 L609.20,250.88 L617.00,240.90 L624.80,232.91 L632.60,227.06 L640.40,223.43 L648.20,222.02 L656.00,222.77 L663.80,225.55 L671.60,230.18 L679.40,236.41 L687.20,243.97 L695.00,252.55 L702.80,261.81 L710.60,271.42 L718.40,281.03 L726.20,290.31 L734.00,298.98 L741.80,306.77 L749.60,313.45 L757.40,318.86 L765.20,322.89 L773.00,325.46 L780.80,326.58 L788.60,326.30 L796.40,324.72 L804.20,322.00 L812.00,318.33 L819.80,313.91 L827.60,309.00 L835.40,303.83 L843.20,298.67 L851.00,293.75 L858.80,289.28 L866.60,285.46 L874.40,282.43 L882.20,280.31 L890.00,279.16"/><path d="M110.00,351.16 L117.80,351.55 L125.60,352.80 L133.40,354.87 L141.20,357.63 L149.00,360.92 L156.80,364.54 L164.60,368.26 L172.40,371.84 L180.20,375.03 L188.00,377.59 L195.80,379.31 L203.60,379.96 L211.40,379.40 L219.20,377.50 L227.00,374.18 L234.80,369.43 L242.60,363.28 L250.40,355.82 L258.20,347.21 L266.00,337.64 L273.80,327.35 L281.60,316.64 L289.40,305.80 L297.20,295.18 L305.00,285.11 L312.80,275.92 L320.60,267.93 L328.40,261.44 L336.20,256.69 L344.00,253.89 L351.80,253.18 L359.60,254.66 L367.40,258.33 L375.20,264.16 L383.00,272.02 L390.80,281.73 L398.60,293.03 L406.40,305.64 L414.20,319.19 L422.00,333.32 L429.80,347.60 L437.60,361.62 L445.40,374.97 L453.20,387.23 L461.00,398.05 L468.80,407.08 L476.60,414.03 L484.40,418.68 L492.20,420.88 L500.00,420.53 L507.80,417.62 L515.60,412.21 L523.40,404.45 L531.20,394.52 L539.00,382.71 L546.80,369.33 L554.60,354.74 L562.40,339.34 L570.20,323.54 L578.00,307.77 L585.80,292.45 L593.60,277.95 L601.40,264.66 L609.20,252.88 L617.00,242.90 L624.80,234.91 L632.60,229.06 L640.40,225.43 L648.20,224.02 L656.00,224.77 L663.80,227.55 L671.60,232.18 L679.40,238.41 L687.20,245.97 L695.00,254.55 L702.80,263.81 L710.60,273.42 L718.40,283.03 L726.20,292.31 L734.00,300.98 L741.80,308.77 L749.60,315.45 L757.40,320.86 L765.20,324.89 L773.00,327.46 L780.80,328.58 L788.60,328.30 L796.40,326.72 L804.20,324.00 L812.00,320.33 L819.80,315.91 L827.60,311.00 L835.40,305.83 L843.20,300.67 L851.00,295.75 L858.80,291.28 L866.60,287.46 L874.40,284.43 L882.20,282.31 L890.00,281.16"/><path d="M110.00,353.16 L117.80,353.55 L125.60,354.80 L133.40,356.87 L141.20,359.63 L149.00,362.92 L156.80,366.54 L164.60,370.26 L172.40,373.84 L180.20,377.03 L188.00,379.59 L195.80,381.31 L203.60,381.96 L211.40,381.40 L219.20,379.50 L227.00,376.18 L234.80,371.43 L242.60,365.28 L250.40,357.82 L258.20,349.21 L266.00,339.64 L273.80,329.35 L281.60,318.64 L289.40,307.80 L297.20,297.18 L305.00,287.11 L312.80,277.92 L320.60,269.93 L328.40,263.44 L336.20,258.69 L344.00,255.89 L351.80,255.18 L359.60,256.66 L367.40,260.33 L375.20,266.16 L383.00,274.02 L390.80,283.73 L398.60,295.03 L406.40,307.64 L414.20,321.19 L422.00,335.32 L429.80,349.60 L437.60,363.62 L445.40,376.97 L453.20,389.23 L461.00,400.05 L468.80,409.08 L476.60,416.03 L484.40,420.68 L492.20,422.88 L500.00,422.53 L507.80,419.62 L515.60,414.21 L523.40,406.45 L531.20,396.52 L539.00,384.71 L546.80,371.33 L554.60,356.74 L562.40,341.34 L570.20,325.54 L578.00,309.77 L585.80,294.45 L593.60,279.95 L601.40,266.66 L609.20,254.88 L617.00,244.90 L624.80,236.91 L632.60,231.06 L640.40,227.43 L648.20,226.02 L656.00,226.77 L663.80,229.55 L671.60,234.18 L679.40,240.41 L687.20,247.97 L695.00,256.55 L702.80,265.81 L710.60,275.42 L718.40,285.03 L726.20,294.31 L734.00,302.98 L741.80,310.77 L749.60,317.45 L757.40,322.86 L765.20,326.89 L773.00,329.46 L780.80,330.58 L788.60,330.30 L796.40,328.72 L804.20,326.00 L812.00,322.33 L819.80,317.91 L827.60,313.00 L835.40,307.83 L843.20,302.67 L851.00,297.75 L858.80,293.28 L866.60,289.46 L874.40,286.43 L882.20,284.31 L890.00,283.16"/><path d="M110.00,355.16 L117.80,355.55 L125.60,356.80 L133.40,358.87 L141.20,361.63 L149.00,364.92 L156.80,368.54 L164.60,372.26 L172.40,375.84 L180.20,379.03 L188.00,381.59 L195.80,383.31 L203.60,383.96 L211.40,383.40 L219.20,381.50 L227.00,378.18 L234.80,373.43 L242.60,367.28 L250.40,359.82 L258.20,351.21 L266.00,341.64 L273.80,331.35 L281.60,320.64 L289.40,309.80 L297.20,299.18 L305.00,289.11 L312.80,279.92 L320.60,271.93 L328.40,265.44 L336.20,260.69 L344.00,257.89 L351.80,257.18 L359.60,258.66 L367.40,262.33 L375.20,268.16 L383.00,276.02 L390.80,285.73 L398.60,297.03 L406.40,309.64 L414.20,323.19 L422.00,337.32 L429.80,351.60 L437.60,365.62 L445.40,378.97 L453.20,391.23 L461.00,402.05 L468.80,411.08 L476.60,418.03 L484.40,422.68 L492.20,424.88 L500.00,424.53 L507.80,421.62 L515.60,416.21 L523.40,408.45 L531.20,398.52 L539.00,386.71 L546.80,373.33 L554.60,358.74 L562.40,343.34 L570.20,327.54 L578.00,311.77 L585.80,296.45 L593.60,281.95 L601.40,268.66 L609.20,256.88 L617.00,246.90 L624.80,238.91 L632.60,233.06 L640.40,229.43 L648.20,228.02 L656.00,228.77 L663.80,231.55 L671.60,236.18 L679.40,242.41 L687.20,249.97 L695.00,258.55 L702.80,267.81 L710.60,277.42 L718.40,287.03 L726.20,296.31 L734.00,304.98 L741.80,312.77 L749.60,319.45 L757.40,324.86 L765.20,328.89 L773.00,331.46 L780.80,332.58 L788.60,332.30 L796.40,330.72 L804.20,328.00 L812.00,324.33 L819.80,319.91 L827.60,315.00 L835.40,309.83 L843.20,304.67 L851.00,299.75 L858.80,295.28 L866.60,291.46 L874.40,288.43 L882.20,286.31 L890.00,285.16"/><path d="M110.00,357.16 L117.80,357.55 L125.60,358.80 L133.40,360.87 L141.20,363.63 L149.00,366.92 L156.80,370.54 L164.60,374.26 L172.40,377.84 L180.20,381.03 L188.00,383.59 L195.80,385.31 L203.60,385.96 L211.40,385.40 L219.20,383.50 L227.00,380.18 L234.80,375.43 L242.60,369.28 L250.40,361.82 L258.20,353.21 L266.00,343.64 L273.80,333.35 L281.60,322.64 L289.40,311.80 L297.20,301.18 L305.00,291.11 L312.80,281.92 L320.60,273.93 L328.40,267.44 L336.20,262.69 L344.00,259.89 L351.80,259.18 L359.60,260.66 L367.40,264.33 L375.20,270.16 L383.00,278.02 L390.80,287.73 L398.60,299.03 L406.40,311.64 L414.20,325.19 L422.00,339.32 L429.80,353.60 L437.60,367.62 L445.40,380.97 L453.20,393.23 L461.00,404.05 L468.80,413.08 L476.60,420.03 L484.40,424.68 L492.20,426.88 L500.00,426.53 L507.80,423.62 L515.60,418.21 L523.40,410.45 L531.20,400.52 L539.00,388.71 L546.80,375.33 L554.60,360.74 L562.40,345.34 L570.20,329.54 L578.00,313.77 L585.80,298.45 L593.60,283.95 L601.40,270.66 L609.20,258.88 L617.00,248.90 L624.80,240.91 L632.60,235.06 L640.40,231.43 L648.20,230.02 L656.00,230.77 L663.80,233.55 L671.60,238.18 L679.40,244.41 L687.20,251.97 L695.00,260.55 L702.80,269.81 L710.60,279.42 L718.40,289.03 L726.20,298.31 L734.00,306.98 L741.80,314.77 L749.60,321.45 L757.40,326.86 L765.20,330.89 L773.00,333.46 L780.80,334.58 L788.60,334.30 L796.40,332.72 L804.20,330.00 L812.00,326.33 L819.80,321.91 L827.60,317.00 L835.40,311.83 L843.20,306.67 L851.00,301.75 L858.80,297.28 L866.60,293.46 L874.40,290.43 L882.20,288.31 L890.00,287.16"/><path d="M110.00,359.16 L117.80,359.55 L125.60,360.80 L133.40,362.87 L141.20,365.63 L149.00,368.92 L156.80,372.54 L164.60,376.26 L172.40,379.84 L180.20,383.03 L188.00,385.59 L195.80,387.31 L203.60,387.96 L211.40,387.40 L219.20,385.50 L227.00,382.18 L234.80,377.43 L242.60,371.28 L250.40,363.82 L258.20,355.21 L266.00,345.64 L273.80,335.35 L281.60,324.64 L289.40,313.80 L297.20,303.18 L305.00,293.11 L312.80,283.92 L320.60,275.93 L328.40,269.44 L336.20,264.69 L344.00,261.89 L351.80,261.18 L359.60,262.66 L367.40,266.33 L375.20,272.16 L383.00,280.02 L390.80,289.73 L398.60,301.03 L406.40,313.64 L414.20,327.19 L422.00,341.32 L429.80,355.60 L437.60,369.62 L445.40,382.97 L453.20,395.23 L461.00,406.05 L468.80,415.08 L476.60,422.03 L484.40,426.68 L492.20,428.88 L500.00,428.53 L507.80,425.62 L515.60,420.21 L523.40,412.45 L531.20,402.52 L539.00,390.71 L546.80,377.33 L554.60,362.74 L562.40,347.34 L570.20,331.54 L578.00,315.77 L585.80,300.45 L593.60,285.95 L601.40,272.66 L609.20,260.88 L617.00,250.90 L624.80,242.91 L632.60,237.06 L640.40,233.43 L648.20,232.02 L656.00,232.77 L663.80,235.55 L671.60,240.18 L679.40,246.41 L687.20,253.97 L695.00,262.55 L702.80,271.81 L710.60,281.42 L718.40,291.03 L726.20,300.31 L734.00,308.98 L741.80,316.77 L749.60,323.45 L757.40,328.86 L765.20,332.89 L773.00,335.46 L780.80,336.58 L788.60,336.30 L796.40,334.72 L804.20,332.00 L812.00,328.33 L819.80,323.91 L827.60,319.00 L835.40,313.83 L843.20,308.67 L851.00,303.75 L858.80,299.28 L866.60,295.46 L874.40,292.43 L882.20,290.31 L890.00,289.16"/><path d="M110.00,361.16 L117.80,361.55 L125.60,362.80 L133.40,364.87 L141.20,367.63 L149.00,370.92 L156.80,374.54 L164.60,378.26 L172.40,381.84 L180.20,385.03 L188.00,387.59 L195.80,389.31 L203.60,389.96 L211.40,389.40 L219.20,387.50 L227.00,384.18 L234.80,379.43 L242.60,373.28 L250.40,365.82 L258.20,357.21 L266.00,347.64 L273.80,337.35 L281.60,326.64 L289.40,315.80 L297.20,305.18 L305.00,295.11 L312.80,285.92 L320.60,277.93 L328.40,271.44 L336.20,266.69 L344.00,263.89 L351.80,263.18 L359.60,264.66 L367.40,268.33 L375.20,274.16 L383.00,282.02 L390.80,291.73 L398.60,303.03 L406.40,315.64 L414.20,329.19 L422.00,343.32 L429.80,357.60 L437.60,371.62 L445.40,384.97 L453.20,397.23 L461.00,408.05 L468.80,417.08 L476.60,424.03 L484.40,428.68 L492.20,430.88 L500.00,430.53 L507.80,427.62 L515.60,422.21 L523.40,414.45 L531.20,404.52 L539.00,392.71 L546.80,379.33 L554.60,364.74 L562.40,349.34 L570.20,333.54 L578.00,317.77 L585.80,302.45 L593.60,287.95 L601.40,274.66 L609.20,262.88 L617.00,252.90 L624.80,244.91 L632.60,239.06 L640.40,235.43 L648.20,234.02 L656.00,234.77 L663.80,237.55 L671.60,242.18 L679.40,248.41 L687.20,255.97 L695.00,264.55 L702.80,273.81 L710.60,283.42 L718.40,293.03 L726.20,302.31 L734.00,310.98 L741.80,318.77 L749.60,325.45 L757.40,330.86 L765.20,334.89 L773.00,337.46 L780.80,338.58 L788.60,338.30 L796.40,336.72 L804.20,334.00 L812.00,330.33 L819.80,325.91 L827.60,321.00 L835.40,315.83 L843.20,310.67 L851.00,305.75 L858.80,301.28 L866.60,297.46 L874.40,294.43 L882.20,292.31 L890.00,291.16"/><path d="M110.00,363.16 L117.80,363.55 L125.60,364.80 L133.40,366.87 L141.20,369.63 L149.00,372.92 L156.80,376.54 L164.60,380.26 L172.40,383.84 L180.20,387.03 L188.00,389.59 L195.80,391.31 L203.60,391.96 L211.40,391.40 L219.20,389.50 L227.00,386.18 L234.80,381.43 L242.60,375.28 L250.40,367.82 L258.20,359.21 L266.00,349.64 L273.80,339.35 L281.60,328.64 L289.40,317.80 L297.20,307.18 L305.00,297.11 L312.80,287.92 L320.60,279.93 L328.40,273.44 L336.20,268.69 L344.00,265.89 L351.80,265.18 L359.60,266.66 L367.40,270.33 L375.20,276.16 L383.00,284.02 L390.80,293.73 L398.60,305.03 L406.40,317.64 L414.20,331.19 L422.00,345.32 L429.80,359.60 L437.60,373.62 L445.40,386.97 L453.20,399.23 L461.00,410.05 L468.80,419.08 L476.60,426.03 L484.40,430.68 L492.20,432.88 L500.00,432.53 L507.80,429.62 L515.60,424.21 L523.40,416.45 L531.20,406.52 L539.00,394.71 L546.80,381.33 L554.60,366.74 L562.40,351.34 L570.20,335.54 L578.00,319.77 L585.80,304.45 L593.60,289.95 L601.40,276.66 L609.20,264.88 L617.00,254.90 L624.80,246.91 L632.60,241.06 L640.40,237.43 L648.20,236.02 L656.00,236.77 L663.80,239.55 L671.60,244.18 L679.40,250.41 L687.20,257.97 L695.00,266.55 L702.80,275.81 L710.60,285.42 L718.40,295.03 L726.20,304.31 L734.00,312.98 L741.80,320.77 L749.60,327.45 L757.40,332.86 L765.20,336.89 L773.00,339.46 L780.80,340.58 L788.60,340.30 L796.40,338.72 L804.20,336.00 L812.00,332.33 L819.80,327.91 L827.60,323.00 L835.40,317.83 L843.20,312.67 L851.00,307.75 L858.80,303.28 L866.60,299.46 L874.40,296.43 L882.20,294.31 L890.00,293.16"/><path d="M110.00,365.16 L117.80,365.55 L125.60,366.80 L133.40,368.87 L141.20,371.63 L149.00,374.92 L156.80,378.54 L164.60,382.26 L172.40,385.84 L180.20,389.03 L188.00,391.59 L195.80,393.31 L203.60,393.96 L211.40,393.40 L219.20,391.50 L227.00,388.18 L234.80,383.43 L242.60,377.28 L250.40,369.82 L258.20,361.21 L266.00,351.64 L273.80,341.35 L281.60,330.64 L289.40,319.80 L297.20,309.18 L305.00,299.11 L312.80,289.92 L320.60,281.93 L328.40,275.44 L336.20,270.69 L344.00,267.89 L351.80,267.18 L359.60,268.66 L367.40,272.33 L375.20,278.16 L383.00,286.02 L390.80,295.73 L398.60,307.03 L406.40,319.64 L414.20,333.19 L422.00,347.32 L429.80,361.60 L437.60,375.62 L445.40,388.97 L453.20,401.23 L461.00,412.05 L468.80,421.08 L476.60,428.03 L484.40,432.68 L492.20,434.88 L500.00,434.53 L507.80,431.62 L515.60,426.21 L523.40,418.45 L531.20,408.52 L539.00,396.71 L546.80,383.33 L554.60,368.74 L562.40,353.34 L570.20,337.54 L578.00,321.77 L585.80,306.45 L593.60,291.95 L601.40,278.66 L609.20,266.88 L617.00,256.90 L624.80,248.91 L632.60,243.06 L640.40,239.43 L648.20,238.02 L656.00,238.77 L663.80,241.55 L671.60,246.18 L679.40,252.41 L687.20,259.97 L695.00,268.55 L702.80,277.81 L710.60,287.42 L718.40,297.03 L726.20,306.31 L734.00,314.98 L741.80,322.77 L749.60,329.45 L757.40,334.86 L765.20,338.89 L773.00,341.46 L780.80,342.58 L788.60,342.30 L796.40,340.72 L804.20,338.00 L812.00,334.33 L819.80,329.91 L827.60,325.00 L835.40,319.83 L843.20,314.67 L851.00,309.75 L858.80,305.28 L866.60,301.46 L874.40,298.43 L882.20,296.31 L890.00,295.16"/><path d="M110.00,367.16 L117.80,367.55 L125.60,368.80 L133.40,370.87 L141.20,373.63 L149.00,376.92 L156.80,380.54 L164.60,384.26 L172.40,387.84 L180.20,391.03 L188.00,393.59 L195.80,395.31 L203.60,395.96 L211.40,395.40 L219.20,393.50 L227.00,390.18 L234.80,385.43 L242.60,379.28 L250.40,371.82 L258.20,363.21 L266.00,353.64 L273.80,343.35 L281.60,332.64 L289.40,321.80 L297.20,311.18 L305.00,301.11 L312.80,291.92 L320.60,283.93 L328.40,277.44 L336.20,272.69 L344.00,269.89 L351.80,269.18 L359.60,270.66 L367.40,274.33 L375.20,280.16 L383.00,288.02 L390.80,297.73 L398.60,309.03 L406.40,321.64 L414.20,335.19 L422.00,349.32 L429.80,363.60 L437.60,377.62 L445.40,390.97 L453.20,403.23 L461.00,414.05 L468.80,423.08 L476.60,430.03 L484.40,434.68 L492.20,436.88 L500.00,436.53 L507.80,433.62 L515.60,428.21 L523.40,420.45 L531.20,410.52 L539.00,398.71 L546.80,385.33 L554.60,370.74 L562.40,355.34 L570.20,339.54 L578.00,323.77 L585.80,308.45 L593.60,293.95 L601.40,280.66 L609.20,268.88 L617.00,258.90 L624.80,250.91 L632.60,245.06 L640.40,241.43 L648.20,240.02 L656.00,240.77 L663.80,243.55 L671.60,248.18 L679.40,254.41 L687.20,261.97 L695.00,270.55 L702.80,279.81 L710.60,289.42 L718.40,299.03 L726.20,308.31 L734.00,316.98 L741.80,324.77 L749.60,331.45 L757.40,336.86 L765.20,340.89 L773.00,343.46 L780.80,344.58 L788.60,344.30 L796.40,342.72 L804.20,340.00 L812.00,336.33 L819.80,331.91 L827.60,327.00 L835.40,321.83 L843.20,316.67 L851.00,311.75 L858.80,307.28 L866.60,303.46 L874.40,300.43 L882.20,298.31 L890.00,297.16"/><path d="M110.00,369.16 L117.80,369.55 L125.60,370.80 L133.40,372.87 L141.20,375.63 L149.00,378.92 L156.80,382.54 L164.60,386.26 L172.40,389.84 L180.20,393.03 L188.00,395.59 L195.80,397.31 L203.60,397.96 L211.40,397.40 L219.20,395.50 L227.00,392.18 L234.80,387.43 L242.60,381.28 L250.40,373.82 L258.20,365.21 L266.00,355.64 L273.80,345.35 L281.60,334.64 L289.40,323.80 L297.20,313.18 L305.00,303.11 L312.80,293.92 L320.60,285.93 L328.40,279.44 L336.20,274.69 L344.00,271.89 L351.80,271.18 L359.60,272.66 L367.40,276.33 L375.20,282.16 L383.00,290.02 L390.80,299.73 L398.60,311.03 L406.40,323.64 L414.20,337.19 L422.00,351.32 L429.80,365.60 L437.60,379.62 L445.40,392.97 L453.20,405.23 L461.00,416.05 L468.80,425.08 L476.60,432.03 L484.40,436.68 L492.20,438.88 L500.00,438.53 L507.80,435.62 L515.60,430.21 L523.40,422.45 L531.20,412.52 L539.00,400.71 L546.80,387.33 L554.60,372.74 L562.40,357.34 L570.20,341.54 L578.00,325.77 L585.80,310.45 L593.60,295.95 L601.40,282.66 L609.20,270.88 L617.00,260.90 L624.80,252.91 L632.60,247.06 L640.40,243.43 L648.20,242.02 L656.00,242.77 L663.80,245.55 L671.60,250.18 L679.40,256.41 L687.20,263.97 L695.00,272.55 L702.80,281.81 L710.60,291.42 L718.40,301.03 L726.20,310.31 L734.00,318.98 L741.80,326.77 L749.60,333.45 L757.40,338.86 L765.20,342.89 L773.00,345.46 L780.80,346.58 L788.60,346.30 L796.40,344.72 L804.20,342.00 L812.00,338.33 L819.80,333.91 L827.60,329.00 L835.40,323.83 L843.20,318.67 L851.00,313.75 L858.80,309.28 L866.60,305.46 L874.40,302.43 L882.20,300.31 L890.00,299.16"/><path d="M110.00,371.16 L117.80,371.55 L125.60,372.80 L133.40,374.87 L141.20,377.63 L149.00,380.92 L156.80,384.54 L164.60,388.26 L172.40,391.84 L180.20,395.03 L188.00,397.59 L195.80,399.31 L203.60,399.96 L211.40,399.40 L219.20,397.50 L227.00,394.18 L234.80,389.43 L242.60,383.28 L250.40,375.82 L258.20,367.21 L266.00,357.64 L273.80,347.35 L281.60,336.64 L289.40,325.80 L297.20,315.18 L305.00,305.11 L312.80,295.92 L320.60,287.93 L328.40,281.44 L336.20,276.69 L344.00,273.89 L351.80,273.18 L359.60,274.66 L367.40,278.33 L375.20,284.16 L383.00,292.02 L390.80,301.73 L398.60,313.03 L406.40,325.64 L414.20,339.19 L422.00,353.32 L429.80,367.60 L437.60,381.62 L445.40,394.97 L453.20,407.23 L461.00,418.05 L468.80,427.08 L476.60,434.03 L484.40,438.68 L492.20,440.88 L500.00,440.53 L507.80,437.62 L515.60,432.21 L523.40,424.45 L531.20,414.52 L539.00,402.71 L546.80,389.33 L554.60,374.74 L562.40,359.34 L570.20,343.54 L578.00,327.77 L585.80,312.45 L593.60,297.95 L601.40,284.66 L609.20,272.88 L617.00,262.90 L624.80,254.91 L632.60,249.06 L640.40,245.43 L648.20,244.02 L656.00,244.77 L663.80,247.55 L671.60,252.18 L679.40,258.41 L687.20,265.97 L695.00,274.55 L702.80,283.81 L710.60,293.42 L718.40,303.03 L726.20,312.31 L734.00,320.98 L741.80,328.77 L749.60,335.45 L757.40,340.86 L765.20,344.89 L773.00,347.46 L780.80,348.58 L788.60,348.30 L796.40,346.72 L804.20,344.00 L812.00,340.33 L819.80,335.91 L827.60,331.00 L835.40,325.83 L843.20,320.67 L851.00,315.75 L858.80,311.28 L866.60,307.46 L874.40,304.43 L882.20,302.31 L890.00,301.16"/><path d="M110.00,373.16 L117.80,373.55 L125.60,374.80 L133.40,376.87 L141.20,379.63 L149.00,382.92 L156.80,386.54 L164.60,390.26 L172.40,393.84 L180.20,397.03 L188.00,399.59 L195.80,401.31 L203.60,401.96 L211.40,401.40 L219.20,399.50 L227.00,396.18 L234.80,391.43 L242.60,385.28 L250.40,377.82 L258.20,369.21 L266.00,359.64 L273.80,349.35 L281.60,338.64 L289.40,327.80 L297.20,317.18 L305.00,307.11 L312.80,297.92 L320.60,289.93 L328.40,283.44 L336.20,278.69 L344.00,275.89 L351.80,275.18 L359.60,276.66 L367.40,280.33 L375.20,286.16 L383.00,294.02 L390.80,303.73 L398.60,315.03 L406.40,327.64 L414.20,341.19 L422.00,355.32 L429.80,369.60 L437.60,383.62 L445.40,396.97 L453.20,409.23 L461.00,420.05 L468.80,429.08 L476.60,436.03 L484.40,440.68 L492.20,442.88 L500.00,442.53 L507.80,439.62 L515.60,434.21 L523.40,426.45 L531.20,416.52 L539.00,404.71 L546.80,391.33 L554.60,376.74 L562.40,361.34 L570.20,345.54 L578.00,329.77 L585.80,314.45 L593.60,299.95 L601.40,286.66 L609.20,274.88 L617.00,264.90 L624.80,256.91 L632.60,251.06 L640.40,247.43 L648.20,246.02 L656.00,246.77 L663.80,249.55 L671.60,254.18 L679.40,260.41 L687.20,267.97 L695.00,276.55 L702.80,285.81 L710.60,295.42 L718.40,305.03 L726.20,314.31 L734.00,322.98 L741.80,330.77 L749.60,337.45 L757.40,342.86 L765.20,346.89 L773.00,349.46 L780.80,350.58 L788.60,350.30 L796.40,348.72 L804.20,346.00 L812.00,342.33 L819.80,337.91 L827.60,333.00 L835.40,327.83 L843.20,322.67 L851.00,317.75 L858.80,313.28 L866.60,309.46 L874.40,306.43 L882.20,304.31 L890.00,303.16"/><path d="M110.00,375.16 L117.80,375.55 L125.60,376.80 L133.40,378.87 L141.20,381.63 L149.00,384.92 L156.80,388.54 L164.60,392.26 L172.40,395.84 L180.20,399.03 L188.00,401.59 L195.80,403.31 L203.60,403.96 L211.40,403.40 L219.20,401.50 L227.00,398.18 L234.80,393.43 L242.60,387.28 L250.40,379.82 L258.20,371.21 L266.00,361.64 L273.80,351.35 L281.60,340.64 L289.40,329.80 L297.20,319.18 L305.00,309.11 L312.80,299.92 L320.60,291.93 L328.40,285.44 L336.20,280.69 L344.00,277.89 L351.80,277.18 L359.60,278.66 L367.40,282.33 L375.20,288.16 L383.00,296.02 L390.80,305.73 L398.60,317.03 L406.40,329.64 L414.20,343.19 L422.00,357.32 L429.80,371.60 L437.60,385.62 L445.40,398.97 L453.20,411.23 L461.00,422.05 L468.80,431.08 L476.60,438.03 L484.40,442.68 L492.20,444.88 L500.00,444.53 L507.80,441.62 L515.60,436.21 L523.40,428.45 L531.20,418.52 L539.00,406.71 L546.80,393.33 L554.60,378.74 L562.40,363.34 L570.20,347.54 L578.00,331.77 L585.80,316.45 L593.60,301.95 L601.40,288.66 L609.20,276.88 L617.00,266.90 L624.80,258.91 L632.60,253.06 L640.40,249.43 L648.20,248.02 L656.00,248.77 L663.80,251.55 L671.60,256.18 L679.40,262.41 L687.20,269.97 L695.00,278.55 L702.80,287.81 L710.60,297.42 L718.40,307.03 L726.20,316.31 L734.00,324.98 L741.80,332.77 L749.60,339.45 L757.40,344.86 L765.20,348.89 L773.00,351.46 L780.80,352.58 L788.60,352.30 L796.40,350.72 L804.20,348.00 L812.00,344.33 L819.80,339.91 L827.60,335.00 L835.40,329.83 L843.20,324.67 L851.00,319.75 L858.80,315.28 L866.60,311.46 L874.40,308.43 L882.20,306.31 L890.00,305.16"/><path d="M110.00,377.16 L117.80,377.55 L125.60,378.80 L133.40,380.87 L141.20,383.63 L149.00,386.92 L156.80,390.54 L164.60,394.26 L172.40,397.84 L180.20,401.03 L188.00,403.59 L195.80,405.31 L203.60,405.96 L211.40,405.40 L219.20,403.50 L227.00,400.18 L234.80,395.43 L242.60,389.28 L250.40,381.82 L258.20,373.21 L266.00,363.64 L273.80,353.35 L281.60,342.64 L289.40,331.80 L297.20,321.18 L305.00,311.11 L312.80,301.92 L320.60,293.93 L328.40,287.44 L336.20,282.69 L344.00,279.89 L351.80,279.18 L359.60,280.66 L367.40,284.33 L375.20,290.16 L383.00,298.02 L390.80,307.73 L398.60,319.03 L406.40,331.64 L414.20,345.19 L422.00,359.32 L429.80,373.60 L437.60,387.62 L445.40,400.97 L453.20,413.23 L461.00,424.05 L468.80,433.08 L476.60,440.03 L484.40,444.68 L492.20,446.88 L500.00,446.53 L507.80,443.62 L515.60,438.21 L523.40,430.45 L531.20,420.52 L539.00,408.71 L546.80,395.33 L554.60,380.74 L562.40,365.34 L570.20,349.54 L578.00,333.77 L585.80,318.45 L593.60,303.95 L601.40,290.66 L609.20,278.88 L617.00,268.90 L624.80,260.91 L632.60,255.06 L640.40,251.43 L648.20,250.02 L656.00,250.77 L663.80,253.55 L671.60,258.18 L679.40,264.41 L687.20,271.97 L695.00,280.55 L702.80,289.81 L710.60,299.42 L718.40,309.03 L726.20,318.31 L734.00,326.98 L741.80,334.77 L749.60,341.45 L757.40,346.86 L765.20,350.89 L773.00,353.46 L780.80,354.58 L788.60,354.30 L796.40,352.72 L804.20,350.00 L812.00,346.33 L819.80,341.91 L827.60,337.00 L835.40,331.83 L843.20,326.67 L851.00,321.75 L858.80,317.28 L866.60,313.46 L874.40,310.43 L882.20,308.31 L890.00,307.16"/><path d="M110.00,379.16 L117.80,379.55 L125.60,380.80 L133.40,382.87 L141.20,385.63 L149.00,388.92 L156.80,392.54 L164.60,396.26 L172.40,399.84 L180.20,403.03 L188.00,405.59 L195.80,407.31 L203.60,407.96 L211.40,407.40 L219.20,405.50 L227.00,402.18 L234.80,397.43 L242.60,391.28 L250.40,383.82 L258.20,375.21 L266.00,365.64 L273.80,355.35 L281.60,344.64 L289.40,333.80 L297.20,323.18 L305.00,313.11 L312.80,303.92 L320.60,295.93 L328.40,289.44 L336.20,284.69 L344.00,281.89 L351.80,281.18 L359.60,282.66 L367.40,286.33 L375.20,292.16 L383.00,300.02 L390.80,309.73 L398.60,321.03 L406.40,333.64 L414.20,347.19 L422.00,361.32 L429.80,375.60 L437.60,389.62 L445.40,402.97 L453.20,415.23 L461.00,426.05 L468.80,435.08 L476.60,442.03 L484.40,446.68 L492.20,448.88 L500.00,448.53 L507.80,445.62 L515.60,440.21 L523.40,432.45 L531.20,422.52 L539.00,410.71 L546.80,397.33 L554.60,382.74 L562.40,367.34 L570.20,351.54 L578.00,335.77 L585.80,320.45 L593.60,305.95 L601.40,292.66 L609.20,280.88 L617.00,270.90 L624.80,262.91 L632.60,257.06 L640.40,253.43 L648.20,252.02 L656.00,252.77 L663.80,255.55 L671.60,260.18 L679.40,266.41 L687.20,273.97 L695.00,282.55 L702.80,291.81 L710.60,301.42 L718.40,311.03 L726.20,320.31 L734.00,328.98 L741.80,336.77 L749.60,343.45 L757.40,348.86 L765.20,352.89 L773.00,355.46 L780.80,356.58 L788.60,356.30 L796.40,354.72 L804.20,352.00 L812.00,348.33 L819.80,343.91 L827.60,339.00 L835.40,333.83 L843.20,328.67 L851.00,323.75 L858.80,319.28 L866.60,315.46 L874.40,312.43 L882.20,310.31 L890.00,309.16"/><path d="M110.00,381.16 L117.80,381.55 L125.60,382.80 L133.40,384.87 L141.20,387.63 L149.00,390.92 L156.80,394.54 L164.60,398.26 L172.40,401.84 L180.20,405.03 L188.00,407.59 L195.80,409.31 L203.60,409.96 L211.40,409.40 L219.20,407.50 L227.00,404.18 L234.80,399.43 L242.60,393.28 L250.40,385.82 L258.20,377.21 L266.00,367.64 L273.80,357.35 L281.60,346.64 L289.40,335.80 L297.20,325.18 L305.00,315.11 L312.80,305.92 L320.60,297.93 L328.40,291.44 L336.20,286.69 L344.00,283.89 L351.80,283.18 L359.60,284.66 L367.40,288.33 L375.20,294.16 L383.00,302.02 L390.80,311.73 L398.60,323.03 L406.40,335.64 L414.20,349.19 L422.00,363.32 L429.80,377.60 L437.60,391.62 L445.40,404.97 L453.20,417.23 L461.00,428.05 L468.80,437.08 L476.60,444.03 L484.40,448.68 L492.20,450.88 L500.00,450.53 L507.80,447.62 L515.60,442.21 L523.40,434.45 L531.20,424.52 L539.00,412.71 L546.80,399.33 L554.60,384.74 L562.40,369.34 L570.20,353.54 L578.00,337.77 L585.80,322.45 L593.60,307.95 L601.40,294.66 L609.20,282.88 L617.00,272.90 L624.80,264.91 L632.60,259.06 L640.40,255.43 L648.20,254.02 L656.00,254.77 L663.80,257.55 L671.60,262.18 L679.40,268.41 L687.20,275.97 L695.00,284.55 L702.80,293.81 L710.60,303.42 L718.40,313.03 L726.20,322.31 L734.00,330.98 L741.80,338.77 L749.60,345.45 L757.40,350.86 L765.20,354.89 L773.00,357.46 L780.80,358.58 L788.60,358.30 L796.40,356.72 L804.20,354.00 L812.00,350.33 L819.80,345.91 L827.60,341.00 L835.40,335.83 L843.20,330.67 L851.00,325.75 L858.80,321.28 L866.60,317.46 L874.40,314.43 L882.20,312.31 L890.00,311.16"/><path d="M110.00,383.16 L117.80,383.55 L125.60,384.80 L133.40,386.87 L141.20,389.63 L149.00,392.92 L156.80,396.54 L164.60,400.26 L172.40,403.84 L180.20,407.03 L188.00,409.59 L195.80,411.31 L203.60,411.96 L211.40,411.40 L219.20,409.50 L227.00,406.18 L234.80,401.43 L242.60,395.28 L250.40,387.82 L258.20,379.21 L266.00,369.64 L273.80,359.35 L281.60,348.64 L289.40,337.80 L297.20,327.18 L305.00,317.11 L312.80,307.92 L320.60,299.93 L328.40,293.44 L336.20,288.69 L344.00,285.89 L351.80,285.18 L359.60,286.66 L367.40,290.33 L375.20,296.16 L383.00,304.02 L390.80,313.73 L398.60,325.03 L406.40,337.64 L414.20,351.19 L422.00,365.32 L429.80,379.60 L437.60,393.62 L445.40,406.97 L453.20,419.23 L461.00,430.05 L468.80,439.08 L476.60,446.03 L484.40,450.68 L492.20,452.88 L500.00,452.53 L507.80,449.62 L515.60,444.21 L523.40,436.45 L531.20,426.52 L539.00,414.71 L546.80,401.33 L554.60,386.74 L562.40,371.34 L570.20,355.54 L578.00,339.77 L585.80,324.45 L593.60,309.95 L601.40,296.66 L609.20,284.88 L617.00,274.90 L624.80,266.91 L632.60,261.06 L640.40,257.43 L648.20,256.02 L656.00,256.77 L663.80,259.55 L671.60,264.18 L679.40,270.41 L687.20,277.97 L695.00,286.55 L702.80,295.81 L710.60,305.42 L718.40,315.03 L726.20,324.31 L734.00,332.98 L741.80,340.77 L749.60,347.45 L757.40,352.86 L765.20,356.89 L773.00,359.46 L780.80,360.58 L788.60,360.30 L796.40,358.72 L804.20,356.00 L812.00,352.33 L819.80,347.91 L827.60,343.00 L835.40,337.83 L843.20,332.67 L851.00,327.75 L858.80,323.28 L866.60,319.46 L874.40,316.43 L882.20,314.31 L890.00,313.16"/><path d="M110.00,385.16 L117.80,385.55 L125.60,386.80 L133.40,388.87 L141.20,391.63 L149.00,394.92 L156.80,398.54 L164.60,402.26 L172.40,405.84 L180.20,409.03 L188.00,411.59 L195.80,413.31 L203.60,413.96 L211.40,413.40 L219.20,411.50 L227.00,408.18 L234.80,403.43 L242.60,397.28 L250.40,389.82 L258.20,381.21 L266.00,371.64 L273.80,361.35 L281.60,350.64 L289.40,339.80 L297.20,329.18 L305.00,319.11 L312.80,309.92 L320.60,301.93 L328.40,295.44 L336.20,290.69 L344.00,287.89 L351.80,287.18 L359.60,288.66 L367.40,292.33 L375.20,298.16 L383.00,306.02 L390.80,315.73 L398.60,327.03 L406.40,339.64 L414.20,353.19 L422.00,367.32 L429.80,381.60 L437.60,395.62 L445.40,408.97 L453.20,421.23 L461.00,432.05 L468.80,441.08 L476.60,448.03 L484.40,452.68 L492.20,454.88 L500.00,454.53 L507.80,451.62 L515.60,446.21 L523.40,438.45 L531.20,428.52 L539.00,416.71 L546.80,403.33 L554.60,388.74 L562.40,373.34 L570.20,357.54 L578.00,341.77 L585.80,326.45 L593.60,311.95 L601.40,298.66 L609.20,286.88 L617.00,276.90 L624.80,268.91 L632.60,263.06 L640.40,259.43 L648.20,258.02 L656.00,258.77 L663.80,261.55 L671.60,266.18 L679.40,272.41 L687.20,279.97 L695.00,288.55 L702.80,297.81 L710.60,307.42 L718.40,317.03 L726.20,326.31 L734.00,334.98 L741.80,342.77 L749.60,349.45 L757.40,354.86 L765.20,358.89 L773.00,361.46 L780.80,362.58 L788.60,362.30 L796.40,360.72 L804.20,358.00 L812.00,354.33 L819.80,349.91 L827.60,345.00 L835.40,339.83 L843.20,334.67 L851.00,329.75 L858.80,325.28 L866.60,321.46 L874.40,318.43 L882.20,316.31 L890.00,315.16"/><path d="M110.00,387.16 L117.80,387.55 L125.60,388.80 L133.40,390.87 L141.20,393.63 L149.00,396.92 L156.80,400.54 L164.60,404.26 L172.40,407.84 L180.20,411.03 L188.00,413.59 L195.80,415.31 L203.60,415.96 L211.40,415.40 L219.20,413.50 L227.00,410.18 L234.80,405.43 L242.60,399.28 L250.40,391.82 L258.20,383.21 L266.00,373.64 L273.80,363.35 L281.60,352.64 L289.40,341.80 L297.20,331.18 L305.00,321.11 L312.80,311.92 L320.60,303.93 L328.40,297.44 L336.20,292.69 L344.00,289.89 L351.80,289.18 L359.60,290.66 L367.40,294.33 L375.20,300.16 L383.00,308.02 L390.80,317.73 L398.60,329.03 L406.40,341.64 L414.20,355.19 L422.00,369.32 L429.80,383.60 L437.60,397.62 L445.40,410.97 L453.20,423.23 L461.00,434.05 L468.80,443.08 L476.60,450.03 L484.40,454.68 L492.20,456.88 L500.00,456.53 L507.80,453.62 L515.60,448.21 L523.40,440.45 L531.20,430.52 L539.00,418.71 L546.80,405.33 L554.60,390.74 L562.40,375.34 L570.20,359.54 L578.00,343.77 L585.80,328.45 L593.60,313.95 L601.40,300.66 L609.20,288.88 L617.00,278.90 L624.80,270.91 L632.60,265.06 L640.40,261.43 L648.20,260.02 L656.00,260.77 L663.80,263.55 L671.60,268.18 L679.40,274.41 L687.20,281.97 L695.00,290.55 L702.80,299.81 L710.60,309.42 L718.40,319.03 L726.20,328.31 L734.00,336.98 L741.80,344.77 L749.60,351.45 L757.40,356.86 L765.20,360.89 L773.00,363.46 L780.80,364.58 L788.60,364.30 L796.40,362.72 L804.20,360.00 L812.00,356.33 L819.80,351.91 L827.60,347.00 L835.40,341.83 L843.20,336.67 L851.00,331.75 L858.80,327.28 L866.60,323.46 L874.40,320.43 L882.20,318.31 L890.00,317.16"/><path d="M110.00,389.16 L117.80,389.55 L125.60,390.80 L133.40,392.87 L141.20,395.63 L149.00,398.92 L156.80,402.54 L164.60,406.26 L172.40,409.84 L180.20,413.03 L188.00,415.59 L195.80,417.31 L203.60,417.96 L211.40,417.40 L219.20,415.50 L227.00,412.18 L234.80,407.43 L242.60,401.28 L250.40,393.82 L258.20,385.21 L266.00,375.64 L273.80,365.35 L281.60,354.64 L289.40,343.80 L297.20,333.18 L305.00,323.11 L312.80,313.92 L320.60,305.93 L328.40,299.44 L336.20,294.69 L344.00,291.89 L351.80,291.18 L359.60,292.66 L367.40,296.33 L375.20,302.16 L383.00,310.02 L390.80,319.73 L398.60,331.03 L406.40,343.64 L414.20,357.19 L422.00,371.32 L429.80,385.60 L437.60,399.62 L445.40,412.97 L453.20,425.23 L461.00,436.05 L468.80,445.08 L476.60,452.03 L484.40,456.68 L492.20,458.88 L500.00,458.53 L507.80,455.62 L515.60,450.21 L523.40,442.45 L531.20,432.52 L539.00,420.71 L546.80,407.33 L554.60,392.74 L562.40,377.34 L570.20,361.54 L578.00,345.77 L585.80,330.45 L593.60,315.95 L601.40,302.66 L609.20,290.88 L617.00,280.90 L624.80,272.91 L632.60,267.06 L640.40,263.43 L648.20,262.02 L656.00,262.77 L663.80,265.55 L671.60,270.18 L679.40,276.41 L687.20,283.97 L695.00,292.55 L702.80,301.81 L710.60,311.42 L718.40,321.03 L726.20,330.31 L734.00,338.98 L741.80,346.77 L749.60,353.45 L757.40,358.86 L765.20,362.89 L773.00,365.46 L780.80,366.58 L788.60,366.30 L796.40,364.72 L804.20,362.00 L812.00,358.33 L819.80,353.91 L827.60,349.00 L835.40,343.83 L843.20,338.67 L851.00,333.75 L858.80,329.28 L866.60,325.46 L874.40,322.43 L882.20,320.31 L890.00,319.16"/><path d="M110.00,391.16 L117.80,391.55 L125.60,392.80 L133.40,394.87 L141.20,397.63 L149.00,400.92 L156.80,404.54 L164.60,408.26 L172.40,411.84 L180.20,415.03 L188.00,417.59 L195.80,419.31 L203.60,419.96 L211.40,419.40 L219.20,417.50 L227.00,414.18 L234.80,409.43 L242.60,403.28 L250.40,395.82 L258.20,387.21 L266.00,377.64 L273.80,367.35 L281.60,356.64 L289.40,345.80 L297.20,335.18 L305.00,325.11 L312.80,315.92 L320.60,307.93 L328.40,301.44 L336.20,296.69 L344.00,293.89 L351.80,293.18 L359.60,294.66 L367.40,298.33 L375.20,304.16 L383.00,312.02 L390.80,321.73 L398.60,333.03 L406.40,345.64 L414.20,359.19 L422.00,373.32 L429.80,387.60 L437.60,401.62 L445.40,414.97 L453.20,427.23 L461.00,438.05 L468.80,447.08 L476.60,454.03 L484.40,458.68 L492.20,460.88 L500.00,460.53 L507.80,457.62 L515.60,452.21 L523.40,444.45 L531.20,434.52 L539.00,422.71 L546.80,409.33 L554.60,394.74 L562.40,379.34 L570.20,363.54 L578.00,347.77 L585.80,332.45 L593.60,317.95 L601.40,304.66 L609.20,292.88 L617.00,282.90 L624.80,274.91 L632.60,269.06 L640.40,265.43 L648.20,264.02 L656.00,264.77 L663.80,267.55 L671.60,272.18 L679.40,278.41 L687.20,285.97 L695.00,294.55 L702.80,303.81 L710.60,313.42 L718.40,323.03 L726.20,332.31 L734.00,340.98 L741.80,348.77 L749.60,355.45 L757.40,360.86 L765.20,364.89 L773.00,367.46 L780.80,368.58 L788.60,368.30 L796.40,366.72 L804.20,364.00 L812.00,360.33 L819.80,355.91 L827.60,351.00 L835.40,345.83 L843.20,340.67 L851.00,335.75 L858.80,331.28 L866.60,327.46 L874.40,324.43 L882.20,322.31 L890.00,321.16"/><path d="M110.00,393.16 L117.80,393.55 L125.60,394.80 L133.40,396.87 L141.20,399.63 L149.00,402.92 L156.80,406.54 L164.60,410.26 L172.40,413.84 L180.20,417.03 L188.00,419.59 L195.80,421.31 L203.60,421.96 L211.40,421.40 L219.20,419.50 L227.00,416.18 L234.80,411.43 L242.60,405.28 L250.40,397.82 L258.20,389.21 L266.00,379.64 L273.80,369.35 L281.60,358.64 L289.40,347.80 L297.20,337.18 L305.00,327.11 L312.80,317.92 L320.60,309.93 L328.40,303.44 L336.20,298.69 L344.00,295.89 L351.80,295.18 L359.60,296.66 L367.40,300.33 L375.20,306.16 L383.00,314.02 L390.80,323.73 L398.60,335.03 L406.40,347.64 L414.20,361.19 L422.00,375.32 L429.80,389.60 L437.60,403.62 L445.40,416.97 L453.20,429.23 L461.00,440.05 L468.80,449.08 L476.60,456.03 L484.40,460.68 L492.20,462.88 L500.00,462.53 L507.80,459.62 L515.60,454.21 L523.40,446.45 L531.20,436.52 L539.00,424.71 L546.80,411.33 L554.60,396.74 L562.40,381.34 L570.20,365.54 L578.00,349.77 L585.80,334.45 L593.60,319.95 L601.40,306.66 L609.20,294.88 L617.00,284.90 L624.80,276.91 L632.60,271.06 L640.40,267.43 L648.20,266.02 L656.00,266.77 L663.80,269.55 L671.60,274.18 L679.40,280.41 L687.20,287.97 L695.00,296.55 L702.80,305.81 L710.60,315.42 L718.40,325.03 L726.20,334.31 L734.00,342.98 L741.80,350.77 L749.60,357.45 L757.40,362.86 L765.20,366.89 L773.00,369.46 L780.80,370.58 L788.60,370.30 L796.40,368.72 L804.20,366.00 L812.00,362.33 L819.80,357.91 L827.60,353.00 L835.40,347.83 L843.20,342.67 L851.00,337.75 L858.80,333.28 L866.60,329.46 L874.40,326.43 L882.20,324.31 L890.00,323.16"/><path d="M110.00,395.16 L117.80,395.55 L125.60,396.80 L133.40,398.87 L141.20,401.63 L149.00,404.92 L156.80,408.54 L164.60,412.26 L172.40,415.84 L180.20,419.03 L188.00,421.59 L195.80,423.31 L203.60,423.96 L211.40,423.40 L219.20,421.50 L227.00,418.18 L234.80,413.43 L242.60,407.28 L250.40,399.82 L258.20,391.21 L266.00,381.64 L273.80,371.35 L281.60,360.64 L289.40,349.80 L297.20,339.18 L305.00,329.11 L312.80,319.92 L320.60,311.93 L328.40,305.44 L336.20,300.69 L344.00,297.89 L351.80,297.18 L359.60,298.66 L367.40,302.33 L375.20,308.16 L383.00,316.02 L390.80,325.73 L398.60,337.03 L406.40,349.64 L414.20,363.19 L422.00,377.32 L429.80,391.60 L437.60,405.62 L445.40,418.97 L453.20,431.23 L461.00,442.05 L468.80,451.08 L476.60,458.03 L484.40,462.68 L492.20,464.88 L500.00,464.53 L507.80,461.62 L515.60,456.21 L523.40,448.45 L531.20,438.52 L539.00,426.71 L546.80,413.33 L554.60,398.74 L562.40,383.34 L570.20,367.54 L578.00,351.77 L585.80,336.45 L593.60,321.95 L601.40,308.66 L609.20,296.88 L617.00,286.90 L624.80,278.91 L632.60,273.06 L640.40,269.43 L648.20,268.02 L656.00,268.77 L663.80,271.55 L671.60,276.18 L679.40,282.41 L687.20,289.97 L695.00,298.55 L702.80,307.81 L710.60,317.42 L718.40,327.03 L726.20,336.31 L734.00,344.98 L741.80,352.77 L749.60,359.45 L757.40,364.86 L765.20,368.89 L773.00,371.46 L780.80,372.58 L788.60,372.30 L796.40,370.72 L804.20,368.00 L812.00,364.33 L819.80,359.91 L827.60,355.00 L835.40,349.83 L843.20,344.67 L851.00,339.75 L858.80,335.28 L866.60,331.46 L874.40,328.43 L882.20,326.31 L890.00,325.16"/><path d="M110.00,397.16 L117.80,397.55 L125.60,398.80 L133.40,400.87 L141.20,403.63 L149.00,406.92 L156.80,410.54 L164.60,414.26 L172.40,417.84 L180.20,421.03 L188.00,423.59 L195.80,425.31 L203.60,425.96 L211.40,425.40 L219.20,423.50 L227.00,420.18 L234.80,415.43 L242.60,409.28 L250.40,401.82 L258.20,393.21 L266.00,383.64 L273.80,373.35 L281.60,362.64 L289.40,351.80 L297.20,341.18 L305.00,331.11 L312.80,321.92 L320.60,313.93 L328.40,307.44 L336.20,302.69 L344.00,299.89 L351.80,299.18 L359.60,300.66 L367.40,304.33 L375.20,310.16 L383.00,318.02 L390.80,327.73 L398.60,339.03 L406.40,351.64 L414.20,365.19 L422.00,379.32 L429.80,393.60 L437.60,407.62 L445.40,420.97 L453.20,433.23 L461.00,444.05 L468.80,453.08 L476.60,460.03 L484.40,464.68 L492.20,466.88 L500.00,466.53 L507.80,463.62 L515.60,458.21 L523.40,450.45 L531.20,440.52 L539.00,428.71 L546.80,415.33 L554.60,400.74 L562.40,385.34 L570.20,369.54 L578.00,353.77 L585.80,338.45 L593.60,323.95 L601.40,310.66 L609.20,298.88 L617.00,288.90 L624.80,280.91 L632.60,275.06 L640.40,271.43 L648.20,270.02 L656.00,270.77 L663.80,273.55 L671.60,278.18 L679.40,284.41 L687.20,291.97 L695.00,300.55 L702.80,309.81 L710.60,319.42 L718.40,329.03 L726.20,338.31 L734.00,346.98 L741.80,354.77 L749.60,361.45 L757.40,366.86 L765.20,370.89 L773.00,373.46 L780.80,374.58 L788.60,374.30 L796.40,372.72 L804.20,370.00 L812.00,366.33 L819.80,361.91 L827.60,357.00 L835.40,351.83 L843.20,346.67 L851.00,341.75 L858.80,337.28 L866.60,333.46 L874.40,330.43 L882.20,328.31 L890.00,327.16"/><path d="M110.00,399.16 L117.80,399.55 L125.60,400.80 L133.40,402.87 L141.20,405.63 L149.00,408.92 L156.80,412.54 L164.60,416.26 L172.40,419.84 L180.20,423.03 L188.00,425.59 L195.80,427.31 L203.60,427.96 L211.40,427.40 L219.20,425.50 L227.00,422.18 L234.80,417.43 L242.60,411.28 L250.40,403.82 L258.20,395.21 L266.00,385.64 L273.80,375.35 L281.60,364.64 L289.40,353.80 L297.20,343.18 L305.00,333.11 L312.80,323.92 L320.60,315.93 L328.40,309.44 L336.20,304.69 L344.00,301.89 L351.80,301.18 L359.60,302.66 L367.40,306.33 L375.20,312.16 L383.00,320.02 L390.80,329.73 L398.60,341.03 L406.40,353.64 L414.20,367.19 L422.00,381.32 L429.80,395.60 L437.60,409.62 L445.40,422.97 L453.20,435.23 L461.00,446.05 L468.80,455.08 L476.60,462.03 L484.40,466.68 L492.20,468.88 L500.00,468.53 L507.80,465.62 L515.60,460.21 L523.40,452.45 L531.20,442.52 L539.00,430.71 L546.80,417.33 L554.60,402.74 L562.40,387.34 L570.20,371.54 L578.00,355.77 L585.80,340.45 L593.60,325.95 L601.40,312.66 L609.20,300.88 L617.00,290.90 L624.80,282.91 L632.60,277.06 L640.40,273.43 L648.20,272.02 L656.00,272.77 L663.80,275.55 L671.60,280.18 L679.40,286.41 L687.20,293.97 L695.00,302.55 L702.80,311.81 L710.60,321.42 L718.40,331.03 L726.20,340.31 L734.00,348.98 L741.80,356.77 L749.60,363.45 L757.40,368.86 L765.20,372.89 L773.00,375.46 L780.80,376.58 L788.60,376.30 L796.40,374.72 L804.20,372.00 L812.00,368.33 L819.80,363.91 L827.60,359.00 L835.40,353.83 L843.20,348.67 L851.00,343.75 L858.80,339.28 L866.60,335.46 L874.40,332.43 L882.20,330.31 L890.00,329.16"/><path d="M110.00,401.16 L117.80,401.55 L125.60,402.80 L133.40,404.87 L141.20,407.63 L149.00,410.92 L156.80,414.54 L164.60,418.26 L172.40,421.84 L180.20,425.03 L188.00,427.59 L195.80,429.31 L203.60,429.96 L211.40,429.40 L219.20,427.50 L227.00,424.18 L234.80,419.43 L242.60,413.28 L250.40,405.82 L258.20,397.21 L266.00,387.64 L273.80,377.35 L281.60,366.64 L289.40,355.80 L297.20,345.18 L305.00,335.11 L312.80,325.92 L320.60,317.93 L328.40,311.44 L336.20,306.69 L344.00,303.89 L351.80,303.18 L359.60,304.66 L367.40,308.33 L375.20,314.16 L383.00,322.02 L390.80,331.73 L398.60,343.03 L406.40,355.64 L414.20,369.19 L422.00,383.32 L429.80,397.60 L437.60,411.62 L445.40,424.97 L453.20,437.23 L461.00,448.05 L468.80,457.08 L476.60,464.03 L484.40,468.68 L492.20,470.88 L500.00,470.53 L507.80,467.62 L515.60,462.21 L523.40,454.45 L531.20,444.52 L539.00,432.71 L546.80,419.33 L554.60,404.74 L562.40,389.34 L570.20,373.54 L578.00,357.77 L585.80,342.45 L593.60,327.95 L601.40,314.66 L609.20,302.88 L617.00,292.90 L624.80,284.91 L632.60,279.06 L640.40,275.43 L648.20,274.02 L656.00,274.77 L663.80,277.55 L671.60,282.18 L679.40,288.41 L687.20,295.97 L695.00,304.55 L702.80,313.81 L710.60,323.42 L718.40,333.03 L726.20,342.31 L734.00,350.98 L741.80,358.77 L749.60,365.45 L757.40,370.86 L765.20,374.89 L773.00,377.46 L780.80,378.58 L788.60,378.30 L796.40,376.72 L804.20,374.00 L812.00,370.33 L819.80,365.91 L827.60,361.00 L835.40,355.83 L843.20,350.67 L851.00,345.75 L858.80,341.28 L866.60,337.46 L874.40,334.43 L882.20,332.31 L890.00,331.16"/><path d="M110.00,403.16 L117.80,403.55 L125.60,404.80 L133.40,406.87 L141.20,409.63 L149.00,412.92 L156.80,416.54 L164.60,420.26 L172.40,423.84 L180.20,427.03 L188.00,429.59 L195.80,431.31 L203.60,431.96 L211.40,431.40 L219.20,429.50 L227.00,426.18 L234.80,421.43 L242.60,415.28 L250.40,407.82 L258.20,399.21 L266.00,389.64 L273.80,379.35 L281.60,368.64 L289.40,357.80 L297.20,347.18 L305.00,337.11 L312.80,327.92 L320.60,319.93 L328.40,313.44 L336.20,308.69 L344.00,305.89 L351.80,305.18 L359.60,306.66 L367.40,310.33 L375.20,316.16 L383.00,324.02 L390.80,333.73 L398.60,345.03 L406.40,357.64 L414.20,371.19 L422.00,385.32 L429.80,399.60 L437.60,413.62 L445.40,426.97 L453.20,439.23 L461.00,450.05 L468.80,459.08 L476.60,466.03 L484.40,470.68 L492.20,472.88 L500.00,472.53 L507.80,469.62 L515.60,464.21 L523.40,456.45 L531.20,446.52 L539.00,434.71 L546.80,421.33 L554.60,406.74 L562.40,391.34 L570.20,375.54 L578.00,359.77 L585.80,344.45 L593.60,329.95 L601.40,316.66 L609.20,304.88 L617.00,294.90 L624.80,286.91 L632.60,281.06 L640.40,277.43 L648.20,276.02 L656.00,276.77 L663.80,279.55 L671.60,284.18 L679.40,290.41 L687.20,297.97 L695.00,306.55 L702.80,315.81 L710.60,325.42 L718.40,335.03 L726.20,344.31 L734.00,352.98 L741.80,360.77 L749.60,367.45 L757.40,372.86 L765.20,376.89 L773.00,379.46 L780.80,380.58 L788.60,380.30 L796.40,378.72 L804.20,376.00 L812.00,372.33 L819.80,367.91 L827.60,363.00 L835.40,357.83 L843.20,352.67 L851.00,347.75 L858.80,343.28 L866.60,339.46 L874.40,336.43 L882.20,334.31 L890.00,333.16"/><path d="M110.00,405.16 L117.80,405.55 L125.60,406.80 L133.40,408.87 L141.20,411.63 L149.00,414.92 L156.80,418.54 L164.60,422.26 L172.40,425.84 L180.20,429.03 L188.00,431.59 L195.80,433.31 L203.60,433.96 L211.40,433.40 L219.20,431.50 L227.00,428.18 L234.80,423.43 L242.60,417.28 L250.40,409.82 L258.20,401.21 L266.00,391.64 L273.80,381.35 L281.60,370.64 L289.40,359.80 L297.20,349.18 L305.00,339.11 L312.80,329.92 L320.60,321.93 L328.40,315.44 L336.20,310.69 L344.00,307.89 L351.80,307.18 L359.60,308.66 L367.40,312.33 L375.20,318.16 L383.00,326.02 L390.80,335.73 L398.60,347.03 L406.40,359.64 L414.20,373.19 L422.00,387.32 L429.80,401.60 L437.60,415.62 L445.40,428.97 L453.20,441.23 L461.00,452.05 L468.80,461.08 L476.60,468.03 L484.40,472.68 L492.20,474.88 L500.00,474.53 L507.80,471.62 L515.60,466.21 L523.40,458.45 L531.20,448.52 L539.00,436.71 L546.80,423.33 L554.60,408.74 L562.40,393.34 L570.20,377.54 L578.00,361.77 L585.80,346.45 L593.60,331.95 L601.40,318.66 L609.20,306.88 L617.00,296.90 L624.80,288.91 L632.60,283.06 L640.40,279.43 L648.20,278.02 L656.00,278.77 L663.80,281.55 L671.60,286.18 L679.40,292.41 L687.20,299.97 L695.00,308.55 L702.80,317.81 L710.60,327.42 L718.40,337.03 L726.20,346.31 L734.00,354.98 L741.80,362.77 L749.60,369.45 L757.40,374.86 L765.20,378.89 L773.00,381.46 L780.80,382.58 L788.60,382.30 L796.40,380.72 L804.20,378.00 L812.00,374.33 L819.80,369.91 L827.60,365.00 L835.40,359.83 L843.20,354.67 L851.00,349.75 L858.80,345.28 L866.60,341.46 L874.40,338.43 L882.20,336.31 L890.00,335.16"/><path d="M110.00,407.16 L117.80,407.55 L125.60,408.80 L133.40,410.87 L141.20,413.63 L149.00,416.92 L156.80,420.54 L164.60,424.26 L172.40,427.84 L180.20,431.03 L188.00,433.59 L195.80,435.31 L203.60,435.96 L211.40,435.40 L219.20,433.50 L227.00,430.18 L234.80,425.43 L242.60,419.28 L250.40,411.82 L258.20,403.21 L266.00,393.64 L273.80,383.35 L281.60,372.64 L289.40,361.80 L297.20,351.18 L305.00,341.11 L312.80,331.92 L320.60,323.93 L328.40,317.44 L336.20,312.69 L344.00,309.89 L351.80,309.18 L359.60,310.66 L367.40,314.33 L375.20,320.16 L383.00,328.02 L390.80,337.73 L398.60,349.03 L406.40,361.64 L414.20,375.19 L422.00,389.32 L429.80,403.60 L437.60,417.62 L445.40,430.97 L453.20,443.23 L461.00,454.05 L468.80,463.08 L476.60,470.03 L484.40,474.68 L492.20,476.88 L500.00,476.53 L507.80,473.62 L515.60,468.21 L523.40,460.45 L531.20,450.52 L539.00,438.71 L546.80,425.33 L554.60,410.74 L562.40,395.34 L570.20,379.54 L578.00,363.77 L585.80,348.45 L593.60,333.95 L601.40,320.66 L609.20,308.88 L617.00,298.90 L624.80,290.91 L632.60,285.06 L640.40,281.43 L648.20,280.02 L656.00,280.77 L663.80,283.55 L671.60,288.18 L679.40,294.41 L687.20,301.97 L695.00,310.55 L702.80,319.81 L710.60,329.42 L718.40,339.03 L726.20,348.31 L734.00,356.98 L741.80,364.77 L749.60,371.45 L757.40,376.86 L765.20,380.89 L773.00,383.46 L780.80,384.58 L788.60,384.30 L796.40,382.72 L804.20,380.00 L812.00,376.33 L819.80,371.91 L827.60,367.00 L835.40,361.83 L843.20,356.67 L851.00,351.75 L858.80,347.28 L866.60,343.46 L874.40,340.43 L882.20,338.31 L890.00,337.16"/><path d="M110.00,409.16 L117.80,409.55 L125.60,410.80 L133.40,412.87 L141.20,415.63 L149.00,418.92 L156.80,422.54 L164.60,426.26 L172.40,429.84 L180.20,433.03 L188.00,435.59 L195.80,437.31 L203.60,437.96 L211.40,437.40 L219.20,435.50 L227.00,432.18 L234.80,427.43 L242.60,421.28 L250.40,413.82 L258.20,405.21 L266.00,395.64 L273.80,385.35 L281.60,374.64 L289.40,363.80 L297.20,353.18 L305.00,343.11 L312.80,333.92 L320.60,325.93 L328.40,319.44 L336.20,314.69 L344.00,311.89 L351.80,311.18 L359.60,312.66 L367.40,316.33 L375.20,322.16 L383.00,330.02 L390.80,339.73 L398.60,351.03 L406.40,363.64 L414.20,377.19 L422.00,391.32 L429.80,405.60 L437.60,419.62 L445.40,432.97 L453.20,445.23 L461.00,456.05 L468.80,465.08 L476.60,472.03 L484.40,476.68 L492.20,478.88 L500.00,478.53 L507.80,475.62 L515.60,470.21 L523.40,462.45 L531.20,452.52 L539.00,440.71 L546.80,427.33 L554.60,412.74 L562.40,397.34 L570.20,381.54 L578.00,365.77 L585.80,350.45 L593.60,335.95 L601.40,322.66 L609.20,310.88 L617.00,300.90 L624.80,292.91 L632.60,287.06 L640.40,283.43 L648.20,282.02 L656.00,282.77 L663.80,285.55 L671.60,290.18 L679.40,296.41 L687.20,303.97 L695.00,312.55 L702.80,321.81 L710.60,331.42 L718.40,341.03 L726.20,350.31 L734.00,358.98 L741.80,366.77 L749.60,373.45 L757.40,378.86 L765.20,382.89 L773.00,385.46 L780.80,386.58 L788.60,386.30 L796.40,384.72 L804.20,382.00 L812.00,378.33 L819.80,373.91 L827.60,369.00 L835.40,363.83 L843.20,358.67 L851.00,353.75 L858.80,349.28 L866.60,345.46 L874.40,342.43 L882.20,340.31 L890.00,339.16"/><path d="M110.00,411.16 L117.80,411.55 L125.60,412.80 L133.40,414.87 L141.20,417.63 L149.00,420.92 L156.80,424.54 L164.60,428.26 L172.40,431.84 L180.20,435.03 L188.00,437.59 L195.80,439.31 L203.60,439.96 L211.40,439.40 L219.20,437.50 L227.00,434.18 L234.80,429.43 L242.60,423.28 L250.40,415.82 L258.20,407.21 L266.00,397.64 L273.80,387.35 L281.60,376.64 L289.40,365.80 L297.20,355.18 L305.00,345.11 L312.80,335.92 L320.60,327.93 L328.40,321.44 L336.20,316.69 L344.00,313.89 L351.80,313.18 L359.60,314.66 L367.40,318.33 L375.20,324.16 L383.00,332.02 L390.80,341.73 L398.60,353.03 L406.40,365.64 L414.20,379.19 L422.00,393.32 L429.80,407.60 L437.60,421.62 L445.40,434.97 L453.20,447.23 L461.00,458.05 L468.80,467.08 L476.60,474.03 L484.40,478.68 L492.20,480.88 L500.00,480.53 L507.80,477.62 L515.60,472.21 L523.40,464.45 L531.20,454.52 L539.00,442.71 L546.80,429.33 L554.60,414.74 L562.40,399.34 L570.20,383.54 L578.00,367.77 L585.80,352.45 L593.60,337.95 L601.40,324.66 L609.20,312.88 L617.00,302.90 L624.80,294.91 L632.60,289.06 L640.40,285.43 L648.20,284.02 L656.00,284.77 L663.80,287.55 L671.60,292.18 L679.40,298.41 L687.20,305.97 L695.00,314.55 L702.80,323.81 L710.60,333.42 L718.40,343.03 L726.20,352.31 L734.00,360.98 L741.80,368.77 L749.60,375.45 L757.40,380.86 L765.20,384.89 L773.00,387.46 L780.80,388.58 L788.60,388.30 L796.40,386.72 L804.20,384.00 L812.00,380.33 L819.80,375.91 L827.60,371.00 L835.40,365.83 L843.20,360.67 L851.00,355.75 L858.80,351.28 L866.60,347.46 L874.40,344.43 L882.20,342.31 L890.00,341.16"/><path d="M110.00,413.16 L117.80,413.55 L125.60,414.80 L133.40,416.87 L141.20,419.63 L149.00,422.92 L156.80,426.54 L164.60,430.26 L172.40,433.84 L180.20,437.03 L188.00,439.59 L195.80,441.31 L203.60,441.96 L211.40,441.40 L219.20,439.50 L227.00,436.18 L234.80,431.43 L242.60,425.28 L250.40,417.82 L258.20,409.21 L266.00,399.64 L273.80,389.35 L281.60,378.64 L289.40,367.80 L297.20,357.18 L305.00,347.11 L312.80,337.92 L320.60,329.93 L328.40,323.44 L336.20,318.69 L344.00,315.89 L351.80,315.18 L359.60,316.66 L367.40,320.33 L375.20,326.16 L383.00,334.02 L390.80,343.73 L398.60,355.03 L406.40,367.64 L414.20,381.19 L422.00,395.32 L429.80,409.60 L437.60,423.62 L445.40,436.97 L453.20,449.23 L461.00,460.05 L468.80,469.08 L476.60,476.03 L484.40,480.68 L492.20,482.88 L500.00,482.53 L507.80,479.62 L515.60,474.21 L523.40,466.45 L531.20,456.52 L539.00,444.71 L546.80,431.33 L554.60,416.74 L562.40,401.34 L570.20,385.54 L578.00,369.77 L585.80,354.45 L593.60,339.95 L601.40,326.66 L609.20,314.88 L617.00,304.90 L624.80,296.91 L632.60,291.06 L640.40,287.43 L648.20,286.02 L656.00,286.77 L663.80,289.55 L671.60,294.18 L679.40,300.41 L687.20,307.97 L695.00,316.55 L702.80,325.81 L710.60,335.42 L718.40,345.03 L726.20,354.31 L734.00,362.98 L741.80,370.77 L749.60,377.45 L757.40,382.86 L765.20,386.89 L773.00,389.46 L780.80,390.58 L788.60,390.30 L796.40,388.72 L804.20,386.00 L812.00,382.33 L819.80,377.91 L827.60,373.00 L835.40,367.83 L843.20,362.67 L851.00,357.75 L858.80,353.28 L866.60,349.46 L874.40,346.43 L882.20,344.31 L890.00,343.16"/><path d="M110.00,415.16 L117.80,415.55 L125.60,416.80 L133.40,418.87 L141.20,421.63 L149.00,424.92 L156.80,428.54 L164.60,432.26 L172.40,435.84 L180.20,439.03 L188.00,441.59 L195.80,443.31 L203.60,443.96 L211.40,443.40 L219.20,441.50 L227.00,438.18 L234.80,433.43 L242.60,427.28 L250.40,419.82 L258.20,411.21 L266.00,401.64 L273.80,391.35 L281.60,380.64 L289.40,369.80 L297.20,359.18 L305.00,349.11 L312.80,339.92 L320.60,331.93 L328.40,325.44 L336.20,320.69 L344.00,317.89 L351.80,317.18 L359.60,318.66 L367.40,322.33 L375.20,328.16 L383.00,336.02 L390.80,345.73 L398.60,357.03 L406.40,369.64 L414.20,383.19 L422.00,397.32 L429.80,411.60 L437.60,425.62 L445.40,438.97 L453.20,451.23 L461.00,462.05 L468.80,471.08 L476.60,478.03 L484.40,482.68 L492.20,484.88 L500.00,484.53 L507.80,481.62 L515.60,476.21 L523.40,468.45 L531.20,458.52 L539.00,446.71 L546.80,433.33 L554.60,418.74 L562.40,403.34 L570.20,387.54 L578.00,371.77 L585.80,356.45 L593.60,341.95 L601.40,328.66 L609.20,316.88 L617.00,306.90 L624.80,298.91 L632.60,293.06 L640.40,289.43 L648.20,288.02 L656.00,288.77 L663.80,291.55 L671.60,296.18 L679.40,302.41 L687.20,309.97 L695.00,318.55 L702.80,327.81 L710.60,337.42 L718.40,347.03 L726.20,356.31 L734.00,364.98 L741.80,372.77 L749.60,379.45 L757.40,384.86 L765.20,388.89 L773.00,391.46 L780.80,392.58 L788.60,392.30 L796.40,390.72 L804.20,388.00 L812.00,384.33 L819.80,379.91 L827.60,375.00 L835.40,369.83 L843.20,364.67 L851.00,359.75 L858.80,355.28 L866.60,351.46 L874.40,348.43 L882.20,346.31 L890.00,345.16"/><path d="M110.00,417.16 L117.80,417.55 L125.60,418.80 L133.40,420.87 L141.20,423.63 L149.00,426.92 L156.80,430.54 L164.60,434.26 L172.40,437.84 L180.20,441.03 L188.00,443.59 L195.80,445.31 L203.60,445.96 L211.40,445.40 L219.20,443.50 L227.00,440.18 L234.80,435.43 L242.60,429.28 L250.40,421.82 L258.20,413.21 L266.00,403.64 L273.80,393.35 L281.60,382.64 L289.40,371.80 L297.20,361.18 L305.00,351.11 L312.80,341.92 L320.60,333.93 L328.40,327.44 L336.20,322.69 L344.00,319.89 L351.80,319.18 L359.60,320.66 L367.40,324.33 L375.20,330.16 L383.00,338.02 L390.80,347.73 L398.60,359.03 L406.40,371.64 L414.20,385.19 L422.00,399.32 L429.80,413.60 L437.60,427.62 L445.40,440.97 L453.20,453.23 L461.00,464.05 L468.80,473.08 L476.60,480.03 L484.40,484.68 L492.20,486.88 L500.00,486.53 L507.80,483.62 L515.60,478.21 L523.40,470.45 L531.20,460.52 L539.00,448.71 L546.80,435.33 L554.60,420.74 L562.40,405.34 L570.20,389.54 L578.00,373.77 L585.80,358.45 L593.60,343.95 L601.40,330.66 L609.20,318.88 L617.00,308.90 L624.80,300.91 L632.60,295.06 L640.40,291.43 L648.20,290.02 L656.00,290.77 L663.80,293.55 L671.60,298.18 L679.40,304.41 L687.20,311.97 L695.00,320.55 L702.80,329.81 L710.60,339.42 L718.40,349.03 L726.20,358.31 L734.00,366.98 L741.80,374.77 L749.60,381.45 L757.40,386.86 L765.20,390.89 L773.00,393.46 L780.80,394.58 L788.60,394.30 L796.40,392.72 L804.20,390.00 L812.00,386.33 L819.80,381.91 L827.60,377.00 L835.40,371.83 L843.20,366.67 L851.00,361.75 L858.80,357.28 L866.60,353.46 L874.40,350.43 L882.20,348.31 L890.00,347.16"/><path d="M110.00,419.16 L117.80,419.55 L125.60,420.80 L133.40,422.87 L141.20,425.63 L149.00,428.92 L156.80,432.54 L164.60,436.26 L172.40,439.84 L180.20,443.03 L188.00,445.59 L195.80,447.31 L203.60,447.96 L211.40,447.40 L219.20,445.50 L227.00,442.18 L234.80,437.43 L242.60,431.28 L250.40,423.82 L258.20,415.21 L266.00,405.64 L273.80,395.35 L281.60,384.64 L289.40,373.80 L297.20,363.18 L305.00,353.11 L312.80,343.92 L320.60,335.93 L328.40,329.44 L336.20,324.69 L344.00,321.89 L351.80,321.18 L359.60,322.66 L367.40,326.33 L375.20,332.16 L383.00,340.02 L390.80,349.73 L398.60,361.03 L406.40,373.64 L414.20,387.19 L422.00,401.32 L429.80,415.60 L437.60,429.62 L445.40,442.97 L453.20,455.23 L461.00,466.05 L468.80,475.08 L476.60,482.03 L484.40,486.68 L492.20,488.88 L500.00,488.53 L507.80,485.62 L515.60,480.21 L523.40,472.45 L531.20,462.52 L539.00,450.71 L546.80,437.33 L554.60,422.74 L562.40,407.34 L570.20,391.54 L578.00,375.77 L585.80,360.45 L593.60,345.95 L601.40,332.66 L609.20,320.88 L617.00,310.90 L624.80,302.91 L632.60,297.06 L640.40,293.43 L648.20,292.02 L656.00,292.77 L663.80,295.55 L671.60,300.18 L679.40,306.41 L687.20,313.97 L695.00,322.55 L702.80,331.81 L710.60,341.42 L718.40,351.03 L726.20,360.31 L734.00,368.98 L741.80,376.77 L749.60,383.45 L757.40,388.86 L765.20,392.89 L773.00,395.46 L780.80,396.58 L788.60,396.30 L796.40,394.72 L804.20,392.00 L812.00,388.33 L819.80,383.91 L827.60,379.00 L835.40,373.83 L843.20,368.67 L851.00,363.75 L858.80,359.28 L866.60,355.46 L874.40,352.43 L882.20,350.31 L890.00,349.16"/><path d="M110.00,421.16 L117.80,421.55 L125.60,422.80 L133.40,424.87 L141.20,427.63 L149.00,430.92 L156.80,434.54 L164.60,438.26 L172.40,441.84 L180.20,445.03 L188.00,447.59 L195.80,449.31 L203.60,449.96 L211.40,449.40 L219.20,447.50 L227.00,444.18 L234.80,439.43 L242.60,433.28 L250.40,425.82 L258.20,417.21 L266.00,407.64 L273.80,397.35 L281.60,386.64 L289.40,375.80 L297.20,365.18 L305.00,355.11 L312.80,345.92 L320.60,337.93 L328.40,331.44 L336.20,326.69 L344.00,323.89 L351.80,323.18 L359.60,324.66 L367.40,328.33 L375.20,334.16 L383.00,342.02 L390.80,351.73 L398.60,363.03 L406.40,375.64 L414.20,389.19 L422.00,403.32 L429.80,417.60 L437.60,431.62 L445.40,444.97 L453.20,457.23 L461.00,468.05 L468.80,477.08 L476.60,484.03 L484.40,488.68 L492.20,490.88 L500.00,490.53 L507.80,487.62 L515.60,482.21 L523.40,474.45 L531.20,464.52 L539.00,452.71 L546.80,439.33 L554.60,424.74 L562.40,409.34 L570.20,393.54 L578.00,377.77 L585.80,362.45 L593.60,347.95 L601.40,334.66 L609.20,322.88 L617.00,312.90 L624.80,304.91 L632.60,299.06 L640.40,295.43 L648.20,294.02 L656.00,294.77 L663.80,297.55 L671.60,302.18 L679.40,308.41 L687.20,315.97 L695.00,324.55 L702.80,333.81 L710.60,343.42 L718.40,353.03 L726.20,362.31 L734.00,370.98 L741.80,378.77 L749.60,385.45 L757.40,390.86 L765.20,394.89 L773.00,397.46 L780.80,398.58 L788.60,398.30 L796.40,396.72 L804.20,394.00 L812.00,390.33 L819.80,385.91 L827.60,381.00 L835.40,375.83 L843.20,370.67 L851.00,365.75 L858.80,361.28 L866.60,357.46 L874.40,354.43 L882.20,352.31 L890.00,351.16"/><path d="M110.00,423.16 L117.80,423.55 L125.60,424.80 L133.40,426.87 L141.20,429.63 L149.00,432.92 L156.80,436.54 L164.60,440.26 L172.40,443.84 L180.20,447.03 L188.00,449.59 L195.80,451.31 L203.60,451.96 L211.40,451.40 L219.20,449.50 L227.00,446.18 L234.80,441.43 L242.60,435.28 L250.40,427.82 L258.20,419.21 L266.00,409.64 L273.80,399.35 L281.60,388.64 L289.40,377.80 L297.20,367.18 L305.00,357.11 L312.80,347.92 L320.60,339.93 L328.40,333.44 L336.20,328.69 L344.00,325.89 L351.80,325.18 L359.60,326.66 L367.40,330.33 L375.20,336.16 L383.00,344.02 L390.80,353.73 L398.60,365.03 L406.40,377.64 L414.20,391.19 L422.00,405.32 L429.80,419.60 L437.60,433.62 L445.40,446.97 L453.20,459.23 L461.00,470.05 L468.80,479.08 L476.60,486.03 L484.40,490.68 L492.20,492.88 L500.00,492.53 L507.80,489.62 L515.60,484.21 L523.40,476.45 L531.20,466.52 L539.00,454.71 L546.80,441.33 L554.60,426.74 L562.40,411.34 L570.20,395.54 L578.00,379.77 L585.80,364.45 L593.60,349.95 L601.40,336.66 L609.20,324.88 L617.00,314.90 L624.80,306.91 L632.60,301.06 L640.40,297.43 L648.20,296.02 L656.00,296.77 L663.80,299.55 L671.60,304.18 L679.40,310.41 L687.20,317.97 L695.00,326.55 L702.80,335.81 L710.60,345.42 L718.40,355.03 L726.20,364.31 L734.00,372.98 L741.80,380.77 L749.60,387.45 L757.40,392.86 L765.20,396.89 L773.00,399.46 L780.80,400.58 L788.60,400.30 L796.40,398.72 L804.20,396.00 L812.00,392.33 L819.80,387.91 L827.60,383.00 L835.40,377.83 L843.20,372.67 L851.00,367.75 L858.80,363.28 L866.60,359.46 L874.40,356.43 L882.20,354.31 L890.00,353.16"/><path d="M110.00,425.16 L117.80,425.55 L125.60,426.80 L133.40,428.87 L141.20,431.63 L149.00,434.92 L156.80,438.54 L164.60,442.26 L172.40,445.84 L180.20,449.03 L188.00,451.59 L195.80,453.31 L203.60,453.96 L211.40,453.40 L219.20,451.50 L227.00,448.18 L234.80,443.43 L242.60,437.28 L250.40,429.82 L258.20,421.21 L266.00,411.64 L273.80,401.35 L281.60,390.64 L289.40,379.80 L297.20,369.18 L305.00,359.11 L312.80,349.92 L320.60,341.93 L328.40,335.44 L336.20,330.69 L344.00,327.89 L351.80,327.18 L359.60,328.66 L367.40,332.33 L375.20,338.16 L383.00,346.02 L390.80,355.73 L398.60,367.03 L406.40,379.64 L414.20,393.19 L422.00,407.32 L429.80,421.60 L437.60,435.62 L445.40,448.97 L453.20,461.23 L461.00,472.05 L468.80,481.08 L476.60,488.03 L484.40,492.68 L492.20,494.88 L500.00,494.53 L507.80,491.62 L515.60,486.21 L523.40,478.45 L531.20,468.52 L539.00,456.71 L546.80,443.33 L554.60,428.74 L562.40,413.34 L570.20,397.54 L578.00,381.77 L585.80,366.45 L593.60,351.95 L601.40,338.66 L609.20,326.88 L617.00,316.90 L624.80,308.91 L632.60,303.06 L640.40,299.43 L648.20,298.02 L656.00,298.77 L663.80,301.55 L671.60,306.18 L679.40,312.41 L687.20,319.97 L695.00,328.55 L702.80,337.81 L710.60,347.42 L718.40,357.03 L726.20,366.31 L734.00,374.98 L741.80,382.77 L749.60,389.45 L757.40,394.86 L765.20,398.89 L773.00,401.46 L780.80,402.58 L788.60,402.30 L796.40,400.72 L804.20,398.00 L812.00,394.33 L819.80,389.91 L827.60,385.00 L835.40,379.83 L843.20,374.67 L851.00,369.75 L858.80,365.28 L866.60,361.46 L874.40,358.43 L882.20,356.31 L890.00,355.16"/><path d="M110.00,427.16 L117.80,427.55 L125.60,428.80 L133.40,430.87 L141.20,433.63 L149.00,436.92 L156.80,440.54 L164.60,444.26 L172.40,447.84 L180.20,451.03 L188.00,453.59 L195.80,455.31 L203.60,455.96 L211.40,455.40 L219.20,453.50 L227.00,450.18 L234.80,445.43 L242.60,439.28 L250.40,431.82 L258.20,423.21 L266.00,413.64 L273.80,403.35 L281.60,392.64 L289.40,381.80 L297.20,371.18 L305.00,361.11 L312.80,351.92 L320.60,343.93 L328.40,337.44 L336.20,332.69 L344.00,329.89 L351.80,329.18 L359.60,330.66 L367.40,334.33 L375.20,340.16 L383.00,348.02 L390.80,357.73 L398.60,369.03 L406.40,381.64 L414.20,395.19 L422.00,409.32 L429.80,423.60 L437.60,437.62 L445.40,450.97 L453.20,463.23 L461.00,474.05 L468.80,483.08 L476.60,490.03 L484.40,494.68 L492.20,496.88 L500.00,496.53 L507.80,493.62 L515.60,488.21 L523.40,480.45 L531.20,470.52 L539.00,458.71 L546.80,445.33 L554.60,430.74 L562.40,415.34 L570.20,399.54 L578.00,383.77 L585.80,368.45 L593.60,353.95 L601.40,340.66 L609.20,328.88 L617.00,318.90 L624.80,310.91 L632.60,305.06 L640.40,301.43 L648.20,300.02 L656.00,300.77 L663.80,303.55 L671.60,308.18 L679.40,314.41 L687.20,321.97 L695.00,330.55 L702.80,339.81 L710.60,349.42 L718.40,359.03 L726.20,368.31 L734.00,376.98 L741.80,384.77 L749.60,391.45 L757.40,396.86 L765.20,400.89 L773.00,403.46 L780.80,404.58 L788.60,404.30 L796.40,402.72 L804.20,400.00 L812.00,396.33 L819.80,391.91 L827.60,387.00 L835.40,381.83 L843.20,376.67 L851.00,371.75 L858.80,367.28 L866.60,363.46 L874.40,360.43 L882.20,358.31 L890.00,357.16"/><path d="M110.00,429.16 L117.80,429.55 L125.60,430.80 L133.40,432.87 L141.20,435.63 L149.00,438.92 L156.80,442.54 L164.60,446.26 L172.40,449.84 L180.20,453.03 L188.00,455.59 L195.80,457.31 L203.60,457.96 L211.40,457.40 L219.20,455.50 L227.00,452.18 L234.80,447.43 L242.60,441.28 L250.40,433.82 L258.20,425.21 L266.00,415.64 L273.80,405.35 L281.60,394.64 L289.40,383.80 L297.20,373.18 L305.00,363.11 L312.80,353.92 L320.60,345.93 L328.40,339.44 L336.20,334.69 L344.00,331.89 L351.80,331.18 L359.60,332.66 L367.40,336.33 L375.20,342.16 L383.00,350.02 L390.80,359.73 L398.60,371.03 L406.40,383.64 L414.20,397.19 L422.00,411.32 L429.80,425.60 L437.60,439.62 L445.40,452.97 L453.20,465.23 L461.00,476.05 L468.80,485.08 L476.60,492.03 L484.40,496.68 L492.20,498.88 L500.00,498.53 L507.80,495.62 L515.60,490.21 L523.40,482.45 L531.20,472.52 L539.00,460.71 L546.80,447.33 L554.60,432.74 L562.40,417.34 L570.20,401.54 L578.00,385.77 L585.80,370.45 L593.60,355.95 L601.40,342.66 L609.20,330.88 L617.00,320.90 L624.80,312.91 L632.60,307.06 L640.40,303.43 L648.20,302.02 L656.00,302.77 L663.80,305.55 L671.60,310.18 L679.40,316.41 L687.20,323.97 L695.00,332.55 L702.80,341.81 L710.60,351.42 L718.40,361.03 L726.20,370.31 L734.00,378.98 L741.80,386.77 L749.60,393.45 L757.40,398.86 L765.20,402.89 L773.00,405.46 L780.80,406.58 L788.60,406.30 L796.40,404.72 L804.20,402.00 L812.00,398.33 L819.80,393.91 L827.60,389.00 L835.40,383.83 L843.20,378.67 L851.00,373.75 L858.80,369.28 L866.60,365.46 L874.40,362.43 L882.20,360.31 L890.00,359.16"/><path d="M110.00,431.16 L117.80,431.55 L125.60,432.80 L133.40,434.87 L141.20,437.63 L149.00,440.92 L156.80,444.54 L164.60,448.26 L172.40,451.84 L180.20,455.03 L188.00,457.59 L195.80,459.31 L203.60,459.96 L211.40,459.40 L219.20,457.50 L227.00,454.18 L234.80,449.43 L242.60,443.28 L250.40,435.82 L258.20,427.21 L266.00,417.64 L273.80,407.35 L281.60,396.64 L289.40,385.80 L297.20,375.18 L305.00,365.11 L312.80,355.92 L320.60,347.93 L328.40,341.44 L336.20,336.69 L344.00,333.89 L351.80,333.18 L359.60,334.66 L367.40,338.33 L375.20,344.16 L383.00,352.02 L390.80,361.73 L398.60,373.03 L406.40,385.64 L414.20,399.19 L422.00,413.32 L429.80,427.60 L437.60,441.62 L445.40,454.97 L453.20,467.23 L461.00,478.05 L468.80,487.08 L476.60,494.03 L484.40,498.68 L492.20,500.88 L500.00,500.53 L507.80,497.62 L515.60,492.21 L523.40,484.45 L531.20,474.52 L539.00,462.71 L546.80,449.33 L554.60,434.74 L562.40,419.34 L570.20,403.54 L578.00,387.77 L585.80,372.45 L593.60,357.95 L601.40,344.66 L609.20,332.88 L617.00,322.90 L624.80,314.91 L632.60,309.06 L640.40,305.43 L648.20,304.02 L656.00,304.77 L663.80,307.55 L671.60,312.18 L679.40,318.41 L687.20,325.97 L695.00,334.55 L702.80,343.81 L710.60,353.42 L718.40,363.03 L726.20,372.31 L734.00,380.98 L741.80,388.77 L749.60,395.45 L757.40,400.86 L765.20,404.89 L773.00,407.46 L780.80,408.58 L788.60,408.30 L796.40,406.72 L804.20,404.00 L812.00,400.33 L819.80,395.91 L827.60,391.00 L835.40,385.83 L843.20,380.67 L851.00,375.75 L858.80,371.28 L866.60,367.46 L874.40,364.43 L882.20,362.31 L890.00,361.16"/><path d="M110.00,433.16 L117.80,433.55 L125.60,434.80 L133.40,436.87 L141.20,439.63 L149.00,442.92 L156.80,446.54 L164.60,450.26 L172.40,453.84 L180.20,457.03 L188.00,459.59 L195.80,461.31 L203.60,461.96 L211.40,461.40 L219.20,459.50 L227.00,456.18 L234.80,451.43 L242.60,445.28 L250.40,437.82 L258.20,429.21 L266.00,419.64 L273.80,409.35 L281.60,398.64 L289.40,387.80 L297.20,377.18 L305.00,367.11 L312.80,357.92 L320.60,349.93 L328.40,343.44 L336.20,338.69 L344.00,335.89 L351.80,335.18 L359.60,336.66 L367.40,340.33 L375.20,346.16 L383.00,354.02 L390.80,363.73 L398.60,375.03 L406.40,387.64 L414.20,401.19 L422.00,415.32 L429.80,429.60 L437.60,443.62 L445.40,456.97 L453.20,469.23 L461.00,480.05 L468.80,489.08 L476.60,496.03 L484.40,500.68 L492.20,502.88 L500.00,502.53 L507.80,499.62 L515.60,494.21 L523.40,486.45 L531.20,476.52 L539.00,464.71 L546.80,451.33 L554.60,436.74 L562.40,421.34 L570.20,405.54 L578.00,389.77 L585.80,374.45 L593.60,359.95 L601.40,346.66 L609.20,334.88 L617.00,324.90 L624.80,316.91 L632.60,311.06 L640.40,307.43 L648.20,306.02 L656.00,306.77 L663.80,309.55 L671.60,314.18 L679.40,320.41 L687.20,327.97 L695.00,336.55 L702.80,345.81 L710.60,355.42 L718.40,365.03 L726.20,374.31 L734.00,382.98 L741.80,390.77 L749.60,397.45 L757.40,402.86 L765.20,406.89 L773.00,409.46 L780.80,410.58 L788.60,410.30 L796.40,408.72 L804.20,406.00 L812.00,402.33 L819.80,397.91 L827.60,393.00 L835.40,387.83 L843.20,382.67 L851.00,377.75 L858.80,373.28 L866.60,369.46 L874.40,366.43 L882.20,364.31 L890.00,363.16"/><path d="M110.00,435.16 L117.80,435.55 L125.60,436.80 L133.40,438.87 L141.20,441.63 L149.00,444.92 L156.80,448.54 L164.60,452.26 L172.40,455.84 L180.20,459.03 L188.00,461.59 L195.80,463.31 L203.60,463.96 L211.40,463.40 L219.20,461.50 L227.00,458.18 L234.80,453.43 L242.60,447.28 L250.40,439.82 L258.20,431.21 L266.00,421.64 L273.80,411.35 L281.60,400.64 L289.40,389.80 L297.20,379.18 L305.00,369.11 L312.80,359.92 L320.60,351.93 L328.40,345.44 L336.20,340.69 L344.00,337.89 L351.80,337.18 L359.60,338.66 L367.40,342.33 L375.20,348.16 L383.00,356.02 L390.80,365.73 L398.60,377.03 L406.40,389.64 L414.20,403.19 L422.00,417.32 L429.80,431.60 L437.60,445.62 L445.40,458.97 L453.20,471.23 L461.00,482.05 L468.80,491.08 L476.60,498.03 L484.40,502.68 L492.20,504.88 L500.00,504.53 L507.80,501.62 L515.60,496.21 L523.40,488.45 L531.20,478.52 L539.00,466.71 L546.80,453.33 L554.60,438.74 L562.40,423.34 L570.20,407.54 L578.00,391.77 L585.80,376.45 L593.60,361.95 L601.40,348.66 L609.20,336.88 L617.00,326.90 L624.80,318.91 L632.60,313.06 L640.40,309.43 L648.20,308.02 L656.00,308.77 L663.80,311.55 L671.60,316.18 L679.40,322.41 L687.20,329.97 L695.00,338.55 L702.80,347.81 L710.60,357.42 L718.40,367.03 L726.20,376.31 L734.00,384.98 L741.80,392.77 L749.60,399.45 L757.40,404.86 L765.20,408.89 L773.00,411.46 L780.80,412.58 L788.60,412.30 L796.40,410.72 L804.20,408.00 L812.00,404.33 L819.80,399.91 L827.60,395.00 L835.40,389.83 L843.20,384.67 L851.00,379.75 L858.80,375.28 L866.60,371.46 L874.40,368.43 L882.20,366.31 L890.00,365.16"/><path d="M110.00,437.16 L117.80,437.55 L125.60,438.80 L133.40,440.87 L141.20,443.63 L149.00,446.92 L156.80,450.54 L164.60,454.26 L172.40,457.84 L180.20,461.03 L188.00,463.59 L195.80,465.31 L203.60,465.96 L211.40,465.40 L219.20,463.50 L227.00,460.18 L234.80,455.43 L242.60,449.28 L250.40,441.82 L258.20,433.21 L266.00,423.64 L273.80,413.35 L281.60,402.64 L289.40,391.80 L297.20,381.18 L305.00,371.11 L312.80,361.92 L320.60,353.93 L328.40,347.44 L336.20,342.69 L344.00,339.89 L351.80,339.18 L359.60,340.66 L367.40,344.33 L375.20,350.16 L383.00,358.02 L390.80,367.73 L398.60,379.03 L406.40,391.64 L414.20,405.19 L422.00,419.32 L429.80,433.60 L437.60,447.62 L445.40,460.97 L453.20,473.23 L461.00,484.05 L468.80,493.08 L476.60,500.03 L484.40,504.68 L492.20,506.88 L500.00,506.53 L507.80,503.62 L515.60,498.21 L523.40,490.45 L531.20,480.52 L539.00,468.71 L546.80,455.33 L554.60,440.74 L562.40,425.34 L570.20,409.54 L578.00,393.77 L585.80,378.45 L593.60,363.95 L601.40,350.66 L609.20,338.88 L617.00,328.90 L624.80,320.91 L632.60,315.06 L640.40,311.43 L648.20,310.02 L656.00,310.77 L663.80,313.55 L671.60,318.18 L679.40,324.41 L687.20,331.97 L695.00,340.55 L702.80,349.81 L710.60,359.42 L718.40,369.03 L726.20,378.31 L734.00,386.98 L741.80,394.77 L749.60,401.45 L757.40,406.86 L765.20,410.89 L773.00,413.46 L780.80,414.58 L788.60,414.30 L796.40,412.72 L804.20,410.00 L812.00,406.33 L819.80,401.91 L827.60,397.00 L835.40,391.83 L843.20,386.67 L851.00,381.75 L858.80,377.28 L866.60,373.46 L874.40,370.43 L882.20,368.31 L890.00,367.16"/><path d="M110.00,439.16 L117.80,439.55 L125.60,440.80 L133.40,442.87 L141.20,445.63 L149.00,448.92 L156.80,452.54 L164.60,456.26 L172.40,459.84 L180.20,463.03 L188.00,465.59 L195.80,467.31 L203.60,467.96 L211.40,467.40 L219.20,465.50 L227.00,462.18 L234.80,457.43 L242.60,451.28 L250.40,443.82 L258.20,435.21 L266.00,425.64 L273.80,415.35 L281.60,404.64 L289.40,393.80 L297.20,383.18 L305.00,373.11 L312.80,363.92 L320.60,355.93 L328.40,349.44 L336.20,344.69 L344.00,341.89 L351.80,341.18 L359.60,342.66 L367.40,346.33 L375.20,352.16 L383.00,360.02 L390.80,369.73 L398.60,381.03 L406.40,393.64 L414.20,407.19 L422.00,421.32 L429.80,435.60 L437.60,449.62 L445.40,462.97 L453.20,475.23 L461.00,486.05 L468.80,495.08 L476.60,502.03 L484.40,506.68 L492.20,508.88 L500.00,508.53 L507.80,505.62 L515.60,500.21 L523.40,492.45 L531.20,482.52 L539.00,470.71 L546.80,457.33 L554.60,442.74 L562.40,427.34 L570.20,411.54 L578.00,395.77 L585.80,380.45 L593.60,365.95 L601.40,352.66 L609.20,340.88 L617.00,330.90 L624.80,322.91 L632.60,317.06 L640.40,313.43 L648.20,312.02 L656.00,312.77 L663.80,315.55 L671.60,320.18 L679.40,326.41 L687.20,333.97 L695.00,342.55 L702.80,351.81 L710.60,361.42 L718.40,371.03 L726.20,380.31 L734.00,388.98 L741.80,396.77 L749.60,403.45 L757.40,408.86 L765.20,412.89 L773.00,415.46 L780.80,416.58 L788.60,416.30 L796.40,414.72 L804.20,412.00 L812.00,408.33 L819.80,403.91 L827.60,399.00 L835.40,393.83 L843.20,388.67 L851.00,383.75 L858.80,379.28 L866.60,375.46 L874.40,372.43 L882.20,370.31 L890.00,369.16"/><path d="M110.00,441.16 L117.80,441.55 L125.60,442.80 L133.40,444.87 L141.20,447.63 L149.00,450.92 L156.80,454.54 L164.60,458.26 L172.40,461.84 L180.20,465.03 L188.00,467.59 L195.80,469.31 L203.60,469.96 L211.40,469.40 L219.20,467.50 L227.00,464.18 L234.80,459.43 L242.60,453.28 L250.40,445.82 L258.20,437.21 L266.00,427.64 L273.80,417.35 L281.60,406.64 L289.40,395.80 L297.20,385.18 L305.00,375.11 L312.80,365.92 L320.60,357.93 L328.40,351.44 L336.20,346.69 L344.00,343.89 L351.80,343.18 L359.60,344.66 L367.40,348.33 L375.20,354.16 L383.00,362.02 L390.80,371.73 L398.60,383.03 L406.40,395.64 L414.20,409.19 L422.00,423.32 L429.80,437.60 L437.60,451.62 L445.40,464.97 L453.20,477.23 L461.00,488.05 L468.80,497.08 L476.60,504.03 L484.40,508.68 L492.20,510.88 L500.00,510.53 L507.80,507.62 L515.60,502.21 L523.40,494.45 L531.20,484.52 L539.00,472.71 L546.80,459.33 L554.60,444.74 L562.40,429.34 L570.20,413.54 L578.00,397.77 L585.80,382.45 L593.60,367.95 L601.40,354.66 L609.20,342.88 L617.00,332.90 L624.80,324.91 L632.60,319.06 L640.40,315.43 L648.20,314.02 L656.00,314.77 L663.80,317.55 L671.60,322.18 L679.40,328.41 L687.20,335.97 L695.00,344.55 L702.80,353.81 L710.60,363.42 L718.40,373.03 L726.20,382.31 L734.00,390.98 L741.80,398.77 L749.60,405.45 L757.40,410.86 L765.20,414.89 L773.00,417.46 L780.80,418.58 L788.60,418.30 L796.40,416.72 L804.20,414.00 L812.00,410.33 L819.80,405.91 L827.60,401.00 L835.40,395.83 L843.20,390.67 L851.00,385.75 L858.80,381.28 L866.60,377.46 L874.40,374.43 L882.20,372.31 L890.00,371.16"/><path d="M110.00,443.16 L117.80,443.55 L125.60,444.80 L133.40,446.87 L141.20,449.63 L149.00,452.92 L156.80,456.54 L164.60,460.26 L172.40,463.84 L180.20,467.03 L188.00,469.59 L195.80,471.31 L203.60,471.96 L211.40,471.40 L219.20,469.50 L227.00,466.18 L234.80,461.43 L242.60,455.28 L250.40,447.82 L258.20,439.21 L266.00,429.64 L273.80,419.35 L281.60,408.64 L289.40,397.80 L297.20,387.18 L305.00,377.11 L312.80,367.92 L320.60,359.93 L328.40,353.44 L336.20,348.69 L344.00,345.89 L351.80,345.18 L359.60,346.66 L367.40,350.33 L375.20,356.16 L383.00,364.02 L390.80,373.73 L398.60,385.03 L406.40,397.64 L414.20,411.19 L422.00,425.32 L429.80,439.60 L437.60,453.62 L445.40,466.97 L453.20,479.23 L461.00,490.05 L468.80,499.08 L476.60,506.03 L484.40,510.68 L492.20,512.88 L500.00,512.53 L507.80,509.62 L515.60,504.21 L523.40,496.45 L531.20,486.52 L539.00,474.71 L546.80,461.33 L554.60,446.74 L562.40,431.34 L570.20,415.54 L578.00,399.77 L585.80,384.45 L593.60,369.95 L601.40,356.66 L609.20,344.88 L617.00,334.90 L624.80,326.91 L632.60,321.06 L640.40,317.43 L648.20,316.02 L656.00,316.77 L663.80,319.55 L671.60,324.18 L679.40,330.41 L687.20,337.97 L695.00,346.55 L702.80,355.81 L710.60,365.42 L718.40,375.03 L726.20,384.31 L734.00,392.98 L741.80,400.77 L749.60,407.45 L757.40,412.86 L765.20,416.89 L773.00,419.46 L780.80,420.58 L788.60,420.30 L796.40,418.72 L804.20,416.00 L812.00,412.33 L819.80,407.91 L827.60,403.00 L835.40,397.83 L843.20,392.67 L851.00,387.75 L858.80,383.28 L866.60,379.46 L874.40,376.43 L882.20,374.31 L890.00,373.16"/><path d="M110.00,445.16 L117.80,445.55 L125.60,446.80 L133.40,448.87 L141.20,451.63 L149.00,454.92 L156.80,458.54 L164.60,462.26 L172.40,465.84 L180.20,469.03 L188.00,471.59 L195.80,473.31 L203.60,473.96 L211.40,473.40 L219.20,471.50 L227.00,468.18 L234.80,463.43 L242.60,457.28 L250.40,449.82 L258.20,441.21 L266.00,431.64 L273.80,421.35 L281.60,410.64 L289.40,399.80 L297.20,389.18 L305.00,379.11 L312.80,369.92 L320.60,361.93 L328.40,355.44 L336.20,350.69 L344.00,347.89 L351.80,347.18 L359.60,348.66 L367.40,352.33 L375.20,358.16 L383.00,366.02 L390.80,375.73 L398.60,387.03 L406.40,399.64 L414.20,413.19 L422.00,427.32 L429.80,441.60 L437.60,455.62 L445.40,468.97 L453.20,481.23 L461.00,492.05 L468.80,501.08 L476.60,508.03 L484.40,512.68 L492.20,514.88 L500.00,514.53 L507.80,511.62 L515.60,506.21 L523.40,498.45 L531.20,488.52 L539.00,476.71 L546.80,463.33 L554.60,448.74 L562.40,433.34 L570.20,417.54 L578.00,401.77 L585.80,386.45 L593.60,371.95 L601.40,358.66 L609.20,346.88 L617.00,336.90 L624.80,328.91 L632.60,323.06 L640.40,319.43 L648.20,318.02 L656.00,318.77 L663.80,321.55 L671.60,326.18 L679.40,332.41 L687.20,339.97 L695.00,348.55 L702.80,357.81 L710.60,367.42 L718.40,377.03 L726.20,386.31 L734.00,394.98 L741.80,402.77 L749.60,409.45 L757.40,414.86 L765.20,418.89 L773.00,421.46 L780.80,422.58 L788.60,422.30 L796.40,420.72 L804.20,418.00 L812.00,414.33 L819.80,409.91 L827.60,405.00 L835.40,399.83 L843.20,394.67 L851.00,389.75 L858.80,385.28 L866.60,381.46 L874.40,378.43 L882.20,376.31 L890.00,375.16"/><path d="M110.00,447.16 L117.80,447.55 L125.60,448.80 L133.40,450.87 L141.20,453.63 L149.00,456.92 L156.80,460.54 L164.60,464.26 L172.40,467.84 L180.20,471.03 L188.00,473.59 L195.80,475.31 L203.60,475.96 L211.40,475.40 L219.20,473.50 L227.00,470.18 L234.80,465.43 L242.60,459.28 L250.40,451.82 L258.20,443.21 L266.00,433.64 L273.80,423.35 L281.60,412.64 L289.40,401.80 L297.20,391.18 L305.00,381.11 L312.80,371.92 L320.60,363.93 L328.40,357.44 L336.20,352.69 L344.00,349.89 L351.80,349.18 L359.60,350.66 L367.40,354.33 L375.20,360.16 L383.00,368.02 L390.80,377.73 L398.60,389.03 L406.40,401.64 L414.20,415.19 L422.00,429.32 L429.80,443.60 L437.60,457.62 L445.40,470.97 L453.20,483.23 L461.00,494.05 L468.80,503.08 L476.60,510.03 L484.40,514.68 L492.20,516.88 L500.00,516.53 L507.80,513.62 L515.60,508.21 L523.40,500.45 L531.20,490.52 L539.00,478.71 L546.80,465.33 L554.60,450.74 L562.40,435.34 L570.20,419.54 L578.00,403.77 L585.80,388.45 L593.60,373.95 L601.40,360.66 L609.20,348.88 L617.00,338.90 L624.80,330.91 L632.60,325.06 L640.40,321.43 L648.20,320.02 L656.00,320.77 L663.80,323.55 L671.60,328.18 L679.40,334.41 L687.20,341.97 L695.00,350.55 L702.80,359.81 L710.60,369.42 L718.40,379.03 L726.20,388.31 L734.00,396.98 L741.80,404.77 L749.60,411.45 L757.40,416.86 L765.20,420.89 L773.00,423.46 L780.80,424.58 L788.60,424.30 L796.40,422.72 L804.20,420.00 L812.00,416.33 L819.80,411.91 L827.60,407.00 L835.40,401.83 L843.20,396.67 L851.00,391.75 L858.80,387.28 L866.60,383.46 L874.40,380.43 L882.20,378.31 L890.00,377.16"/><path d="M110.00,449.16 L117.80,449.55 L125.60,450.80 L133.40,452.87 L141.20,455.63 L149.00,458.92 L156.80,462.54 L164.60,466.26 L172.40,469.84 L180.20,473.03 L188.00,475.59 L195.80,477.31 L203.60,477.96 L211.40,477.40 L219.20,475.50 L227.00,472.18 L234.80,467.43 L242.60,461.28 L250.40,453.82 L258.20,445.21 L266.00,435.64 L273.80,425.35 L281.60,414.64 L289.40,403.80 L297.20,393.18 L305.00,383.11 L312.80,373.92 L320.60,365.93 L328.40,359.44 L336.20,354.69 L344.00,351.89 L351.80,351.18 L359.60,352.66 L367.40,356.33 L375.20,362.16 L383.00,370.02 L390.80,379.73 L398.60,391.03 L406.40,403.64 L414.20,417.19 L422.00,431.32 L429.80,445.60 L437.60,459.62 L445.40,472.97 L453.20,485.23 L461.00,496.05 L468.80,505.08 L476.60,512.03 L484.40,516.68 L492.20,518.88 L500.00,518.53 L507.80,515.62 L515.60,510.21 L523.40,502.45 L531.20,492.52 L539.00,480.71 L546.80,467.33 L554.60,452.74 L562.40,437.34 L570.20,421.54 L578.00,405.77 L585.80,390.45 L593.60,375.95 L601.40,362.66 L609.20,350.88 L617.00,340.90 L624.80,332.91 L632.60,327.06 L640.40,323.43 L648.20,322.02 L656.00,322.77 L663.80,325.55 L671.60,330.18 L679.40,336.41 L687.20,343.97 L695.00,352.55 L702.80,361.81 L710.60,371.42 L718.40,381.03 L726.20,390.31 L734.00,398.98 L741.80,406.77 L749.60,413.45 L757.40,418.86 L765.20,422.89 L773.00,425.46 L780.80,426.58 L788.60,426.30 L796.40,424.72 L804.20,422.00 L812.00,418.33 L819.80,413.91 L827.60,409.00 L835.40,403.83 L843.20,398.67 L851.00,393.75 L858.80,389.28 L866.60,385.46 L874.40,382.43 L882.20,380.31 L890.00,379.16"/><path d="M110.00,451.16 L117.80,451.55 L125.60,452.80 L133.40,454.87 L141.20,457.63 L149.00,460.92 L156.80,464.54 L164.60,468.26 L172.40,471.84 L180.20,475.03 L188.00,477.59 L195.80,479.31 L203.60,479.96 L211.40,479.40 L219.20,477.50 L227.00,474.18 L234.80,469.43 L242.60,463.28 L250.40,455.82 L258.20,447.21 L266.00,437.64 L273.80,427.35 L281.60,416.64 L289.40,405.80 L297.20,395.18 L305.00,385.11 L312.80,375.92 L320.60,367.93 L328.40,361.44 L336.20,356.69 L344.00,353.89 L351.80,353.18 L359.60,354.66 L367.40,358.33 L375.20,364.16 L383.00,372.02 L390.80,381.73 L398.60,393.03 L406.40,405.64 L414.20,419.19 L422.00,433.32 L429.80,447.60 L437.60,461.62 L445.40,474.97 L453.20,487.23 L461.00,498.05 L468.80,507.08 L476.60,514.03 L484.40,518.68 L492.20,520.88 L500.00,520.53 L507.80,517.62 L515.60,512.21 L523.40,504.45 L531.20,494.52 L539.00,482.71 L546.80,469.33 L554.60,454.74 L562.40,439.34 L570.20,423.54 L578.00,407.77 L585.80,392.45 L593.60,377.95 L601.40,364.66 L609.20,352.88 L617.00,342.90 L624.80,334.91 L632.60,329.06 L640.40,325.43 L648.20,324.02 L656.00,324.77 L663.80,327.55 L671.60,332.18 L679.40,338.41 L687.20,345.97 L695.00,354.55 L702.80,363.81 L710.60,373.42 L718.40,383.03 L726.20,392.31 L734.00,400.98 L741.80,408.77 L749.60,415.45 L757.40,420.86 L765.20,424.89 L773.00,427.46 L780.80,428.58 L788.60,428.30 L796.40,426.72 L804.20,424.00 L812.00,420.33 L819.80,415.91 L827.60,411.00 L835.40,405.83 L843.20,400.67 L851.00,395.75 L858.80,391.28 L866.60,387.46 L874.40,384.43 L882.20,382.31 L890.00,381.16"/><path d="M110.00,453.16 L117.80,453.55 L125.60,454.80 L133.40,456.87 L141.20,459.63 L149.00,462.92 L156.80,466.54 L164.60,470.26 L172.40,473.84 L180.20,477.03 L188.00,479.59 L195.80,481.31 L203.60,481.96 L211.40,481.40 L219.20,479.50 L227.00,476.18 L234.80,471.43 L242.60,465.28 L250.40,457.82 L258.20,449.21 L266.00,439.64 L273.80,429.35 L281.60,418.64 L289.40,407.80 L297.20,397.18 L305.00,387.11 L312.80,377.92 L320.60,369.93 L328.40,363.44 L336.20,358.69 L344.00,355.89 L351.80,355.18 L359.60,356.66 L367.40,360.33 L375.20,366.16 L383.00,374.02 L390.80,383.73 L398.60,395.03 L406.40,407.64 L414.20,421.19 L422.00,435.32 L429.80,449.60 L437.60,463.62 L445.40,476.97 L453.20,489.23 L461.00,500.05 L468.80,509.08 L476.60,516.03 L484.40,520.68 L492.20,522.88 L500.00,522.53 L507.80,519.62 L515.60,514.21 L523.40,506.45 L531.20,496.52 L539.00,484.71 L546.80,471.33 L554.60,456.74 L562.40,441.34 L570.20,425.54 L578.00,409.77 L585.80,394.45 L593.60,379.95 L601.40,366.66 L609.20,354.88 L617.00,344.90 L624.80,336.91 L632.60,331.06 L640.40,327.43 L648.20,326.02 L656.00,326.77 L663.80,329.55 L671.60,334.18 L679.40,340.41 L687.20,347.97 L695.00,356.55 L702.80,365.81 L710.60,375.42 L718.40,385.03 L726.20,394.31 L734.00,402.98 L741.80,410.77 L749.60,417.45 L757.40,422.86 L765.20,426.89 L773.00,429.46 L780.80,430.58 L788.60,430.30 L796.40,428.72 L804.20,426.00 L812.00,422.33 L819.80,417.91 L827.60,413.00 L835.40,407.83 L843.20,402.67 L851.00,397.75 L858.80,393.28 L866.60,389.46 L874.40,386.43 L882.20,384.31 L890.00,383.16"/><path d="M110.00,455.16 L117.80,455.55 L125.60,456.80 L133.40,458.87 L141.20,461.63 L149.00,464.92 L156.80,468.54 L164.60,472.26 L172.40,475.84 L180.20,479.03 L188.00,481.59 L195.80,483.31 L203.60,483.96 L211.40,483.40 L219.20,481.50 L227.00,478.18 L234.80,473.43 L242.60,467.28 L250.40,459.82 L258.20,451.21 L266.00,441.64 L273.80,431.35 L281.60,420.64 L289.40,409.80 L297.20,399.18 L305.00,389.11 L312.80,379.92 L320.60,371.93 L328.40,365.44 L336.20,360.69 L344.00,357.89 L351.80,357.18 L359.60,358.66 L367.40,362.33 L375.20,368.16 L383.00,376.02 L390.80,385.73 L398.60,397.03 L406.40,409.64 L414.20,423.19 L422.00,437.32 L429.80,451.60 L437.60,465.62 L445.40,478.97 L453.20,491.23 L461.00,502.05 L468.80,511.08 L476.60,518.03 L484.40,522.68 L492.20,524.88 L500.00,524.53 L507.80,521.62 L515.60,516.21 L523.40,508.45 L531.20,498.52 L539.00,486.71 L546.80,473.33 L554.60,458.74 L562.40,443.34 L570.20,427.54 L578.00,411.77 L585.80,396.45 L593.60,381.95 L601.40,368.66 L609.20,356.88 L617.00,346.90 L624.80,338.91 L632.60,333.06 L640.40,329.43 L648.20,328.02 L656.00,328.77 L663.80,331.55 L671.60,336.18 L679.40,342.41 L687.20,349.97 L695.00,358.55 L702.80,367.81 L710.60,377.42 L718.40,387.03 L726.20,396.31 L734.00,404.98 L741.80,412.77 L749.60,419.45 L757.40,424.86 L765.20,428.89 L773.00,431.46 L780.80,432.58 L788.60,432.30 L796.40,430.72 L804.20,428.00 L812.00,424.33 L819.80,419.91 L827.60,415.00 L835.40,409.83 L843.20,404.67 L851.00,399.75 L858.80,395.28 L866.60,391.46 L874.40,388.43 L882.20,386.31 L890.00,385.16"/><path d="M110.00,457.16 L117.80,457.55 L125.60,458.80 L133.40,460.87 L141.20,463.63 L149.00,466.92 L156.80,470.54 L164.60,474.26 L172.40,477.84 L180.20,481.03 L188.00,483.59 L195.80,485.31 L203.60,485.96 L211.40,485.40 L219.20,483.50 L227.00,480.18 L234.80,475.43 L242.60,469.28 L250.40,461.82 L258.20,453.21 L266.00,443.64 L273.80,433.35 L281.60,422.64 L289.40,411.80 L297.20,401.18 L305.00,391.11 L312.80,381.92 L320.60,373.93 L328.40,367.44 L336.20,362.69 L344.00,359.89 L351.80,359.18 L359.60,360.66 L367.40,364.33 L375.20,370.16 L383.00,378.02 L390.80,387.73 L398.60,399.03 L406.40,411.64 L414.20,425.19 L422.00,439.32 L429.80,453.60 L437.60,467.62 L445.40,480.97 L453.20,493.23 L461.00,504.05 L468.80,513.08 L476.60,520.03 L484.40,524.68 L492.20,526.88 L500.00,526.53 L507.80,523.62 L515.60,518.21 L523.40,510.45 L531.20,500.52 L539.00,488.71 L546.80,475.33 L554.60,460.74 L562.40,445.34 L570.20,429.54 L578.00,413.77 L585.80,398.45 L593.60,383.95 L601.40,370.66 L609.20,358.88 L617.00,348.90 L624.80,340.91 L632.60,335.06 L640.40,331.43 L648.20,330.02 L656.00,330.77 L663.80,333.55 L671.60,338.18 L679.40,344.41 L687.20,351.97 L695.00,360.55 L702.80,369.81 L710.60,379.42 L718.40,389.03 L726.20,398.31 L734.00,406.98 L741.80,414.77 L749.60,421.45 L757.40,426.86 L765.20,430.89 L773.00,433.46 L780.80,434.58 L788.60,434.30 L796.40,432.72 L804.20,430.00 L812.00,426.33 L819.80,421.91 L827.60,417.00 L835.40,411.83 L843.20,406.67 L851.00,401.75 L858.80,397.28 L866.60,393.46 L874.40,390.43 L882.20,388.31 L890.00,387.16"/><path d="M110.00,459.16 L117.80,459.55 L125.60,460.80 L133.40,462.87 L141.20,465.63 L149.00,468.92 L156.80,472.54 L164.60,476.26 L172.40,479.84 L180.20,483.03 L188.00,485.59 L195.80,487.31 L203.60,487.96 L211.40,487.40 L219.20,485.50 L227.00,482.18 L234.80,477.43 L242.60,471.28 L250.40,463.82 L258.20,455.21 L266.00,445.64 L273.80,435.35 L281.60,424.64 L289.40,413.80 L297.20,403.18 L305.00,393.11 L312.80,383.92 L320.60,375.93 L328.40,369.44 L336.20,364.69 L344.00,361.89 L351.80,361.18 L359.60,362.66 L367.40,366.33 L375.20,372.16 L383.00,380.02 L390.80,389.73 L398.60,401.03 L406.40,413.64 L414.20,427.19 L422.00,441.32 L429.80,455.60 L437.60,469.62 L445.40,482.97 L453.20,495.23 L461.00,506.05 L468.80,515.08 L476.60,522.03 L484.40,526.68 L492.20,528.88 L500.00,528.53 L507.80,525.62 L515.60,520.21 L523.40,512.45 L531.20,502.52 L539.00,490.71 L546.80,477.33 L554.60,462.74 L562.40,447.34 L570.20,431.54 L578.00,415.77 L585.80,400.45 L593.60,385.95 L601.40,372.66 L609.20,360.88 L617.00,350.90 L624.80,342.91 L632.60,337.06 L640.40,333.43 L648.20,332.02 L656.00,332.77 L663.80,335.55 L671.60,340.18 L679.40,346.41 L687.20,353.97 L695.00,362.55 L702.80,371.81 L710.60,381.42 L718.40,391.03 L726.20,400.31 L734.00,408.98 L741.80,416.77 L749.60,423.45 L757.40,428.86 L765.20,432.89 L773.00,435.46 L780.80,436.58 L788.60,436.30 L796.40,434.72 L804.20,432.00 L812.00,428.33 L819.80,423.91 L827.60,419.00 L835.40,413.83 L843.20,408.67 L851.00,403.75 L858.80,399.28 L866.60,395.46 L874.40,392.43 L882.20,390.31 L890.00,389.16"/><path d="M110.00,461.16 L117.80,461.55 L125.60,462.80 L133.40,464.87 L141.20,467.63 L149.00,470.92 L156.80,474.54 L164.60,478.26 L172.40,481.84 L180.20,485.03 L188.00,487.59 L195.80,489.31 L203.60,489.96 L211.40,489.40 L219.20,487.50 L227.00,484.18 L234.80,479.43 L242.60,473.28 L250.40,465.82 L258.20,457.21 L266.00,447.64 L273.80,437.35 L281.60,426.64 L289.40,415.80 L297.20,405.18 L305.00,395.11 L312.80,385.92 L320.60,377.93 L328.40,371.44 L336.20,366.69 L344.00,363.89 L351.80,363.18 L359.60,364.66 L367.40,368.33 L375.20,374.16 L383.00,382.02 L390.80,391.73 L398.60,403.03 L406.40,415.64 L414.20,429.19 L422.00,443.32 L429.80,457.60 L437.60,471.62 L445.40,484.97 L453.20,497.23 L461.00,508.05 L468.80,517.08 L476.60,524.03 L484.40,528.68 L492.20,530.88 L500.00,530.53 L507.80,527.62 L515.60,522.21 L523.40,514.45 L531.20,504.52 L539.00,492.71 L546.80,479.33 L554.60,464.74 L562.40,449.34 L570.20,433.54 L578.00,417.77 L585.80,402.45 L593.60,387.95 L601.40,374.66 L609.20,362.88 L617.00,352.90 L624.80,344.91 L632.60,339.06 L640.40,335.43 L648.20,334.02 L656.00,334.77 L663.80,337.55 L671.60,342.18 L679.40,348.41 L687.20,355.97 L695.00,364.55 L702.80,373.81 L710.60,383.42 L718.40,393.03 L726.20,402.31 L734.00,410.98 L741.80,418.77 L749.60,425.45 L757.40,430.86 L765.20,434.89 L773.00,437.46 L780.80,438.58 L788.60,438.30 L796.40,436.72 L804.20,434.00 L812.00,430.33 L819.80,425.91 L827.60,421.00 L835.40,415.83 L843.20,410.67 L851.00,405.75 L858.80,401.28 L866.60,397.46 L874.40,394.43 L882.20,392.31 L890.00,391.16"/><path d="M110.00,463.16 L117.80,463.55 L125.60,464.80 L133.40,466.87 L141.20,469.63 L149.00,472.92 L156.80,476.54 L164.60,480.26 L172.40,483.84 L180.20,487.03 L188.00,489.59 L195.80,491.31 L203.60,491.96 L211.40,491.40 L219.20,489.50 L227.00,486.18 L234.80,481.43 L242.60,475.28 L250.40,467.82 L258.20,459.21 L266.00,449.64 L273.80,439.35 L281.60,428.64 L289.40,417.80 L297.20,407.18 L305.00,397.11 L312.80,387.92 L320.60,379.93 L328.40,373.44 L336.20,368.69 L344.00,365.89 L351.80,365.18 L359.60,366.66 L367.40,370.33 L375.20,376.16 L383.00,384.02 L390.80,393.73 L398.60,405.03 L406.40,417.64 L414.20,431.19 L422.00,445.32 L429.80,459.60 L437.60,473.62 L445.40,486.97 L453.20,499.23 L461.00,510.05 L468.80,519.08 L476.60,526.03 L484.40,530.68 L492.20,532.88 L500.00,532.53 L507.80,529.62 L515.60,524.21 L523.40,516.45 L531.20,506.52 L539.00,494.71 L546.80,481.33 L554.60,466.74 L562.40,451.34 L570.20,435.54 L578.00,419.77 L585.80,404.45 L593.60,389.95 L601.40,376.66 L609.20,364.88 L617.00,354.90 L624.80,346.91 L632.60,341.06 L640.40,337.43 L648.20,336.02 L656.00,336.77 L663.80,339.55 L671.60,344.18 L679.40,350.41 L687.20,357.97 L695.00,366.55 L702.80,375.81 L710.60,385.42 L718.40,395.03 L726.20,404.31 L734.00,412.98 L741.80,420.77 L749.60,427.45 L757.40,432.86 L765.20,436.89 L773.00,439.46 L780.80,440.58 L788.60,440.30 L796.40,438.72 L804.20,436.00 L812.00,432.33 L819.80,427.91 L827.60,423.00 L835.40,417.83 L843.20,412.67 L851.00,407.75 L858.80,403.28 L866.60,399.46 L874.40,396.43 L882.20,394.31 L890.00,393.16"/><path d="M110.00,465.16 L117.80,465.55 L125.60,466.80 L133.40,468.87 L141.20,471.63 L149.00,474.92 L156.80,478.54 L164.60,482.26 L172.40,485.84 L180.20,489.03 L188.00,491.59 L195.80,493.31 L203.60,493.96 L211.40,493.40 L219.20,491.50 L227.00,488.18 L234.80,483.43 L242.60,477.28 L250.40,469.82 L258.20,461.21 L266.00,451.64 L273.80,441.35 L281.60,430.64 L289.40,419.80 L297.20,409.18 L305.00,399.11 L312.80,389.92 L320.60,381.93 L328.40,375.44 L336.20,370.69 L344.00,367.89 L351.80,367.18 L359.60,368.66 L367.40,372.33 L375.20,378.16 L383.00,386.02 L390.80,395.73 L398.60,407.03 L406.40,419.64 L414.20,433.19 L422.00,447.32 L429.80,461.60 L437.60,475.62 L445.40,488.97 L453.20,501.23 L461.00,512.05 L468.80,521.08 L476.60,528.03 L484.40,532.68 L492.20,534.88 L500.00,534.53 L507.80,531.62 L515.60,526.21 L523.40,518.45 L531.20,508.52 L539.00,496.71 L546.80,483.33 L554.60,468.74 L562.40,453.34 L570.20,437.54 L578.00,421.77 L585.80,406.45 L593.60,391.95 L601.40,378.66 L609.20,366.88 L617.00,356.90 L624.80,348.91 L632.60,343.06 L640.40,339.43 L648.20,338.02 L656.00,338.77 L663.80,341.55 L671.60,346.18 L679.40,352.41 L687.20,359.97 L695.00,368.55 L702.80,377.81 L710.60,387.42 L718.40,397.03 L726.20,406.31 L734.00,414.98 L741.80,422.77 L749.60,429.45 L757.40,434.86 L765.20,438.89 L773.00,441.46 L780.80,442.58 L788.60,442.30 L796.40,440.72 L804.20,438.00 L812.00,434.33 L819.80,429.91 L827.60,425.00 L835.40,419.83 L843.20,414.67 L851.00,409.75 L858.80,405.28 L866.60,401.46 L874.40,398.43 L882.20,396.31 L890.00,395.16"/><path d="M110.00,467.16 L117.80,467.55 L125.60,468.80 L133.40,470.87 L141.20,473.63 L149.00,476.92 L156.80,480.54 L164.60,484.26 L172.40,487.84 L180.20,491.03 L188.00,493.59 L195.80,495.31 L203.60,495.96 L211.40,495.40 L219.20,493.50 L227.00,490.18 L234.80,485.43 L242.60,479.28 L250.40,471.82 L258.20,463.21 L266.00,453.64 L273.80,443.35 L281.60,432.64 L289.40,421.80 L297.20,411.18 L305.00,401.11 L312.80,391.92 L320.60,383.93 L328.40,377.44 L336.20,372.69 L344.00,369.89 L351.80,369.18 L359.60,370.66 L367.40,374.33 L375.20,380.16 L383.00,388.02 L390.80,397.73 L398.60,409.03 L406.40,421.64 L414.20,435.19 L422.00,449.32 L429.80,463.60 L437.60,477.62 L445.40,490.97 L453.20,503.23 L461.00,514.05 L468.80,523.08 L476.60,530.03 L484.40,534.68 L492.20,536.88 L500.00,536.53 L507.80,533.62 L515.60,528.21 L523.40,520.45 L531.20,510.52 L539.00,498.71 L546.80,485.33 L554.60,470.74 L562.40,455.34 L570.20,439.54 L578.00,423.77 L585.80,408.45 L593.60,393.95 L601.40,380.66 L609.20,368.88 L617.00,358.90 L624.80,350.91 L632.60,345.06 L640.40,341.43 L648.20,340.02 L656.00,340.77 L663.80,343.55 L671.60,348.18 L679.40,354.41 L687.20,361.97 L695.00,370.55 L702.80,379.81 L710.60,389.42 L718.40,399.03 L726.20,408.31 L734.00,416.98 L741.80,424.77 L749.60,431.45 L757.40,436.86 L765.20,440.89 L773.00,443.46 L780.80,444.58 L788.60,444.30 L796.40,442.72 L804.20,440.00 L812.00,436.33 L819.80,431.91 L827.60,427.00 L835.40,421.83 L843.20,416.67 L851.00,411.75 L858.80,407.28 L866.60,403.46 L874.40,400.43 L882.20,398.31 L890.00,397.16"/><path d="M110.00,469.16 L117.80,469.55 L125.60,470.80 L133.40,472.87 L141.20,475.63 L149.00,478.92 L156.80,482.54 L164.60,486.26 L172.40,489.84 L180.20,493.03 L188.00,495.59 L195.80,497.31 L203.60,497.96 L211.40,497.40 L219.20,495.50 L227.00,492.18 L234.80,487.43 L242.60,481.28 L250.40,473.82 L258.20,465.21 L266.00,455.64 L273.80,445.35 L281.60,434.64 L289.40,423.80 L297.20,413.18 L305.00,403.11 L312.80,393.92 L320.60,385.93 L328.40,379.44 L336.20,374.69 L344.00,371.89 L351.80,371.18 L359.60,372.66 L367.40,376.33 L375.20,382.16 L383.00,390.02 L390.80,399.73 L398.60,411.03 L406.40,423.64 L414.20,437.19 L422.00,451.32 L429.80,465.60 L437.60,479.62 L445.40,492.97 L453.20,505.23 L461.00,516.05 L468.80,525.08 L476.60,532.03 L484.40,536.68 L492.20,538.88 L500.00,538.53 L507.80,535.62 L515.60,530.21 L523.40,522.45 L531.20,512.52 L539.00,500.71 L546.80,487.33 L554.60,472.74 L562.40,457.34 L570.20,441.54 L578.00,425.77 L585.80,410.45 L593.60,395.95 L601.40,382.66 L609.20,370.88 L617.00,360.90 L624.80,352.91 L632.60,347.06 L640.40,343.43 L648.20,342.02 L656.00,342.77 L663.80,345.55 L671.60,350.18 L679.40,356.41 L687.20,363.97 L695.00,372.55 L702.80,381.81 L710.60,391.42 L718.40,401.03 L726.20,410.31 L734.00,418.98 L741.80,426.77 L749.60,433.45 L757.40,438.86 L765.20,442.89 L773.00,445.46 L780.80,446.58 L788.60,446.30 L796.40,444.72 L804.20,442.00 L812.00,438.33 L819.80,433.91 L827.60,429.00 L835.40,423.83 L843.20,418.67 L851.00,413.75 L858.80,409.28 L866.60,405.46 L874.40,402.43 L882.20,400.31 L890.00,399.16"/></g></svg>